<svg xmlns="http://www.w3.org/2000/svg" width="64" height="64" viewBox="0 0 64 64">
  <g id="Grupo_159082" data-name="Grupo 159082" transform="translate(-285 -868)">
    <circle id="Elipse_4752" data-name="Elipse 4752" cx="32" cy="32" r="32" transform="translate(285 868)" fill="#cdfcfc"/>
    <g id="layer1" transform="translate(299.353 598.404)">
      <path id="path3912" d="M6.1,280.6a3.46,3.46,0,0,0-3.454,3.453v31.793A3.46,3.46,0,0,0,6.1,319.294a.691.691,0,1,0,0-1.382,2.074,2.074,0,1,1,0-4.148q12.785,0,25.567,0v3.459a.67.67,0,0,1-.688.688H17.155a.691.691,0,1,0,0,1.382H30.979a2.081,2.081,0,0,0,2.072-2.07V282.667a2.081,2.081,0,0,0-2.072-2.07Zm0,1.382H30.979a.67.67,0,0,1,.688.688v29.716H6.1a3.414,3.414,0,0,0-2.077.715V284.049A2.055,2.055,0,0,1,6.1,281.978Zm11.745,6.894a.69.69,0,0,0-.682.7v1.415c-2.33.153-3.091,1.324-4.836,1.35a2.733,2.733,0,0,1-1.589-.49.691.691,0,0,0-.973.98,3.54,3.54,0,0,0,1.548.775L8.93,298.969a.691.691,0,0,0-.055.281,4.086,4.086,0,0,0,.418,1.689,3.172,3.172,0,0,0,3.034,1.764,3.174,3.174,0,0,0,3.036-1.764,4.074,4.074,0,0,0,.417-1.689.685.685,0,0,0-.055-.281L13.341,293.6c1.413-.224,2.243-1.265,4.505-1.269v.005c2.271,0,3.1,1.044,4.516,1.269l-2.384,5.364a.686.686,0,0,0-.055.281,4.077,4.077,0,0,0,.417,1.689,3.174,3.174,0,0,0,3.036,1.764,3.172,3.172,0,0,0,3.034-1.764,4.086,4.086,0,0,0,.418-1.689.685.685,0,0,0-.055-.281l-2.385-5.368a3.54,3.54,0,0,0,1.548-.775.691.691,0,0,0-.973-.98,2.734,2.734,0,0,1-1.589.49c-1.745-.026-2.507-1.2-4.836-1.35v-1.414a.69.69,0,0,0-.682-.7v0s-.007,0-.011,0Zm.008,4.836a.663.663,0,0,0-.69.691v9.686h-2.8a.691.691,0,0,0,.032,1.382c2.308,0,4.6.005,6.908.005a.691.691,0,0,0,.032-1.382h-2.8v-9.686a.661.661,0,0,0-.682-.69v-.008Zm-5.527,1.02,1.7,3.825H10.631Zm11.049.005,1.7,3.825H21.678Zm-13,5.2h3.9a1.822,1.822,0,0,1-1.949,1.382,1.825,1.825,0,0,1-1.95-1.382Zm11.048.005h3.9a1.825,1.825,0,0,1-1.95,1.382,1.822,1.822,0,0,1-1.949-1.382ZM6.1,315.146a.692.692,0,0,0,0,1.384h7.6V319.7l-1.586-1.587a.691.691,0,0,0-.975,0L9.553,319.7v-1.1a.691.691,0,1,0-1.382,0v2.766a.691.691,0,0,0,1.184.49l2.276-2.276,2.274,2.276a.691.691,0,0,0,1.178-.49V316.53H29.6a.692.692,0,0,0,0-1.384Z"/>
    </g>
  </g>
</svg>
