<svg xmlns="http://www.w3.org/2000/svg" xmlns:xlink="http://www.w3.org/1999/xlink" width="64" height="64" viewBox="0 0 64 64">
  <defs>
    <clipPath id="clip-path">
      <rect id="Rectángulo_45627" data-name="Rectángulo 45627" width="38.423" height="38.42" fill="none"/>
    </clipPath>
  </defs>
  <g id="Grupo_159081" data-name="Grupo 159081" transform="translate(-285 -768)">
    <circle id="Elipse_4751" data-name="Elipse 4751" cx="32" cy="32" r="32" transform="translate(285 768)" fill="#cdfcfc"/>
    <g id="Grupo_159078" data-name="Grupo 159078" transform="translate(298 781)">
      <g id="Grupo_159077" data-name="Grupo 159077" clip-path="url(#clip-path)">
        <path id="Trazado_601202" data-name="Trazado 601202" d="M115.291,102.242H90.752a.75.75,0,0,1-.75-.75V69.749a.75.75,0,0,1,.75-.75h24.538a.75.75,0,0,1,.75.75v3.377a.75.75,0,0,1-1.5,0V70.5H91.5v30.241H114.54v-.653a.75.75,0,0,1,1.126-.65,3,3,0,1,0,2.685-5.359,14.794,14.794,0,0,1-3.537-2.156.75.75,0,0,1-.274-.58V79.892a.75.75,0,0,1,1.5,0V90.983a13.288,13.288,0,0,0,2.9,1.718,4.5,4.5,0,0,1-2.9,8.5v.292a.75.75,0,0,1-.75.75" transform="translate(-83.248 -63.821)"/>
        <path id="Trazado_601203" data-name="Trazado 601203" d="M417.713,160.584a.752.752,0,0,1-.147-.014.8.8,0,0,1-.14-.043.751.751,0,0,1-.406-.406.776.776,0,0,1-.043-.14.758.758,0,0,1-.014-.147.745.745,0,0,1,.014-.146.766.766,0,0,1,.112-.27.767.767,0,0,1,.094-.114.717.717,0,0,1,.114-.093.763.763,0,0,1,.129-.069.8.8,0,0,1,.14-.043.742.742,0,0,1,.293,0,.755.755,0,0,1,.14.043.738.738,0,0,1,.13.069.731.731,0,0,1,.207.207.766.766,0,0,1,.112.27.738.738,0,0,1,.015.146.752.752,0,0,1-.015.147.781.781,0,0,1-.043.14.762.762,0,0,1-.069.129.724.724,0,0,1-.093.114.767.767,0,0,1-.114.094.737.737,0,0,1-.13.069.754.754,0,0,1-.14.043.738.738,0,0,1-.146.014" transform="translate(-385.674 -147.146)"/>
        <path id="Trazado_601204" data-name="Trazado 601204" d="M138.632,126.508a8.63,8.63,0,1,1,8.63-8.63,8.639,8.639,0,0,1-8.63,8.63m0-15.758a7.129,7.129,0,1,0,7.129,7.129,7.137,7.137,0,0,0-7.129-7.129" transform="translate(-120.247 -101.051)"/>
        <path id="Trazado_601205" data-name="Trazado 601205" d="M322.44,314.942a4.513,4.513,0,0,1-4.137-2.729,13.325,13.325,0,0,0-2.417-3.732l-3.759-4.115a.75.75,0,0,1,.023-1.037l3.184-3.184a.75.75,0,0,1,1.037-.023l4.114,3.758a13.326,13.326,0,0,0,3.734,2.418,4.506,4.506,0,0,1-1.778,8.643m-8.721-11.058,3.275,3.584a14.824,14.824,0,0,1,2.688,4.151,3,3,0,1,0,3.944-3.942,14.827,14.827,0,0,1-4.154-2.69l-3.583-3.274Z" transform="translate(-288.523 -277.419)"/>
        <path id="Trazado_601206" data-name="Trazado 601206" d="M265.907,261.467h0a2.236,2.236,0,0,1-1.592-.66h0a2.254,2.254,0,0,1,0-3.184l5.307-5.306a2.251,2.251,0,1,1,3.183,3.183l-5.306,5.307a2.237,2.237,0,0,1-1.592.659m-.529-1.719a.745.745,0,0,0,.529.218h0a.745.745,0,0,0,.53-.22l5.307-5.307a.75.75,0,1,0-1.061-1.061l-5.307,5.306a.751.751,0,0,0,0,1.06Z" transform="translate(-243.872 -232.775)"/>
        <path id="Trazado_601207" data-name="Trazado 601207" d="M7.5,97.214a.75.75,0,0,1-.723-.553L.027,71.973a.75.75,0,0,1,.508-.917L7.289,69.03a.75.75,0,0,1,.966.719V96.463a.75.75,0,0,1-.651.744.759.759,0,0,1-.1.007M1.668,72.284,6.754,90.876V70.758Z" transform="translate(0 -63.821)"/>
        <path id="Trazado_601208" data-name="Trazado 601208" d="M109.137,6.678H90.752a.75.75,0,0,1-.22-1.468L107.416.033a.751.751,0,0,1,.941.509l1.5,5.178a.75.75,0,0,1-.721.959m-13.378-1.5h12.38l-1.011-3.487Z" transform="translate(-83.248 0)"/>
        <path id="Trazado_601209" data-name="Trazado 601209" d="M138.633,320.75h-7.879a.75.75,0,0,1,0-1.5h7.879a.75.75,0,0,1,0,1.5" transform="translate(-120.248 -295.293)"/>
        <path id="Trazado_601210" data-name="Trazado 601210" d="M142,363.5H130.753a.75.75,0,0,1,0-1.5H142a.75.75,0,1,1,0,1.5" transform="translate(-120.248 -334.835)"/>
        <path id="Trazado_601211" data-name="Trazado 601211" d="M148.482,403.5h-7.149a.75.75,0,0,1,0-1.5h7.149a.75.75,0,0,1,0,1.5m-10.526,0h-7.2a.75.75,0,0,1,0-1.5h7.2a.75.75,0,1,1,0,1.5" transform="translate(-120.247 -371.833)"/>
        <path id="Trazado_601212" data-name="Trazado 601212" d="M150.452,443.5h-19.7a.75.75,0,0,1,0-1.5h19.7a.75.75,0,0,1,0,1.5" transform="translate(-120.248 -408.831)"/>
        <path id="Trazado_601213" data-name="Trazado 601213" d="M166.3,120.5h-2.046a.75.75,0,0,1,0-1.5H166.3a.75.75,0,1,1,0,1.5" transform="translate(-151.234 -110.069)"/>
        <path id="Trazado_601214" data-name="Trazado 601214" d="M284.815,120.5h-4.822a.75.75,0,0,1,0-1.5h4.822a.75.75,0,0,1,0,1.5" transform="translate(-258.289 -110.069)"/>
      </g>
    </g>
  </g>
</svg>
