<svg xmlns="http://www.w3.org/2000/svg" width="64" height="64" viewBox="0 0 64 64">
  <g id="Grupo_159079" data-name="Grupo 159079" transform="translate(-285 -576)">
    <circle id="Elipse_4749" data-name="Elipse 4749" cx="32" cy="32" r="32" transform="translate(285 576)" fill="#cdfcfc"/>
    <g id="documentos-oficiales" transform="translate(297.987 588.782)">
      <ellipse id="Elipse_4757" data-name="Elipse 4757" cx="0.5" cy="1" rx="0.5" ry="1" transform="translate(15.231 23.218)"/>
      <path id="Trazado_601186" data-name="Trazado 601186" d="M40.013,126.731v2.925a.731.731,0,0,0,.731.731H61.875a.731.731,0,0,0,.731-.731v-2.925a.731.731,0,0,0-.731-.731H40.744A.731.731,0,0,0,40.013,126.731Zm7.75.731h13.38v1.462H47.763Zm-6.288,0H46.3v1.462H41.475Z" transform="translate(-37.075 -116.787)"/>
      <path id="Trazado_601187" data-name="Trazado 601187" d="M40.744,207.462H61.875a.731.731,0,1,0,0-1.462H40.744a.731.731,0,0,0,0,1.462Z" transform="translate(-37.075 -190.938)"/>
      <path id="Trazado_601188" data-name="Trazado 601188" d="M40.744,247.462H61.875a.731.731,0,1,0,0-1.462H40.744a.731.731,0,1,0,0,1.462Z" transform="translate(-37.075 -228.013)"/>
      <path id="Trazado_601189" data-name="Trazado 601189" d="M40.744,287.462H52.882a.731.731,0,0,0,0-1.462H40.744a.731.731,0,1,0,0,1.462Z" transform="translate(-37.075 -265.089)"/>
      <path id="Trazado_601190" data-name="Trazado 601190" d="M40.744,327.462h9.213a.731.731,0,1,0,0-1.462H40.744a.731.731,0,1,0,0,1.462Z" transform="translate(-37.075 -302.164)"/>
      <path id="Trazado_601191" data-name="Trazado 601191" d="M126.744,370.387h3.729a3.656,3.656,0,1,0,0-1.462h-3.729a.731.731,0,1,0,0,1.462Zm7.312-1.462h-2.068a2.194,2.194,0,1,1,0,1.462h2.068a.731.731,0,0,0,0-1.462Z" transform="translate(-116.787 -339.239)"/>
      <path id="Trazado_601192" data-name="Trazado 601192" d="M311.207,61.462a.731.731,0,0,0,0-1.462h-1.462a.731.731,0,0,0,0,1.462Z" transform="translate(-286.407 -55.613)"/>
      <path id="Trazado_601193" data-name="Trazado 601193" d="M251.207,61.462a.731.731,0,0,0,0-1.462h-1.462a.731.731,0,0,0,0,1.462Z" transform="translate(-230.794 -55.613)"/>
      <path id="Trazado_601194" data-name="Trazado 601194" d="M191.207,61.462a.731.731,0,0,0,0-1.462h-1.462a.731.731,0,0,0,0,1.462Z" transform="translate(-175.181 -55.613)"/>
      <ellipse id="Elipse_4758" data-name="Elipse 4758" cx="0.5" cy="1" rx="0.5" ry="1" transform="translate(14.231 35.218)"/>
      <path id="Trazado_601195" data-name="Trazado 601195" d="M.744,37.436h10.31a.731.731,0,0,0,0-1.462H1.475V7.312H6.594a.731.731,0,0,0,.731-.731V1.462H26.993V22.129c-.332.392-.641.737-.909,1.012l-1.55-1.55a3.653,3.653,0,0,0-5.17,0l-1.034,1.034a.731.731,0,0,0,0,1.034l8.664,8.664v3.651H17.634a.731.731,0,1,0,0,1.462h10.09a.731.731,0,0,0,.731-.731v-2.92L28.67,34A.731.731,0,0,0,29.7,34l1.034-1.034a3.654,3.654,0,0,0,0-5.17l-1.55-1.55a27.956,27.956,0,0,1,6.041-4.294,3.665,3.665,0,1,0-4.806-4.833,19.56,19.56,0,0,1-1.967,3.149V.731A.731.731,0,0,0,27.724,0H6.594a.739.739,0,0,0-.517.214L.227,6.063a.735.735,0,0,0-.214.517V36.7a.731.731,0,0,0,.731.731ZM29.7,28.829a2.193,2.193,0,0,1,0,3.1l-.517.517-9.306-9.306.517-.517a2.191,2.191,0,0,1,3.1,0ZM28.3,22.849a27.178,27.178,0,0,0,3.462-5.141,2.2,2.2,0,1,1,2.885,2.9,28.81,28.81,0,0,0-6.491,4.6l-1.036-1.036c.347-.355.752-.809,1.18-1.326ZM5.862,2.5V5.849H2.509Z"/>
    </g>
  </g>
</svg>
