<svg id="Grupo_159414" data-name="Grupo 159414" xmlns="http://www.w3.org/2000/svg" xmlns:xlink="http://www.w3.org/1999/xlink" width="594.773" height="761.047" viewBox="0 0 594.773 761.047">
  <defs>
    <clipPath id="clip-path">
      <rect id="Rect치ngulo_45867" data-name="Rect치ngulo 45867" width="439.694" height="285.127" fill="none"/>
    </clipPath>
  </defs>
  <path id="Trazado_601866" data-name="Trazado 601866" d="M0,0H594.773V760.236H0Z" fill="#fff"/>
  <path id="Trazado_602189" data-name="Trazado 602189" d="M-44.528-2.791H-49L-50,0h-1.45l4.072-10.664h1.23L-42.067,0H-43.51Zm-4.043-1.15h3.625l-1.816-4.988ZM-36.031-.784a2.878,2.878,0,0,1-2.322.93,2.464,2.464,0,0,1-1.93-.736,3.186,3.186,0,0,1-.67-2.179V-7.925H-39.6v5.12q0,1.8,1.465,1.8a2.028,2.028,0,0,0,2.065-1.157V-7.925h1.355V0H-36ZM-30-5.032l1.758-2.893h1.582l-2.593,3.918L-26.576,0h-1.567l-1.831-2.966L-31.805,0H-33.38l2.673-4.006L-33.3-7.925h1.567ZM-23.749,0H-25.1V-7.925h1.355Zm-1.465-10.027a.809.809,0,0,1,.2-.557.756.756,0,0,1,.6-.227.768.768,0,0,1,.6.227.8.8,0,0,1,.205.557.774.774,0,0,1-.205.549.782.782,0,0,1-.6.22.77.77,0,0,1-.6-.22A.782.782,0,0,1-25.214-10.027ZM-20.109,0h-1.355V-11.25h1.355Zm3.64,0h-1.355V-7.925h1.355Zm-1.465-10.027a.809.809,0,0,1,.2-.557.756.756,0,0,1,.6-.227.768.768,0,0,1,.6.227.8.8,0,0,1,.205.557.774.774,0,0,1-.205.549.782.782,0,0,1-.6.22.77.77,0,0,1-.6-.22A.782.782,0,0,1-17.933-10.027ZM-9.408,0A2.846,2.846,0,0,1-9.6-.835a3.023,3.023,0,0,1-2.256.981,2.8,2.8,0,0,1-1.923-.663A2.145,2.145,0,0,1-14.528-2.2a2.24,2.24,0,0,1,.941-1.923A4.437,4.437,0,0,1-10.939-4.8H-9.62v-.623a1.522,1.522,0,0,0-.425-1.132A1.707,1.707,0,0,0-11.3-6.98a1.976,1.976,0,0,0-1.216.366A1.079,1.079,0,0,0-13-5.728h-1.362a1.87,1.87,0,0,1,.421-1.146A2.874,2.874,0,0,1-12.8-7.749a3.844,3.844,0,0,1,1.586-.322,3.133,3.133,0,0,1,2.146.685A2.47,2.47,0,0,1-8.265-5.5v3.647A4.459,4.459,0,0,0-7.987-.117V0Zm-2.249-1.033a2.381,2.381,0,0,0,1.208-.33,1.994,1.994,0,0,0,.828-.857V-3.845h-1.062q-2.49,0-2.49,1.458a1.234,1.234,0,0,0,.425,1A1.633,1.633,0,0,0-11.656-1.033Zm9.346-5.676a4.061,4.061,0,0,0-.667-.051A1.786,1.786,0,0,0-4.786-5.625V0H-6.141V-7.925h1.318l.022.916a2.11,2.11,0,0,1,1.89-1.062,1.384,1.384,0,0,1,.6.1ZM2.084.146A3.463,3.463,0,0,1-.538-.912,3.928,3.928,0,0,1-1.549-3.743v-.249A4.756,4.756,0,0,1-1.1-6.1a3.514,3.514,0,0,1,1.26-1.45,3.167,3.167,0,0,1,1.754-.524,2.968,2.968,0,0,1,2.4,1.018,4.408,4.408,0,0,1,.857,2.915v.564H-.194A2.817,2.817,0,0,0,.491-1.681a2.153,2.153,0,0,0,1.666.721,2.36,2.36,0,0,0,1.216-.293,3.055,3.055,0,0,0,.872-.776l.828.645A3.328,3.328,0,0,1,2.084.146Zm-.168-7.1a1.807,1.807,0,0,0-1.377.6A2.9,2.9,0,0,0-.15-4.687H3.82v-.1a2.581,2.581,0,0,0-.557-1.6A1.7,1.7,0,0,0,1.915-6.958ZM11.356-2.1a1,1,0,0,0-.414-.853A3.983,3.983,0,0,0,9.5-3.479a6.822,6.822,0,0,1-1.633-.527,2.324,2.324,0,0,1-.894-.732A1.752,1.752,0,0,1,6.683-5.75,2.056,2.056,0,0,1,7.507-7.4a3.218,3.218,0,0,1,2.106-.674,3.311,3.311,0,0,1,2.186.7,2.21,2.21,0,0,1,.839,1.78H11.276a1.223,1.223,0,0,0-.472-.959,1.77,1.77,0,0,0-1.19-.4,1.852,1.852,0,0,0-1.157.322,1.014,1.014,0,0,0-.417.842.822.822,0,0,0,.388.74,4.776,4.776,0,0,0,1.4.476,7.308,7.308,0,0,1,1.644.542,2.4,2.4,0,0,1,.934.758,1.864,1.864,0,0,1,.3,1.08,2.028,2.028,0,0,1-.85,1.7,3.564,3.564,0,0,1-2.2.641A3.991,3.991,0,0,1,7.972-.19a2.74,2.74,0,0,1-1.146-.941,2.268,2.268,0,0,1-.414-1.307H7.767a1.4,1.4,0,0,0,.546,1.08,2.117,2.117,0,0,0,1.344.4,2.185,2.185,0,0,0,1.234-.311A.956.956,0,0,0,11.356-2.1Zm8.665-3.889h1.018A2.238,2.238,0,0,0,22.548-6.5,1.688,1.688,0,0,0,23.1-7.822,1.654,1.654,0,0,0,21.229-9.7a1.943,1.943,0,0,0-1.4.5A1.756,1.756,0,0,0,19.3-7.866H17.948a2.72,2.72,0,0,1,.927-2.106,3.375,3.375,0,0,1,2.355-.839,3.335,3.335,0,0,1,2.366.8,2.884,2.884,0,0,1,.857,2.219A2.341,2.341,0,0,1,24-6.445a2.72,2.72,0,0,1-1.227.974,2.621,2.621,0,0,1,1.359.923,2.563,2.563,0,0,1,.48,1.575A2.909,2.909,0,0,1,23.676-.7a3.511,3.511,0,0,1-2.439.842,3.6,3.6,0,0,1-2.443-.813,2.7,2.7,0,0,1-.941-2.146h1.362a1.743,1.743,0,0,0,.549,1.348,2.089,2.089,0,0,0,1.472.505,2.05,2.05,0,0,0,1.5-.513,1.976,1.976,0,0,0,.52-1.472,1.793,1.793,0,0,0-.571-1.428,2.489,2.489,0,0,0-1.648-.513H20.021Zm6.548,8.115L25.8,1.6a3.534,3.534,0,0,0,.718-1.978V-1.6h1.326V-.542A3.336,3.336,0,0,1,27.48.938,3.464,3.464,0,0,1,26.569,2.124Zm8.569-5.706h1.479v1.106H35.138V0H33.776V-2.476H28.92v-.8l4.775-7.39h1.443Zm-4.68,0h3.318V-8.811l-.161.293ZM41.437-8.613a2.164,2.164,0,0,1,.612-1.582,2.107,2.107,0,0,1,1.571-.623,2.094,2.094,0,0,1,1.578.626,2.239,2.239,0,0,1,.6,1.622v.52a2.136,2.136,0,0,1-.612,1.578,2.108,2.108,0,0,1-1.556.612,2.155,2.155,0,0,1-1.575-.612,2.181,2.181,0,0,1-.623-1.63Zm1.011.561a1.386,1.386,0,0,0,.322.943,1.087,1.087,0,0,0,.864.371,1.066,1.066,0,0,0,.839-.36,1.431,1.431,0,0,0,.319-.984v-.536a1.421,1.421,0,0,0-.315-.947,1.061,1.061,0,0,0-.857-.374,1.061,1.061,0,0,0-.857.374,1.465,1.465,0,0,0-.315.976ZM46.63-2.615a2.151,2.151,0,0,1,.612-1.578,2.113,2.113,0,0,1,1.571-.619,2.132,2.132,0,0,1,1.575.615A2.208,2.208,0,0,1,51-2.563v.52a2.151,2.151,0,0,1-.612,1.578,2.1,2.1,0,0,1-1.564.619,2.155,2.155,0,0,1-1.575-.612,2.181,2.181,0,0,1-.623-1.63Zm1.011.568a1.4,1.4,0,0,0,.322.951,1.087,1.087,0,0,0,.864.371,1.059,1.059,0,0,0,.842-.363,1.456,1.456,0,0,0,.315-.987v-.543a1.393,1.393,0,0,0-.319-.947,1.073,1.073,0,0,0-.853-.367,1.084,1.084,0,0,0-.846.363,1.413,1.413,0,0,0-.326.98Zm-3.7,1.241-.769-.483L48.38-9.624l.769.483Z" transform="translate(319.249 403.086)" fill="#12263f"/>
  <path id="Trazado_602190" data-name="Trazado 602190" d="M-62.531-4.314h-2.5V0h-1.414V-10.664h3.53a4.178,4.178,0,0,1,2.772.82,2.951,2.951,0,0,1,.97,2.388,2.871,2.871,0,0,1-.538,1.736,3.214,3.214,0,0,1-1.5,1.106l2.5,4.526V0h-1.509Zm-2.5-1.15h2.161a2.437,2.437,0,0,0,1.666-.543A1.836,1.836,0,0,0-60.59-7.46a1.933,1.933,0,0,0-.59-1.519,2.5,2.5,0,0,0-1.7-.536h-2.153ZM-54.13.146A3.463,3.463,0,0,1-56.752-.912a3.928,3.928,0,0,1-1.011-2.831v-.249a4.756,4.756,0,0,1,.45-2.106,3.514,3.514,0,0,1,1.26-1.45A3.167,3.167,0,0,1-54.3-8.071a2.968,2.968,0,0,1,2.4,1.018,4.408,4.408,0,0,1,.857,2.915v.564h-5.369a2.817,2.817,0,0,0,.685,1.893,2.153,2.153,0,0,0,1.666.721,2.36,2.36,0,0,0,1.216-.293,3.055,3.055,0,0,0,.872-.776l.828.645A3.328,3.328,0,0,1-54.13.146Zm-.168-7.1a1.807,1.807,0,0,0-1.377.6,2.9,2.9,0,0,0-.688,1.674h3.97v-.1a2.581,2.581,0,0,0-.557-1.6A1.7,1.7,0,0,0-54.3-6.958ZM-48.8,0V-6.877h-1.252V-7.925H-48.8v-.813a2.7,2.7,0,0,1,.681-1.97,2.573,2.573,0,0,1,1.926-.7,3.578,3.578,0,0,1,.93.124l-.073,1.092a3.892,3.892,0,0,0-.732-.066,1.322,1.322,0,0,0-1.018.386,1.564,1.564,0,0,0-.359,1.106v.838h1.692v1.047H-47.45V0Zm8.372-6.709A4.061,4.061,0,0,0-41.1-6.76a1.786,1.786,0,0,0-1.809,1.135V0h-1.355V-7.925h1.318l.022.916a2.11,2.11,0,0,1,1.89-1.062,1.384,1.384,0,0,1,.6.1ZM-37.716,0h-1.355V-7.925h1.355Zm-1.465-10.027a.809.809,0,0,1,.2-.557.756.756,0,0,1,.6-.227.768.768,0,0,1,.6.227.8.8,0,0,1,.205.557.774.774,0,0,1-.205.549.782.782,0,0,1-.6.22.77.77,0,0,1-.6-.22A.782.782,0,0,1-39.181-10.027Zm3.311,6a4.658,4.658,0,0,1,.857-2.948,2.741,2.741,0,0,1,2.271-1.095A2.726,2.726,0,0,1-30.48-7.046l.066-.879h1.238V-.19a3.224,3.224,0,0,1-.912,2.424,3.365,3.365,0,0,1-2.45.886,4.076,4.076,0,0,1-1.677-.366,2.887,2.887,0,0,1-1.252-1l.7-.813a2.65,2.65,0,0,0,2.131,1.077,2.076,2.076,0,0,0,1.542-.557A2.128,2.128,0,0,0-30.538-.11V-.791a2.785,2.785,0,0,1-2.219.938A2.707,2.707,0,0,1-35.01-.974,4.9,4.9,0,0,1-35.87-4.028Zm1.362.154a3.553,3.553,0,0,0,.549,2.106A1.785,1.785,0,0,0-32.421-1a1.985,1.985,0,0,0,1.882-1.165V-5.786a2.008,2.008,0,0,0-1.868-1.135,1.8,1.8,0,0,0-1.545.769A3.87,3.87,0,0,0-34.508-3.875ZM-23.844.146A3.463,3.463,0,0,1-26.466-.912a3.928,3.928,0,0,1-1.011-2.831v-.249a4.756,4.756,0,0,1,.45-2.106,3.514,3.514,0,0,1,1.26-1.45,3.167,3.167,0,0,1,1.754-.524,2.968,2.968,0,0,1,2.4,1.018,4.408,4.408,0,0,1,.857,2.915v.564h-5.369a2.817,2.817,0,0,0,.685,1.893,2.153,2.153,0,0,0,1.666.721,2.36,2.36,0,0,0,1.216-.293,3.055,3.055,0,0,0,.872-.776l.828.645A3.328,3.328,0,0,1-23.844.146Zm-.168-7.1a1.807,1.807,0,0,0-1.377.6,2.9,2.9,0,0,0-.688,1.674h3.97v-.1a2.581,2.581,0,0,0-.557-1.6A1.7,1.7,0,0,0-24.012-6.958Zm8.657.249a4.061,4.061,0,0,0-.667-.051,1.786,1.786,0,0,0-1.809,1.135V0h-1.355V-7.925h1.318l.022.916a2.11,2.11,0,0,1,1.89-1.062,1.384,1.384,0,0,1,.6.1ZM-9.51,0A2.846,2.846,0,0,1-9.7-.835a3.023,3.023,0,0,1-2.256.981,2.8,2.8,0,0,1-1.923-.663A2.145,2.145,0,0,1-14.63-2.2a2.24,2.24,0,0,1,.941-1.923A4.437,4.437,0,0,1-11.041-4.8h1.318v-.623a1.522,1.522,0,0,0-.425-1.132A1.707,1.707,0,0,0-11.4-6.98a1.976,1.976,0,0,0-1.216.366,1.079,1.079,0,0,0-.491.886h-1.362a1.87,1.87,0,0,1,.421-1.146,2.874,2.874,0,0,1,1.143-.875,3.844,3.844,0,0,1,1.586-.322,3.133,3.133,0,0,1,2.146.685A2.47,2.47,0,0,1-8.368-5.5v3.647A4.459,4.459,0,0,0-8.09-.117V0Zm-2.249-1.033a2.381,2.381,0,0,0,1.208-.33,1.994,1.994,0,0,0,.828-.857V-3.845h-1.062q-2.49,0-2.49,1.458a1.234,1.234,0,0,0,.425,1A1.633,1.633,0,0,0-11.759-1.033Zm8.694.073A1.952,1.952,0,0,0-1.8-1.4a1.546,1.546,0,0,0,.6-1.1H.084A2.457,2.457,0,0,1-.385-1.2,3.087,3.087,0,0,1-1.538-.22,3.329,3.329,0,0,1-3.065.146,3.265,3.265,0,0,1-5.64-.934,4.3,4.3,0,0,1-6.6-3.889v-.227a4.771,4.771,0,0,1,.425-2.058,3.236,3.236,0,0,1,1.219-1.4,3.464,3.464,0,0,1,1.879-.5,3.178,3.178,0,0,1,2.216.8A2.853,2.853,0,0,1,.084-5.2H-1.2A1.867,1.867,0,0,0-1.78-6.464a1.811,1.811,0,0,0-1.293-.494,1.9,1.9,0,0,0-1.6.743,3.491,3.491,0,0,0-.568,2.15v.256A3.422,3.422,0,0,0-4.677-1.7,1.906,1.906,0,0,0-3.065-.959ZM3.08,0H1.725V-7.925H3.08ZM1.615-10.027a.809.809,0,0,1,.2-.557.756.756,0,0,1,.6-.227.768.768,0,0,1,.6.227.8.8,0,0,1,.205.557.774.774,0,0,1-.205.549.782.782,0,0,1-.6.22.77.77,0,0,1-.6-.22A.782.782,0,0,1,1.615-10.027ZM4.889-4.036A4.681,4.681,0,0,1,5.347-6.13,3.415,3.415,0,0,1,6.621-7.566a3.469,3.469,0,0,1,1.864-.505A3.342,3.342,0,0,1,11.1-6.951a4.311,4.311,0,0,1,1,2.981v.1A4.722,4.722,0,0,1,11.66-1.8,3.365,3.365,0,0,1,10.393-.366,3.509,3.509,0,0,1,8.5.146,3.334,3.334,0,0,1,5.889-.974a4.29,4.29,0,0,1-1-2.966Zm1.362.161a3.39,3.39,0,0,0,.612,2.117,1.957,1.957,0,0,0,1.637.8,1.945,1.945,0,0,0,1.641-.809,3.707,3.707,0,0,0,.608-2.267,3.384,3.384,0,0,0-.619-2.113,1.968,1.968,0,0,0-1.644-.809,1.946,1.946,0,0,0-1.619.8A3.68,3.68,0,0,0,6.251-3.875ZM9.1-11.25h1.641L8.778-9.1l-1.091,0Zm5.984,3.325.044,1A2.888,2.888,0,0,1,17.5-8.071q2.512,0,2.534,2.834V0H18.68V-5.244a1.824,1.824,0,0,0-.392-1.267,1.57,1.57,0,0,0-1.2-.41,1.956,1.956,0,0,0-1.157.352,2.387,2.387,0,0,0-.776.923V0H13.8V-7.925ZM26.276-5.347l.542-5.317h5.464v1.252H27.968L27.645-6.5a3.441,3.441,0,0,1,1.78-.461A2.942,2.942,0,0,1,31.74-6,3.775,3.775,0,0,1,32.6-3.4a3.643,3.643,0,0,1-.89,2.6A3.243,3.243,0,0,1,29.22.146a3.371,3.371,0,0,1-2.307-.784,3.128,3.128,0,0,1-1.018-2.168h1.282a2.152,2.152,0,0,0,.652,1.381,2.027,2.027,0,0,0,1.392.465A1.828,1.828,0,0,0,30.7-1.6a2.694,2.694,0,0,0,.538-1.78A2.473,2.473,0,0,0,30.659-5.1,1.981,1.981,0,0,0,29.11-5.75a2.234,2.234,0,0,0-1.392.388l-.359.293Zm9.771-.645h1.018A2.238,2.238,0,0,0,38.573-6.5a1.688,1.688,0,0,0,.549-1.326A1.654,1.654,0,0,0,37.255-9.7a1.943,1.943,0,0,0-1.4.5,1.756,1.756,0,0,0-.524,1.329H33.973A2.72,2.72,0,0,1,34.9-9.972a3.375,3.375,0,0,1,2.355-.839,3.335,3.335,0,0,1,2.366.8,2.884,2.884,0,0,1,.857,2.219,2.341,2.341,0,0,1-.45,1.348,2.72,2.72,0,0,1-1.227.974,2.621,2.621,0,0,1,1.359.923,2.563,2.563,0,0,1,.48,1.575A2.909,2.909,0,0,1,39.7-.7a3.511,3.511,0,0,1-2.439.842,3.6,3.6,0,0,1-2.443-.813,2.7,2.7,0,0,1-.941-2.146H35.24a1.743,1.743,0,0,0,.549,1.348,2.089,2.089,0,0,0,1.472.505,2.05,2.05,0,0,0,1.5-.513,1.976,1.976,0,0,0,.52-1.472,1.793,1.793,0,0,0-.571-1.428,2.489,2.489,0,0,0-1.648-.513H36.046Zm6.548,8.115L41.825,1.6a3.534,3.534,0,0,0,.718-1.978V-1.6h1.326V-.542A3.336,3.336,0,0,1,43.506.938,3.464,3.464,0,0,1,42.594,2.124ZM52.13-4.548a6.2,6.2,0,0,1-.813,3.538A2.891,2.891,0,0,1,48.776.146,2.912,2.912,0,0,1,46.249-.985a5.882,5.882,0,0,1-.85-3.38V-6.174a6.059,6.059,0,0,1,.813-3.494,2.914,2.914,0,0,1,2.549-1.143,2.94,2.94,0,0,1,2.534,1.1,5.847,5.847,0,0,1,.835,3.4ZM50.775-6.4a4.965,4.965,0,0,0-.483-2.509A1.664,1.664,0,0,0,48.761-9.7a1.642,1.642,0,0,0-1.516.784,4.848,4.848,0,0,0-.491,2.41v2.168a5.045,5.045,0,0,0,.5,2.552,1.661,1.661,0,0,0,1.52.824,1.638,1.638,0,0,0,1.49-.776,4.862,4.862,0,0,0,.509-2.446Zm6.687-2.212a2.164,2.164,0,0,1,.612-1.582,2.107,2.107,0,0,1,1.571-.623,2.094,2.094,0,0,1,1.578.626,2.239,2.239,0,0,1,.6,1.622v.52a2.136,2.136,0,0,1-.612,1.578,2.108,2.108,0,0,1-1.556.612,2.155,2.155,0,0,1-1.575-.612,2.181,2.181,0,0,1-.623-1.63Zm1.011.561a1.386,1.386,0,0,0,.322.943,1.087,1.087,0,0,0,.864.371A1.066,1.066,0,0,0,60.5-7.1a1.431,1.431,0,0,0,.319-.984v-.536a1.421,1.421,0,0,0-.315-.947,1.061,1.061,0,0,0-.857-.374,1.061,1.061,0,0,0-.857.374,1.465,1.465,0,0,0-.315.976Zm4.182,5.438a2.151,2.151,0,0,1,.612-1.578,2.113,2.113,0,0,1,1.571-.619,2.132,2.132,0,0,1,1.575.615,2.208,2.208,0,0,1,.615,1.633v.52a2.151,2.151,0,0,1-.612,1.578,2.1,2.1,0,0,1-1.564.619,2.155,2.155,0,0,1-1.575-.612,2.181,2.181,0,0,1-.623-1.63Zm1.011.568a1.4,1.4,0,0,0,.322.951,1.087,1.087,0,0,0,.864.371,1.059,1.059,0,0,0,.842-.363,1.456,1.456,0,0,0,.315-.987v-.543a1.393,1.393,0,0,0-.319-.947,1.073,1.073,0,0,0-.853-.367,1.084,1.084,0,0,0-.846.363,1.413,1.413,0,0,0-.326.98Zm-3.7,1.241L59.2-1.289l5.208-8.335.769.483Z" transform="translate(158.463 417.047)" fill="#12263f"/>
  <path id="Trazado_602191" data-name="Trazado 602191" d="M149,0c82.29,0,149,31.34,149,70s-66.71,70-149,70S0,108.66,0,70,66.71,0,149,0Z" transform="translate(290.463 232.047)" fill="#e4daf7" opacity="0.46"/>
  <path id="Trazado_602192" data-name="Trazado 602192" d="M5.149-4.314h-2.5V0H1.23V-10.664h3.53a4.178,4.178,0,0,1,2.772.82A2.951,2.951,0,0,1,8.5-7.456,2.871,2.871,0,0,1,7.965-5.72a3.214,3.214,0,0,1-1.5,1.106l2.5,4.526V0H7.463Zm-2.5-1.15H4.8a2.437,2.437,0,0,0,1.666-.543A1.836,1.836,0,0,0,7.09-7.46,1.933,1.933,0,0,0,6.5-8.979a2.5,2.5,0,0,0-1.7-.536H2.644ZM13.55.146A3.463,3.463,0,0,1,10.928-.912,3.928,3.928,0,0,1,9.917-3.743v-.249a4.756,4.756,0,0,1,.45-2.106,3.514,3.514,0,0,1,1.26-1.45,3.167,3.167,0,0,1,1.754-.524,2.968,2.968,0,0,1,2.4,1.018,4.408,4.408,0,0,1,.857,2.915v.564H11.272a2.817,2.817,0,0,0,.685,1.893,2.153,2.153,0,0,0,1.666.721,2.36,2.36,0,0,0,1.216-.293,3.055,3.055,0,0,0,.872-.776l.828.645A3.328,3.328,0,0,1,13.55.146Zm-.168-7.1a1.807,1.807,0,0,0-1.377.6,2.9,2.9,0,0,0-.688,1.674h3.97v-.1a2.581,2.581,0,0,0-.557-1.6A1.7,1.7,0,0,0,13.381-6.958Zm6.108-.967.044,1a2.888,2.888,0,0,1,2.373-1.143q2.512,0,2.534,2.834V0H23.086V-5.244a1.824,1.824,0,0,0-.392-1.267,1.57,1.57,0,0,0-1.2-.41,1.956,1.956,0,0,0-1.157.352,2.387,2.387,0,0,0-.776.923V0H18.208V-7.925Zm6.665,3.9a4.642,4.642,0,0,1,.864-2.933,2.733,2.733,0,0,1,2.263-1.11,2.748,2.748,0,0,1,2.2.952V-11.25h1.355V0H31.6l-.066-.85a2.759,2.759,0,0,1-2.263,1A2.707,2.707,0,0,1,27.023-.981a4.7,4.7,0,0,1-.868-2.944Zm1.355.154a3.515,3.515,0,0,0,.557,2.109A1.8,1.8,0,0,0,29.6-1a1.977,1.977,0,0,0,1.882-1.157V-5.8a1.992,1.992,0,0,0-1.868-1.121,1.808,1.808,0,0,0-1.553.769A3.87,3.87,0,0,0,27.51-3.875ZM36.416,0H35.061V-7.925h1.355ZM34.951-10.027a.809.809,0,0,1,.2-.557.756.756,0,0,1,.6-.227.768.768,0,0,1,.6.227.8.8,0,0,1,.205.557.774.774,0,0,1-.205.549.782.782,0,0,1-.6.22.77.77,0,0,1-.6-.22A.782.782,0,0,1,34.951-10.027Zm4.907,2.1.037.879a2.927,2.927,0,0,1,2.351-1.025A2.266,2.266,0,0,1,44.509-6.8a3,3,0,0,1,1.029-.923,3.039,3.039,0,0,1,1.5-.352q2.607,0,2.651,2.761V0H48.333V-5.229A1.82,1.82,0,0,0,47.944-6.5a1.71,1.71,0,0,0-1.3-.421,1.8,1.8,0,0,0-1.252.45,1.827,1.827,0,0,0-.579,1.212V0H43.447V-5.193a1.512,1.512,0,0,0-1.692-1.729,1.813,1.813,0,0,0-1.824,1.135V0H38.577V-7.925ZM53.2,0H51.848V-7.925H53.2ZM51.738-10.027a.809.809,0,0,1,.2-.557.756.756,0,0,1,.6-.227.768.768,0,0,1,.6.227.8.8,0,0,1,.205.557.774.774,0,0,1-.205.549.782.782,0,0,1-.6.22.77.77,0,0,1-.6-.22A.782.782,0,0,1,51.738-10.027ZM58.66.146A3.463,3.463,0,0,1,56.038-.912a3.928,3.928,0,0,1-1.011-2.831v-.249a4.756,4.756,0,0,1,.45-2.106,3.514,3.514,0,0,1,1.26-1.45,3.167,3.167,0,0,1,1.754-.524,2.968,2.968,0,0,1,2.4,1.018,4.408,4.408,0,0,1,.857,2.915v.564H56.382a2.817,2.817,0,0,0,.685,1.893,2.153,2.153,0,0,0,1.666.721,2.36,2.36,0,0,0,1.216-.293,3.055,3.055,0,0,0,.872-.776l.828.645A3.328,3.328,0,0,1,58.66.146Zm-.168-7.1a1.807,1.807,0,0,0-1.377.6,2.9,2.9,0,0,0-.688,1.674H60.4v-.1a2.581,2.581,0,0,0-.557-1.6A1.7,1.7,0,0,0,58.491-6.958ZM64.6-7.925l.044,1a2.888,2.888,0,0,1,2.373-1.143q2.512,0,2.534,2.834V0H68.2V-5.244A1.824,1.824,0,0,0,67.8-6.511a1.57,1.57,0,0,0-1.2-.41,1.956,1.956,0,0,0-1.157.352,2.387,2.387,0,0,0-.776.923V0H63.318V-7.925Zm8.833-1.919v1.919h1.479v1.047H73.433v4.921a1.1,1.1,0,0,0,.2.715A.832.832,0,0,0,74.3-1a3.281,3.281,0,0,0,.645-.088V0a3.951,3.951,0,0,1-1.04.146A1.687,1.687,0,0,1,72.539-.4a2.36,2.36,0,0,1-.461-1.56V-6.877H70.635V-7.925h1.443V-9.844Zm2.556,5.808a4.681,4.681,0,0,1,.458-2.095,3.415,3.415,0,0,1,1.274-1.436,3.469,3.469,0,0,1,1.864-.505A3.342,3.342,0,0,1,82.2-6.951a4.311,4.311,0,0,1,1,2.981v.1A4.722,4.722,0,0,1,82.76-1.8,3.365,3.365,0,0,1,81.493-.366,3.509,3.509,0,0,1,79.6.146,3.334,3.334,0,0,1,76.989-.974a4.29,4.29,0,0,1-1-2.966Zm1.362.161a3.39,3.39,0,0,0,.612,2.117,1.957,1.957,0,0,0,1.637.8,1.945,1.945,0,0,0,1.641-.809,3.707,3.707,0,0,0,.608-2.267,3.384,3.384,0,0,0-.619-2.113,1.968,1.968,0,0,0-1.644-.809,1.946,1.946,0,0,0-1.619.8A3.68,3.68,0,0,0,77.351-3.875ZM9.434,19H8.02L2.651,10.782V19H1.238V8.336H2.651L8.035,16.59V8.336h1.4Zm5.574.146a3.463,3.463,0,0,1-2.622-1.058,3.928,3.928,0,0,1-1.011-2.831v-.249a4.756,4.756,0,0,1,.45-2.106,3.514,3.514,0,0,1,1.26-1.45,3.167,3.167,0,0,1,1.754-.524,2.968,2.968,0,0,1,2.4,1.018,4.408,4.408,0,0,1,.857,2.915v.564H12.729a2.817,2.817,0,0,0,.685,1.893,2.153,2.153,0,0,0,1.666.721,2.36,2.36,0,0,0,1.216-.293,3.055,3.055,0,0,0,.872-.776l.828.645A3.328,3.328,0,0,1,15.007,19.146Zm-.168-7.1a1.807,1.807,0,0,0-1.377.6,2.9,2.9,0,0,0-.688,1.674h3.97v-.1a2.581,2.581,0,0,0-.557-1.6A1.7,1.7,0,0,0,14.839,12.042ZM21.5,9.156v1.919h1.479v1.047H21.5v4.921a1.1,1.1,0,0,0,.2.715.832.832,0,0,0,.674.238,3.281,3.281,0,0,0,.645-.088V19a3.951,3.951,0,0,1-1.04.146,1.687,1.687,0,0,1-1.37-.549,2.36,2.36,0,0,1-.461-1.56V12.123H18.706V11.075h1.443V9.156Zm2.556,5.808a4.681,4.681,0,0,1,.458-2.095,3.415,3.415,0,0,1,1.274-1.436,3.469,3.469,0,0,1,1.864-.505,3.342,3.342,0,0,1,2.618,1.121,4.311,4.311,0,0,1,1,2.981v.1a4.722,4.722,0,0,1-.443,2.076,3.365,3.365,0,0,1-1.267,1.432,3.509,3.509,0,0,1-1.893.513,3.334,3.334,0,0,1-2.611-1.121,4.29,4.29,0,0,1-1-2.966Zm1.362.161a3.39,3.39,0,0,0,.612,2.117,2.072,2.072,0,0,0,3.278-.011,3.707,3.707,0,0,0,.608-2.267,3.384,3.384,0,0,0-.619-2.113,1.968,1.968,0,0,0-1.644-.809,1.946,1.946,0,0,0-1.619.8A3.68,3.68,0,0,0,25.422,15.125Zm13.1-2.117h1.018a2.238,2.238,0,0,0,1.509-.505,1.688,1.688,0,0,0,.549-1.326A1.654,1.654,0,0,0,39.727,9.3a1.943,1.943,0,0,0-1.4.5,1.756,1.756,0,0,0-.524,1.329H36.445a2.72,2.72,0,0,1,.927-2.106,3.375,3.375,0,0,1,2.355-.839,3.335,3.335,0,0,1,2.366.8,2.884,2.884,0,0,1,.857,2.219,2.341,2.341,0,0,1-.45,1.348,2.72,2.72,0,0,1-1.227.974,2.621,2.621,0,0,1,1.359.923,2.563,2.563,0,0,1,.48,1.575,2.909,2.909,0,0,1-.937,2.278,3.511,3.511,0,0,1-2.439.842,3.6,3.6,0,0,1-2.443-.813,2.7,2.7,0,0,1-.941-2.146h1.362a1.743,1.743,0,0,0,.549,1.348,2.089,2.089,0,0,0,1.472.505,2.05,2.05,0,0,0,1.5-.513,1.976,1.976,0,0,0,.52-1.472,1.793,1.793,0,0,0-.571-1.428,2.489,2.489,0,0,0-1.648-.513H38.518Zm12.173,2.41H52.17v1.106H50.691V19H49.329V16.524H44.473v-.8l4.775-7.39h1.443Zm-4.68,0h3.318V10.189l-.161.293Zm7.478,5.706L52.72,20.6a3.534,3.534,0,0,0,.718-1.978V17.4h1.326v1.062a3.336,3.336,0,0,1-.363,1.479A3.464,3.464,0,0,1,53.489,21.124ZM63.325,19H56.338v-.974l3.691-4.1a8.77,8.77,0,0,0,1.132-1.512,2.524,2.524,0,0,0,.311-1.2,1.913,1.913,0,0,0-.505-1.37A1.767,1.767,0,0,0,59.619,9.3a2.093,2.093,0,0,0-1.571.575,2.2,2.2,0,0,0-.56,1.6H56.133a3.145,3.145,0,0,1,.948-2.38,3.516,3.516,0,0,1,2.538-.908,3.379,3.379,0,0,1,2.351.78,2.661,2.661,0,0,1,.864,2.076q0,1.575-2.007,3.75l-2.856,3.1h5.354Zm1.318-8.613A2.164,2.164,0,0,1,65.255,8.8a2.3,2.3,0,0,1,3.149,0,2.239,2.239,0,0,1,.6,1.622v.52a2.136,2.136,0,0,1-.612,1.578,2.108,2.108,0,0,1-1.556.612,2.155,2.155,0,0,1-1.575-.612,2.181,2.181,0,0,1-.623-1.63Zm1.011.561a1.386,1.386,0,0,0,.322.943,1.087,1.087,0,0,0,.864.371,1.066,1.066,0,0,0,.839-.36A1.431,1.431,0,0,0,68,10.918v-.536a1.421,1.421,0,0,0-.315-.947,1.168,1.168,0,0,0-1.714,0,1.465,1.465,0,0,0-.315.976Zm4.182,5.438a2.151,2.151,0,0,1,.612-1.578,2.313,2.313,0,0,1,3.146,0,2.208,2.208,0,0,1,.615,1.633v.52a2.151,2.151,0,0,1-.612,1.578,2.1,2.1,0,0,1-1.564.619,2.155,2.155,0,0,1-1.575-.612,2.181,2.181,0,0,1-.623-1.63Zm1.011.568a1.4,1.4,0,0,0,.322.951,1.087,1.087,0,0,0,.864.371,1.059,1.059,0,0,0,.842-.363,1.456,1.456,0,0,0,.315-.987v-.543a1.393,1.393,0,0,0-.319-.947,1.171,1.171,0,0,0-1.7,0,1.413,1.413,0,0,0-.326.98Zm-3.7,1.241-.769-.483,5.208-8.335.769.483Z" transform="translate(493.559 167.615)" fill="#12263f"/>
  <path id="Trazado_602193" data-name="Trazado 602193" d="M-78.073-3.384A3.923,3.923,0,0,1-79.321-.773a4.093,4.093,0,0,1-2.794.919,3.758,3.758,0,0,1-3.029-1.355,5.451,5.451,0,0,1-1.139-3.625V-5.859a6.076,6.076,0,0,1,.531-2.615,3.966,3.966,0,0,1,1.505-1.732,4.191,4.191,0,0,1,2.256-.6,3.853,3.853,0,0,1,2.725.948,3.971,3.971,0,0,1,1.194,2.626h-1.414a3.064,3.064,0,0,0-.795-1.851,2.4,2.4,0,0,0-1.71-.573,2.516,2.516,0,0,0-2.113,1,4.577,4.577,0,0,0-.765,2.837v1.034a4.7,4.7,0,0,0,.725,2.764A2.343,2.343,0,0,0-82.115-1a2.706,2.706,0,0,0,1.8-.531,2.947,2.947,0,0,0,.831-1.849Zm1.348-.652a4.681,4.681,0,0,1,.458-2.095,3.415,3.415,0,0,1,1.274-1.436,3.469,3.469,0,0,1,1.864-.505A3.342,3.342,0,0,1-70.51-6.951a4.311,4.311,0,0,1,1,2.981v.1A4.722,4.722,0,0,1-69.954-1.8,3.365,3.365,0,0,1-71.221-.366a3.509,3.509,0,0,1-1.893.513A3.334,3.334,0,0,1-75.725-.974a4.29,4.29,0,0,1-1-2.966Zm1.362.161a3.39,3.39,0,0,0,.612,2.117,1.957,1.957,0,0,0,1.637.8,1.945,1.945,0,0,0,1.641-.809,3.707,3.707,0,0,0,.608-2.267,3.384,3.384,0,0,0-.619-2.113,1.968,1.968,0,0,0-1.644-.809,1.946,1.946,0,0,0-1.619.8A3.68,3.68,0,0,0-75.363-3.875Zm8.826-4.05.037.879a2.927,2.927,0,0,1,2.351-1.025A2.266,2.266,0,0,1-61.886-6.8a3,3,0,0,1,1.029-.923,3.039,3.039,0,0,1,1.5-.352q2.607,0,2.651,2.761V0h-1.355V-5.229A1.82,1.82,0,0,0-58.451-6.5a1.71,1.71,0,0,0-1.3-.421,1.8,1.8,0,0,0-1.252.45,1.827,1.827,0,0,0-.579,1.212V0h-1.362V-5.193A1.512,1.512,0,0,0-64.64-6.921a1.813,1.813,0,0,0-1.824,1.135V0h-1.355V-7.925Zm18.567,4.05A4.745,4.745,0,0,1-48.8-.959,2.653,2.653,0,0,1-51.039.146a2.906,2.906,0,0,1-2.271-.916V3.047h-1.355V-7.925h1.238l.066.879a2.791,2.791,0,0,1,2.3-1.025A2.7,2.7,0,0,1-48.8-6.995a4.8,4.8,0,0,1,.831,3Zm-1.355-.154A3.5,3.5,0,0,0-49.9-6.145a1.84,1.84,0,0,0-1.567-.776A1.992,1.992,0,0,0-53.309-5.83v3.787a2,2,0,0,0,1.86,1.084A1.832,1.832,0,0,0-49.9-1.732,3.822,3.822,0,0,0-49.325-4.028Zm6.907-2.681a4.061,4.061,0,0,0-.667-.051,1.786,1.786,0,0,0-1.809,1.135V0h-1.355V-7.925h1.318l.022.916a2.11,2.11,0,0,1,1.89-1.062,1.384,1.384,0,0,1,.6.1ZM-38.024.146A3.463,3.463,0,0,1-40.646-.912a3.928,3.928,0,0,1-1.011-2.831v-.249a4.756,4.756,0,0,1,.45-2.106,3.514,3.514,0,0,1,1.26-1.45,3.167,3.167,0,0,1,1.754-.524,2.968,2.968,0,0,1,2.4,1.018,4.408,4.408,0,0,1,.857,2.915v.564H-40.3a2.817,2.817,0,0,0,.685,1.893,2.153,2.153,0,0,0,1.666.721,2.36,2.36,0,0,0,1.216-.293,3.055,3.055,0,0,0,.872-.776l.828.645A3.328,3.328,0,0,1-38.024.146Zm-.168-7.1a1.807,1.807,0,0,0-1.377.6,2.9,2.9,0,0,0-.688,1.674h3.97v-.1a2.581,2.581,0,0,0-.557-1.6A1.7,1.7,0,0,0-38.192-6.958Zm6.108-.967.044,1a2.888,2.888,0,0,1,2.373-1.143q2.512,0,2.534,2.834V0h-1.355V-5.244a1.824,1.824,0,0,0-.392-1.267,1.57,1.57,0,0,0-1.2-.41,1.956,1.956,0,0,0-1.157.352,2.387,2.387,0,0,0-.776.923V0h-1.355V-7.925ZM-20.475-2.1a1,1,0,0,0-.414-.853,3.983,3.983,0,0,0-1.443-.524,6.822,6.822,0,0,1-1.633-.527,2.324,2.324,0,0,1-.894-.732,1.752,1.752,0,0,1-.289-1.011A2.056,2.056,0,0,1-24.324-7.4a3.218,3.218,0,0,1,2.106-.674,3.311,3.311,0,0,1,2.186.7,2.21,2.21,0,0,1,.839,1.78h-1.362a1.223,1.223,0,0,0-.472-.959,1.77,1.77,0,0,0-1.19-.4,1.852,1.852,0,0,0-1.157.322,1.014,1.014,0,0,0-.417.842.822.822,0,0,0,.388.74,4.776,4.776,0,0,0,1.4.476,7.308,7.308,0,0,1,1.644.542,2.4,2.4,0,0,1,.934.758,1.864,1.864,0,0,1,.3,1.08,2.028,2.028,0,0,1-.85,1.7,3.564,3.564,0,0,1-2.2.641A3.991,3.991,0,0,1-23.859-.19,2.74,2.74,0,0,1-25-1.132a2.268,2.268,0,0,1-.414-1.307h1.355a1.4,1.4,0,0,0,.546,1.08,2.117,2.117,0,0,0,1.344.4,2.185,2.185,0,0,0,1.234-.311A.956.956,0,0,0-20.475-2.1ZM-15.883,0h-1.355V-7.925h1.355Zm-1.465-10.027a.809.809,0,0,1,.2-.557.756.756,0,0,1,.6-.227.768.768,0,0,1,.6.227.8.8,0,0,1,.205.557.774.774,0,0,1-.205.549.782.782,0,0,1-.6.22.77.77,0,0,1-.6-.22A.782.782,0,0,1-17.347-10.027Zm3.274,5.991a4.681,4.681,0,0,1,.458-2.095,3.415,3.415,0,0,1,1.274-1.436,3.469,3.469,0,0,1,1.864-.505A3.342,3.342,0,0,1-7.859-6.951a4.311,4.311,0,0,1,1,2.981v.1A4.722,4.722,0,0,1-7.3-1.8,3.365,3.365,0,0,1-8.569-.366a3.509,3.509,0,0,1-1.893.513A3.334,3.334,0,0,1-13.074-.974a4.29,4.29,0,0,1-1-2.966Zm1.362.161A3.39,3.39,0,0,0-12.1-1.758a1.957,1.957,0,0,0,1.637.8,1.945,1.945,0,0,0,1.641-.809,3.707,3.707,0,0,0,.608-2.267,3.384,3.384,0,0,0-.619-2.113,1.968,1.968,0,0,0-1.644-.809,1.946,1.946,0,0,0-1.619.8A3.68,3.68,0,0,0-12.711-3.875Zm2.849-7.375h1.641L-10.184-9.1l-1.091,0Zm5.984,3.325.044,1A2.888,2.888,0,0,1-1.461-8.071q2.512,0,2.534,2.834V0H-.282V-5.244A1.824,1.824,0,0,0-.674-6.511a1.57,1.57,0,0,0-1.2-.41,1.956,1.956,0,0,0-1.157.352,2.387,2.387,0,0,0-.776.923V0H-5.16V-7.925ZM6.5-4.028a4.642,4.642,0,0,1,.864-2.933,2.733,2.733,0,0,1,2.263-1.11,2.748,2.748,0,0,1,2.2.952V-11.25h1.355V0H11.942l-.066-.85a2.759,2.759,0,0,1-2.263,1A2.707,2.707,0,0,1,7.368-.981,4.7,4.7,0,0,1,6.5-3.926Zm1.355.154a3.515,3.515,0,0,0,.557,2.109A1.8,1.8,0,0,0,9.95-1a1.977,1.977,0,0,0,1.882-1.157V-5.8A1.992,1.992,0,0,0,9.965-6.921a1.808,1.808,0,0,0-1.553.769A3.87,3.87,0,0,0,7.855-3.875ZM18.578.146A3.463,3.463,0,0,1,15.956-.912a3.928,3.928,0,0,1-1.011-2.831v-.249A4.756,4.756,0,0,1,15.4-6.1a3.514,3.514,0,0,1,1.26-1.45,3.167,3.167,0,0,1,1.754-.524,2.968,2.968,0,0,1,2.4,1.018,4.408,4.408,0,0,1,.857,2.915v.564H16.3a2.817,2.817,0,0,0,.685,1.893,2.153,2.153,0,0,0,1.666.721,2.36,2.36,0,0,0,1.216-.293,3.055,3.055,0,0,0,.872-.776l.828.645A3.328,3.328,0,0,1,18.578.146Zm-.168-7.1a1.807,1.807,0,0,0-1.377.6,2.9,2.9,0,0,0-.688,1.674h3.97v-.1a2.581,2.581,0,0,0-.557-1.6A1.7,1.7,0,0,0,18.409-6.958Zm16.6,3.574A3.923,3.923,0,0,1,33.757-.773a4.093,4.093,0,0,1-2.794.919,3.758,3.758,0,0,1-3.029-1.355A5.451,5.451,0,0,1,26.8-4.834V-5.859a6.076,6.076,0,0,1,.531-2.615,3.966,3.966,0,0,1,1.505-1.732,4.191,4.191,0,0,1,2.256-.6,3.853,3.853,0,0,1,2.725.948,3.971,3.971,0,0,1,1.194,2.626H33.593A3.064,3.064,0,0,0,32.8-9.088a2.4,2.4,0,0,0-1.71-.573,2.516,2.516,0,0,0-2.113,1,4.577,4.577,0,0,0-.765,2.837v1.034a4.7,4.7,0,0,0,.725,2.764A2.343,2.343,0,0,0,30.963-1a2.706,2.706,0,0,0,1.8-.531,2.947,2.947,0,0,0,.831-1.849Zm1.348-.652a4.681,4.681,0,0,1,.458-2.095,3.415,3.415,0,0,1,1.274-1.436,3.469,3.469,0,0,1,1.864-.505,3.342,3.342,0,0,1,2.618,1.121,4.311,4.311,0,0,1,1,2.981v.1A4.722,4.722,0,0,1,43.125-1.8,3.365,3.365,0,0,1,41.858-.366a3.509,3.509,0,0,1-1.893.513A3.334,3.334,0,0,1,37.354-.974a4.29,4.29,0,0,1-1-2.966Zm1.362.161a3.39,3.39,0,0,0,.612,2.117,1.957,1.957,0,0,0,1.637.8,1.945,1.945,0,0,0,1.641-.809,3.707,3.707,0,0,0,.608-2.267,3.384,3.384,0,0,0-.619-2.113,1.968,1.968,0,0,0-1.644-.809,1.946,1.946,0,0,0-1.619.8A3.68,3.68,0,0,0,37.716-3.875ZM52.115,0H45.128V-.974l3.691-4.1a8.77,8.77,0,0,0,1.132-1.512,2.524,2.524,0,0,0,.311-1.2,1.913,1.913,0,0,0-.505-1.37A1.767,1.767,0,0,0,48.409-9.7a2.093,2.093,0,0,0-1.571.575,2.2,2.2,0,0,0-.56,1.6H44.923a3.145,3.145,0,0,1,.948-2.38,3.516,3.516,0,0,1,2.538-.908,3.379,3.379,0,0,1,2.351.78,2.661,2.661,0,0,1,.864,2.076q0,1.575-2.007,3.75l-2.856,3.1h5.354Zm7.119-5.991h1.018A2.238,2.238,0,0,0,61.761-6.5a1.688,1.688,0,0,0,.549-1.326A1.654,1.654,0,0,0,60.443-9.7a1.943,1.943,0,0,0-1.4.5,1.756,1.756,0,0,0-.524,1.329H57.162a2.72,2.72,0,0,1,.927-2.106,3.375,3.375,0,0,1,2.355-.839,3.335,3.335,0,0,1,2.366.8,2.884,2.884,0,0,1,.857,2.219,2.341,2.341,0,0,1-.45,1.348,2.72,2.72,0,0,1-1.227.974,2.621,2.621,0,0,1,1.359.923,2.563,2.563,0,0,1,.48,1.575A2.909,2.909,0,0,1,62.889-.7,3.511,3.511,0,0,1,60.45.146a3.6,3.6,0,0,1-2.443-.813,2.7,2.7,0,0,1-.941-2.146h1.362a1.743,1.743,0,0,0,.549,1.348,2.089,2.089,0,0,0,1.472.505,2.05,2.05,0,0,0,1.5-.513,1.976,1.976,0,0,0,.52-1.472A1.793,1.793,0,0,0,61.9-4.373a2.489,2.489,0,0,0-1.648-.513H59.235Zm6.548,8.115L65.013,1.6a3.534,3.534,0,0,0,.718-1.978V-1.6h1.326V-.542A3.336,3.336,0,0,1,66.694.938,3.464,3.464,0,0,1,65.782,2.124Zm8.569-5.706h1.479v1.106H74.352V0H72.99V-2.476H68.134v-.8l4.775-7.39h1.443Zm-4.68,0H72.99V-8.811l-.161.293Zm7.266-5.032a2.164,2.164,0,0,1,.612-1.582,2.107,2.107,0,0,1,1.571-.623,2.094,2.094,0,0,1,1.578.626,2.239,2.239,0,0,1,.6,1.622v.52a2.136,2.136,0,0,1-.612,1.578,2.108,2.108,0,0,1-1.556.612,2.155,2.155,0,0,1-1.575-.612,2.181,2.181,0,0,1-.623-1.63Zm1.011.561a1.386,1.386,0,0,0,.322.943,1.087,1.087,0,0,0,.864.371,1.066,1.066,0,0,0,.839-.36,1.431,1.431,0,0,0,.319-.984v-.536a1.421,1.421,0,0,0-.315-.947,1.061,1.061,0,0,0-.857-.374,1.061,1.061,0,0,0-.857.374,1.465,1.465,0,0,0-.315.976ZM82.13-2.615a2.151,2.151,0,0,1,.612-1.578,2.113,2.113,0,0,1,1.571-.619,2.132,2.132,0,0,1,1.575.615A2.208,2.208,0,0,1,86.5-2.563v.52a2.151,2.151,0,0,1-.612,1.578,2.1,2.1,0,0,1-1.564.619,2.155,2.155,0,0,1-1.575-.612,2.181,2.181,0,0,1-.623-1.63Zm1.011.568a1.4,1.4,0,0,0,.322.951,1.087,1.087,0,0,0,.864.371,1.059,1.059,0,0,0,.842-.363,1.456,1.456,0,0,0,.315-.987v-.543a1.393,1.393,0,0,0-.319-.947,1.073,1.073,0,0,0-.853-.367,1.084,1.084,0,0,0-.846.363,1.413,1.413,0,0,0-.326.98Zm-3.7,1.241-.769-.483,5.208-8.335.769.483Z" transform="translate(473.305 271.944)" fill="#12263f"/>
  <path id="Trazado_602194" data-name="Trazado 602194" d="M2.644-4.175V0H1.238V-10.664H5.171a3.952,3.952,0,0,1,2.743.894A3.029,3.029,0,0,1,8.906-7.4a2.989,2.989,0,0,1-.97,2.391,4.128,4.128,0,0,1-2.78.839Zm0-1.15H5.171A2.526,2.526,0,0,0,6.9-5.857a1.945,1.945,0,0,0,.6-1.537A2.009,2.009,0,0,0,6.9-8.92a2.367,2.367,0,0,0-1.648-.594H2.644ZM14.319-6.709a4.061,4.061,0,0,0-.667-.051,1.786,1.786,0,0,0-1.809,1.135V0H10.488V-7.925h1.318l.022.916a2.11,2.11,0,0,1,1.89-1.062,1.384,1.384,0,0,1,.6.1Zm.74,2.673a4.681,4.681,0,0,1,.458-2.095,3.415,3.415,0,0,1,1.274-1.436,3.469,3.469,0,0,1,1.864-.505,3.342,3.342,0,0,1,2.618,1.121,4.311,4.311,0,0,1,1,2.981v.1A4.722,4.722,0,0,1,21.83-1.8,3.365,3.365,0,0,1,20.563-.366a3.509,3.509,0,0,1-1.893.513A3.334,3.334,0,0,1,16.058-.974a4.29,4.29,0,0,1-1-2.966Zm1.362.161a3.39,3.39,0,0,0,.612,2.117,1.957,1.957,0,0,0,1.637.8,1.945,1.945,0,0,0,1.641-.809,3.707,3.707,0,0,0,.608-2.267A3.384,3.384,0,0,0,20.3-6.149a1.968,1.968,0,0,0-1.644-.809,1.946,1.946,0,0,0-1.619.8A3.68,3.68,0,0,0,16.421-3.875ZM27.151-.959A1.952,1.952,0,0,0,28.418-1.4a1.546,1.546,0,0,0,.6-1.1H30.3a2.457,2.457,0,0,1-.469,1.3,3.087,3.087,0,0,1-1.154.981,3.329,3.329,0,0,1-1.527.366,3.265,3.265,0,0,1-2.574-1.08,4.3,4.3,0,0,1-.956-2.955v-.227a4.771,4.771,0,0,1,.425-2.058,3.236,3.236,0,0,1,1.219-1.4,3.464,3.464,0,0,1,1.879-.5,3.178,3.178,0,0,1,2.216.8A2.853,2.853,0,0,1,30.3-5.2H29.019a1.867,1.867,0,0,0-.582-1.263,1.811,1.811,0,0,0-1.293-.494,1.9,1.9,0,0,0-1.6.743,3.491,3.491,0,0,0-.568,2.15v.256A3.422,3.422,0,0,0,25.54-1.7,1.906,1.906,0,0,0,27.151-.959ZM35.112.146A3.463,3.463,0,0,1,32.49-.912a3.928,3.928,0,0,1-1.011-2.831v-.249A4.756,4.756,0,0,1,31.93-6.1a3.514,3.514,0,0,1,1.26-1.45,3.167,3.167,0,0,1,1.754-.524,2.968,2.968,0,0,1,2.4,1.018A4.408,4.408,0,0,1,38.2-4.138v.564H32.834a2.817,2.817,0,0,0,.685,1.893,2.153,2.153,0,0,0,1.666.721A2.36,2.36,0,0,0,36.4-1.252a3.055,3.055,0,0,0,.872-.776l.828.645A3.328,3.328,0,0,1,35.112.146Zm-.168-7.1a1.807,1.807,0,0,0-1.377.6,2.9,2.9,0,0,0-.688,1.674h3.97v-.1a2.581,2.581,0,0,0-.557-1.6A1.7,1.7,0,0,0,34.944-6.958ZM44.385-2.1a1,1,0,0,0-.414-.853,3.983,3.983,0,0,0-1.443-.524,6.822,6.822,0,0,1-1.633-.527A2.324,2.324,0,0,1,40-4.739a1.752,1.752,0,0,1-.289-1.011A2.056,2.056,0,0,1,40.536-7.4a3.218,3.218,0,0,1,2.106-.674,3.311,3.311,0,0,1,2.186.7,2.21,2.21,0,0,1,.839,1.78H44.3a1.223,1.223,0,0,0-.472-.959,1.77,1.77,0,0,0-1.19-.4,1.852,1.852,0,0,0-1.157.322,1.014,1.014,0,0,0-.417.842.822.822,0,0,0,.388.74,4.776,4.776,0,0,0,1.4.476,7.308,7.308,0,0,1,1.644.542,2.4,2.4,0,0,1,.934.758,1.864,1.864,0,0,1,.3,1.08,2.028,2.028,0,0,1-.85,1.7,3.564,3.564,0,0,1-2.2.641A3.991,3.991,0,0,1,41-.19a2.74,2.74,0,0,1-1.146-.941,2.268,2.268,0,0,1-.414-1.307H40.8a1.4,1.4,0,0,0,.546,1.08,2.117,2.117,0,0,0,1.344.4,2.185,2.185,0,0,0,1.234-.311A.956.956,0,0,0,44.385-2.1Zm2.761-1.934A4.681,4.681,0,0,1,47.6-6.13a3.415,3.415,0,0,1,1.274-1.436,3.469,3.469,0,0,1,1.864-.505,3.342,3.342,0,0,1,2.618,1.121,4.311,4.311,0,0,1,1,2.981v.1A4.722,4.722,0,0,1,53.917-1.8,3.365,3.365,0,0,1,52.65-.366a3.509,3.509,0,0,1-1.893.513A3.334,3.334,0,0,1,48.146-.974a4.29,4.29,0,0,1-1-2.966Zm1.362.161a3.39,3.39,0,0,0,.612,2.117,1.957,1.957,0,0,0,1.637.8A1.945,1.945,0,0,0,52.4-1.769a3.707,3.707,0,0,0,.608-2.267,3.384,3.384,0,0,0-.619-2.113,1.968,1.968,0,0,0-1.644-.809,1.946,1.946,0,0,0-1.619.8A3.68,3.68,0,0,0,48.508-3.875Zm10.935-.154a4.642,4.642,0,0,1,.864-2.933,2.733,2.733,0,0,1,2.263-1.11,2.748,2.748,0,0,1,2.2.952V-11.25H66.13V0H64.885l-.066-.85a2.759,2.759,0,0,1-2.263,1A2.707,2.707,0,0,1,60.311-.981a4.7,4.7,0,0,1-.868-2.944Zm1.355.154a3.515,3.515,0,0,0,.557,2.109A1.8,1.8,0,0,0,62.893-1a1.977,1.977,0,0,0,1.882-1.157V-5.8a1.992,1.992,0,0,0-1.868-1.121,1.808,1.808,0,0,0-1.553.769A3.87,3.87,0,0,0,60.8-3.875ZM71.521.146A3.463,3.463,0,0,1,68.9-.912a3.928,3.928,0,0,1-1.011-2.831v-.249a4.756,4.756,0,0,1,.45-2.106,3.514,3.514,0,0,1,1.26-1.45,3.167,3.167,0,0,1,1.754-.524,2.968,2.968,0,0,1,2.4,1.018,4.408,4.408,0,0,1,.857,2.915v.564H69.243a2.817,2.817,0,0,0,.685,1.893,2.153,2.153,0,0,0,1.666.721,2.36,2.36,0,0,0,1.216-.293,3.055,3.055,0,0,0,.872-.776l.828.645A3.328,3.328,0,0,1,71.521.146Zm-.168-7.1a1.807,1.807,0,0,0-1.377.6,2.9,2.9,0,0,0-.688,1.674h3.97v-.1a2.581,2.581,0,0,0-.557-1.6A1.7,1.7,0,0,0,71.353-6.958Zm11.719,6A1.952,1.952,0,0,0,84.338-1.4a1.546,1.546,0,0,0,.6-1.1h1.282a2.457,2.457,0,0,1-.469,1.3A3.087,3.087,0,0,1,84.6-.22a3.329,3.329,0,0,1-1.527.366A3.265,3.265,0,0,1,80.5-.934a4.3,4.3,0,0,1-.956-2.955v-.227a4.771,4.771,0,0,1,.425-2.058,3.236,3.236,0,0,1,1.219-1.4,3.464,3.464,0,0,1,1.879-.5,3.178,3.178,0,0,1,2.216.8A2.853,2.853,0,0,1,86.221-5.2H84.939a1.867,1.867,0,0,0-.582-1.263,1.811,1.811,0,0,0-1.293-.494,1.9,1.9,0,0,0-1.6.743,3.491,3.491,0,0,0-.568,2.15v.256A3.422,3.422,0,0,0,81.46-1.7,1.906,1.906,0,0,0,83.071-.959ZM92.637,0a2.846,2.846,0,0,1-.19-.835A3.023,3.023,0,0,1,90.19.146a2.8,2.8,0,0,1-1.923-.663A2.145,2.145,0,0,1,87.517-2.2a2.24,2.24,0,0,1,.941-1.923A4.437,4.437,0,0,1,91.106-4.8h1.318v-.623A1.522,1.522,0,0,0,92-6.559a1.707,1.707,0,0,0-1.252-.421,1.976,1.976,0,0,0-1.216.366,1.079,1.079,0,0,0-.491.886H87.678A1.87,1.87,0,0,1,88.1-6.874a2.874,2.874,0,0,1,1.143-.875,3.844,3.844,0,0,1,1.586-.322,3.133,3.133,0,0,1,2.146.685A2.47,2.47,0,0,1,93.779-5.5v3.647a4.459,4.459,0,0,0,.278,1.736V0ZM90.388-1.033a2.381,2.381,0,0,0,1.208-.33,1.994,1.994,0,0,0,.828-.857V-3.845H91.362q-2.49,0-2.49,1.458a1.234,1.234,0,0,0,.425,1A1.633,1.633,0,0,0,90.388-1.033ZM102.6-3.875a4.745,4.745,0,0,1-.828,2.915A2.653,2.653,0,0,1,99.529.146a2.906,2.906,0,0,1-2.271-.916V3.047H95.9V-7.925h1.238l.066.879a2.791,2.791,0,0,1,2.3-1.025,2.7,2.7,0,0,1,2.26,1.077,4.8,4.8,0,0,1,.831,3Zm-1.355-.154a3.5,3.5,0,0,0-.571-2.117A1.84,1.84,0,0,0,99.1-6.921,1.992,1.992,0,0,0,97.258-5.83v3.787a2,2,0,0,0,1.86,1.084,1.832,1.832,0,0,0,1.549-.773A3.822,3.822,0,0,0,101.243-4.028Zm4.915-5.815v1.919h1.479v1.047h-1.479v4.921a1.1,1.1,0,0,0,.2.715.832.832,0,0,0,.674.238,3.281,3.281,0,0,0,.645-.088V0a3.951,3.951,0,0,1-1.04.146,1.687,1.687,0,0,1-1.37-.549,2.36,2.36,0,0,1-.461-1.56V-6.877h-1.443V-7.925H104.8V-9.844Zm7.954,9.06a2.878,2.878,0,0,1-2.322.93,2.464,2.464,0,0,1-1.93-.736,3.186,3.186,0,0,1-.67-2.179V-7.925h1.355v5.12q0,1.8,1.465,1.8a2.028,2.028,0,0,0,2.065-1.157V-7.925h1.355V0h-1.289Zm7.207-5.925a4.061,4.061,0,0,0-.667-.051,1.786,1.786,0,0,0-1.809,1.135V0h-1.355V-7.925h1.318l.022.916a2.11,2.11,0,0,1,1.89-1.062,1.384,1.384,0,0,1,.6.1ZM127.163,0a2.846,2.846,0,0,1-.19-.835,3.023,3.023,0,0,1-2.256.981,2.8,2.8,0,0,1-1.923-.663,2.145,2.145,0,0,1-.751-1.681,2.24,2.24,0,0,1,.941-1.923,4.437,4.437,0,0,1,2.648-.685h1.318v-.623a1.522,1.522,0,0,0-.425-1.132,1.707,1.707,0,0,0-1.252-.421,1.976,1.976,0,0,0-1.216.366,1.079,1.079,0,0,0-.491.886H122.2a1.87,1.87,0,0,1,.421-1.146,2.874,2.874,0,0,1,1.143-.875,3.844,3.844,0,0,1,1.586-.322,3.133,3.133,0,0,1,2.146.685,2.47,2.47,0,0,1,.806,1.886v3.647a4.459,4.459,0,0,0,.278,1.736V0Zm-2.249-1.033a2.381,2.381,0,0,0,1.208-.33,1.994,1.994,0,0,0,.828-.857V-3.845h-1.062q-2.49,0-2.49,1.458a1.234,1.234,0,0,0,.425,1A1.633,1.633,0,0,0,124.915-1.033ZM.974,18.671a11.324,11.324,0,0,1,.443-3.179,9.234,9.234,0,0,1,1.322-2.769,5.624,5.624,0,0,1,1.824-1.758l.278.894a5.833,5.833,0,0,0-1.754,2.5,10.859,10.859,0,0,0-.751,3.772l-.007.623a10.916,10.916,0,0,0,1.033,4.907,5.861,5.861,0,0,0,1.479,1.948l-.278.828A5.8,5.8,0,0,1,2.7,24.626,10.181,10.181,0,0,1,.974,18.671Zm11.418-.6H7.771V21.85H13.14V23H6.365V12.336h6.7v1.15h-5.3v3.435h4.622Zm3.567-3,.044,1a2.888,2.888,0,0,1,2.373-1.143q2.512,0,2.534,2.834V23H19.556V17.756a1.824,1.824,0,0,0-.392-1.267,1.57,1.57,0,0,0-1.2-.41,1.956,1.956,0,0,0-1.157.352,2.387,2.387,0,0,0-.776.923V23H14.678V15.075Zm8.833-1.919v1.919h1.479v1.047H24.792v4.921a1.1,1.1,0,0,0,.2.715.832.832,0,0,0,.674.238,3.281,3.281,0,0,0,.645-.088V23a3.951,3.951,0,0,1-1.04.146A1.687,1.687,0,0,1,23.9,22.6a2.36,2.36,0,0,1-.461-1.56V16.123H21.995V15.075h1.443V13.156ZM32.747,23a2.846,2.846,0,0,1-.19-.835,3.023,3.023,0,0,1-2.256.981,2.8,2.8,0,0,1-1.923-.663,2.145,2.145,0,0,1-.751-1.681,2.24,2.24,0,0,1,.941-1.923,4.437,4.437,0,0,1,2.648-.685h1.318v-.623a1.522,1.522,0,0,0-.425-1.132,1.707,1.707,0,0,0-1.252-.421,1.976,1.976,0,0,0-1.216.366,1.079,1.079,0,0,0-.491.886H27.788a1.87,1.87,0,0,1,.421-1.146,2.874,2.874,0,0,1,1.143-.875,3.844,3.844,0,0,1,1.586-.322,3.133,3.133,0,0,1,2.146.685,2.47,2.47,0,0,1,.806,1.886v3.647a4.459,4.459,0,0,0,.278,1.736V23ZM30.5,21.967a2.381,2.381,0,0,0,1.208-.33,1.994,1.994,0,0,0,.828-.857V19.155H31.472q-2.49,0-2.49,1.458a1.234,1.234,0,0,0,.425,1A1.633,1.633,0,0,0,30.5,21.967ZM37.485,23H36.13V11.75h1.355Zm8.862-3.875a4.745,4.745,0,0,1-.828,2.915,2.653,2.653,0,0,1-2.241,1.106,2.906,2.906,0,0,1-2.271-.916v3.816H39.653V15.075h1.238l.066.879a2.791,2.791,0,0,1,2.3-1.025,2.7,2.7,0,0,1,2.26,1.077,4.8,4.8,0,0,1,.831,3Zm-1.355-.154a3.5,3.5,0,0,0-.571-2.117,1.84,1.84,0,0,0-1.567-.776,1.992,1.992,0,0,0-1.846,1.091v3.787a2,2,0,0,0,1.86,1.084,1.832,1.832,0,0,0,1.549-.773A3.822,3.822,0,0,0,44.993,18.972ZM49.541,23H48.179V15.075h1.362Zm.015-11.243H51.2l-1.963,2.153-1.091,0ZM56.667,23a2.846,2.846,0,0,1-.19-.835,3.023,3.023,0,0,1-2.256.981,2.8,2.8,0,0,1-1.923-.663,2.145,2.145,0,0,1-.751-1.681,2.24,2.24,0,0,1,.941-1.923,4.437,4.437,0,0,1,2.648-.685h1.318v-.623a1.522,1.522,0,0,0-.425-1.132,1.707,1.707,0,0,0-1.252-.421,1.976,1.976,0,0,0-1.216.366,1.079,1.079,0,0,0-.491.886H51.709a1.87,1.87,0,0,1,.421-1.146,2.874,2.874,0,0,1,1.143-.875,3.844,3.844,0,0,1,1.586-.322A3.133,3.133,0,0,1,57,15.614,2.47,2.47,0,0,1,57.81,17.5v3.647a4.459,4.459,0,0,0,.278,1.736V23Zm-2.249-1.033a2.381,2.381,0,0,0,1.208-.33,1.994,1.994,0,0,0,.828-.857V19.155H55.393q-2.49,0-2.49,1.458a1.234,1.234,0,0,0,.425,1A1.633,1.633,0,0,0,54.419,21.967Zm8.943-1.831a2.5,2.5,0,0,1,.428-1.414,6.529,6.529,0,0,1,1.637-1.5,7.069,7.069,0,0,1-.952-1.392,2.7,2.7,0,0,1,.476-2.952,2.7,2.7,0,0,1,1.948-.688,2.625,2.625,0,0,1,1.816.641,2.073,2.073,0,0,1,.718,1.615,2.279,2.279,0,0,1-.326,1.19,4.235,4.235,0,0,1-1.139,1.146l-.784.579,2.373,2.834a4.5,4.5,0,0,0,.5-2.117h1.223a5.106,5.106,0,0,1-.9,3.1L71.9,23H70.276l-.71-.842a3.713,3.713,0,0,1-1.271.736,4.5,4.5,0,0,1-1.483.253,3.665,3.665,0,0,1-2.5-.828A2.76,2.76,0,0,1,63.362,20.136Zm3.45,1.9a2.852,2.852,0,0,0,1.97-.82l-2.6-3.113-.242.176a2.438,2.438,0,0,0-1.223,1.853,1.8,1.8,0,0,0,.56,1.384A2.168,2.168,0,0,0,66.812,22.041Zm-1.223-7.3a3.077,3.077,0,0,0,.864,1.758l.864-.608a2.3,2.3,0,0,0,.681-.67,1.527,1.527,0,0,0,.183-.773,1.048,1.048,0,0,0-.366-.817,1.337,1.337,0,0,0-.923-.326,1.194,1.194,0,0,0-.952.406A1.517,1.517,0,0,0,65.588,14.738Zm14.385,8.408a3.463,3.463,0,0,1-2.622-1.058,3.928,3.928,0,0,1-1.011-2.831v-.249a4.756,4.756,0,0,1,.45-2.106,3.514,3.514,0,0,1,1.26-1.45,3.167,3.167,0,0,1,1.754-.524,2.968,2.968,0,0,1,2.4,1.018,4.408,4.408,0,0,1,.857,2.915v.564H77.7a2.817,2.817,0,0,0,.685,1.893,2.153,2.153,0,0,0,1.666.721,2.36,2.36,0,0,0,1.216-.293,3.055,3.055,0,0,0,.872-.776l.828.645A3.328,3.328,0,0,1,79.973,23.146Zm-.168-7.1a1.807,1.807,0,0,0-1.377.6,2.9,2.9,0,0,0-.688,1.674h3.97v-.1a2.581,2.581,0,0,0-.557-1.6A1.7,1.7,0,0,0,79.8,16.042ZM86.1,23H84.749V11.75H86.1Zm5.457.146a3.463,3.463,0,0,1-2.622-1.058,3.928,3.928,0,0,1-1.011-2.831v-.249a4.756,4.756,0,0,1,.45-2.106,3.514,3.514,0,0,1,1.26-1.45,3.167,3.167,0,0,1,1.754-.524,2.968,2.968,0,0,1,2.4,1.018,4.408,4.408,0,0,1,.857,2.915v.564H89.282a2.817,2.817,0,0,0,.685,1.893,2.153,2.153,0,0,0,1.666.721,2.36,2.36,0,0,0,1.216-.293,3.055,3.055,0,0,0,.872-.776l.828.645A3.328,3.328,0,0,1,91.56,23.146Zm-.168-7.1a1.807,1.807,0,0,0-1.377.6,2.9,2.9,0,0,0-.688,1.674H93.3v-.1a2.581,2.581,0,0,0-.557-1.6A1.7,1.7,0,0,0,91.392,16.042Zm8.005,6a1.952,1.952,0,0,0,1.267-.439,1.546,1.546,0,0,0,.6-1.1h1.282a2.457,2.457,0,0,1-.469,1.3,3.087,3.087,0,0,1-1.154.981,3.329,3.329,0,0,1-1.527.366,3.265,3.265,0,0,1-2.574-1.08,4.3,4.3,0,0,1-.956-2.955v-.227a4.771,4.771,0,0,1,.425-2.058,3.236,3.236,0,0,1,1.219-1.4,3.464,3.464,0,0,1,1.879-.5,3.178,3.178,0,0,1,2.216.8,2.853,2.853,0,0,1,.941,2.073h-1.282a1.867,1.867,0,0,0-.582-1.263,1.811,1.811,0,0,0-1.293-.494,1.9,1.9,0,0,0-1.6.743,3.491,3.491,0,0,0-.568,2.15v.256a3.422,3.422,0,0,0,.564,2.109A1.906,1.906,0,0,0,99.4,22.041Zm6.511-8.884v1.919h1.479v1.047h-1.479v4.921a1.1,1.1,0,0,0,.2.715.832.832,0,0,0,.674.238,3.281,3.281,0,0,0,.645-.088V23a3.951,3.951,0,0,1-1.04.146,1.687,1.687,0,0,1-1.37-.549,2.36,2.36,0,0,1-.461-1.56V16.123H103.11V15.075h1.443V13.156Zm6.892,3.135a4.06,4.06,0,0,0-.667-.051,1.786,1.786,0,0,0-1.809,1.135V23H108.97V15.075h1.318l.022.916a2.11,2.11,0,0,1,1.89-1.062,1.384,1.384,0,0,1,.6.1ZM115.518,23h-1.355V15.075h1.355Zm-1.465-10.027a.809.809,0,0,1,.2-.557.756.756,0,0,1,.6-.227.768.768,0,0,1,.6.227.8.8,0,0,1,.205.557.774.774,0,0,1-.205.549.782.782,0,0,1-.6.22.77.77,0,0,1-.6-.22A.782.782,0,0,1,114.053,12.973Zm6.812,9.067a1.952,1.952,0,0,0,1.267-.439,1.546,1.546,0,0,0,.6-1.1h1.282a2.457,2.457,0,0,1-.469,1.3,3.087,3.087,0,0,1-1.154.981,3.329,3.329,0,0,1-1.527.366,3.265,3.265,0,0,1-2.574-1.08,4.3,4.3,0,0,1-.956-2.955v-.227a4.771,4.771,0,0,1,.425-2.058,3.236,3.236,0,0,1,1.219-1.4,3.464,3.464,0,0,1,1.879-.5,3.178,3.178,0,0,1,2.216.8,2.853,2.853,0,0,1,.941,2.073h-1.282a1.867,1.867,0,0,0-.582-1.263,1.811,1.811,0,0,0-1.293-.494,1.9,1.9,0,0,0-1.6.743,3.491,3.491,0,0,0-.568,2.15v.256a3.422,3.422,0,0,0,.564,2.109A1.906,1.906,0,0,0,120.864,22.041Zm6.145.959h-1.355V15.075h1.355Zm-1.465-10.027a.809.809,0,0,1,.2-.557.756.756,0,0,1,.6-.227.768.768,0,0,1,.6.227.8.8,0,0,1,.205.557.774.774,0,0,1-.205.549.782.782,0,0,1-.6.22.77.77,0,0,1-.6-.22A.782.782,0,0,1,125.544,12.973Zm3.3,6a4.642,4.642,0,0,1,.864-2.933,2.941,2.941,0,0,1,4.468-.157V11.75h1.355V23H134.29l-.066-.85a2.759,2.759,0,0,1-2.263,1,2.707,2.707,0,0,1-2.245-1.128,4.7,4.7,0,0,1-.868-2.944Zm1.355.154a3.515,3.515,0,0,0,.557,2.109A1.8,1.8,0,0,0,132.3,22a1.977,1.977,0,0,0,1.882-1.157V17.2a1.992,1.992,0,0,0-1.868-1.121,1.808,1.808,0,0,0-1.553.769A3.87,3.87,0,0,0,130.2,19.125ZM142.529,23a2.846,2.846,0,0,1-.19-.835,3.023,3.023,0,0,1-2.256.981,2.8,2.8,0,0,1-1.923-.663,2.145,2.145,0,0,1-.751-1.681,2.24,2.24,0,0,1,.941-1.923A4.437,4.437,0,0,1,141,18.2h1.318v-.623a1.522,1.522,0,0,0-.425-1.132,1.707,1.707,0,0,0-1.252-.421,1.976,1.976,0,0,0-1.216.366,1.079,1.079,0,0,0-.491.886h-1.362a1.87,1.87,0,0,1,.421-1.146,2.874,2.874,0,0,1,1.143-.875,3.844,3.844,0,0,1,1.586-.322,3.133,3.133,0,0,1,2.146.685,2.47,2.47,0,0,1,.806,1.886v3.647a4.459,4.459,0,0,0,.278,1.736V23Zm-2.249-1.033a2.381,2.381,0,0,0,1.208-.33,1.994,1.994,0,0,0,.828-.857V19.155h-1.062q-2.49,0-2.49,1.458a1.234,1.234,0,0,0,.425,1A1.633,1.633,0,0,0,140.281,21.967Zm5.186-3a4.642,4.642,0,0,1,.864-2.933,2.941,2.941,0,0,1,4.468-.157V11.75h1.355V23h-1.245l-.066-.85a2.759,2.759,0,0,1-2.263,1,2.707,2.707,0,0,1-2.245-1.128,4.7,4.7,0,0,1-.868-2.944Zm1.355.154a3.515,3.515,0,0,0,.557,2.109,1.8,1.8,0,0,0,1.538.762,1.977,1.977,0,0,0,1.882-1.157V17.2a1.992,1.992,0,0,0-1.868-1.121,1.808,1.808,0,0,0-1.553.769A3.87,3.87,0,0,0,146.821,19.125Zm10.562-.381a11.329,11.329,0,0,1-.428,3.131,9.259,9.259,0,0,1-1.311,2.765,5.744,5.744,0,0,1-1.849,1.8l-.286-.828a5.888,5.888,0,0,0,1.813-2.684,11.613,11.613,0,0,0,.7-4.039v-.234a12.057,12.057,0,0,0-.322-2.86,9.653,9.653,0,0,0-.9-2.369,5.473,5.473,0,0,0-1.293-1.633l.286-.828a5.722,5.722,0,0,1,1.842,1.787,9.278,9.278,0,0,1,1.311,2.761A11.591,11.591,0,0,1,157.383,18.745Zm6.284-1.091.542-5.317h5.464v1.252h-4.314l-.322,2.908a3.441,3.441,0,0,1,1.78-.461,2.942,2.942,0,0,1,2.314.963,3.775,3.775,0,0,1,.857,2.6,3.643,3.643,0,0,1-.89,2.6,3.243,3.243,0,0,1-2.487.948,3.371,3.371,0,0,1-2.307-.784,3.128,3.128,0,0,1-1.018-2.168h1.282a2.152,2.152,0,0,0,.652,1.381,2.027,2.027,0,0,0,1.392.465,1.828,1.828,0,0,0,1.483-.645,2.694,2.694,0,0,0,.538-1.78,2.473,2.473,0,0,0-.582-1.718,1.981,1.981,0,0,0-1.549-.648,2.234,2.234,0,0,0-1.392.388l-.359.293Zm7.9,7.471-.769-.527a3.534,3.534,0,0,0,.718-1.978V21.4h1.326v1.062a3.336,3.336,0,0,1-.363,1.479A3.464,3.464,0,0,1,171.563,25.124ZM181.3,13.1,176.88,23h-1.421l4.4-9.551h-5.771V12.336H181.3Zm5.134,1.289a2.164,2.164,0,0,1,.612-1.582,2.3,2.3,0,0,1,3.149,0,2.239,2.239,0,0,1,.6,1.622v.52a2.136,2.136,0,0,1-.612,1.578,2.108,2.108,0,0,1-1.556.612,2.155,2.155,0,0,1-1.575-.612,2.181,2.181,0,0,1-.623-1.63Zm1.011.561a1.386,1.386,0,0,0,.322.943,1.087,1.087,0,0,0,.864.371,1.066,1.066,0,0,0,.839-.36,1.431,1.431,0,0,0,.319-.984v-.536a1.421,1.421,0,0,0-.315-.947,1.168,1.168,0,0,0-1.714,0,1.465,1.465,0,0,0-.315.976Zm4.182,5.438a2.151,2.151,0,0,1,.612-1.578,2.313,2.313,0,0,1,3.146,0A2.208,2.208,0,0,1,196,20.437v.52a2.151,2.151,0,0,1-.612,1.578,2.1,2.1,0,0,1-1.564.619,2.155,2.155,0,0,1-1.575-.612,2.181,2.181,0,0,1-.623-1.63Zm1.011.568a1.4,1.4,0,0,0,.322.951,1.087,1.087,0,0,0,.864.371,1.059,1.059,0,0,0,.842-.363,1.456,1.456,0,0,0,.315-.987v-.543a1.393,1.393,0,0,0-.319-.947,1.171,1.171,0,0,0-1.7,0,1.413,1.413,0,0,0-.326.98Zm-3.7,1.241-.769-.483,5.208-8.335.769.483Z" transform="translate(328.463 312.047)" fill="#12263f"/>
  <g id="Grupo_159413" data-name="Grupo 159413" transform="translate(23.052 100.135)">
    <rect id="Rect치ngulo_45868" data-name="Rect치ngulo 45868" width="71.311" height="206.264" transform="translate(0 35.227)" fill="#770b08"/>
    <g id="Grupo_159412" data-name="Grupo 159412" transform="translate(21.063)" clip-path="url(#clip-path)">
      <path id="Trazado_601867" data-name="Trazado 601867" d="M352.612,118.587l-5.564-.2c.281-7.681-1.807-9.739-2.674-9.9H136.535v-5.568H344.462a6.616,6.616,0,0,1,4.623,2.134c2.574,2.6,3.761,7.152,3.527,13.537m-8.228-10.1a.684.684,0,0,0,.154,0Z" transform="translate(15.517 11.696)" fill="#939393"/>
      <path id="Trazado_601868" data-name="Trazado 601868" d="M294.184,149.214l-12.243-.4c.652-19.859-5.068-25.361-7.475-25.873H136.536v-12.25H274.8c1.052.016,6.093.341,10.88,5.362,6.152,6.452,9.013,17.61,8.5,33.164M274.54,122.937a.978.978,0,0,0,.173,0Z" transform="translate(15.517 14.335)" fill="#b793ff"/>
      <path id="Trazado_601869" data-name="Trazado 601869" d="M220.66,251.277h-5.568V135.549c0-3.6-.761-4.7-.986-4.95h-77.57V125.03h77a5.326,5.326,0,0,1,3.947,1.128c2.138,1.669,3.177,4.74,3.177,9.39Z" transform="translate(15.517 17.541)" fill="#6b509e"/>
      <path id="Trazado_601870" data-name="Trazado 601870" d="M42.8,110.773H401.986v34.718l32.844-73.125L401.986,0V34.718H42.8Z" transform="translate(4.864 0)" fill="#5689ce"/>
      <path id="Trazado_601871" data-name="Trazado 601871" d="M274.3,137.164h16.2l-8.1,14.025-8.1,14.026-8.1-14.026-8.1-14.025Z" transform="translate(29.333 23.395)" fill="#b793ff"/>
      <path id="Trazado_601872" data-name="Trazado 601872" d="M329.019,116.9h9.127l-4.564,7.9-4.564,7.9-4.564-7.9-4.564-7.9Z" transform="translate(36.355 13.285)" fill="#939393"/>
      <path id="Trazado_601873" data-name="Trazado 601873" d="M210.506,207.747h9.127l-4.564,7.9-4.564,7.9-4.564-7.9-4.564-7.9Z" transform="translate(22.886 59.317)" fill="#6b509e"/>
      <path id="Trazado_601874" data-name="Trazado 601874" d="M47.609,62.518V232.985H0l100.275,45.037,99.235-45.037H151.9V62.518Z" transform="translate(0 7.105)" fill="#8bffff"/>
    </g>
  </g>
  <path id="Trazado_602195" data-name="Trazado 602195" d="M-15-3.552a3.774,3.774,0,0,1-1.271,2.71A4.463,4.463,0,0,1-19.3.146a4.013,4.013,0,0,1-3.226-1.381A5.661,5.661,0,0,1-23.7-5.024v-.652a6.393,6.393,0,0,1,.542-2.71,4.062,4.062,0,0,1,1.549-1.8,4.339,4.339,0,0,1,2.34-.626,4.348,4.348,0,0,1,2.974.989,4.055,4.055,0,0,1,1.3,2.776h-2.2a2.227,2.227,0,0,0-.575-1.5,2.129,2.129,0,0,0-1.505-.465,1.867,1.867,0,0,0-1.644.787,4.413,4.413,0,0,0-.56,2.443v.806a4.723,4.723,0,0,0,.524,2.527,1.832,1.832,0,0,0,1.652.8,2.169,2.169,0,0,0,1.52-.465A2.1,2.1,0,0,0-17.2-3.552ZM-9.108,0A2.351,2.351,0,0,1-9.32-.71a2.561,2.561,0,0,1-2,.857,2.814,2.814,0,0,1-1.93-.674,2.167,2.167,0,0,1-.765-1.7,2.24,2.24,0,0,1,.934-1.934,4.608,4.608,0,0,1,2.7-.681h.974V-5.3a1.306,1.306,0,0,0-.282-.879,1.109,1.109,0,0,0-.89-.33,1.261,1.261,0,0,0-.839.256.871.871,0,0,0-.3.7h-2.117a2.126,2.126,0,0,1,.425-1.274,2.808,2.808,0,0,1,1.2-.919,4.378,4.378,0,0,1,1.743-.333,3.459,3.459,0,0,1,2.325.736,2.575,2.575,0,0,1,.861,2.069v3.435A3.789,3.789,0,0,0-6.969-.125V0Zm-1.75-1.472a1.823,1.823,0,0,0,.864-.209,1.371,1.371,0,0,0,.586-.56V-3.6H-10.2q-1.589,0-1.692,1.1l-.007.125a.847.847,0,0,0,.278.652A1.081,1.081,0,0,0-10.858-1.472ZM-1.2-5.94A5.751,5.751,0,0,0-1.967-6a1.55,1.55,0,0,0-1.575.813V0H-5.658V-7.925h2l.059.945A1.961,1.961,0,0,1-1.835-8.071a2.218,2.218,0,0,1,.659.1ZM6.954-3.889a4.8,4.8,0,0,1-.813,2.97A2.693,2.693,0,0,1,3.871.146,2.474,2.474,0,0,1,1.813-.842L1.718,0h-1.9V-11.25H1.93v4.036a2.411,2.411,0,0,1,1.926-.857A2.715,2.715,0,0,1,6.13-7.006a4.806,4.806,0,0,1,.824,3ZM4.838-4.043A3.153,3.153,0,0,0,4.457-5.8,1.288,1.288,0,0,0,3.322-6.35a1.4,1.4,0,0,0-1.392.828V-2.4a1.415,1.415,0,0,0,1.406.835A1.307,1.307,0,0,0,4.684-2.571,5.214,5.214,0,0,0,4.838-4.043Zm3.091.007a4.7,4.7,0,0,1,.454-2.1A3.324,3.324,0,0,1,9.69-7.566a3.814,3.814,0,0,1,1.981-.505,3.609,3.609,0,0,1,2.618.981,3.939,3.939,0,0,1,1.132,2.666l.015.542A4.142,4.142,0,0,1,14.418-.956a3.539,3.539,0,0,1-2.732,1.1A3.556,3.556,0,0,1,8.95-.952,4.215,4.215,0,0,1,7.928-3.94Zm2.117.15a2.962,2.962,0,0,0,.425,1.727,1.4,1.4,0,0,0,1.216.6,1.4,1.4,0,0,0,1.2-.591,3.241,3.241,0,0,0,.432-1.889,2.933,2.933,0,0,0-.432-1.716,1.4,1.4,0,0,0-1.216-.609,1.382,1.382,0,0,0-1.2.605A3.3,3.3,0,0,0,10.045-3.885Zm2.043-7.365H14.4L12.367-8.979H10.646Zm6.6,3.325.066.916a2.767,2.767,0,0,1,2.278-1.062,2.3,2.3,0,0,1,1.875.74,3.451,3.451,0,0,1,.63,2.212V0H21.42V-5.068a1.373,1.373,0,0,0-.293-.978,1.312,1.312,0,0,0-.974-.3,1.456,1.456,0,0,0-1.34.762V0H16.7V-7.925ZM-14.447,19h-2.117V10.841l-2.527.784V9.9l4.417-1.582h.227ZM-3.8,14.591a5.4,5.4,0,0,1-.916,3.384A3.2,3.2,0,0,1-7.4,19.146,3.218,3.218,0,0,1-10.067,18a5.244,5.244,0,0,1-.945-3.3V12.738a5.331,5.331,0,0,1,.927-3.391,3.22,3.22,0,0,1,2.67-1.157A3.223,3.223,0,0,1-4.75,9.336,5.228,5.228,0,0,1-3.8,12.628Zm-2.117-2.158A3.905,3.905,0,0,0-6.284,10.5a1.225,1.225,0,0,0-1.132-.6,1.2,1.2,0,0,0-1.1.576,3.655,3.655,0,0,0-.377,1.8v2.6a4.1,4.1,0,0,0,.355,1.939A1.209,1.209,0,0,0-7.4,17.44a1.189,1.189,0,0,0,1.121-.608,4,4,0,0,0,.359-1.862ZM4.8,14.591a5.4,5.4,0,0,1-.916,3.384A3.2,3.2,0,0,1,1.2,19.146,3.218,3.218,0,0,1-1.461,18a5.244,5.244,0,0,1-.945-3.3V12.738a5.331,5.331,0,0,1,.927-3.391A3.22,3.22,0,0,1,1.19,8.189,3.223,3.223,0,0,1,3.856,9.336,5.228,5.228,0,0,1,4.8,12.628ZM2.684,12.433A3.905,3.905,0,0,0,2.322,10.5,1.225,1.225,0,0,0,1.19,9.9a1.2,1.2,0,0,0-1.1.576,3.654,3.654,0,0,0-.377,1.8v2.6a4.1,4.1,0,0,0,.355,1.939A1.209,1.209,0,0,0,1.2,17.44a1.189,1.189,0,0,0,1.121-.608,4,4,0,0,0,.359-1.862Zm7.251-2.046a2.108,2.108,0,0,1,.637-1.593,2.311,2.311,0,0,1,1.67-.612,2.347,2.347,0,0,1,1.685.6,2.149,2.149,0,0,1,.637,1.637v.527a2.082,2.082,0,0,1-.637,1.589,2.335,2.335,0,0,1-1.67.6,2.35,2.35,0,0,1-1.681-.6,2.133,2.133,0,0,1-.641-1.63Zm1.406.564a.987.987,0,0,0,.253.707.87.87,0,0,0,.663.267.83.83,0,0,0,.652-.271,1.049,1.049,0,0,0,.242-.725v-.542a1.027,1.027,0,0,0-.242-.71.942.942,0,0,0-1.318,0,1.049,1.049,0,0,0-.249.743Zm3.691,5.435a2.081,2.081,0,0,1,.645-1.593,2.343,2.343,0,0,1,1.67-.6,2.367,2.367,0,0,1,1.681.6,2.137,2.137,0,0,1,.641,1.644v.527a2.1,2.1,0,0,1-.63,1.586,2.321,2.321,0,0,1-1.677.6,2.349,2.349,0,0,1-1.692-.608,2.124,2.124,0,0,1-.637-1.611Zm1.406.571a.979.979,0,0,0,.264.688.86.86,0,0,0,.659.286q.894,0,.894-.989v-.557a1,1,0,0,0-.249-.707.946.946,0,0,0-1.318,0,1.027,1.027,0,0,0-.249.729ZM12.675,18.2l-1.033-.557L16.849,9.31l1.033.557Z" transform="translate(53.463 106.047)" fill="#12263f"/>
  <path id="Trazado_602196" data-name="Trazado 602196" d="M0,0H392V281H0Z" transform="translate(101.463 480.047)" fill="#cdfcfc"/>
  <path id="Trazado_602197" data-name="Trazado 602197" d="M-46.992-3.9h-1.75V0h-2.2V-10.664h3.962a4.479,4.479,0,0,1,2.915.842,2.907,2.907,0,0,1,1.025,2.38,3.281,3.281,0,0,1-.472,1.82A3.222,3.222,0,0,1-44.941-4.46L-42.634-.1V0h-2.358Zm-1.75-1.78h1.772A1.815,1.815,0,0,0-45.688-6.1a1.505,1.505,0,0,0,.454-1.161,1.611,1.611,0,0,0-.428-1.187,1.781,1.781,0,0,0-1.315-.432h-1.765ZM-37.859.146A3.89,3.89,0,0,1-40.7-.923a3.8,3.8,0,0,1-1.095-2.849v-.205a4.787,4.787,0,0,1,.461-2.135,3.386,3.386,0,0,1,1.307-1.45,3.669,3.669,0,0,1,1.93-.509,3.289,3.289,0,0,1,2.56,1.025A4.167,4.167,0,0,1-34.6-4.138v.864h-5.046a1.966,1.966,0,0,0,.619,1.245,1.871,1.871,0,0,0,1.307.469,2.285,2.285,0,0,0,1.912-.886l1.04,1.165A3.178,3.178,0,0,1-36.057-.231,4.229,4.229,0,0,1-37.859.146ZM-38.1-6.365a1.323,1.323,0,0,0-1.022.427,2.209,2.209,0,0,0-.5,1.221h2.944v-.169a1.576,1.576,0,0,0-.381-1.092A1.365,1.365,0,0,0-38.1-6.365Zm6.65-1.56.066.916a2.767,2.767,0,0,1,2.278-1.062,2.3,2.3,0,0,1,1.875.74A3.451,3.451,0,0,1-26.6-5.12V0h-2.117V-5.068a1.373,1.373,0,0,0-.293-.978,1.312,1.312,0,0,0-.974-.3,1.456,1.456,0,0,0-1.34.762V0h-2.117V-7.925Zm6.123,3.9A4.776,4.776,0,0,1-24.5-6.973a2.7,2.7,0,0,1,2.274-1.1,2.427,2.427,0,0,1,1.912.864V-11.25h2.124V0H-20.1l-.1-.842a2.491,2.491,0,0,1-2.036.989,2.69,2.69,0,0,1-2.245-1.1A4.93,4.93,0,0,1-25.327-4.021Zm2.117.158a3.128,3.128,0,0,0,.388,1.709,1.265,1.265,0,0,0,1.128.594,1.416,1.416,0,0,0,1.384-.829V-5.521a1.4,1.4,0,0,0-1.37-.829Q-23.21-6.35-23.21-3.863ZM-14.312,0h-2.124V-7.925h2.124ZM-16.56-9.976a1.042,1.042,0,0,1,.319-.784,1.2,1.2,0,0,1,.868-.308,1.2,1.2,0,0,1,.864.308,1.036,1.036,0,0,1,.322.784,1.039,1.039,0,0,1-.326.791,1.2,1.2,0,0,1-.861.308,1.2,1.2,0,0,1-.861-.308A1.039,1.039,0,0,1-16.56-9.976Zm5.977,2.051.066.886A2.785,2.785,0,0,1-8.24-8.071a2.114,2.114,0,0,1,2.1,1.208,2.721,2.721,0,0,1,2.38-1.208,2.364,2.364,0,0,1,1.919.751,3.451,3.451,0,0,1,.63,2.26V0H-3.333V-5.054A1.509,1.509,0,0,0-3.6-6.039a1.169,1.169,0,0,0-.93-.311,1.321,1.321,0,0,0-1.318.908L-5.837,0H-7.954V-5.046a1.491,1.491,0,0,0-.271-1,1.18,1.18,0,0,0-.923-.308,1.372,1.372,0,0,0-1.3.747V0h-2.117V-7.925ZM2.651,0H.527V-7.925H2.651ZM.4-9.976a1.042,1.042,0,0,1,.319-.784,1.2,1.2,0,0,1,.868-.308,1.2,1.2,0,0,1,.864.308,1.036,1.036,0,0,1,.322.784,1.039,1.039,0,0,1-.326.791,1.2,1.2,0,0,1-.861.308,1.2,1.2,0,0,1-.861-.308A1.039,1.039,0,0,1,.4-9.976ZM8.042.146A3.89,3.89,0,0,1,5.2-.923,3.8,3.8,0,0,1,4.109-3.772v-.205A4.787,4.787,0,0,1,4.57-6.112a3.386,3.386,0,0,1,1.307-1.45,3.669,3.669,0,0,1,1.93-.509,3.289,3.289,0,0,1,2.56,1.025A4.167,4.167,0,0,1,11.3-4.138v.864H6.255a1.966,1.966,0,0,0,.619,1.245,1.871,1.871,0,0,0,1.307.469,2.285,2.285,0,0,0,1.912-.886l1.04,1.165A3.178,3.178,0,0,1,9.844-.231,4.229,4.229,0,0,1,8.042.146ZM7.8-6.365a1.323,1.323,0,0,0-1.022.427,2.209,2.209,0,0,0-.5,1.221H9.221v-.169A1.576,1.576,0,0,0,8.84-5.979,1.365,1.365,0,0,0,7.8-6.365Zm6.65-1.56.066.916a2.767,2.767,0,0,1,2.278-1.062,2.3,2.3,0,0,1,1.875.74A3.451,3.451,0,0,1,19.3-5.12V0H17.183V-5.068a1.373,1.373,0,0,0-.293-.978,1.312,1.312,0,0,0-.974-.3,1.456,1.456,0,0,0-1.34.762V0H12.458V-7.925Zm8.987-1.948v1.948h1.355v1.553H23.438v3.955a.944.944,0,0,0,.168.63.846.846,0,0,0,.645.19,3.376,3.376,0,0,0,.623-.051v1.6a4.358,4.358,0,0,1-1.282.19A2.021,2.021,0,0,1,21.321-2.1v-4.27H20.164V-7.925h1.157V-9.873Zm1.985,5.837a4.7,4.7,0,0,1,.454-2.1,3.324,3.324,0,0,1,1.307-1.428,3.814,3.814,0,0,1,1.981-.505,3.609,3.609,0,0,1,2.618.981,3.939,3.939,0,0,1,1.132,2.666l.015.542A4.142,4.142,0,0,1,31.912-.956,3.539,3.539,0,0,1,29.18.146a3.556,3.556,0,0,1-2.736-1.1A4.215,4.215,0,0,1,25.422-3.94Zm2.117.15a2.962,2.962,0,0,0,.425,1.727,1.4,1.4,0,0,0,1.216.6,1.4,1.4,0,0,0,1.2-.591,3.241,3.241,0,0,0,.432-1.889,2.933,2.933,0,0,0-.432-1.716,1.4,1.4,0,0,0-1.216-.609,1.382,1.382,0,0,0-1.2.605A3.3,3.3,0,0,0,27.539-3.885Zm7.244,6.559-1.106-.579.264-.476a3.806,3.806,0,0,0,.505-1.78V-1.8h1.787L36.226-.337a3.805,3.805,0,0,1-.41,1.641A4.206,4.206,0,0,1,34.783,2.673ZM41.514-8.613a2.108,2.108,0,0,1,.637-1.593,2.311,2.311,0,0,1,1.67-.612,2.347,2.347,0,0,1,1.685.6,2.149,2.149,0,0,1,.637,1.637v.527a2.082,2.082,0,0,1-.637,1.589,2.335,2.335,0,0,1-1.67.6,2.35,2.35,0,0,1-1.681-.6,2.133,2.133,0,0,1-.641-1.63Zm1.406.564a.987.987,0,0,0,.253.707.87.87,0,0,0,.663.267.83.83,0,0,0,.652-.271,1.049,1.049,0,0,0,.242-.725v-.542a1.027,1.027,0,0,0-.242-.71.847.847,0,0,0-.667-.271.849.849,0,0,0-.652.267,1.049,1.049,0,0,0-.249.743Zm3.691,5.435a2.081,2.081,0,0,1,.645-1.593,2.343,2.343,0,0,1,1.67-.6,2.367,2.367,0,0,1,1.681.6,2.137,2.137,0,0,1,.641,1.644v.527a2.1,2.1,0,0,1-.63,1.586,2.321,2.321,0,0,1-1.677.6,2.349,2.349,0,0,1-1.692-.608,2.124,2.124,0,0,1-.637-1.611Zm1.406.571a.979.979,0,0,0,.264.688.86.86,0,0,0,.659.286q.894,0,.894-.989v-.557a1,1,0,0,0-.249-.707.858.858,0,0,0-.659-.267.858.858,0,0,0-.659.267,1.027,1.027,0,0,0-.249.729ZM44.253-.8,43.22-1.355,48.428-9.69l1.033.557Z" transform="translate(379.463 696.047)" fill="#12263f"/>
  <path id="Trazado_602198" data-name="Trazado 602198" d="M-20.676-3.552a3.774,3.774,0,0,1-1.271,2.71,4.463,4.463,0,0,1-3.021.989,4.013,4.013,0,0,1-3.226-1.381,5.661,5.661,0,0,1-1.176-3.79v-.652a6.393,6.393,0,0,1,.542-2.71,4.062,4.062,0,0,1,1.549-1.8,4.339,4.339,0,0,1,2.34-.626,4.348,4.348,0,0,1,2.974.989,4.055,4.055,0,0,1,1.3,2.776h-2.2a2.227,2.227,0,0,0-.575-1.5,2.129,2.129,0,0,0-1.505-.465,1.867,1.867,0,0,0-1.644.787,4.413,4.413,0,0,0-.56,2.443v.806a4.723,4.723,0,0,0,.524,2.527,1.832,1.832,0,0,0,1.652.8,2.169,2.169,0,0,0,1.52-.465,2.1,2.1,0,0,0,.575-1.439Zm.974-.483a4.7,4.7,0,0,1,.454-2.1,3.324,3.324,0,0,1,1.307-1.428,3.814,3.814,0,0,1,1.981-.505,3.609,3.609,0,0,1,2.618.981,3.939,3.939,0,0,1,1.132,2.666l.015.542A4.142,4.142,0,0,1-13.213-.956a3.539,3.539,0,0,1-2.732,1.1,3.556,3.556,0,0,1-2.736-1.1A4.215,4.215,0,0,1-19.7-3.94Zm2.117.15a2.962,2.962,0,0,0,.425,1.727,1.4,1.4,0,0,0,1.216.6,1.4,1.4,0,0,0,1.2-.591,3.241,3.241,0,0,0,.432-1.889,2.933,2.933,0,0,0-.432-1.716,1.4,1.4,0,0,0-1.216-.609,1.382,1.382,0,0,0-1.2.605A3.3,3.3,0,0,0-17.585-3.885Zm8.643-4.039.066.916A2.767,2.767,0,0,1-6.6-8.071a2.3,2.3,0,0,1,1.875.74,3.451,3.451,0,0,1,.63,2.212V0H-6.211V-5.068A1.373,1.373,0,0,0-6.5-6.046a1.312,1.312,0,0,0-.974-.3,1.456,1.456,0,0,0-1.34.762V0h-2.117V-7.925Zm18.7,4.373A3.774,3.774,0,0,1,8.485-.842,4.463,4.463,0,0,1,5.464.146,4.013,4.013,0,0,1,2.238-1.234a5.661,5.661,0,0,1-1.176-3.79v-.652A6.393,6.393,0,0,1,1.6-8.386a4.062,4.062,0,0,1,1.549-1.8,4.339,4.339,0,0,1,2.34-.626,4.348,4.348,0,0,1,2.974.989,4.055,4.055,0,0,1,1.3,2.776h-2.2A2.227,2.227,0,0,0,7-8.544a2.129,2.129,0,0,0-1.505-.465,1.867,1.867,0,0,0-1.644.787,4.413,4.413,0,0,0-.56,2.443v.806a4.723,4.723,0,0,0,.524,2.527,1.832,1.832,0,0,0,1.652.8,2.169,2.169,0,0,0,1.52-.465,2.1,2.1,0,0,0,.575-1.439ZM17.219-2.2H13.367L12.634,0H10.3l3.97-10.664H16.3L20.3,0H17.959ZM13.96-3.977h2.666l-1.34-3.992Zm15.549.425a3.774,3.774,0,0,1-1.271,2.71,4.463,4.463,0,0,1-3.021.989,4.013,4.013,0,0,1-3.226-1.381,5.661,5.661,0,0,1-1.176-3.79v-.652a6.393,6.393,0,0,1,.542-2.71,4.062,4.062,0,0,1,1.549-1.8,4.339,4.339,0,0,1,2.34-.626,4.348,4.348,0,0,1,2.974.989,4.055,4.055,0,0,1,1.3,2.776h-2.2a2.227,2.227,0,0,0-.575-1.5,2.129,2.129,0,0,0-1.505-.465,1.867,1.867,0,0,0-1.644.787,4.413,4.413,0,0,0-.56,2.443v.806a4.723,4.723,0,0,0,.524,2.527,1.832,1.832,0,0,0,1.652.8,2.169,2.169,0,0,0,1.52-.465,2.1,2.1,0,0,0,.575-1.439Z" transform="translate(233.871 621.495)" fill="#12263f"/>
  <path id="Trazado_602199" data-name="Trazado 602199" d="M-64.684-3.757V0h-2.2V-10.664h4.16a4.813,4.813,0,0,1,2.113.439,3.238,3.238,0,0,1,1.4,1.249,3.482,3.482,0,0,1,.491,1.842,3.062,3.062,0,0,1-1.073,2.472,4.469,4.469,0,0,1-2.97.9Zm0-1.78h1.963a1.93,1.93,0,0,0,1.329-.41,1.492,1.492,0,0,0,.458-1.172A1.759,1.759,0,0,0-61.4-8.386a1.724,1.724,0,0,0-1.274-.5h-2.014ZM-55.111,0h-2.124V-11.25h2.124Zm6.335,0a2.351,2.351,0,0,1-.212-.71,2.561,2.561,0,0,1-2,.857,2.814,2.814,0,0,1-1.93-.674,2.167,2.167,0,0,1-.765-1.7,2.24,2.24,0,0,1,.934-1.934,4.608,4.608,0,0,1,2.7-.681h.974V-5.3a1.306,1.306,0,0,0-.282-.879,1.109,1.109,0,0,0-.89-.33,1.261,1.261,0,0,0-.839.256.871.871,0,0,0-.3.7h-2.117a2.126,2.126,0,0,1,.425-1.274,2.808,2.808,0,0,1,1.2-.919,4.378,4.378,0,0,1,1.743-.333,3.459,3.459,0,0,1,2.325.736,2.575,2.575,0,0,1,.861,2.069v3.435a3.789,3.789,0,0,0,.315,1.707V0Zm-1.75-1.472a1.823,1.823,0,0,0,.864-.209,1.371,1.371,0,0,0,.586-.56V-3.6h-.791q-1.589,0-1.692,1.1l-.007.125a.847.847,0,0,0,.278.652A1.081,1.081,0,0,0-50.526-1.472Zm7.148-6.453.066.916a2.767,2.767,0,0,1,2.278-1.062,2.3,2.3,0,0,1,1.875.74,3.451,3.451,0,0,1,.63,2.212V0h-2.117V-5.068a1.373,1.373,0,0,0-.293-.978,1.312,1.312,0,0,0-.974-.3,1.456,1.456,0,0,0-1.34.762V0H-45.37V-7.925Zm8.987-1.948v1.948h1.355v1.553h-1.355v3.955a.944.944,0,0,0,.168.63.846.846,0,0,0,.645.19,3.376,3.376,0,0,0,.623-.051v1.6a4.358,4.358,0,0,1-1.282.19A2.021,2.021,0,0,1-36.508-2.1v-4.27h-1.157V-7.925h1.157V-9.873ZM-27.264,0a2.351,2.351,0,0,1-.212-.71,2.561,2.561,0,0,1-2,.857,2.814,2.814,0,0,1-1.93-.674,2.167,2.167,0,0,1-.765-1.7,2.24,2.24,0,0,1,.934-1.934,4.608,4.608,0,0,1,2.7-.681h.974V-5.3a1.306,1.306,0,0,0-.282-.879,1.109,1.109,0,0,0-.89-.33,1.261,1.261,0,0,0-.839.256.871.871,0,0,0-.3.7H-32a2.126,2.126,0,0,1,.425-1.274,2.808,2.808,0,0,1,1.2-.919,4.378,4.378,0,0,1,1.743-.333,3.459,3.459,0,0,1,2.325.736,2.575,2.575,0,0,1,.861,2.069v3.435a3.789,3.789,0,0,0,.315,1.707V0Zm-1.75-1.472a1.823,1.823,0,0,0,.864-.209,1.371,1.371,0,0,0,.586-.56V-3.6h-.791q-1.589,0-1.692,1.1l-.007.125a.847.847,0,0,0,.278.652A1.081,1.081,0,0,0-29.015-1.472Zm8.606-2.549a4.776,4.776,0,0,1,.831-2.952,2.7,2.7,0,0,1,2.274-1.1,2.427,2.427,0,0,1,1.912.864V-11.25h2.124V0h-1.912l-.1-.842a2.491,2.491,0,0,1-2.036.989,2.69,2.69,0,0,1-2.245-1.1A4.93,4.93,0,0,1-20.409-4.021Zm2.117.158A3.128,3.128,0,0,0-17.9-2.154a1.265,1.265,0,0,0,1.128.594,1.416,1.416,0,0,0,1.384-.829V-5.521a1.4,1.4,0,0,0-1.37-.829Q-18.292-6.35-18.292-3.863ZM-7.98.146A3.89,3.89,0,0,1-10.818-.923a3.8,3.8,0,0,1-1.095-2.849v-.205a4.787,4.787,0,0,1,.461-2.135,3.386,3.386,0,0,1,1.307-1.45,3.669,3.669,0,0,1,1.93-.509,3.289,3.289,0,0,1,2.56,1.025A4.167,4.167,0,0,1-4.72-4.138v.864H-9.767a1.966,1.966,0,0,0,.619,1.245,1.871,1.871,0,0,0,1.307.469,2.285,2.285,0,0,0,1.912-.886l1.04,1.165A3.178,3.178,0,0,1-6.178-.231,4.229,4.229,0,0,1-7.98.146Zm-.242-6.511a1.323,1.323,0,0,0-1.022.427,2.209,2.209,0,0,0-.5,1.221H-6.8v-.169a1.576,1.576,0,0,0-.381-1.092A1.365,1.365,0,0,0-8.221-6.365ZM4.669-5.94A5.751,5.751,0,0,0,3.907-6a1.55,1.55,0,0,0-1.575.813V0H.216V-7.925h2l.059.945A1.961,1.961,0,0,1,4.039-8.071a2.218,2.218,0,0,1,.659.1ZM9.2.146A3.89,3.89,0,0,1,6.357-.923,3.8,3.8,0,0,1,5.262-3.772v-.205a4.787,4.787,0,0,1,.461-2.135,3.386,3.386,0,0,1,1.307-1.45,3.669,3.669,0,0,1,1.93-.509,3.289,3.289,0,0,1,2.56,1.025,4.167,4.167,0,0,1,.934,2.908v.864H7.408a1.966,1.966,0,0,0,.619,1.245,1.871,1.871,0,0,0,1.307.469,2.285,2.285,0,0,0,1.912-.886l1.04,1.165A3.178,3.178,0,0,1,11-.231,4.229,4.229,0,0,1,9.2.146ZM8.954-6.365a1.323,1.323,0,0,0-1.022.427,2.209,2.209,0,0,0-.5,1.221h2.944v-.169a1.576,1.576,0,0,0-.381-1.092A1.365,1.365,0,0,0,8.954-6.365ZM14.235,0V-6.372H13.055V-7.925h1.179V-8.6A2.736,2.736,0,0,1,15-10.668a2.964,2.964,0,0,1,2.142-.736,4.948,4.948,0,0,1,1.077.146L18.2-9.617a2.7,2.7,0,0,0-.645-.066q-1.194,0-1.194,1.121v.637h1.575v1.553H16.359V0ZM22.5.146A3.89,3.89,0,0,1,19.666-.923a3.8,3.8,0,0,1-1.095-2.849v-.205a4.787,4.787,0,0,1,.461-2.135,3.386,3.386,0,0,1,1.307-1.45,3.669,3.669,0,0,1,1.93-.509,3.289,3.289,0,0,1,2.56,1.025,4.167,4.167,0,0,1,.934,2.908v.864H20.717a1.966,1.966,0,0,0,.619,1.245,1.871,1.871,0,0,0,1.307.469,2.285,2.285,0,0,0,1.912-.886l1.04,1.165A3.178,3.178,0,0,1,24.305-.231,4.229,4.229,0,0,1,22.5.146Zm-.242-6.511a1.323,1.323,0,0,0-1.022.427,2.209,2.209,0,0,0-.5,1.221h2.944v-.169A1.576,1.576,0,0,0,23.3-5.979,1.365,1.365,0,0,0,22.262-6.365Zm9.155.425A5.751,5.751,0,0,0,30.656-6a1.55,1.55,0,0,0-1.575.813V0H26.964V-7.925h2l.059.945a1.961,1.961,0,0,1,1.765-1.091,2.218,2.218,0,0,1,.659.1ZM35.944.146A3.89,3.89,0,0,1,33.105-.923,3.8,3.8,0,0,1,32.01-3.772v-.205a4.787,4.787,0,0,1,.461-2.135,3.386,3.386,0,0,1,1.307-1.45,3.669,3.669,0,0,1,1.93-.509,3.289,3.289,0,0,1,2.56,1.025A4.167,4.167,0,0,1,39.2-4.138v.864H34.156a1.966,1.966,0,0,0,.619,1.245,1.871,1.871,0,0,0,1.307.469,2.285,2.285,0,0,0,1.912-.886l1.04,1.165A3.178,3.178,0,0,1,37.745-.231,4.229,4.229,0,0,1,35.944.146ZM35.7-6.365a1.323,1.323,0,0,0-1.022.427,2.209,2.209,0,0,0-.5,1.221h2.944v-.169a1.576,1.576,0,0,0-.381-1.092A1.365,1.365,0,0,0,35.7-6.365Zm6.65-1.56.066.916A2.767,2.767,0,0,1,44.7-8.071a2.3,2.3,0,0,1,1.875.74A3.451,3.451,0,0,1,47.2-5.12V0H45.084V-5.068a1.373,1.373,0,0,0-.293-.978,1.312,1.312,0,0,0-.974-.3,1.456,1.456,0,0,0-1.34.762V0H40.36V-7.925ZM52.1-1.56a1.388,1.388,0,0,0,.952-.322,1.129,1.129,0,0,0,.381-.857h1.985a2.715,2.715,0,0,1-.439,1.476A2.9,2.9,0,0,1,53.8-.223a3.7,3.7,0,0,1-1.659.37,3.44,3.44,0,0,1-2.681-1.08,4.275,4.275,0,0,1-.981-2.985v-.139a4.226,4.226,0,0,1,.974-2.922,3.4,3.4,0,0,1,2.673-1.091,3.333,3.333,0,0,1,2.384.846,3,3,0,0,1,.912,2.252H53.434a1.455,1.455,0,0,0-.381-1.005,1.27,1.27,0,0,0-.967-.387,1.275,1.275,0,0,0-1.117.539,3.125,3.125,0,0,0-.377,1.749v.22A3.164,3.164,0,0,0,50.966-2.1,1.291,1.291,0,0,0,52.1-1.56ZM58.861,0H56.737V-7.925h2.124ZM56.613-9.976a1.042,1.042,0,0,1,.319-.784,1.2,1.2,0,0,1,.868-.308,1.2,1.2,0,0,1,.864.308,1.036,1.036,0,0,1,.322.784,1.039,1.039,0,0,1-.326.791,1.2,1.2,0,0,1-.861.308,1.2,1.2,0,0,1-.861-.308A1.039,1.039,0,0,1,56.613-9.976ZM65.2,0a2.351,2.351,0,0,1-.212-.71,2.561,2.561,0,0,1-2,.857,2.814,2.814,0,0,1-1.93-.674,2.167,2.167,0,0,1-.765-1.7,2.24,2.24,0,0,1,.934-1.934,4.608,4.608,0,0,1,2.7-.681H64.9V-5.3a1.306,1.306,0,0,0-.282-.879,1.109,1.109,0,0,0-.89-.33,1.261,1.261,0,0,0-.839.256.871.871,0,0,0-.3.7H60.465a2.126,2.126,0,0,1,.425-1.274,2.808,2.808,0,0,1,1.2-.919,4.378,4.378,0,0,1,1.743-.333,3.459,3.459,0,0,1,2.325.736,2.575,2.575,0,0,1,.861,2.069v3.435a3.789,3.789,0,0,0,.315,1.707V0Zm-1.75-1.472a1.823,1.823,0,0,0,.864-.209,1.371,1.371,0,0,0,.586-.56V-3.6h-.791q-1.589,0-1.692,1.1l-.007.125a.847.847,0,0,0,.278.652A1.081,1.081,0,0,0,63.446-1.472Zm-80.189,20.92a3.774,3.774,0,0,1-1.271,2.71,4.463,4.463,0,0,1-3.021.989,4.013,4.013,0,0,1-3.226-1.381,5.661,5.661,0,0,1-1.176-3.79v-.652a6.393,6.393,0,0,1,.542-2.71,4.062,4.062,0,0,1,1.549-1.8,4.339,4.339,0,0,1,2.34-.626,4.348,4.348,0,0,1,2.974.989,4.055,4.055,0,0,1,1.3,2.776h-2.2a2.227,2.227,0,0,0-.575-1.5,2.129,2.129,0,0,0-1.505-.465,1.867,1.867,0,0,0-1.644.787,4.413,4.413,0,0,0-.56,2.443v.806a4.723,4.723,0,0,0,.524,2.527,1.832,1.832,0,0,0,1.652.8,2.169,2.169,0,0,0,1.52-.465,2.1,2.1,0,0,0,.575-1.439Zm3.64-.205V23h-2.2V12.336h4.16a4.813,4.813,0,0,1,2.113.439,3.238,3.238,0,0,1,1.4,1.249,3.482,3.482,0,0,1,.491,1.842,3.062,3.062,0,0,1-1.073,2.472,4.469,4.469,0,0,1-2.97.9Zm0-1.78h1.963a1.93,1.93,0,0,0,1.329-.41,1.492,1.492,0,0,0,.458-1.172,1.759,1.759,0,0,0-.461-1.267,1.724,1.724,0,0,0-1.274-.5H-13.1ZM6.182,12.336V19.36a3.6,3.6,0,0,1-1.095,2.769,4.221,4.221,0,0,1-2.992,1.018,4.269,4.269,0,0,1-2.966-.989A3.535,3.535,0,0,1-1.992,19.44v-7.1h2.2v7.039a2.032,2.032,0,0,0,.5,1.527,1.926,1.926,0,0,0,1.388.48q1.853,0,1.882-1.948v-7.1ZM13.513,20.2a1.128,1.128,0,0,0-.439-.956,5.764,5.764,0,0,0-1.582-.7,11.215,11.215,0,0,1-1.809-.729A2.956,2.956,0,0,1,7.866,15.17a2.575,2.575,0,0,1,.487-1.542,3.177,3.177,0,0,1,1.4-1.058,5.265,5.265,0,0,1,2.047-.381,4.793,4.793,0,0,1,2.036.414,3.242,3.242,0,0,1,1.388,1.168,3.057,3.057,0,0,1,.494,1.714h-2.2a1.438,1.438,0,0,0-.461-1.139,1.9,1.9,0,0,0-1.3-.406,2.026,2.026,0,0,0-1.252.341,1.074,1.074,0,0,0-.447.9,1.029,1.029,0,0,0,.524.872,5.916,5.916,0,0,0,1.542.659,6.661,6.661,0,0,1,2.732,1.4,2.786,2.786,0,0,1,.857,2.08,2.566,2.566,0,0,1-1.047,2.172,4.585,4.585,0,0,1-2.82.787,5.445,5.445,0,0,1-2.241-.45,3.546,3.546,0,0,1-1.542-1.234,3.161,3.161,0,0,1-.531-1.816h2.2q0,1.765,2.109,1.765a2.052,2.052,0,0,0,1.223-.319A1.037,1.037,0,0,0,13.513,20.2Zm12.063-.754a3.774,3.774,0,0,1-1.271,2.71,4.463,4.463,0,0,1-3.021.989,4.013,4.013,0,0,1-3.226-1.381,5.661,5.661,0,0,1-1.176-3.79v-.652a6.393,6.393,0,0,1,.542-2.71,4.062,4.062,0,0,1,1.549-1.8,4.339,4.339,0,0,1,2.34-.626,4.348,4.348,0,0,1,2.974.989,4.055,4.055,0,0,1,1.3,2.776h-2.2a2.227,2.227,0,0,0-.575-1.5,2.129,2.129,0,0,0-1.505-.465,1.867,1.867,0,0,0-1.644.787,4.413,4.413,0,0,0-.56,2.443v.806a4.723,4.723,0,0,0,.524,2.527,1.832,1.832,0,0,0,1.652.8,2.169,2.169,0,0,0,1.52-.465,2.1,2.1,0,0,0,.575-1.439Z" transform="translate(199.718 556.167)" fill="#12263f"/>
  <g id="Trazado_602200" data-name="Trazado 602200" transform="translate(293.463 511.047)" fill="#fdffff">
    <path d="M 162.5 132.5 L 0.5 132.5 L 0.5 0.5 L 162.5 0.5 L 162.5 132.5 Z" stroke="none"/>
    <path d="M 1 1 L 1 132 L 162 132 L 162 1 L 1 1 M 0 0 L 163 0 L 163 133 L 0 133 L 0 0 Z" stroke="none" fill="#707070"/>
  </g>
  <path id="Trazado_602201" data-name="Trazado 602201" d="M3.84-4.7a5.762,5.762,0,0,1-.977,3.609A3.409,3.409,0,0,1,0,.156,3.433,3.433,0,0,1-2.84-1.07,5.594,5.594,0,0,1-3.848-4.586V-6.68A5.687,5.687,0,0,1-2.859-10.3,3.434,3.434,0,0,1-.012-11.531a3.437,3.437,0,0,1,2.844,1.223A5.576,5.576,0,0,1,3.84-6.8Zm-2.258-2.3A4.165,4.165,0,0,0,1.2-9.066,1.307,1.307,0,0,0-.012-9.711,1.284,1.284,0,0,0-1.187-9.1a3.9,3.9,0,0,0-.4,1.92v2.768a4.372,4.372,0,0,0,.379,2.068A1.29,1.29,0,0,0,0-1.664a1.268,1.268,0,0,0,1.2-.649A4.268,4.268,0,0,0,1.582-4.3Z" transform="translate(293.463 667.047)" fill="#12263f"/>
  <path id="Trazado_602202" data-name="Trazado 602202" d="M-2.922,0H-5.18V-8.7l-2.7.836V-9.7l4.711-1.687h.242ZM8.43-4.7a5.762,5.762,0,0,1-.977,3.609A3.409,3.409,0,0,1,4.594.156,3.433,3.433,0,0,1,1.75-1.07,5.594,5.594,0,0,1,.742-4.586V-6.68A5.687,5.687,0,0,1,1.73-10.3a3.434,3.434,0,0,1,2.848-1.234,3.437,3.437,0,0,1,2.844,1.223A5.576,5.576,0,0,1,8.43-6.8Zm-2.258-2.3a4.165,4.165,0,0,0-.387-2.061,1.307,1.307,0,0,0-1.207-.645A1.284,1.284,0,0,0,3.4-9.1,3.9,3.9,0,0,0,3-7.177v2.768a4.372,4.372,0,0,0,.379,2.068,1.29,1.29,0,0,0,1.215.676,1.268,1.268,0,0,0,1.2-.649A4.268,4.268,0,0,0,6.172-4.3Z" transform="translate(329.463 667.047)" fill="#12263f"/>
  <path id="Trazado_602203" data-name="Trazado 602203" d="M-.609,0h-7.8V-1.547l3.68-3.922A9.078,9.078,0,0,0-3.605-6.914a2.322,2.322,0,0,0,.363-1.172,1.738,1.738,0,0,0-.383-1.191,1.382,1.382,0,0,0-1.094-.434,1.49,1.49,0,0,0-1.207.527A2.089,2.089,0,0,0-6.367-7.8H-8.633a3.729,3.729,0,0,1,.5-1.9,3.5,3.5,0,0,1,1.4-1.348,4.262,4.262,0,0,1,2.055-.488,4.036,4.036,0,0,1,2.73.844A2.985,2.985,0,0,1-.977-8.3a3.825,3.825,0,0,1-.437,1.719,9.551,9.551,0,0,1-1.5,2.039L-5.5-1.82H-.609ZM8.43-4.7a5.762,5.762,0,0,1-.977,3.609A3.409,3.409,0,0,1,4.594.156,3.433,3.433,0,0,1,1.75-1.07,5.594,5.594,0,0,1,.742-4.586V-6.68A5.687,5.687,0,0,1,1.73-10.3a3.434,3.434,0,0,1,2.848-1.234,3.437,3.437,0,0,1,2.844,1.223A5.576,5.576,0,0,1,8.43-6.8Zm-2.258-2.3a4.165,4.165,0,0,0-.387-2.061,1.307,1.307,0,0,0-1.207-.645A1.284,1.284,0,0,0,3.4-9.1,3.9,3.9,0,0,0,3-7.177v2.768a4.372,4.372,0,0,0,.379,2.068,1.29,1.29,0,0,0,1.215.676,1.268,1.268,0,0,0,1.2-.649A4.268,4.268,0,0,0,6.172-4.3Z" transform="translate(360.463 667.047)" fill="#12263f"/>
  <path id="Trazado_602204" data-name="Trazado 602204" d="M-6.109-6.687h1.2a1.7,1.7,0,0,0,1.273-.43,1.574,1.574,0,0,0,.414-1.141,1.392,1.392,0,0,0-.41-1.07,1.59,1.59,0,0,0-1.129-.383,1.666,1.666,0,0,0-1.086.355,1.137,1.137,0,0,0-.437.926H-8.539a2.777,2.777,0,0,1,.48-1.6,3.2,3.2,0,0,1,1.344-1.105,4.485,4.485,0,0,1,1.9-.4,4.253,4.253,0,0,1,2.828.863A2.945,2.945,0,0,1-.961-8.289a2.394,2.394,0,0,1-.477,1.438,3.1,3.1,0,0,1-1.25,1.008A2.826,2.826,0,0,1-1.254-4.812,2.8,2.8,0,0,1-.781-3.187,2.994,2.994,0,0,1-1.887-.758,4.445,4.445,0,0,1-4.812.156,4.214,4.214,0,0,1-7.6-.742,2.934,2.934,0,0,1-8.68-3.117h2.258a1.308,1.308,0,0,0,.48,1.047,1.771,1.771,0,0,0,1.184.406A1.779,1.779,0,0,0-3.5-2.09a1.47,1.47,0,0,0,.457-1.129q0-1.7-1.875-1.7h-1.2ZM8.43-4.7a5.762,5.762,0,0,1-.977,3.609A3.409,3.409,0,0,1,4.594.156,3.433,3.433,0,0,1,1.75-1.07,5.594,5.594,0,0,1,.742-4.586V-6.68A5.687,5.687,0,0,1,1.73-10.3a3.434,3.434,0,0,1,2.848-1.234,3.437,3.437,0,0,1,2.844,1.223A5.576,5.576,0,0,1,8.43-6.8Zm-2.258-2.3a4.165,4.165,0,0,0-.387-2.061,1.307,1.307,0,0,0-1.207-.645A1.284,1.284,0,0,0,3.4-9.1,3.9,3.9,0,0,0,3-7.177v2.768a4.372,4.372,0,0,0,.379,2.068,1.29,1.29,0,0,0,1.215.676,1.268,1.268,0,0,0,1.2-.649A4.268,4.268,0,0,0,6.172-4.3Z" transform="translate(394.463 667.047)" fill="#12263f"/>
  <path id="Trazado_602205" data-name="Trazado 602205" d="M-1.727-4.281H-.437v1.82H-1.727V0H-3.984V-2.461H-8.648l-.1-1.422,4.742-7.492h2.281Zm-4.773,0h2.516V-8.3l-.148.258ZM8.43-4.7a5.762,5.762,0,0,1-.977,3.609A3.409,3.409,0,0,1,4.594.156,3.433,3.433,0,0,1,1.75-1.07,5.594,5.594,0,0,1,.742-4.586V-6.68A5.687,5.687,0,0,1,1.73-10.3a3.434,3.434,0,0,1,2.848-1.234,3.437,3.437,0,0,1,2.844,1.223A5.576,5.576,0,0,1,8.43-6.8Zm-2.258-2.3a4.165,4.165,0,0,0-.387-2.061,1.307,1.307,0,0,0-1.207-.645A1.284,1.284,0,0,0,3.4-9.1,3.9,3.9,0,0,0,3-7.177v2.768a4.372,4.372,0,0,0,.379,2.068,1.29,1.29,0,0,0,1.215.676,1.268,1.268,0,0,0,1.2-.649A4.268,4.268,0,0,0,6.172-4.3Z" transform="translate(425.463 667.047)" fill="#12263f"/>
  <path id="Trazado_602206" data-name="Trazado 602206" d="M-8.07-5.594l.656-5.781h6.375v1.883H-5.562l-.281,2.445a3.58,3.58,0,0,1,1.711-.43A3.279,3.279,0,0,1-1.586-6.469a4.026,4.026,0,0,1,.922,2.82,4.124,4.124,0,0,1-.465,1.973A3.281,3.281,0,0,1-2.461-.324a4.158,4.158,0,0,1-2.047.48A4.416,4.416,0,0,1-6.422-.262,3.4,3.4,0,0,1-7.816-1.437a3.2,3.2,0,0,1-.543-1.727h2.234a1.669,1.669,0,0,0,.5,1.105,1.573,1.573,0,0,0,1.113.395,1.388,1.388,0,0,0,1.18-.551,2.551,2.551,0,0,0,.414-1.559A2.11,2.11,0,0,0-3.4-5.258,1.749,1.749,0,0,0-4.75-5.773a1.954,1.954,0,0,0-1.3.422l-.219.2ZM8.43-4.7a5.762,5.762,0,0,1-.977,3.609A3.409,3.409,0,0,1,4.594.156,3.433,3.433,0,0,1,1.75-1.07,5.594,5.594,0,0,1,.742-4.586V-6.68A5.687,5.687,0,0,1,1.73-10.3a3.434,3.434,0,0,1,2.848-1.234,3.437,3.437,0,0,1,2.844,1.223A5.576,5.576,0,0,1,8.43-6.8Zm-2.258-2.3a4.165,4.165,0,0,0-.387-2.061,1.307,1.307,0,0,0-1.207-.645A1.284,1.284,0,0,0,3.4-9.1,3.9,3.9,0,0,0,3-7.177v2.768a4.372,4.372,0,0,0,.379,2.068,1.29,1.29,0,0,0,1.215.676,1.268,1.268,0,0,0,1.2-.649A4.268,4.268,0,0,0,6.172-4.3Z" transform="translate(456.463 667.047)" fill="#12263f"/>
  <path id="Trazado_600798" data-name="Trazado 600798" d="M-3586-8607v132.364" transform="translate(3914.778 9117.966)" fill="none" stroke="#707070" stroke-width="1"/>
  <path id="Trazado_600799" data-name="Trazado 600799" d="M-3586-8607v132.364" transform="translate(3945.979 9117.966)" fill="none" stroke="#707070" stroke-width="1"/>
  <path id="Trazado_600800" data-name="Trazado 600800" d="M-3586-8607v132.364" transform="translate(3977.18 9117.966)" fill="none" stroke="#707070" stroke-width="1"/>
  <path id="Trazado_600801" data-name="Trazado 600801" d="M-3586-8607v132.364" transform="translate(4008.381 9117.966)" fill="none" stroke="#707070" stroke-width="1"/>
  <path id="Trazado_602207" data-name="Trazado 602207" d="M0,0H116V26H0Z" transform="translate(293.463 601.047)" fill="#0f58b9"/>
  <path id="Trazado_602208" data-name="Trazado 602208" d="M0,0H148V26H0Z" transform="translate(293.463 540.047)" fill="#770b08"/>
</svg>
