<svg xmlns="http://www.w3.org/2000/svg" xmlns:xlink="http://www.w3.org/1999/xlink" width="1152" height="576" viewBox="0 0 1152 576">
  <defs>
    <clipPath id="clip-path">
      <rect id="Rectángulo_45375" data-name="Rectángulo 45375" width="573.427" height="371.849" fill="none"/>
    </clipPath>
  </defs>
  <g id="Grupo_159013" data-name="Grupo 159013" transform="translate(4343 8898)">
    <path id="Trazado_600789" data-name="Trazado 600789" d="M0,0H1152V576H0Z" transform="translate(-4343 -8898)" fill="#fff"/>
    <path id="Trazado_602160" data-name="Trazado 602160" d="M-50.465-3.163h-5.063L-56.665,0h-1.644l4.615-12.086H-52.3L-47.676,0h-1.635Zm-4.582-1.3h4.109L-53-10.119ZM-40.836-.888A3.262,3.262,0,0,1-43.467.166a2.792,2.792,0,0,1-2.187-.834,3.611,3.611,0,0,1-.76-2.469V-8.981h1.536v5.8q0,2.042,1.66,2.042a2.3,2.3,0,0,0,2.341-1.312V-8.981h1.536V0H-40.8ZM-34-5.7-32-8.981h1.793l-2.938,4.441L-30.119,0H-31.9l-2.075-3.362L-36.046,0h-1.785l3.03-4.541L-37.74-8.981h1.776ZM-26.915,0h-1.536V-8.981h1.536Zm-1.66-11.364a.917.917,0,0,1,.228-.631.857.857,0,0,1,.677-.257.87.87,0,0,1,.681.257.907.907,0,0,1,.232.631.877.877,0,0,1-.232.623.886.886,0,0,1-.681.249.872.872,0,0,1-.677-.249A.886.886,0,0,1-28.575-11.364ZM-22.79,0h-1.536V-12.75h1.536Zm4.125,0H-20.2V-8.981h1.536Zm-1.66-11.364a.917.917,0,0,1,.228-.631.857.857,0,0,1,.677-.257.87.87,0,0,1,.681.257.907.907,0,0,1,.232.631.877.877,0,0,1-.232.623.886.886,0,0,1-.681.249.872.872,0,0,1-.677-.249A.886.886,0,0,1-20.324-11.364ZM-10.662,0a3.226,3.226,0,0,1-.216-.946A3.426,3.426,0,0,1-13.435.166a3.17,3.17,0,0,1-2.179-.751,2.43,2.43,0,0,1-.851-1.905A2.539,2.539,0,0,1-15.4-4.669a5.029,5.029,0,0,1,3-.776H-10.9v-.706a1.725,1.725,0,0,0-.481-1.282A1.935,1.935,0,0,0-12.8-7.911a2.239,2.239,0,0,0-1.378.415,1.223,1.223,0,0,0-.556,1h-1.544a2.119,2.119,0,0,1,.477-1.3,3.258,3.258,0,0,1,1.295-.992,4.356,4.356,0,0,1,1.8-.365,3.551,3.551,0,0,1,2.432.776,2.8,2.8,0,0,1,.913,2.137V-2.1A5.054,5.054,0,0,0-9.052-.133V0Zm-2.548-1.17a2.7,2.7,0,0,0,1.37-.374,2.259,2.259,0,0,0,.938-.971V-4.358h-1.2q-2.822,0-2.822,1.652a1.4,1.4,0,0,0,.481,1.129A1.85,1.85,0,0,0-13.211-1.17ZM-2.619-7.6a4.6,4.6,0,0,0-.755-.058,2.024,2.024,0,0,0-2.05,1.287V0H-6.96V-8.981h1.494l.025,1.038A2.391,2.391,0,0,1-3.3-9.147a1.569,1.569,0,0,1,.681.116ZM2.362.166A3.924,3.924,0,0,1-.61-1.033,4.452,4.452,0,0,1-1.756-4.242v-.282a5.39,5.39,0,0,1,.51-2.386A3.982,3.982,0,0,1,.183-8.554a3.59,3.59,0,0,1,1.988-.594A3.364,3.364,0,0,1,4.893-7.994a5,5,0,0,1,.971,3.3v.639H-.22A3.193,3.193,0,0,0,.556-1.905a2.44,2.44,0,0,0,1.888.818,2.675,2.675,0,0,0,1.378-.332A3.462,3.462,0,0,0,4.81-2.3l.938.73A3.772,3.772,0,0,1,2.362.166ZM2.171-7.886A2.048,2.048,0,0,0,.61-7.209a3.288,3.288,0,0,0-.78,1.9h4.5v-.116A2.925,2.925,0,0,0,3.7-7.242,1.928,1.928,0,0,0,2.171-7.886Zm10.7,5.5a1.131,1.131,0,0,0-.469-.967,4.514,4.514,0,0,0-1.635-.594,7.731,7.731,0,0,1-1.851-.6A2.633,2.633,0,0,1,7.9-5.371a1.986,1.986,0,0,1-.328-1.146,2.33,2.33,0,0,1,.934-1.868,3.647,3.647,0,0,1,2.386-.764,3.753,3.753,0,0,1,2.478.789,2.5,2.5,0,0,1,.95,2.017H12.779a1.386,1.386,0,0,0-.535-1.087,2.006,2.006,0,0,0-1.349-.457,2.1,2.1,0,0,0-1.312.365,1.15,1.15,0,0,0-.473.955.932.932,0,0,0,.44.838,5.413,5.413,0,0,0,1.59.54A8.283,8.283,0,0,1,13-4.574a2.718,2.718,0,0,1,1.058.859,2.112,2.112,0,0,1,.344,1.224,2.3,2.3,0,0,1-.963,1.93,4.039,4.039,0,0,1-2.5.726A4.523,4.523,0,0,1,9.035-.216a3.105,3.105,0,0,1-1.3-1.067,2.571,2.571,0,0,1-.469-1.482H8.8A1.59,1.59,0,0,0,9.421-1.54a2.4,2.4,0,0,0,1.523.452,2.476,2.476,0,0,0,1.4-.353A1.084,1.084,0,0,0,12.87-2.382ZM22.69-6.79h1.154a2.536,2.536,0,0,0,1.71-.573,1.914,1.914,0,0,0,.623-1.5A1.875,1.875,0,0,0,24.06-10.99a2.2,2.2,0,0,0-1.59.569,1.99,1.99,0,0,0-.594,1.507H20.341a3.083,3.083,0,0,1,1.05-2.386,3.825,3.825,0,0,1,2.669-.95,3.78,3.78,0,0,1,2.681.9,3.269,3.269,0,0,1,.971,2.515A2.653,2.653,0,0,1,27.2-7.3a3.082,3.082,0,0,1-1.39,1.1,2.97,2.97,0,0,1,1.54,1.046,2.9,2.9,0,0,1,.544,1.785A3.3,3.3,0,0,1,26.832-.789a3.979,3.979,0,0,1-2.764.955A4.084,4.084,0,0,1,21.3-.755a3.056,3.056,0,0,1-1.067-2.432h1.544A1.975,1.975,0,0,0,22.4-1.66a2.368,2.368,0,0,0,1.668.573,2.324,2.324,0,0,0,1.7-.581,2.239,2.239,0,0,0,.589-1.668,2.032,2.032,0,0,0-.647-1.619,2.821,2.821,0,0,0-1.868-.581H22.69Zm7.421,9.2-.872-.6a4.006,4.006,0,0,0,.813-2.241V-1.818h1.5v1.2a3.781,3.781,0,0,1-.411,1.677A3.926,3.926,0,0,1,30.111,2.407Zm9.712-6.466H41.5v1.253H39.823V0H38.279V-2.806h-5.5v-.9l5.412-8.375h1.635Zm-5.3,0h3.76V-9.986l-.183.332Zm12.443-5.7a2.452,2.452,0,0,1,.693-1.793,2.388,2.388,0,0,1,1.781-.706,2.374,2.374,0,0,1,1.789.71,2.537,2.537,0,0,1,.685,1.839v.589a2.421,2.421,0,0,1-.693,1.789,2.389,2.389,0,0,1-1.764.693,2.442,2.442,0,0,1-1.785-.693,2.472,2.472,0,0,1-.706-1.847Zm1.146.636a1.571,1.571,0,0,0,.365,1.069,1.232,1.232,0,0,0,.979.42,1.208,1.208,0,0,0,.95-.408,1.622,1.622,0,0,0,.361-1.115v-.607a1.61,1.61,0,0,0-.357-1.073,1.2,1.2,0,0,0-.971-.424,1.2,1.2,0,0,0-.971.424,1.661,1.661,0,0,0-.357,1.107Zm4.74,6.163a2.438,2.438,0,0,1,.693-1.789,2.4,2.4,0,0,1,1.781-.7,2.417,2.417,0,0,1,1.785.7,2.5,2.5,0,0,1,.7,1.851v.589a2.438,2.438,0,0,1-.693,1.789,2.385,2.385,0,0,1-1.772.7,2.442,2.442,0,0,1-1.785-.693,2.472,2.472,0,0,1-.706-1.847Zm1.146.644a1.583,1.583,0,0,0,.365,1.077,1.232,1.232,0,0,0,.979.42,1.2,1.2,0,0,0,.955-.412,1.65,1.65,0,0,0,.357-1.119v-.616a1.578,1.578,0,0,0-.361-1.073,1.216,1.216,0,0,0-.967-.416,1.228,1.228,0,0,0-.959.412,1.6,1.6,0,0,0-.369,1.111ZM49.8-.913l-.872-.548,5.9-9.446.872.548Z" transform="translate(-3823.5 -8511)" fill="#12263f"/>
    <path id="Trazado_602161" data-name="Trazado 602161" d="M-70.868-4.889h-2.839V0h-1.6V-12.086h4a4.736,4.736,0,0,1,3.142.93,3.345,3.345,0,0,1,1.1,2.706,3.254,3.254,0,0,1-.61,1.967,3.642,3.642,0,0,1-1.7,1.253L-66.535-.1V0h-1.71Zm-2.839-1.3h2.449a2.762,2.762,0,0,0,1.888-.615,2.081,2.081,0,0,0,.7-1.647,2.191,2.191,0,0,0-.668-1.721,2.829,2.829,0,0,0-1.93-.607h-2.44ZM-61.347.166a3.924,3.924,0,0,1-2.972-1.2,4.452,4.452,0,0,1-1.146-3.208v-.282a5.39,5.39,0,0,1,.51-2.386,3.982,3.982,0,0,1,1.428-1.644,3.59,3.59,0,0,1,1.988-.594,3.364,3.364,0,0,1,2.723,1.154,5,5,0,0,1,.971,3.3v.639h-6.084a3.193,3.193,0,0,0,.776,2.146,2.44,2.44,0,0,0,1.888.818,2.675,2.675,0,0,0,1.378-.332A3.462,3.462,0,0,0-58.9-2.3l.938.73A3.772,3.772,0,0,1-61.347.166Zm-.191-8.052a2.048,2.048,0,0,0-1.561.677,3.288,3.288,0,0,0-.78,1.9h4.5v-.116a2.925,2.925,0,0,0-.631-1.814A1.928,1.928,0,0,0-61.538-7.886ZM-55.312,0V-7.794h-1.419V-8.981h1.419V-9.9a3.058,3.058,0,0,1,.772-2.233,2.916,2.916,0,0,1,2.183-.789,4.055,4.055,0,0,1,1.054.14l-.083,1.238a4.41,4.41,0,0,0-.83-.075,1.5,1.5,0,0,0-1.154.437,1.773,1.773,0,0,0-.407,1.253v.949h1.917v1.187h-1.917V0Zm9.488-7.6a4.6,4.6,0,0,0-.755-.058,2.024,2.024,0,0,0-2.05,1.287V0h-1.536V-8.981h1.494l.025,1.038a2.391,2.391,0,0,1,2.142-1.2,1.569,1.569,0,0,1,.681.116Zm3.08,7.6h-1.536V-8.981h1.536Zm-1.66-11.364a.917.917,0,0,1,.228-.631.857.857,0,0,1,.677-.257.87.87,0,0,1,.681.257.907.907,0,0,1,.232.631.877.877,0,0,1-.232.623.886.886,0,0,1-.681.249.872.872,0,0,1-.677-.249A.886.886,0,0,1-44.405-11.364Zm3.752,6.8a5.279,5.279,0,0,1,.971-3.341,3.106,3.106,0,0,1,2.573-1.241,3.09,3.09,0,0,1,2.565,1.162l.075-1h1.4V-.216A3.654,3.654,0,0,1-34.1,2.532a3.814,3.814,0,0,1-2.777,1,4.619,4.619,0,0,1-1.9-.415A3.272,3.272,0,0,1-40.2,1.984l.8-.921a3,3,0,0,0,2.416,1.22,2.353,2.353,0,0,0,1.747-.631A2.411,2.411,0,0,0-34.61-.125V-.9A3.156,3.156,0,0,1-37.125.166,3.068,3.068,0,0,1-39.678-1.1,5.55,5.55,0,0,1-40.653-4.565Zm1.544.174A4.027,4.027,0,0,0-38.487-2a2.023,2.023,0,0,0,1.743.867,2.249,2.249,0,0,0,2.133-1.32v-4.1a2.276,2.276,0,0,0-2.117-1.287,2.041,2.041,0,0,0-1.751.872A4.386,4.386,0,0,0-39.109-4.391ZM-27.023.166a3.924,3.924,0,0,1-2.972-1.2A4.452,4.452,0,0,1-31.14-4.242v-.282a5.39,5.39,0,0,1,.51-2.386A3.982,3.982,0,0,1-29.2-8.554a3.59,3.59,0,0,1,1.988-.594,3.364,3.364,0,0,1,2.723,1.154,5,5,0,0,1,.971,3.3v.639H-29.6a3.193,3.193,0,0,0,.776,2.146,2.44,2.44,0,0,0,1.888.818,2.675,2.675,0,0,0,1.378-.332,3.462,3.462,0,0,0,.988-.88l.938.73A3.772,3.772,0,0,1-27.023.166Zm-.191-8.052a2.048,2.048,0,0,0-1.561.677,3.288,3.288,0,0,0-.78,1.9h4.5v-.116a2.925,2.925,0,0,0-.631-1.814A1.928,1.928,0,0,0-27.214-7.886ZM-17.4-7.6a4.6,4.6,0,0,0-.755-.058,2.024,2.024,0,0,0-2.05,1.287V0h-1.536V-8.981h1.494l.025,1.038a2.391,2.391,0,0,1,2.142-1.2,1.569,1.569,0,0,1,.681.116ZM-10.779,0a3.226,3.226,0,0,1-.216-.946A3.426,3.426,0,0,1-13.551.166,3.17,3.17,0,0,1-15.73-.585a2.43,2.43,0,0,1-.851-1.905,2.539,2.539,0,0,1,1.067-2.179,5.029,5.029,0,0,1,3-.776h1.494v-.706A1.725,1.725,0,0,0-11.5-7.433a1.935,1.935,0,0,0-1.419-.477A2.239,2.239,0,0,0-14.3-7.5a1.223,1.223,0,0,0-.556,1H-16.4a2.119,2.119,0,0,1,.477-1.3,3.258,3.258,0,0,1,1.295-.992,4.356,4.356,0,0,1,1.8-.365,3.551,3.551,0,0,1,2.432.776,2.8,2.8,0,0,1,.913,2.137V-2.1A5.054,5.054,0,0,0-9.168-.133V0Zm-2.548-1.17a2.7,2.7,0,0,0,1.37-.374,2.259,2.259,0,0,0,.938-.971V-4.358h-1.2q-2.822,0-2.822,1.652a1.4,1.4,0,0,0,.481,1.129A1.85,1.85,0,0,0-13.327-1.17Zm9.853.083a2.212,2.212,0,0,0,1.436-.5,1.752,1.752,0,0,0,.681-1.245H.1A2.785,2.785,0,0,1-.436-1.361,3.5,3.5,0,0,1-1.743-.249,3.772,3.772,0,0,1-3.474.166,3.7,3.7,0,0,1-6.392-1.058,4.877,4.877,0,0,1-7.475-4.408v-.257A5.407,5.407,0,0,1-6.993-7,3.667,3.667,0,0,1-5.611-8.583a3.926,3.926,0,0,1,2.129-.564,3.6,3.6,0,0,1,2.511.9A3.234,3.234,0,0,1,.1-5.894H-1.357a2.116,2.116,0,0,0-.66-1.432,2.053,2.053,0,0,0-1.465-.56A2.149,2.149,0,0,0-5.3-7.043a3.957,3.957,0,0,0-.643,2.436v.291A3.878,3.878,0,0,0-5.3-1.926,2.16,2.16,0,0,0-3.474-1.087ZM3.49,0H1.955V-8.981H3.49ZM1.83-11.364a.917.917,0,0,1,.228-.631.857.857,0,0,1,.677-.257.87.87,0,0,1,.681.257.907.907,0,0,1,.232.631.877.877,0,0,1-.232.623.886.886,0,0,1-.681.249.872.872,0,0,1-.677-.249A.886.886,0,0,1,1.83-11.364Zm3.71,6.79A5.3,5.3,0,0,1,6.06-6.948,3.87,3.87,0,0,1,7.5-8.575a3.932,3.932,0,0,1,2.113-.573,3.788,3.788,0,0,1,2.968,1.27A4.886,4.886,0,0,1,13.717-4.5v.108a5.351,5.351,0,0,1-.5,2.353A3.813,3.813,0,0,1,11.779-.415,3.977,3.977,0,0,1,9.633.166,3.778,3.778,0,0,1,6.674-1.1,4.861,4.861,0,0,1,5.541-4.466Zm1.544.183a3.842,3.842,0,0,0,.693,2.4,2.218,2.218,0,0,0,1.855.9A2.2,2.2,0,0,0,11.492-2a4.2,4.2,0,0,0,.689-2.569,3.836,3.836,0,0,0-.7-2.395,2.23,2.23,0,0,0-1.864-.917,2.205,2.205,0,0,0-1.834.9A4.17,4.17,0,0,0,7.085-4.391Zm3.229-8.359h1.859L9.948-10.31l-1.237,0ZM17.1-8.981l.05,1.129a3.273,3.273,0,0,1,2.689-1.295q2.847,0,2.872,3.212V0H21.171V-5.943a2.068,2.068,0,0,0-.444-1.436,1.78,1.78,0,0,0-1.357-.465,2.216,2.216,0,0,0-1.312.4,2.706,2.706,0,0,0-.88,1.046V0H15.643V-8.981ZM29.779-6.06l.614-6.026h6.192v1.419H31.7l-.365,3.3a3.9,3.9,0,0,1,2.017-.523A3.334,3.334,0,0,1,35.971-6.8a4.278,4.278,0,0,1,.971,2.951A4.129,4.129,0,0,1,35.934-.909,3.676,3.676,0,0,1,33.116.166,3.82,3.82,0,0,1,30.5-.722a3.545,3.545,0,0,1-1.154-2.457H30.8a2.439,2.439,0,0,0,.739,1.565,2.3,2.3,0,0,0,1.577.527,2.072,2.072,0,0,0,1.681-.73,3.054,3.054,0,0,0,.61-2.017,2.8,2.8,0,0,0-.66-1.947,2.245,2.245,0,0,0-1.756-.735,2.532,2.532,0,0,0-1.577.44l-.407.332Zm11.073-.73h1.154a2.536,2.536,0,0,0,1.71-.573,1.914,1.914,0,0,0,.623-1.5,1.875,1.875,0,0,0-2.117-2.125,2.2,2.2,0,0,0-1.59.569,1.99,1.99,0,0,0-.594,1.507H38.5a3.083,3.083,0,0,1,1.05-2.386,3.825,3.825,0,0,1,2.669-.95,3.78,3.78,0,0,1,2.681.9,3.269,3.269,0,0,1,.971,2.515,2.653,2.653,0,0,1-.51,1.527,3.082,3.082,0,0,1-1.39,1.1,2.97,2.97,0,0,1,1.54,1.046,2.9,2.9,0,0,1,.544,1.785A3.3,3.3,0,0,1,44.994-.789,3.979,3.979,0,0,1,42.23.166a4.084,4.084,0,0,1-2.768-.921A3.056,3.056,0,0,1,38.4-3.187h1.544a1.975,1.975,0,0,0,.623,1.527,2.368,2.368,0,0,0,1.668.573,2.324,2.324,0,0,0,1.7-.581,2.239,2.239,0,0,0,.589-1.668,2.032,2.032,0,0,0-.647-1.619,2.821,2.821,0,0,0-1.868-.581H40.852Zm7.421,9.2-.872-.6a4.006,4.006,0,0,0,.813-2.241V-1.818h1.5v1.2a3.781,3.781,0,0,1-.411,1.677A3.926,3.926,0,0,1,48.273,2.407ZM59.081-5.155a7.023,7.023,0,0,1-.921,4.009A3.277,3.277,0,0,1,55.279.166a3.3,3.3,0,0,1-2.864-1.282,6.666,6.666,0,0,1-.963-3.831V-7a6.867,6.867,0,0,1,.921-3.959,3.3,3.3,0,0,1,2.889-1.295A3.332,3.332,0,0,1,58.135-11a6.627,6.627,0,0,1,.946,3.856Zm-1.536-2.1A5.627,5.627,0,0,0,57-10.1a1.886,1.886,0,0,0-1.735-.892,1.861,1.861,0,0,0-1.718.888,5.494,5.494,0,0,0-.556,2.731v2.457a5.717,5.717,0,0,0,.569,2.893,1.882,1.882,0,0,0,1.722.934,1.856,1.856,0,0,0,1.689-.88,5.51,5.51,0,0,0,.577-2.772Zm7.579-2.507a2.452,2.452,0,0,1,.693-1.793A2.388,2.388,0,0,1,67.6-12.26a2.374,2.374,0,0,1,1.789.71,2.537,2.537,0,0,1,.685,1.839v.589a2.421,2.421,0,0,1-.693,1.789,2.389,2.389,0,0,1-1.764.693,2.442,2.442,0,0,1-1.785-.693,2.472,2.472,0,0,1-.706-1.847Zm1.146.636a1.571,1.571,0,0,0,.365,1.069,1.232,1.232,0,0,0,.979.42,1.208,1.208,0,0,0,.95-.408,1.622,1.622,0,0,0,.361-1.115v-.607a1.61,1.61,0,0,0-.357-1.073,1.2,1.2,0,0,0-.971-.424,1.2,1.2,0,0,0-.971.424,1.661,1.661,0,0,0-.357,1.107Zm4.74,6.163A2.438,2.438,0,0,1,71.7-4.752a2.4,2.4,0,0,1,1.781-.7,2.417,2.417,0,0,1,1.785.7,2.5,2.5,0,0,1,.7,1.851v.589a2.438,2.438,0,0,1-.693,1.789,2.385,2.385,0,0,1-1.772.7,2.442,2.442,0,0,1-1.785-.693,2.472,2.472,0,0,1-.706-1.847Zm1.146.644a1.583,1.583,0,0,0,.365,1.077,1.232,1.232,0,0,0,.979.42,1.2,1.2,0,0,0,.955-.412,1.65,1.65,0,0,0,.357-1.119v-.616a1.578,1.578,0,0,0-.361-1.073,1.216,1.216,0,0,0-.967-.416,1.228,1.228,0,0,0-.959.412,1.6,1.6,0,0,0-.369,1.111ZM67.963-.913l-.872-.548,5.9-9.446.872.548Z" transform="translate(-4054 -8459)" fill="#12263f"/>
    <path id="Trazado_602162" data-name="Trazado 602162" d="M246.5,0C382.638,0,493,43.2,493,96.5S382.638,193,246.5,193,0,149.8,0,96.5,110.362,0,246.5,0Z" transform="translate(-3854 -8709)" fill="#e4daf7" opacity="0.46"/>
    <path id="Trazado_602163" data-name="Trazado 602163" d="M-86.22-4.889h-2.839V0h-1.6V-12.086h4a4.736,4.736,0,0,1,3.142.93,3.345,3.345,0,0,1,1.1,2.706,3.254,3.254,0,0,1-.61,1.967,3.642,3.642,0,0,1-1.7,1.253L-81.887-.1V0H-83.6Zm-2.839-1.3h2.449a2.762,2.762,0,0,0,1.888-.615,2.081,2.081,0,0,0,.7-1.647,2.191,2.191,0,0,0-.668-1.721,2.829,2.829,0,0,0-1.93-.607h-2.44ZM-76.7.166a3.924,3.924,0,0,1-2.972-1.2,4.452,4.452,0,0,1-1.146-3.208v-.282a5.39,5.39,0,0,1,.51-2.386,3.982,3.982,0,0,1,1.428-1.644,3.59,3.59,0,0,1,1.988-.594,3.364,3.364,0,0,1,2.723,1.154,5,5,0,0,1,.971,3.3v.639h-6.084A3.193,3.193,0,0,0-78.5-1.905a2.44,2.44,0,0,0,1.888.818,2.675,2.675,0,0,0,1.378-.332,3.462,3.462,0,0,0,.988-.88l.938.73A3.772,3.772,0,0,1-76.7.166Zm-.191-8.052a2.048,2.048,0,0,0-1.561.677,3.288,3.288,0,0,0-.78,1.9h4.5v-.116a2.925,2.925,0,0,0-.631-1.814A1.928,1.928,0,0,0-76.89-7.886Zm6.923-1.1.05,1.129a3.273,3.273,0,0,1,2.689-1.295q2.847,0,2.872,3.212V0h-1.536V-5.943a2.068,2.068,0,0,0-.444-1.436,1.78,1.78,0,0,0-1.357-.465,2.216,2.216,0,0,0-1.312.4,2.706,2.706,0,0,0-.88,1.046V0H-71.42V-8.981Zm7.554,4.416a5.261,5.261,0,0,1,.979-3.324,3.1,3.1,0,0,1,2.565-1.258,3.115,3.115,0,0,1,2.5,1.079V-12.75h1.536V0h-1.411l-.075-.963A3.127,3.127,0,0,1-58.886.166,3.068,3.068,0,0,1-61.43-1.112a5.321,5.321,0,0,1-.984-3.337Zm1.536.174A3.984,3.984,0,0,0-60.247-2a2.039,2.039,0,0,0,1.743.863,2.24,2.24,0,0,0,2.133-1.312V-6.574a2.257,2.257,0,0,0-2.117-1.27,2.049,2.049,0,0,0-1.76.872A4.386,4.386,0,0,0-60.878-4.391ZM-50.784,0H-52.32V-8.981h1.536Zm-1.66-11.364a.917.917,0,0,1,.228-.631.857.857,0,0,1,.677-.257.87.87,0,0,1,.681.257.907.907,0,0,1,.232.631.877.877,0,0,1-.232.623.886.886,0,0,1-.681.249.872.872,0,0,1-.677-.249A.886.886,0,0,1-52.444-11.364Zm5.562,2.382.042,1a3.317,3.317,0,0,1,2.665-1.162A2.568,2.568,0,0,1-41.612-7.7a3.4,3.4,0,0,1,1.166-1.046,3.445,3.445,0,0,1,1.7-.4q2.955,0,3,3.129V0h-1.536V-5.927a2.062,2.062,0,0,0-.44-1.44A1.937,1.937,0,0,0-39.2-7.844a2.036,2.036,0,0,0-1.419.51,2.071,2.071,0,0,0-.656,1.374V0h-1.544V-5.885a1.713,1.713,0,0,0-1.917-1.959A2.055,2.055,0,0,0-46.8-6.558V0h-1.536V-8.981ZM-31.759,0h-1.536V-8.981h1.536Zm-1.66-11.364a.917.917,0,0,1,.228-.631.857.857,0,0,1,.677-.257.87.87,0,0,1,.681.257.907.907,0,0,1,.232.631.877.877,0,0,1-.232.623.886.886,0,0,1-.681.249.872.872,0,0,1-.677-.249A.886.886,0,0,1-33.419-11.364ZM-25.575.166a3.924,3.924,0,0,1-2.972-1.2,4.452,4.452,0,0,1-1.146-3.208v-.282a5.39,5.39,0,0,1,.51-2.386,3.982,3.982,0,0,1,1.428-1.644,3.59,3.59,0,0,1,1.988-.594,3.364,3.364,0,0,1,2.723,1.154,5,5,0,0,1,.971,3.3v.639h-6.084a3.193,3.193,0,0,0,.776,2.146,2.44,2.44,0,0,0,1.888.818,2.675,2.675,0,0,0,1.378-.332,3.462,3.462,0,0,0,.988-.88l.938.73A3.772,3.772,0,0,1-25.575.166Zm-.191-8.052a2.048,2.048,0,0,0-1.561.677,3.288,3.288,0,0,0-.78,1.9h4.5v-.116a2.925,2.925,0,0,0-.631-1.814A1.928,1.928,0,0,0-25.766-7.886Zm6.923-1.1.05,1.129A3.273,3.273,0,0,1-16.1-9.147q2.847,0,2.872,3.212V0h-1.536V-5.943a2.068,2.068,0,0,0-.444-1.436,1.78,1.78,0,0,0-1.357-.465,2.216,2.216,0,0,0-1.312.4A2.706,2.706,0,0,0-18.76-6.4V0H-20.3V-8.981Zm10.011-2.175v2.175h1.677v1.187H-8.832v5.577a1.247,1.247,0,0,0,.224.81.943.943,0,0,0,.764.27,3.718,3.718,0,0,0,.73-.1V0A4.478,4.478,0,0,1-8.292.166,1.912,1.912,0,0,1-9.845-.457a2.675,2.675,0,0,1-.523-1.768v-5.57H-12V-8.981h1.635v-2.175Zm2.9,6.583a5.3,5.3,0,0,1,.519-2.374A3.87,3.87,0,0,1-3.972-8.575a3.932,3.932,0,0,1,2.113-.573,3.788,3.788,0,0,1,2.968,1.27A4.886,4.886,0,0,1,2.241-4.5v.108a5.351,5.351,0,0,1-.5,2.353A3.813,3.813,0,0,1,.3-.415,3.977,3.977,0,0,1-1.843.166,3.778,3.778,0,0,1-4.8-1.1,4.861,4.861,0,0,1-5.935-4.466Zm1.544.183a3.842,3.842,0,0,0,.693,2.4,2.218,2.218,0,0,0,1.855.9A2.2,2.2,0,0,0,.017-2,4.2,4.2,0,0,0,.706-4.574,3.836,3.836,0,0,0,0-6.969a2.23,2.23,0,0,0-1.864-.917,2.205,2.205,0,0,0-1.834.9A4.17,4.17,0,0,0-4.391-4.391ZM17.9,0H16.3L10.218-9.313V0h-1.6V-12.086h1.6l6.1,9.355v-9.355H17.9Zm6.317.166a3.924,3.924,0,0,1-2.972-1.2A4.452,4.452,0,0,1,20.1-4.242v-.282a5.39,5.39,0,0,1,.51-2.386,3.982,3.982,0,0,1,1.428-1.644,3.59,3.59,0,0,1,1.988-.594,3.364,3.364,0,0,1,2.723,1.154,5,5,0,0,1,.971,3.3v.639H21.64a3.193,3.193,0,0,0,.776,2.146,2.44,2.44,0,0,0,1.888.818,2.675,2.675,0,0,0,1.378-.332,3.462,3.462,0,0,0,.988-.88l.938.73A3.772,3.772,0,0,1,24.222.166Zm-.191-8.052a2.048,2.048,0,0,0-1.561.677,3.288,3.288,0,0,0-.78,1.9h4.5v-.116a2.925,2.925,0,0,0-.631-1.814A1.928,1.928,0,0,0,24.031-7.886Zm7.554-3.271v2.175h1.677v1.187H31.584v5.577a1.247,1.247,0,0,0,.224.81.943.943,0,0,0,.764.27,3.718,3.718,0,0,0,.73-.1V0a4.478,4.478,0,0,1-1.179.165,1.912,1.912,0,0,1-1.552-.623,2.675,2.675,0,0,1-.523-1.768v-5.57H28.414V-8.981h1.635v-2.175Zm2.9,6.583A5.3,5.3,0,0,1,35-6.948a3.87,3.87,0,0,1,1.444-1.627,3.932,3.932,0,0,1,2.113-.573,3.788,3.788,0,0,1,2.968,1.27A4.886,4.886,0,0,1,42.658-4.5v.108a5.351,5.351,0,0,1-.5,2.353A3.813,3.813,0,0,1,40.719-.415a3.977,3.977,0,0,1-2.146.581A3.778,3.778,0,0,1,35.615-1.1a4.861,4.861,0,0,1-1.133-3.362Zm1.544.183a3.842,3.842,0,0,0,.693,2.4,2.218,2.218,0,0,0,1.855.9A2.2,2.2,0,0,0,40.433-2a4.2,4.2,0,0,0,.689-2.569,3.836,3.836,0,0,0-.7-2.395,2.23,2.23,0,0,0-1.864-.917,2.205,2.205,0,0,0-1.834.9A4.17,4.17,0,0,0,36.025-4.391Zm14.842-2.4h1.154a2.536,2.536,0,0,0,1.71-.573,1.914,1.914,0,0,0,.623-1.5,1.875,1.875,0,0,0-2.117-2.125,2.2,2.2,0,0,0-1.59.569,1.99,1.99,0,0,0-.594,1.507H48.518a3.083,3.083,0,0,1,1.05-2.386,3.825,3.825,0,0,1,2.669-.95,3.78,3.78,0,0,1,2.681.9,3.269,3.269,0,0,1,.971,2.515,2.653,2.653,0,0,1-.51,1.527,3.082,3.082,0,0,1-1.39,1.1,2.97,2.97,0,0,1,1.54,1.046,2.9,2.9,0,0,1,.544,1.785A3.3,3.3,0,0,1,55.009-.789a3.979,3.979,0,0,1-2.764.955,4.084,4.084,0,0,1-2.768-.921A3.056,3.056,0,0,1,48.41-3.187h1.544a1.975,1.975,0,0,0,.623,1.527,2.368,2.368,0,0,0,1.668.573,2.324,2.324,0,0,0,1.7-.581,2.239,2.239,0,0,0,.589-1.668,2.032,2.032,0,0,0-.647-1.619,2.821,2.821,0,0,0-1.868-.581H50.867Zm13.8,2.731H66.34v1.253H64.663V0H63.119V-2.806h-5.5v-.9l5.412-8.375h1.635Zm-5.3,0h3.76V-9.986l-.183.332Zm8.475,6.466-.872-.6a4.006,4.006,0,0,0,.813-2.241V-1.818h1.5v1.2a3.781,3.781,0,0,1-.411,1.677A3.926,3.926,0,0,1,67.834,2.407ZM78.982,0H71.063V-1.1l4.184-4.648a9.939,9.939,0,0,0,1.282-1.714,2.861,2.861,0,0,0,.353-1.365,2.169,2.169,0,0,0-.573-1.552,2,2,0,0,0-1.527-.606A2.372,2.372,0,0,0,73-10.339a2.489,2.489,0,0,0-.635,1.814H70.831a3.565,3.565,0,0,1,1.075-2.7,3.985,3.985,0,0,1,2.876-1.029,3.829,3.829,0,0,1,2.665.884,3.015,3.015,0,0,1,.979,2.353q0,1.785-2.274,4.25L72.914-1.253h6.068Zm1.494-9.762a2.452,2.452,0,0,1,.693-1.793,2.388,2.388,0,0,1,1.781-.706,2.374,2.374,0,0,1,1.789.71,2.537,2.537,0,0,1,.685,1.839v.589a2.421,2.421,0,0,1-.693,1.789,2.389,2.389,0,0,1-1.764.693,2.442,2.442,0,0,1-1.785-.693,2.472,2.472,0,0,1-.706-1.847Zm1.146.636a1.571,1.571,0,0,0,.365,1.069,1.232,1.232,0,0,0,.979.42,1.208,1.208,0,0,0,.95-.408,1.622,1.622,0,0,0,.361-1.115v-.607a1.61,1.61,0,0,0-.357-1.073,1.2,1.2,0,0,0-.971-.424,1.2,1.2,0,0,0-.971.424,1.661,1.661,0,0,0-.357,1.107Zm4.74,6.163a2.438,2.438,0,0,1,.693-1.789,2.4,2.4,0,0,1,1.781-.7,2.417,2.417,0,0,1,1.785.7,2.5,2.5,0,0,1,.7,1.851v.589a2.438,2.438,0,0,1-.693,1.789,2.385,2.385,0,0,1-1.772.7,2.442,2.442,0,0,1-1.785-.693,2.472,2.472,0,0,1-.706-1.847Zm1.146.644a1.583,1.583,0,0,0,.365,1.077,1.232,1.232,0,0,0,.979.42,1.2,1.2,0,0,0,.955-.412,1.65,1.65,0,0,0,.357-1.119v-.616A1.578,1.578,0,0,0,89.8-4.042a1.216,1.216,0,0,0-.967-.416,1.228,1.228,0,0,0-.959.412,1.6,1.6,0,0,0-.369,1.111ZM83.315-.913l-.872-.548,5.9-9.446.872.548Z" transform="translate(-3508 -8765.5)" fill="#12263f"/>
    <path id="Trazado_602164" data-name="Trazado 602164" d="M-88.482-3.835A4.447,4.447,0,0,1-89.9-.876,4.638,4.638,0,0,1-93.064.166,4.259,4.259,0,0,1-96.5-1.37a6.178,6.178,0,0,1-1.291-4.109V-6.641a6.886,6.886,0,0,1,.6-2.963,4.5,4.5,0,0,1,1.706-1.963,4.75,4.75,0,0,1,2.557-.685,4.367,4.367,0,0,1,3.088,1.075A4.5,4.5,0,0,1-88.482-8.2h-1.6a3.472,3.472,0,0,0-.9-2.1,2.725,2.725,0,0,0-1.938-.649,2.851,2.851,0,0,0-2.395,1.13A5.187,5.187,0,0,0-96.185-6.6v1.171A5.332,5.332,0,0,0-95.364-2.3a2.655,2.655,0,0,0,2.3,1.163,3.067,3.067,0,0,0,2.038-.6,3.34,3.34,0,0,0,.942-2.1Zm1.527-.739a5.3,5.3,0,0,1,.519-2.374,3.87,3.87,0,0,1,1.444-1.627,3.932,3.932,0,0,1,2.113-.573,3.788,3.788,0,0,1,2.968,1.27A4.886,4.886,0,0,1-78.779-4.5v.108a5.351,5.351,0,0,1-.5,2.353A3.813,3.813,0,0,1-80.717-.415a3.977,3.977,0,0,1-2.146.581A3.778,3.778,0,0,1-85.822-1.1a4.861,4.861,0,0,1-1.133-3.362Zm1.544.183a3.842,3.842,0,0,0,.693,2.4,2.218,2.218,0,0,0,1.855.9A2.2,2.2,0,0,0-81-2a4.2,4.2,0,0,0,.689-2.569,3.836,3.836,0,0,0-.7-2.395,2.23,2.23,0,0,0-1.864-.917,2.205,2.205,0,0,0-1.834.9A4.17,4.17,0,0,0-85.411-4.391Zm10-4.59.042,1A3.317,3.317,0,0,1-72.7-9.147,2.568,2.568,0,0,1-70.137-7.7a3.4,3.4,0,0,1,1.166-1.046,3.445,3.445,0,0,1,1.7-.4q2.955,0,3,3.129V0H-65.8V-5.927a2.062,2.062,0,0,0-.44-1.44,1.937,1.937,0,0,0-1.478-.477,2.036,2.036,0,0,0-1.419.51A2.071,2.071,0,0,0-69.8-5.96V0h-1.544V-5.885a1.713,1.713,0,0,0-1.917-1.959,2.055,2.055,0,0,0-2.067,1.287V0h-1.536V-8.981Zm21.042,4.59a5.378,5.378,0,0,1-.938,3.3A3.006,3.006,0,0,1-57.844.166,3.294,3.294,0,0,1-60.417-.872V3.453h-1.536V-8.981h1.4l.075,1a3.163,3.163,0,0,1,2.606-1.162,3.063,3.063,0,0,1,2.561,1.22,5.437,5.437,0,0,1,.942,3.4ZM-55.9-4.565a3.968,3.968,0,0,0-.647-2.4,2.086,2.086,0,0,0-1.776-.88,2.257,2.257,0,0,0-2.092,1.237v4.292a2.262,2.262,0,0,0,2.108,1.229,2.076,2.076,0,0,0,1.756-.876A4.332,4.332,0,0,0-55.9-4.565ZM-48.074-7.6a4.6,4.6,0,0,0-.755-.058,2.024,2.024,0,0,0-2.05,1.287V0h-1.536V-8.981h1.494l.025,1.038a2.391,2.391,0,0,1,2.142-1.2,1.569,1.569,0,0,1,.681.116Zm4.98,7.77a3.924,3.924,0,0,1-2.972-1.2,4.452,4.452,0,0,1-1.146-3.208v-.282A5.39,5.39,0,0,1-46.7-6.91a3.982,3.982,0,0,1,1.428-1.644,3.59,3.59,0,0,1,1.988-.594,3.364,3.364,0,0,1,2.723,1.154,5,5,0,0,1,.971,3.3v.639h-6.084A3.193,3.193,0,0,0-44.9-1.905a2.44,2.44,0,0,0,1.888.818,2.675,2.675,0,0,0,1.378-.332,3.462,3.462,0,0,0,.988-.88l.938.73A3.772,3.772,0,0,1-43.094.166Zm-.191-8.052a2.048,2.048,0,0,0-1.561.677,3.288,3.288,0,0,0-.78,1.9h4.5v-.116a2.925,2.925,0,0,0-.631-1.814A1.928,1.928,0,0,0-43.284-7.886Zm6.923-1.1.05,1.129a3.273,3.273,0,0,1,2.689-1.295q2.847,0,2.872,3.212V0h-1.536V-5.943a2.068,2.068,0,0,0-.444-1.436,1.78,1.78,0,0,0-1.357-.465,2.216,2.216,0,0,0-1.312.4,2.706,2.706,0,0,0-.88,1.046V0h-1.536V-8.981Zm13.157,6.6a1.131,1.131,0,0,0-.469-.967,4.514,4.514,0,0,0-1.635-.594,7.731,7.731,0,0,1-1.851-.6,2.633,2.633,0,0,1-1.013-.83A1.986,1.986,0,0,1-28.5-6.516a2.33,2.33,0,0,1,.934-1.868,3.647,3.647,0,0,1,2.386-.764,3.753,3.753,0,0,1,2.478.789,2.5,2.5,0,0,1,.95,2.017H-23.3a1.386,1.386,0,0,0-.535-1.087,2.006,2.006,0,0,0-1.349-.457,2.1,2.1,0,0,0-1.312.365,1.15,1.15,0,0,0-.473.955.932.932,0,0,0,.44.838,5.413,5.413,0,0,0,1.59.54,8.283,8.283,0,0,1,1.864.614,2.718,2.718,0,0,1,1.058.859,2.112,2.112,0,0,1,.344,1.224,2.3,2.3,0,0,1-.963,1.93,4.039,4.039,0,0,1-2.5.726A4.523,4.523,0,0,1-27.04-.216a3.105,3.105,0,0,1-1.3-1.067,2.571,2.571,0,0,1-.469-1.482h1.536a1.59,1.59,0,0,0,.618,1.224,2.4,2.4,0,0,0,1.523.452,2.476,2.476,0,0,0,1.4-.353A1.084,1.084,0,0,0-23.2-2.382ZM-18,0h-1.536V-8.981H-18Zm-1.66-11.364a.917.917,0,0,1,.228-.631.857.857,0,0,1,.677-.257.87.87,0,0,1,.681.257.907.907,0,0,1,.232.631.877.877,0,0,1-.232.623.886.886,0,0,1-.681.249.872.872,0,0,1-.677-.249A.886.886,0,0,1-19.66-11.364Zm3.71,6.79a5.3,5.3,0,0,1,.519-2.374,3.87,3.87,0,0,1,1.444-1.627,3.932,3.932,0,0,1,2.113-.573,3.788,3.788,0,0,1,2.968,1.27A4.886,4.886,0,0,1-7.774-4.5v.108a5.351,5.351,0,0,1-.5,2.353A3.813,3.813,0,0,1-9.712-.415a3.977,3.977,0,0,1-2.146.581A3.778,3.778,0,0,1-14.817-1.1,4.861,4.861,0,0,1-15.95-4.466Zm1.544.183a3.842,3.842,0,0,0,.693,2.4,2.218,2.218,0,0,0,1.855.9A2.2,2.2,0,0,0-10-2a4.2,4.2,0,0,0,.689-2.569,3.836,3.836,0,0,0-.7-2.395,2.23,2.23,0,0,0-1.864-.917,2.205,2.205,0,0,0-1.834.9A4.17,4.17,0,0,0-14.406-4.391Zm3.229-8.359h1.859l-2.225,2.44-1.237,0ZM-4.4-8.981l.05,1.129A3.273,3.273,0,0,1-1.656-9.147q2.847,0,2.872,3.212V0H-.32V-5.943A2.068,2.068,0,0,0-.764-7.379a1.78,1.78,0,0,0-1.357-.465,2.216,2.216,0,0,0-1.312.4A2.706,2.706,0,0,0-4.312-6.4V0H-5.848V-8.981ZM7.367-4.565A5.261,5.261,0,0,1,8.346-7.89a3.1,3.1,0,0,1,2.565-1.258,3.115,3.115,0,0,1,2.5,1.079V-12.75h1.536V0H13.534L13.46-.963A3.127,3.127,0,0,1,10.895.166,3.068,3.068,0,0,1,8.351-1.112a5.321,5.321,0,0,1-.984-3.337ZM8.9-4.391A3.984,3.984,0,0,0,9.533-2a2.039,2.039,0,0,0,1.743.863A2.24,2.24,0,0,0,13.41-2.449V-6.574a2.257,2.257,0,0,0-2.117-1.27,2.049,2.049,0,0,0-1.76.872A4.386,4.386,0,0,0,8.9-4.391ZM21.055.166a3.924,3.924,0,0,1-2.972-1.2,4.452,4.452,0,0,1-1.146-3.208v-.282a5.39,5.39,0,0,1,.51-2.386,3.982,3.982,0,0,1,1.428-1.644,3.59,3.59,0,0,1,1.988-.594,3.364,3.364,0,0,1,2.723,1.154,5,5,0,0,1,.971,3.3v.639H18.473a3.193,3.193,0,0,0,.776,2.146,2.44,2.44,0,0,0,1.888.818,2.675,2.675,0,0,0,1.378-.332A3.462,3.462,0,0,0,23.5-2.3l.938.73A3.772,3.772,0,0,1,21.055.166Zm-.191-8.052a2.048,2.048,0,0,0-1.561.677,3.288,3.288,0,0,0-.78,1.9h4.5v-.116a2.925,2.925,0,0,0-.631-1.814A1.928,1.928,0,0,0,20.864-7.886Zm18.81,4.051A4.447,4.447,0,0,1,38.258-.876,4.638,4.638,0,0,1,35.092.166,4.259,4.259,0,0,1,31.659-1.37a6.178,6.178,0,0,1-1.291-4.109V-6.641a6.886,6.886,0,0,1,.6-2.963,4.5,4.5,0,0,1,1.706-1.963,4.75,4.75,0,0,1,2.557-.685,4.367,4.367,0,0,1,3.088,1.075A4.5,4.5,0,0,1,39.674-8.2h-1.6a3.472,3.472,0,0,0-.9-2.1,2.725,2.725,0,0,0-1.938-.649,2.851,2.851,0,0,0-2.395,1.13A5.187,5.187,0,0,0,31.97-6.6v1.171A5.332,5.332,0,0,0,32.792-2.3a2.655,2.655,0,0,0,2.3,1.163,3.067,3.067,0,0,0,2.038-.6,3.34,3.34,0,0,0,.942-2.1ZM41.2-4.574a5.3,5.3,0,0,1,.519-2.374,3.87,3.87,0,0,1,1.444-1.627,3.932,3.932,0,0,1,2.113-.573,3.788,3.788,0,0,1,2.968,1.27A4.886,4.886,0,0,1,49.377-4.5v.108a5.351,5.351,0,0,1-.5,2.353A3.813,3.813,0,0,1,47.439-.415a3.977,3.977,0,0,1-2.146.581A3.778,3.778,0,0,1,42.334-1.1,4.861,4.861,0,0,1,41.2-4.466Zm1.544.183a3.842,3.842,0,0,0,.693,2.4,2.218,2.218,0,0,0,1.855.9A2.2,2.2,0,0,0,47.153-2a4.2,4.2,0,0,0,.689-2.569,3.836,3.836,0,0,0-.7-2.395,2.23,2.23,0,0,0-1.864-.917,2.205,2.205,0,0,0-1.834.9A4.17,4.17,0,0,0,42.745-4.391ZM59.064,0H51.145V-1.1l4.184-4.648a9.939,9.939,0,0,0,1.282-1.714,2.861,2.861,0,0,0,.353-1.365,2.169,2.169,0,0,0-.573-1.552,2,2,0,0,0-1.527-.606,2.372,2.372,0,0,0-1.781.652,2.489,2.489,0,0,0-.635,1.814H50.913a3.565,3.565,0,0,1,1.075-2.7,3.985,3.985,0,0,1,2.876-1.029,3.829,3.829,0,0,1,2.665.884,3.015,3.015,0,0,1,.979,2.353q0,1.785-2.274,4.25L53-1.253h6.068Zm8.068-6.79h1.154A2.536,2.536,0,0,0,70-7.363a1.914,1.914,0,0,0,.623-1.5A1.875,1.875,0,0,0,68.5-10.99a2.2,2.2,0,0,0-1.59.569,1.99,1.99,0,0,0-.594,1.507H64.783a3.083,3.083,0,0,1,1.05-2.386,3.825,3.825,0,0,1,2.669-.95,3.78,3.78,0,0,1,2.681.9,3.269,3.269,0,0,1,.971,2.515,2.653,2.653,0,0,1-.51,1.527,3.082,3.082,0,0,1-1.39,1.1,2.97,2.97,0,0,1,1.54,1.046,2.9,2.9,0,0,1,.544,1.785A3.3,3.3,0,0,1,71.275-.789,3.979,3.979,0,0,1,68.51.166a4.084,4.084,0,0,1-2.768-.921,3.056,3.056,0,0,1-1.067-2.432h1.544a1.975,1.975,0,0,0,.623,1.527,2.368,2.368,0,0,0,1.668.573,2.324,2.324,0,0,0,1.7-.581A2.239,2.239,0,0,0,70.8-3.337a2.032,2.032,0,0,0-.647-1.619,2.821,2.821,0,0,0-1.868-.581H67.133Zm7.421,9.2-.872-.6A4.006,4.006,0,0,0,74.5-.432V-1.818H76v1.2a3.781,3.781,0,0,1-.411,1.677A3.926,3.926,0,0,1,74.553,2.407Zm9.712-6.466h1.677v1.253H84.265V0H82.721V-2.806h-5.5v-.9l5.412-8.375h1.635Zm-5.3,0h3.76V-9.986l-.183.332Zm8.234-5.7a2.452,2.452,0,0,1,.693-1.793,2.388,2.388,0,0,1,1.781-.706,2.374,2.374,0,0,1,1.789.71,2.537,2.537,0,0,1,.685,1.839v.589a2.421,2.421,0,0,1-.693,1.789,2.389,2.389,0,0,1-1.764.693A2.442,2.442,0,0,1,87.9-7.334,2.472,2.472,0,0,1,87.2-9.181Zm1.146.636a1.571,1.571,0,0,0,.365,1.069,1.232,1.232,0,0,0,.979.42,1.208,1.208,0,0,0,.95-.408A1.622,1.622,0,0,0,91-9.159v-.607a1.61,1.61,0,0,0-.357-1.073,1.2,1.2,0,0,0-.971-.424,1.2,1.2,0,0,0-.971.424,1.661,1.661,0,0,0-.357,1.107Zm4.74,6.163a2.438,2.438,0,0,1,.693-1.789,2.4,2.4,0,0,1,1.781-.7,2.417,2.417,0,0,1,1.785.7,2.5,2.5,0,0,1,.7,1.851v.589a2.438,2.438,0,0,1-.693,1.789,2.385,2.385,0,0,1-1.772.7,2.442,2.442,0,0,1-1.785-.693,2.472,2.472,0,0,1-.706-1.847Zm1.146.644a1.583,1.583,0,0,0,.365,1.077,1.232,1.232,0,0,0,.979.42,1.2,1.2,0,0,0,.955-.412,1.65,1.65,0,0,0,.357-1.119v-.616a1.578,1.578,0,0,0-.361-1.073,1.216,1.216,0,0,0-.967-.416,1.228,1.228,0,0,0-.959.412,1.6,1.6,0,0,0-.369,1.111ZM90.034-.913l-.872-.548,5.9-9.446.872.548Z" transform="translate(-3617.104 -8644.5)" fill="#12263f"/>
    <path id="Trazado_602165" data-name="Trazado 602165" d="M-185.975-4.731V0h-1.594V-12.086h4.458A4.478,4.478,0,0,1-180-11.073a3.433,3.433,0,0,1,1.125,2.681,3.388,3.388,0,0,1-1.1,2.71,4.678,4.678,0,0,1-3.15.95Zm0-1.3h2.864a2.863,2.863,0,0,0,1.959-.6,2.2,2.2,0,0,0,.681-1.742,2.277,2.277,0,0,0-.681-1.73,2.683,2.683,0,0,0-1.868-.674h-2.955ZM-172.743-7.6a4.6,4.6,0,0,0-.755-.058,2.024,2.024,0,0,0-2.05,1.287V0h-1.536V-8.981h1.494l.025,1.038a2.391,2.391,0,0,1,2.142-1.2,1.569,1.569,0,0,1,.681.116Zm.838,3.03a5.3,5.3,0,0,1,.519-2.374,3.87,3.87,0,0,1,1.444-1.627,3.932,3.932,0,0,1,2.113-.573,3.788,3.788,0,0,1,2.968,1.27A4.886,4.886,0,0,1-163.729-4.5v.108a5.351,5.351,0,0,1-.5,2.353,3.813,3.813,0,0,1-1.436,1.623,3.977,3.977,0,0,1-2.146.581,3.778,3.778,0,0,1-2.959-1.27,4.861,4.861,0,0,1-1.133-3.362Zm1.544.183a3.842,3.842,0,0,0,.693,2.4,2.218,2.218,0,0,0,1.855.9A2.2,2.2,0,0,0-165.953-2a4.2,4.2,0,0,0,.689-2.569,3.836,3.836,0,0,0-.7-2.395,2.23,2.23,0,0,0-1.864-.917,2.205,2.205,0,0,0-1.834.9A4.17,4.17,0,0,0-170.361-4.391Zm12.161,3.3a2.212,2.212,0,0,0,1.436-.5,1.752,1.752,0,0,0,.681-1.245h1.453a2.785,2.785,0,0,1-.531,1.469A3.5,3.5,0,0,1-156.47-.249,3.772,3.772,0,0,1-158.2.166a3.7,3.7,0,0,1-2.918-1.224A4.877,4.877,0,0,1-162.2-4.408v-.257A5.407,5.407,0,0,1-161.72-7a3.667,3.667,0,0,1,1.382-1.585,3.926,3.926,0,0,1,2.129-.564,3.6,3.6,0,0,1,2.511.9,3.234,3.234,0,0,1,1.067,2.349h-1.453a2.116,2.116,0,0,0-.66-1.432,2.053,2.053,0,0,0-1.465-.56,2.149,2.149,0,0,0-1.814.843,3.957,3.957,0,0,0-.643,2.436v.291a3.878,3.878,0,0,0,.639,2.391A2.16,2.16,0,0,0-158.2-1.087Zm9.023,1.253a3.924,3.924,0,0,1-2.972-1.2,4.452,4.452,0,0,1-1.146-3.208v-.282a5.39,5.39,0,0,1,.51-2.386,3.982,3.982,0,0,1,1.428-1.644,3.59,3.59,0,0,1,1.988-.594,3.364,3.364,0,0,1,2.723,1.154,5,5,0,0,1,.971,3.3v.639h-6.084a3.193,3.193,0,0,0,.776,2.146,2.44,2.44,0,0,0,1.888.818,2.675,2.675,0,0,0,1.378-.332,3.462,3.462,0,0,0,.988-.88l.938.73A3.772,3.772,0,0,1-149.177.166Zm-.191-8.052a2.048,2.048,0,0,0-1.561.677,3.288,3.288,0,0,0-.78,1.9h4.5v-.116a2.925,2.925,0,0,0-.631-1.814A1.928,1.928,0,0,0-149.368-7.886Zm10.7,5.5a1.13,1.13,0,0,0-.469-.967,4.514,4.514,0,0,0-1.635-.594,7.731,7.731,0,0,1-1.851-.6,2.633,2.633,0,0,1-1.013-.83,1.986,1.986,0,0,1-.328-1.146,2.33,2.33,0,0,1,.934-1.868,3.647,3.647,0,0,1,2.386-.764,3.753,3.753,0,0,1,2.478.789,2.5,2.5,0,0,1,.95,2.017h-1.544a1.386,1.386,0,0,0-.535-1.087,2.006,2.006,0,0,0-1.349-.457,2.1,2.1,0,0,0-1.312.365,1.15,1.15,0,0,0-.473.955.932.932,0,0,0,.44.838,5.413,5.413,0,0,0,1.59.54,8.283,8.283,0,0,1,1.864.614,2.718,2.718,0,0,1,1.058.859,2.112,2.112,0,0,1,.344,1.224A2.3,2.3,0,0,1-138.1-.56a4.039,4.039,0,0,1-2.5.726A4.523,4.523,0,0,1-142.5-.216a3.105,3.105,0,0,1-1.3-1.067,2.571,2.571,0,0,1-.469-1.482h1.536a1.59,1.59,0,0,0,.618,1.224,2.4,2.4,0,0,0,1.523.452,2.476,2.476,0,0,0,1.4-.353A1.084,1.084,0,0,0-138.669-2.382Zm3.129-2.191a5.3,5.3,0,0,1,.519-2.374,3.87,3.87,0,0,1,1.444-1.627,3.932,3.932,0,0,1,2.113-.573,3.788,3.788,0,0,1,2.968,1.27A4.886,4.886,0,0,1-127.363-4.5v.108a5.351,5.351,0,0,1-.5,2.353A3.813,3.813,0,0,1-129.3-.415a3.977,3.977,0,0,1-2.146.581,3.778,3.778,0,0,1-2.959-1.27,4.861,4.861,0,0,1-1.133-3.362Zm1.544.183a3.842,3.842,0,0,0,.693,2.4,2.218,2.218,0,0,0,1.855.9A2.2,2.2,0,0,0-129.588-2a4.2,4.2,0,0,0,.689-2.569,3.836,3.836,0,0,0-.7-2.395,2.23,2.23,0,0,0-1.864-.917,2.205,2.205,0,0,0-1.834.9A4.17,4.17,0,0,0-134-4.391Zm12.393-.174a5.261,5.261,0,0,1,.979-3.324,3.1,3.1,0,0,1,2.565-1.258,3.115,3.115,0,0,1,2.5,1.079V-12.75h1.536V0h-1.411l-.075-.963A3.127,3.127,0,0,1-118.074.166a3.068,3.068,0,0,1-2.544-1.278,5.321,5.321,0,0,1-.984-3.337Zm1.536.174A3.984,3.984,0,0,0-119.436-2a2.039,2.039,0,0,0,1.743.863,2.24,2.24,0,0,0,2.133-1.312V-6.574a2.257,2.257,0,0,0-2.117-1.27,2.049,2.049,0,0,0-1.76.872A4.386,4.386,0,0,0-120.067-4.391ZM-107.914.166a3.924,3.924,0,0,1-2.972-1.2,4.452,4.452,0,0,1-1.146-3.208v-.282a5.39,5.39,0,0,1,.51-2.386,3.982,3.982,0,0,1,1.428-1.644,3.59,3.59,0,0,1,1.988-.594,3.364,3.364,0,0,1,2.723,1.154,5,5,0,0,1,.971,3.3v.639H-110.5a3.193,3.193,0,0,0,.776,2.146,2.44,2.44,0,0,0,1.888.818,2.675,2.675,0,0,0,1.378-.332,3.462,3.462,0,0,0,.988-.88l.938.73A3.772,3.772,0,0,1-107.914.166Zm-.191-8.052a2.048,2.048,0,0,0-1.561.677,3.288,3.288,0,0,0-.78,1.9h4.5v-.116a2.925,2.925,0,0,0-.631-1.814A1.928,1.928,0,0,0-108.105-7.886Zm13.281,6.8a2.212,2.212,0,0,0,1.436-.5,1.752,1.752,0,0,0,.681-1.245h1.453a2.785,2.785,0,0,1-.531,1.469A3.5,3.5,0,0,1-93.093-.249a3.772,3.772,0,0,1-1.731.415,3.7,3.7,0,0,1-2.918-1.224,4.877,4.877,0,0,1-1.083-3.349v-.257A5.407,5.407,0,0,1-98.344-7a3.667,3.667,0,0,1,1.382-1.585,3.926,3.926,0,0,1,2.129-.564,3.6,3.6,0,0,1,2.511.9,3.234,3.234,0,0,1,1.067,2.349h-1.453a2.116,2.116,0,0,0-.66-1.432,2.053,2.053,0,0,0-1.465-.56,2.149,2.149,0,0,0-1.814.843,3.957,3.957,0,0,0-.643,2.436v.291a3.878,3.878,0,0,0,.639,2.391A2.16,2.16,0,0,0-94.824-1.087ZM-83.983,0A3.226,3.226,0,0,1-84.2-.946,3.426,3.426,0,0,1-86.756.166a3.17,3.17,0,0,1-2.179-.751,2.43,2.43,0,0,1-.851-1.905,2.539,2.539,0,0,1,1.067-2.179,5.029,5.029,0,0,1,3-.776h1.494v-.706a1.725,1.725,0,0,0-.481-1.282,1.935,1.935,0,0,0-1.419-.477A2.239,2.239,0,0,0-87.5-7.5a1.223,1.223,0,0,0-.556,1H-89.6a2.119,2.119,0,0,1,.477-1.3,3.258,3.258,0,0,1,1.295-.992,4.356,4.356,0,0,1,1.8-.365,3.551,3.551,0,0,1,2.432.776,2.8,2.8,0,0,1,.913,2.137V-2.1a5.054,5.054,0,0,0,.315,1.967V0Zm-2.548-1.17a2.7,2.7,0,0,0,1.37-.374,2.259,2.259,0,0,0,.938-.971V-4.358h-1.2q-2.822,0-2.822,1.652a1.4,1.4,0,0,0,.481,1.129A1.85,1.85,0,0,0-86.531-1.17Zm13.837-3.221a5.378,5.378,0,0,1-.938,3.3A3.006,3.006,0,0,1-76.172.166,3.294,3.294,0,0,1-78.745-.872V3.453h-1.536V-8.981h1.4l.075,1A3.163,3.163,0,0,1-76.2-9.147a3.063,3.063,0,0,1,2.561,1.22,5.437,5.437,0,0,1,.942,3.4Zm-1.536-.174a3.968,3.968,0,0,0-.647-2.4,2.086,2.086,0,0,0-1.776-.88,2.257,2.257,0,0,0-2.092,1.237v4.292a2.262,2.262,0,0,0,2.108,1.229,2.076,2.076,0,0,0,1.756-.876A4.332,4.332,0,0,0-74.23-4.565Zm5.57-6.591v2.175h1.677v1.187H-68.66v5.577a1.247,1.247,0,0,0,.224.81.943.943,0,0,0,.764.27,3.718,3.718,0,0,0,.73-.1V0A4.478,4.478,0,0,1-68.12.166a1.912,1.912,0,0,1-1.552-.623A2.675,2.675,0,0,1-70.2-2.225v-5.57h-1.635V-8.981H-70.2v-2.175ZM-59.645-.888A3.262,3.262,0,0,1-62.277.166a2.792,2.792,0,0,1-2.187-.834,3.611,3.611,0,0,1-.76-2.469V-8.981h1.536v5.8q0,2.042,1.66,2.042a2.3,2.3,0,0,0,2.341-1.312V-8.981h1.536V0h-1.461ZM-51.477-7.6a4.6,4.6,0,0,0-.755-.058,2.024,2.024,0,0,0-2.05,1.287V0h-1.536V-8.981h1.494l.025,1.038a2.391,2.391,0,0,1,2.142-1.2,1.569,1.569,0,0,1,.681.116ZM-44.853,0a3.226,3.226,0,0,1-.216-.946A3.426,3.426,0,0,1-47.626.166,3.17,3.17,0,0,1-49.8-.585a2.43,2.43,0,0,1-.851-1.905,2.539,2.539,0,0,1,1.067-2.179,5.029,5.029,0,0,1,3-.776h1.494v-.706a1.725,1.725,0,0,0-.481-1.282,1.935,1.935,0,0,0-1.419-.477,2.239,2.239,0,0,0-1.378.415,1.223,1.223,0,0,0-.556,1h-1.544A2.119,2.119,0,0,1-50-7.79,3.258,3.258,0,0,1-48.7-8.782a4.356,4.356,0,0,1,1.8-.365,3.551,3.551,0,0,1,2.432.776,2.8,2.8,0,0,1,.913,2.137V-2.1a5.054,5.054,0,0,0,.315,1.967V0ZM-47.4-1.17a2.7,2.7,0,0,0,1.37-.374,2.259,2.259,0,0,0,.938-.971V-4.358h-1.2q-2.822,0-2.822,1.652a1.4,1.4,0,0,0,.481,1.129A1.85,1.85,0,0,0-47.4-1.17ZM-37-4.906a12.834,12.834,0,0,1,.5-3.6A10.465,10.465,0,0,1-35-11.646a6.374,6.374,0,0,1,2.067-1.992l.315,1.013a6.611,6.611,0,0,0-1.988,2.839,12.307,12.307,0,0,0-.851,4.275l-.008.706A12.371,12.371,0,0,0-34.295.755a6.642,6.642,0,0,0,1.677,2.208l-.315.938a6.579,6.579,0,0,1-2.108-2.059A11.538,11.538,0,0,1-37-4.906Zm12.941-.681H-29.3V-1.3h6.084V0h-7.678V-12.086h7.6v1.3h-6V-6.89h5.238Zm4.042-3.4.05,1.129a3.273,3.273,0,0,1,2.689-1.295q2.847,0,2.872,3.212V0h-1.536V-5.943a2.068,2.068,0,0,0-.444-1.436,1.78,1.78,0,0,0-1.357-.465,2.216,2.216,0,0,0-1.312.4,2.706,2.706,0,0,0-.88,1.046V0H-21.47V-8.981Zm10.011-2.175v2.175H-8.33v1.187h-1.677v5.577a1.247,1.247,0,0,0,.224.81.943.943,0,0,0,.764.27,3.718,3.718,0,0,0,.73-.1V0A4.478,4.478,0,0,1-9.467.166a1.912,1.912,0,0,1-1.552-.623,2.675,2.675,0,0,1-.523-1.768v-5.57h-1.635V-8.981h1.635v-2.175ZM-.992,0a3.226,3.226,0,0,1-.216-.946A3.426,3.426,0,0,1-3.764.166,3.17,3.17,0,0,1-5.943-.585,2.43,2.43,0,0,1-6.794-2.49,2.539,2.539,0,0,1-5.728-4.669a5.029,5.029,0,0,1,3-.776h1.494v-.706a1.725,1.725,0,0,0-.481-1.282,1.935,1.935,0,0,0-1.419-.477A2.239,2.239,0,0,0-4.511-7.5a1.223,1.223,0,0,0-.556,1H-6.612a2.119,2.119,0,0,1,.477-1.3,3.258,3.258,0,0,1,1.295-.992,4.356,4.356,0,0,1,1.8-.365A3.551,3.551,0,0,1-.61-8.371,2.8,2.8,0,0,1,.3-6.234V-2.1A5.054,5.054,0,0,0,.618-.133V0ZM-3.54-1.17a2.7,2.7,0,0,0,1.37-.374,2.259,2.259,0,0,0,.938-.971V-4.358h-1.2q-2.822,0-2.822,1.652a1.4,1.4,0,0,0,.481,1.129A1.85,1.85,0,0,0-3.54-1.17ZM4.379,0H2.843V-12.75H4.379ZM14.423-4.391a5.378,5.378,0,0,1-.938,3.3A3.006,3.006,0,0,1,10.945.166,3.294,3.294,0,0,1,8.371-.872V3.453H6.836V-8.981h1.4l.075,1A3.163,3.163,0,0,1,10.92-9.147a3.063,3.063,0,0,1,2.561,1.22,5.437,5.437,0,0,1,.942,3.4Zm-1.536-.174a3.968,3.968,0,0,0-.647-2.4,2.086,2.086,0,0,0-1.776-.88A2.257,2.257,0,0,0,8.371-6.607v4.292A2.262,2.262,0,0,0,10.48-1.087a2.076,2.076,0,0,0,1.756-.876A4.332,4.332,0,0,0,12.887-4.565ZM18.042,0H16.5V-8.981h1.544Zm.017-12.742h1.859L17.693-10.3l-1.237,0ZM26.118,0A3.226,3.226,0,0,1,25.9-.946,3.426,3.426,0,0,1,23.346.166a3.17,3.17,0,0,1-2.179-.751,2.43,2.43,0,0,1-.851-1.905,2.539,2.539,0,0,1,1.067-2.179,5.029,5.029,0,0,1,3-.776h1.494v-.706A1.725,1.725,0,0,0,25.4-7.433a1.935,1.935,0,0,0-1.419-.477A2.239,2.239,0,0,0,22.6-7.5a1.223,1.223,0,0,0-.556,1H20.5a2.119,2.119,0,0,1,.477-1.3,3.258,3.258,0,0,1,1.295-.992,4.356,4.356,0,0,1,1.8-.365,3.551,3.551,0,0,1,2.432.776,2.8,2.8,0,0,1,.913,2.137V-2.1a5.054,5.054,0,0,0,.315,1.967V0ZM23.57-1.17a2.7,2.7,0,0,0,1.37-.374,2.259,2.259,0,0,0,.938-.971V-4.358h-1.2q-2.822,0-2.822,1.652a1.4,1.4,0,0,0,.481,1.129A1.85,1.85,0,0,0,23.57-1.17ZM33.705-3.246a2.834,2.834,0,0,1,.486-1.6,7.4,7.4,0,0,1,1.855-1.7,8.011,8.011,0,0,1-1.079-1.577,2.83,2.83,0,0,1-.274-1.187,2.849,2.849,0,0,1,.813-2.158,3.057,3.057,0,0,1,2.208-.78,2.975,2.975,0,0,1,2.059.726,2.349,2.349,0,0,1,.813,1.83,2.583,2.583,0,0,1-.369,1.349,4.8,4.8,0,0,1-1.291,1.3l-.888.656,2.689,3.212a5.1,5.1,0,0,0,.564-2.4h1.386a5.787,5.787,0,0,1-1.021,3.511L43.384,0H41.541l-.805-.955A4.208,4.208,0,0,1,39.3-.12a5.1,5.1,0,0,1-1.681.286,4.153,4.153,0,0,1-2.839-.938A3.129,3.129,0,0,1,33.705-3.246Zm3.91,2.158a3.232,3.232,0,0,0,2.233-.93L36.9-5.545l-.274.2a2.764,2.764,0,0,0-1.386,2.1,2.038,2.038,0,0,0,.635,1.569A2.457,2.457,0,0,0,37.615-1.087ZM36.229-9.363a3.487,3.487,0,0,0,.979,1.992l.979-.689a2.606,2.606,0,0,0,.772-.76,1.731,1.731,0,0,0,.208-.876,1.187,1.187,0,0,0-.415-.926,1.515,1.515,0,0,0-1.046-.369,1.353,1.353,0,0,0-1.079.461A1.719,1.719,0,0,0,36.229-9.363ZM52.531.166a3.924,3.924,0,0,1-2.972-1.2,4.452,4.452,0,0,1-1.146-3.208v-.282a5.39,5.39,0,0,1,.51-2.386,3.982,3.982,0,0,1,1.428-1.644,3.59,3.59,0,0,1,1.988-.594,3.364,3.364,0,0,1,2.723,1.154,5,5,0,0,1,.971,3.3v.639H49.95a3.193,3.193,0,0,0,.776,2.146,2.44,2.44,0,0,0,1.888.818,2.675,2.675,0,0,0,1.378-.332,3.462,3.462,0,0,0,.988-.88l.938.73A3.772,3.772,0,0,1,52.531.166Zm-.191-8.052a2.048,2.048,0,0,0-1.561.677,3.288,3.288,0,0,0-.78,1.9h4.5v-.116a2.925,2.925,0,0,0-.631-1.814A1.928,1.928,0,0,0,52.341-7.886ZM59.479,0H57.944V-12.75h1.536Zm6.184.166a3.924,3.924,0,0,1-2.972-1.2,4.452,4.452,0,0,1-1.146-3.208v-.282a5.39,5.39,0,0,1,.51-2.386,3.982,3.982,0,0,1,1.428-1.644,3.59,3.59,0,0,1,1.988-.594A3.364,3.364,0,0,1,68.2-7.994a5,5,0,0,1,.971,3.3v.639H63.082a3.193,3.193,0,0,0,.776,2.146,2.44,2.44,0,0,0,1.888.818,2.675,2.675,0,0,0,1.378-.332,3.462,3.462,0,0,0,.988-.88l.938.73A3.772,3.772,0,0,1,65.663.166Zm-.191-8.052a2.048,2.048,0,0,0-1.561.677,3.288,3.288,0,0,0-.78,1.9h4.5v-.116A2.925,2.925,0,0,0,67-7.242,1.928,1.928,0,0,0,65.472-7.886Zm9.073,6.8a2.212,2.212,0,0,0,1.436-.5,1.752,1.752,0,0,0,.681-1.245h1.453a2.785,2.785,0,0,1-.531,1.469A3.5,3.5,0,0,1,76.276-.249a3.772,3.772,0,0,1-1.731.415,3.7,3.7,0,0,1-2.918-1.224,4.877,4.877,0,0,1-1.083-3.349v-.257A5.407,5.407,0,0,1,71.026-7a3.667,3.667,0,0,1,1.382-1.585,3.926,3.926,0,0,1,2.129-.564,3.6,3.6,0,0,1,2.511.9,3.234,3.234,0,0,1,1.067,2.349H76.662A2.116,2.116,0,0,0,76-7.325a2.053,2.053,0,0,0-1.465-.56,2.149,2.149,0,0,0-1.814.843,3.957,3.957,0,0,0-.643,2.436v.291a3.878,3.878,0,0,0,.639,2.391A2.16,2.16,0,0,0,74.545-1.087Zm7.379-10.069v2.175H83.6v1.187H81.925v5.577a1.247,1.247,0,0,0,.224.81.943.943,0,0,0,.764.27,3.718,3.718,0,0,0,.73-.1V0a4.478,4.478,0,0,1-1.179.165,1.912,1.912,0,0,1-1.552-.623,2.675,2.675,0,0,1-.523-1.768v-5.57H78.754V-8.981h1.635v-2.175ZM89.736-7.6a4.6,4.6,0,0,0-.755-.058,2.024,2.024,0,0,0-2.05,1.287V0H85.394V-8.981h1.494l.025,1.038a2.391,2.391,0,0,1,2.142-1.2,1.569,1.569,0,0,1,.681.116ZM92.815,0H91.28V-8.981h1.536Zm-1.66-11.364a.917.917,0,0,1,.228-.631.857.857,0,0,1,.677-.257.87.87,0,0,1,.681.257.907.907,0,0,1,.232.631.877.877,0,0,1-.232.623.886.886,0,0,1-.681.249.872.872,0,0,1-.677-.249A.886.886,0,0,1,91.155-11.364Zm7.72,10.276a2.212,2.212,0,0,0,1.436-.5,1.752,1.752,0,0,0,.681-1.245h1.453a2.785,2.785,0,0,1-.531,1.469,3.5,3.5,0,0,1-1.307,1.112,3.772,3.772,0,0,1-1.731.415,3.7,3.7,0,0,1-2.918-1.224,4.877,4.877,0,0,1-1.083-3.349v-.257A5.407,5.407,0,0,1,95.355-7a3.667,3.667,0,0,1,1.382-1.585,3.926,3.926,0,0,1,2.129-.564,3.6,3.6,0,0,1,2.511.9,3.234,3.234,0,0,1,1.067,2.349h-1.453a2.116,2.116,0,0,0-.66-1.432,2.053,2.053,0,0,0-1.465-.56,2.149,2.149,0,0,0-1.814.843,3.957,3.957,0,0,0-.643,2.436v.291a3.878,3.878,0,0,0,.639,2.391A2.16,2.16,0,0,0,98.875-1.087ZM105.839,0H104.3V-8.981h1.536Zm-1.66-11.364a.917.917,0,0,1,.228-.631.857.857,0,0,1,.677-.257.87.87,0,0,1,.681.257.907.907,0,0,1,.232.631.877.877,0,0,1-.232.623.886.886,0,0,1-.681.249.872.872,0,0,1-.677-.249A.886.886,0,0,1,104.179-11.364Zm3.744,6.8A5.261,5.261,0,0,1,108.9-7.89a3.1,3.1,0,0,1,2.565-1.258,3.115,3.115,0,0,1,2.5,1.079V-12.75H115.5V0H114.09l-.075-.963A3.127,3.127,0,0,1,111.45.166a3.068,3.068,0,0,1-2.544-1.278,5.321,5.321,0,0,1-.984-3.337Zm1.536.174A3.984,3.984,0,0,0,110.089-2a2.039,2.039,0,0,0,1.743.863,2.24,2.24,0,0,0,2.133-1.312V-6.574a2.257,2.257,0,0,0-2.117-1.27,2.049,2.049,0,0,0-1.76.872A4.386,4.386,0,0,0,109.458-4.391ZM123.428,0a3.226,3.226,0,0,1-.216-.946A3.426,3.426,0,0,1,120.656.166a3.17,3.17,0,0,1-2.179-.751,2.43,2.43,0,0,1-.851-1.905,2.539,2.539,0,0,1,1.067-2.179,5.029,5.029,0,0,1,3-.776h1.494v-.706a1.725,1.725,0,0,0-.481-1.282,1.935,1.935,0,0,0-1.419-.477,2.239,2.239,0,0,0-1.378.415,1.223,1.223,0,0,0-.556,1h-1.544a2.119,2.119,0,0,1,.477-1.3,3.258,3.258,0,0,1,1.295-.992,4.356,4.356,0,0,1,1.8-.365,3.551,3.551,0,0,1,2.432.776,2.8,2.8,0,0,1,.913,2.137V-2.1a5.054,5.054,0,0,0,.315,1.967V0ZM120.88-1.17a2.7,2.7,0,0,0,1.37-.374,2.259,2.259,0,0,0,.938-.971V-4.358h-1.2q-2.822,0-2.822,1.652a1.4,1.4,0,0,0,.481,1.129A1.85,1.85,0,0,0,120.88-1.17Zm5.877-3.4a5.261,5.261,0,0,1,.979-3.324A3.1,3.1,0,0,1,130.3-9.147a3.115,3.115,0,0,1,2.5,1.079V-12.75h1.536V0h-1.411l-.075-.963A3.127,3.127,0,0,1,130.285.166a3.068,3.068,0,0,1-2.544-1.278,5.321,5.321,0,0,1-.984-3.337Zm1.536.174A3.984,3.984,0,0,0,128.924-2a2.039,2.039,0,0,0,1.743.863A2.24,2.24,0,0,0,132.8-2.449V-6.574a2.257,2.257,0,0,0-2.117-1.27,2.049,2.049,0,0,0-1.76.872A4.386,4.386,0,0,0,128.293-4.391Zm11.97-.432a12.84,12.84,0,0,1-.486,3.549,10.493,10.493,0,0,1-1.486,3.134A6.51,6.51,0,0,1,136.2,3.9l-.324-.938a6.673,6.673,0,0,0,2.054-3.042,13.161,13.161,0,0,0,.793-4.578v-.266a13.665,13.665,0,0,0-.365-3.241,10.94,10.94,0,0,0-1.017-2.685,6.2,6.2,0,0,0-1.465-1.851l.324-.938a6.485,6.485,0,0,1,2.088,2.025,10.516,10.516,0,0,1,1.486,3.129A13.136,13.136,0,0,1,140.262-4.823Zm7.122-1.237L148-12.086h6.192v1.419H149.3l-.365,3.3a3.9,3.9,0,0,1,2.017-.523A3.334,3.334,0,0,1,153.577-6.8a4.278,4.278,0,0,1,.971,2.951A4.129,4.129,0,0,1,153.54-.909,3.676,3.676,0,0,1,150.721.166a3.82,3.82,0,0,1-2.615-.888,3.545,3.545,0,0,1-1.154-2.457h1.453a2.439,2.439,0,0,0,.739,1.565,2.3,2.3,0,0,0,1.577.527,2.072,2.072,0,0,0,1.681-.73,3.054,3.054,0,0,0,.61-2.017,2.8,2.8,0,0,0-.66-1.947,2.245,2.245,0,0,0-1.756-.735,2.532,2.532,0,0,0-1.577.44l-.407.332Zm8.948,8.467-.872-.6a4.006,4.006,0,0,0,.813-2.241V-1.818h1.5v1.2a3.781,3.781,0,0,1-.411,1.677A3.926,3.926,0,0,1,156.333,2.407Zm11.032-13.63L162.359,0h-1.61l4.989-10.824H159.2v-1.262h8.168Zm5.819,1.461a2.452,2.452,0,0,1,.693-1.793,2.388,2.388,0,0,1,1.781-.706,2.374,2.374,0,0,1,1.789.71,2.537,2.537,0,0,1,.685,1.839v.589a2.421,2.421,0,0,1-.693,1.789,2.389,2.389,0,0,1-1.764.693,2.442,2.442,0,0,1-1.785-.693,2.472,2.472,0,0,1-.706-1.847Zm1.146.636a1.571,1.571,0,0,0,.365,1.069,1.232,1.232,0,0,0,.979.42,1.208,1.208,0,0,0,.95-.408,1.622,1.622,0,0,0,.361-1.115v-.607a1.61,1.61,0,0,0-.357-1.073,1.2,1.2,0,0,0-.971-.424,1.2,1.2,0,0,0-.971.424,1.661,1.661,0,0,0-.357,1.107Zm4.74,6.163a2.438,2.438,0,0,1,.693-1.789,2.4,2.4,0,0,1,1.781-.7,2.417,2.417,0,0,1,1.785.7,2.5,2.5,0,0,1,.7,1.851v.589a2.438,2.438,0,0,1-.693,1.789,2.385,2.385,0,0,1-1.772.7,2.442,2.442,0,0,1-1.785-.693,2.472,2.472,0,0,1-.706-1.847Zm1.146.644a1.583,1.583,0,0,0,.365,1.077,1.232,1.232,0,0,0,.979.42,1.2,1.2,0,0,0,.955-.412,1.65,1.65,0,0,0,.357-1.119v-.616a1.578,1.578,0,0,0-.361-1.073,1.216,1.216,0,0,0-.967-.416,1.228,1.228,0,0,0-.959.412,1.6,1.6,0,0,0-.369,1.111ZM176.022-.913l-.872-.548,5.9-9.446.872.548Z" transform="translate(-3605 -8594)" fill="#12263f"/>
    <path id="Trazado_602166" data-name="Trazado 602166" d="M0,0H93V269H0Z" transform="translate(-4214 -8819)" fill="#770b08"/>
    <g id="Grupo_159012" data-name="Grupo 159012" transform="translate(-4186.53 -8864.941)" clip-path="url(#clip-path)">
      <path id="Trazado_600790" data-name="Trazado 600790" d="M418.331,123.354l-7.256-.266c.366-10.017-2.357-12.7-3.487-12.912H136.535v-7.262H407.7a8.629,8.629,0,0,1,6.029,2.783c3.356,3.388,4.9,9.327,4.6,17.655M407.6,110.177a.893.893,0,0,0,.2,0Z" transform="translate(61.764 46.555)" fill="#939393"/>
      <path id="Trazado_600791" data-name="Trazado 600791" d="M342.133,160.932l-15.967-.526c.851-25.9-6.61-33.075-9.748-33.743H136.536V110.687H316.857c1.372.02,7.946.444,14.19,6.993,8.023,8.415,11.754,22.966,11.086,43.251m-25.618-34.269a1.275,1.275,0,0,0,.225,0Z" transform="translate(61.764 52.36)" fill="#b793ff"/>
      <path id="Trazado_600792" data-name="Trazado 600792" d="M246.246,245.182h-7.262V138.761c0-4.7-.992-6.135-1.285-6.456H136.536v-7.262H236.955a6.946,6.946,0,0,1,5.147,1.471c2.789,2.177,4.144,6.181,4.144,12.246Z" transform="translate(61.764 60.892)" fill="#6b509e"/>
      <path id="Trazado_600793" data-name="Trazado 600793" d="M42.8,144.465H511.231v45.277l42.833-95.367L511.231,0V45.277H42.8Z" transform="translate(19.363 0)" fill="#5689ce"/>
      <path id="Trazado_600794" data-name="Trazado 600794" d="M279.227,137.164h21.122l-10.562,18.291-10.56,18.293-10.56-18.293-10.562-18.291Z" transform="translate(116.757 72.229)" fill="#b793ff"/>
      <path id="Trazado_600795" data-name="Trazado 600795" d="M331.8,116.9h11.9l-5.952,10.309L331.8,137.514l-5.952-10.309L319.891,116.9Z" transform="translate(144.707 52.88)" fill="#939393"/>
      <path id="Trazado_600796" data-name="Trazado 600796" d="M213.282,207.747h11.9l-5.952,10.309-5.952,10.309-5.952-10.309-5.952-10.309Z" transform="translate(91.097 96.039)" fill="#6b509e"/>
      <path id="Trazado_600797" data-name="Trazado 600797" d="M62.089,62.518V284.833H0l130.774,58.735,129.417-58.735H198.1V62.518Z" transform="translate(0 28.281)" fill="#8bffff"/>
    </g>
    <path id="Trazado_602167" data-name="Trazado 602167" d="M-18-4.263a4.528,4.528,0,0,1-1.525,3.252A5.355,5.355,0,0,1-23.155.176a4.816,4.816,0,0,1-3.872-1.657,6.793,6.793,0,0,1-1.411-4.548v-.782a7.671,7.671,0,0,1,.65-3.252,4.874,4.874,0,0,1,1.859-2.158,5.207,5.207,0,0,1,2.808-.751,5.217,5.217,0,0,1,3.568,1.187,4.866,4.866,0,0,1,1.564,3.331h-2.637a2.673,2.673,0,0,0-.69-1.8,2.555,2.555,0,0,0-1.806-.558,2.24,2.24,0,0,0-1.973.945,5.3,5.3,0,0,0-.672,2.931v.967a5.667,5.667,0,0,0,.628,3.032,2.2,2.2,0,0,0,1.982.958,2.6,2.6,0,0,0,1.824-.558,2.521,2.521,0,0,0,.69-1.727ZM-10.929,0a2.821,2.821,0,0,1-.255-.853,3.073,3.073,0,0,1-2.4,1.028A3.376,3.376,0,0,1-15.9-.633a2.6,2.6,0,0,1-.918-2.039A2.687,2.687,0,0,1-15.7-4.992a5.529,5.529,0,0,1,3.239-.817h1.169v-.545a1.567,1.567,0,0,0-.338-1.055A1.331,1.331,0,0,0-12.7-7.8,1.513,1.513,0,0,0-13.7-7.5a1.045,1.045,0,0,0-.365.844h-2.54a2.551,2.551,0,0,1,.51-1.529,3.37,3.37,0,0,1,1.441-1.1,5.253,5.253,0,0,1,2.092-.4A4.15,4.15,0,0,1-9.773-8.8,3.09,3.09,0,0,1-8.741-6.319V-2.2A4.546,4.546,0,0,0-8.363-.149V0Zm-2.1-1.767a2.188,2.188,0,0,0,1.037-.25,1.645,1.645,0,0,0,.7-.672V-4.324h-.949q-1.907,0-2.03,1.318l-.009.149a1.017,1.017,0,0,0,.334.782A1.3,1.3,0,0,0-13.03-1.767ZM-1.446-7.128A6.9,6.9,0,0,0-2.36-7.2a1.86,1.86,0,0,0-1.89.976V0H-6.79V-9.51h2.4l.07,1.134A2.354,2.354,0,0,1-2.2-9.686a2.662,2.662,0,0,1,.791.114ZM8.345-4.667A5.758,5.758,0,0,1,7.37-1.1,3.231,3.231,0,0,1,4.645.176a2.969,2.969,0,0,1-2.47-1.187L2.061,0H-.224V-13.5h2.54v4.843A2.893,2.893,0,0,1,4.627-9.686,3.258,3.258,0,0,1,7.356-8.407a5.767,5.767,0,0,1,.989,3.6Zm-2.54-.185a3.783,3.783,0,0,0-.457-2.1A1.545,1.545,0,0,0,3.986-7.62a1.676,1.676,0,0,0-1.67.993v3.753A1.7,1.7,0,0,0,4-1.872,1.568,1.568,0,0,0,5.621-3.085,6.257,6.257,0,0,0,5.805-4.852Zm3.709.009a5.64,5.64,0,0,1,.545-2.522,3.989,3.989,0,0,1,1.569-1.714,4.577,4.577,0,0,1,2.377-.606,4.33,4.33,0,0,1,3.142,1.178,4.727,4.727,0,0,1,1.358,3.2l.018.65A4.97,4.97,0,0,1,17.3-1.147,4.247,4.247,0,0,1,14.023.176,4.268,4.268,0,0,1,10.74-1.143,5.058,5.058,0,0,1,9.514-4.729Zm2.54.18a3.555,3.555,0,0,0,.51,2.073,1.682,1.682,0,0,0,1.459.717,1.686,1.686,0,0,0,1.441-.709,3.89,3.89,0,0,0,.519-2.267,3.519,3.519,0,0,0-.519-2.06,1.686,1.686,0,0,0-1.459-.731,1.658,1.658,0,0,0-1.441.726A3.955,3.955,0,0,0,12.054-4.662ZM14.506-13.5h2.769L14.84-10.775H12.775Zm7.919,3.99.079,1.1a3.32,3.32,0,0,1,2.733-1.274,2.759,2.759,0,0,1,2.25.888,4.142,4.142,0,0,1,.756,2.654V0H25.7V-6.082a1.648,1.648,0,0,0-.352-1.173,1.574,1.574,0,0,0-1.169-.365,1.747,1.747,0,0,0-1.608.914V0h-2.54V-9.51ZM-17.336,20h-2.54V10.209l-3.032.94V9.084l5.3-1.9h.272Zm12.771-5.291a6.483,6.483,0,0,1-1.1,4.061,3.835,3.835,0,0,1-3.217,1.406,3.862,3.862,0,0,1-3.2-1.38,6.293,6.293,0,0,1-1.134-3.955V12.485A6.4,6.4,0,0,1-12.1,8.416,3.864,3.864,0,0,1-8.9,7.027,3.867,3.867,0,0,1-5.7,8.4a6.273,6.273,0,0,1,1.134,3.951Zm-2.54-2.59A4.686,4.686,0,0,0-7.541,9.8,1.47,1.47,0,0,0-8.9,9.075a1.444,1.444,0,0,0-1.323.691,4.385,4.385,0,0,0-.453,2.16V15.04a4.919,4.919,0,0,0,.426,2.327,1.451,1.451,0,0,0,1.367.761,1.426,1.426,0,0,0,1.345-.73,4.8,4.8,0,0,0,.431-2.235Zm12.867,2.59a6.483,6.483,0,0,1-1.1,4.061,3.835,3.835,0,0,1-3.217,1.406,3.862,3.862,0,0,1-3.2-1.38,6.293,6.293,0,0,1-1.134-3.955V12.485A6.4,6.4,0,0,1-1.775,8.416a3.864,3.864,0,0,1,3.2-1.389A3.867,3.867,0,0,1,4.627,8.4a6.273,6.273,0,0,1,1.134,3.951Zm-2.54-2.59A4.686,4.686,0,0,0,2.786,9.8a1.47,1.47,0,0,0-1.358-.726,1.444,1.444,0,0,0-1.323.691,4.385,4.385,0,0,0-.453,2.16V15.04a4.919,4.919,0,0,0,.426,2.327,1.451,1.451,0,0,0,1.367.761,1.426,1.426,0,0,0,1.345-.73,4.8,4.8,0,0,0,.431-2.235Zm8.7-2.455a2.53,2.53,0,0,1,.765-1.912,2.773,2.773,0,0,1,2-.734,2.817,2.817,0,0,1,2.021.725,2.578,2.578,0,0,1,.765,1.964v.633a2.5,2.5,0,0,1-.765,1.907,2.8,2.8,0,0,1-2,.721,2.82,2.82,0,0,1-2.017-.725,2.559,2.559,0,0,1-.769-1.956Zm1.688.677a1.184,1.184,0,0,0,.3.848,1.044,1.044,0,0,0,.8.321,1,1,0,0,0,.782-.325,1.259,1.259,0,0,0,.29-.87v-.65a1.233,1.233,0,0,0-.29-.853,1.13,1.13,0,0,0-1.582,0,1.258,1.258,0,0,0-.3.892Zm4.43,6.521a2.5,2.5,0,0,1,.773-1.912,2.812,2.812,0,0,1,2-.725,2.841,2.841,0,0,1,2.017.716,2.564,2.564,0,0,1,.769,1.973v.633a2.517,2.517,0,0,1-.756,1.9,2.786,2.786,0,0,1-2.013.725,2.819,2.819,0,0,1-2.03-.729,2.548,2.548,0,0,1-.765-1.934Zm1.688.686a1.175,1.175,0,0,0,.316.826,1.032,1.032,0,0,0,.791.343q1.072,0,1.072-1.187v-.668a1.194,1.194,0,0,0-.3-.848,1.136,1.136,0,0,0-1.582,0,1.232,1.232,0,0,0-.3.875Zm-4.518,1.494-1.239-.668,6.249-10,1.239.668Z" transform="translate(-4267 -8801)" fill="#12263f"/>
    <path id="Trazado_602168" data-name="Trazado 602168" d="M0,0H402V231H0Z" transform="translate(-3626 -8553)" fill="#cdfcfc"/>
    <path id="Trazado_602169" data-name="Trazado 602169" d="M-53.258-4.424h-1.984V0h-2.49V-12.086h4.491a5.076,5.076,0,0,1,3.3.955,3.3,3.3,0,0,1,1.162,2.7,3.718,3.718,0,0,1-.535,2.063,3.651,3.651,0,0,1-1.623,1.316l2.615,4.939V0h-2.673Zm-1.984-2.017h2.009a2.057,2.057,0,0,0,1.453-.477,1.706,1.706,0,0,0,.515-1.316,1.826,1.826,0,0,0-.486-1.345,2.018,2.018,0,0,0-1.49-.49h-2ZM-42.907.166a4.409,4.409,0,0,1-3.217-1.212,4.308,4.308,0,0,1-1.241-3.229v-.232a5.426,5.426,0,0,1,.523-2.42A3.838,3.838,0,0,1-45.36-8.571a4.159,4.159,0,0,1,2.187-.577,3.727,3.727,0,0,1,2.9,1.162,4.722,4.722,0,0,1,1.058,3.3v.979h-5.719a2.229,2.229,0,0,0,.7,1.411,2.12,2.12,0,0,0,1.482.531,2.589,2.589,0,0,0,2.167-1l1.179,1.32A3.6,3.6,0,0,1-40.865-.261,4.793,4.793,0,0,1-42.907.166Zm-.274-7.379a1.5,1.5,0,0,0-1.158.484,2.5,2.5,0,0,0-.569,1.384h3.337v-.192A1.786,1.786,0,0,0-42-6.776,1.547,1.547,0,0,0-43.181-7.213Zm7.537-1.768.075,1.038a3.136,3.136,0,0,1,2.582-1.2,2.606,2.606,0,0,1,2.125.838A3.912,3.912,0,0,1-30.148-5.8V0h-2.4V-5.744a1.556,1.556,0,0,0-.332-1.108,1.486,1.486,0,0,0-1.1-.344,1.65,1.65,0,0,0-1.519.863V0h-2.4V-8.981ZM-28.7-4.557A5.413,5.413,0,0,1-27.762-7.9a3.057,3.057,0,0,1,2.577-1.245,2.751,2.751,0,0,1,2.167.979V-12.75h2.407V0h-2.167l-.116-.955A2.823,2.823,0,0,1-25.2.166a3.049,3.049,0,0,1-2.544-1.249A5.587,5.587,0,0,1-28.7-4.557Zm2.4.179a3.546,3.546,0,0,0,.44,1.937,1.433,1.433,0,0,0,1.278.673,1.605,1.605,0,0,0,1.569-.939v-3.55A1.582,1.582,0,0,0-24.57-7.2Q-26.305-7.2-26.305-4.379ZM-16.22,0h-2.407V-8.981h2.407Zm-2.548-11.306a1.181,1.181,0,0,1,.361-.888,1.356,1.356,0,0,1,.984-.349,1.36,1.36,0,0,1,.979.349,1.175,1.175,0,0,1,.365.888,1.178,1.178,0,0,1-.369.9,1.363,1.363,0,0,1-.975.349,1.363,1.363,0,0,1-.975-.349A1.178,1.178,0,0,1-18.768-11.306Zm6.773,2.324.075,1a3.156,3.156,0,0,1,2.582-1.17,2.4,2.4,0,0,1,2.382,1.37,3.084,3.084,0,0,1,2.7-1.37A2.679,2.679,0,0,1-2.083-8.3,3.911,3.911,0,0,1-1.37-5.736V0H-3.777V-5.728a1.71,1.71,0,0,0-.3-1.116A1.324,1.324,0,0,0-5.13-7.2,1.5,1.5,0,0,0-6.624-6.167L-6.616,0h-2.4V-5.719a1.689,1.689,0,0,0-.307-1.129A1.337,1.337,0,0,0-10.368-7.2a1.555,1.555,0,0,0-1.478.847V0h-2.4V-8.981ZM3,0H.6V-8.981H3ZM.457-11.306a1.181,1.181,0,0,1,.361-.888,1.356,1.356,0,0,1,.984-.349,1.36,1.36,0,0,1,.979.349,1.175,1.175,0,0,1,.365.888,1.178,1.178,0,0,1-.369.9,1.363,1.363,0,0,1-.975.349,1.363,1.363,0,0,1-.975-.349A1.178,1.178,0,0,1,.457-11.306ZM9.114.166A4.409,4.409,0,0,1,5.9-1.046,4.308,4.308,0,0,1,4.657-4.275v-.232a5.426,5.426,0,0,1,.523-2.42A3.838,3.838,0,0,1,6.661-8.571a4.159,4.159,0,0,1,2.187-.577,3.727,3.727,0,0,1,2.9,1.162,4.722,4.722,0,0,1,1.058,3.3v.979H7.089A2.229,2.229,0,0,0,7.79-2.3a2.12,2.12,0,0,0,1.482.531,2.589,2.589,0,0,0,2.167-1l1.179,1.32A3.6,3.6,0,0,1,11.156-.261,4.793,4.793,0,0,1,9.114.166ZM8.84-7.213a1.5,1.5,0,0,0-1.158.484,2.5,2.5,0,0,0-.569,1.384h3.337v-.192a1.786,1.786,0,0,0-.432-1.238A1.547,1.547,0,0,0,8.84-7.213Zm7.537-1.768.075,1.038a3.136,3.136,0,0,1,2.582-1.2,2.606,2.606,0,0,1,2.125.838A3.912,3.912,0,0,1,21.873-5.8V0h-2.4V-5.744a1.556,1.556,0,0,0-.332-1.108,1.486,1.486,0,0,0-1.1-.344,1.65,1.65,0,0,0-1.519.863V0h-2.4V-8.981Zm10.185-2.208v2.208H28.1v1.76H26.563v4.482a1.07,1.07,0,0,0,.191.714.959.959,0,0,0,.73.216,3.826,3.826,0,0,0,.706-.058V-.05a4.939,4.939,0,0,1-1.453.216,2.29,2.29,0,0,1-2.573-2.548V-7.222H22.852v-1.76h1.312v-2.208Zm2.25,6.616a5.327,5.327,0,0,1,.515-2.382,3.768,3.768,0,0,1,1.482-1.619,4.323,4.323,0,0,1,2.245-.573,4.09,4.09,0,0,1,2.968,1.112A4.464,4.464,0,0,1,37.3-5.014l.017.614a4.694,4.694,0,0,1-1.154,3.316A4.011,4.011,0,0,1,33.07.166a4.031,4.031,0,0,1-3.1-1.245,4.777,4.777,0,0,1-1.158-3.387Zm2.4.17a3.357,3.357,0,0,0,.481,1.958,1.588,1.588,0,0,0,1.378.678,1.592,1.592,0,0,0,1.361-.669,3.674,3.674,0,0,0,.49-2.141,3.324,3.324,0,0,0-.49-1.945,1.592,1.592,0,0,0-1.378-.69,1.566,1.566,0,0,0-1.361.686A3.735,3.735,0,0,0,31.211-4.4ZM39.42,3.03l-1.253-.656.3-.54a4.313,4.313,0,0,0,.573-2.017V-2.042h2.025l-.008,1.66a4.313,4.313,0,0,1-.465,1.859A4.767,4.767,0,0,1,39.42,3.03ZM47.049-9.762a2.389,2.389,0,0,1,.722-1.805,2.619,2.619,0,0,1,1.893-.693,2.66,2.66,0,0,1,1.909.685,2.435,2.435,0,0,1,.722,1.855v.6a2.359,2.359,0,0,1-.722,1.8,2.647,2.647,0,0,1-1.893.681,2.664,2.664,0,0,1-1.905-.685,2.417,2.417,0,0,1-.726-1.847Zm1.594.639a1.118,1.118,0,0,0,.286.8.986.986,0,0,0,.751.3.94.94,0,0,0,.739-.307,1.189,1.189,0,0,0,.274-.822v-.614a1.164,1.164,0,0,0-.274-.805.96.96,0,0,0-.755-.307.963.963,0,0,0-.739.3,1.188,1.188,0,0,0-.282.843Zm4.184,6.159a2.359,2.359,0,0,1,.73-1.805,2.656,2.656,0,0,1,1.893-.685,2.683,2.683,0,0,1,1.905.677,2.422,2.422,0,0,1,.726,1.864v.6a2.377,2.377,0,0,1-.714,1.8,2.631,2.631,0,0,1-1.9.685,2.662,2.662,0,0,1-1.917-.689,2.407,2.407,0,0,1-.722-1.826Zm1.594.647a1.11,1.11,0,0,0,.3.78.974.974,0,0,0,.747.324q1.013,0,1.013-1.121v-.631a1.128,1.128,0,0,0-.282-.8.973.973,0,0,0-.747-.3.973.973,0,0,0-.747.3,1.164,1.164,0,0,0-.282.826ZM50.153-.9l-1.17-.631,5.9-9.446,1.17.631Z" transform="translate(-3339 -8346)" fill="#12263f"/>
    <path id="Trazado_602170" data-name="Trazado 602170" d="M-23.433-4.026a4.277,4.277,0,0,1-1.44,3.071A5.058,5.058,0,0,1-28.3.166,4.548,4.548,0,0,1-31.954-1.4a6.416,6.416,0,0,1-1.332-4.3v-.739A7.245,7.245,0,0,1-32.672-9.5a4.6,4.6,0,0,1,1.756-2.038,4.918,4.918,0,0,1,2.652-.71,4.927,4.927,0,0,1,3.37,1.121,4.6,4.6,0,0,1,1.478,3.146h-2.49a2.524,2.524,0,0,0-.652-1.7,2.413,2.413,0,0,0-1.706-.527,2.116,2.116,0,0,0-1.864.892,5,5,0,0,0-.635,2.768v.913a5.352,5.352,0,0,0,.594,2.864,2.077,2.077,0,0,0,1.872.9,2.458,2.458,0,0,0,1.722-.527,2.381,2.381,0,0,0,.652-1.631Zm1.1-.548a5.327,5.327,0,0,1,.515-2.382,3.768,3.768,0,0,1,1.482-1.619,4.323,4.323,0,0,1,2.245-.573A4.09,4.09,0,0,1-15.12-8.035a4.464,4.464,0,0,1,1.282,3.021l.017.614a4.694,4.694,0,0,1-1.154,3.316,4.011,4.011,0,0,1-3.1,1.249,4.031,4.031,0,0,1-3.1-1.245,4.777,4.777,0,0,1-1.158-3.387Zm2.4.17a3.357,3.357,0,0,0,.481,1.958,1.588,1.588,0,0,0,1.378.678,1.592,1.592,0,0,0,1.361-.669,3.674,3.674,0,0,0,.49-2.141,3.324,3.324,0,0,0-.49-1.945,1.592,1.592,0,0,0-1.378-.69,1.566,1.566,0,0,0-1.361.686A3.735,3.735,0,0,0-19.93-4.4Zm9.795-4.578.075,1.038a3.136,3.136,0,0,1,2.582-1.2,2.606,2.606,0,0,1,2.125.838A3.912,3.912,0,0,1-4.64-5.8V0h-2.4V-5.744a1.556,1.556,0,0,0-.332-1.108,1.486,1.486,0,0,0-1.1-.344,1.65,1.65,0,0,0-1.519.863V0h-2.4V-8.981ZM11.057-4.026A4.277,4.277,0,0,1,9.616-.955,5.058,5.058,0,0,1,6.192.166,4.548,4.548,0,0,1,2.536-1.4,6.416,6.416,0,0,1,1.2-5.694v-.739A7.245,7.245,0,0,1,1.818-9.5a4.6,4.6,0,0,1,1.756-2.038,4.918,4.918,0,0,1,2.652-.71A4.927,4.927,0,0,1,9.6-11.131a4.6,4.6,0,0,1,1.478,3.146H8.583a2.524,2.524,0,0,0-.652-1.7,2.413,2.413,0,0,0-1.706-.527,2.116,2.116,0,0,0-1.864.892,5,5,0,0,0-.635,2.768v.913a5.352,5.352,0,0,0,.594,2.864,2.077,2.077,0,0,0,1.872.9,2.458,2.458,0,0,0,1.722-.527,2.381,2.381,0,0,0,.652-1.631ZM19.515-2.49H15.149L14.319,0H11.671l4.5-12.086h2.308L23,0H20.354ZM15.821-4.507h3.021L17.324-9.031Zm17.623.481A4.277,4.277,0,0,1,32-.955,5.058,5.058,0,0,1,28.58.166,4.548,4.548,0,0,1,24.923-1.4a6.416,6.416,0,0,1-1.332-4.3v-.739A7.245,7.245,0,0,1,24.205-9.5a4.6,4.6,0,0,1,1.756-2.038,4.918,4.918,0,0,1,2.652-.71,4.927,4.927,0,0,1,3.37,1.121A4.6,4.6,0,0,1,33.46-7.985H30.97a2.524,2.524,0,0,0-.652-1.7,2.413,2.413,0,0,0-1.706-.527,2.116,2.116,0,0,0-1.864.892,5,5,0,0,0-.635,2.768v.913a5.352,5.352,0,0,0,.594,2.864,2.077,2.077,0,0,0,1.872.9A2.458,2.458,0,0,0,30.3-2.395a2.381,2.381,0,0,0,.652-1.631Z" transform="translate(-3489.104 -8422)" fill="#12263f"/>
    <path id="Trazado_602171" data-name="Trazado 602171" d="M-73.308-4.258V0H-75.8V-12.086h4.715a5.455,5.455,0,0,1,2.395.5,3.67,3.67,0,0,1,1.59,1.415,3.946,3.946,0,0,1,.556,2.088,3.47,3.47,0,0,1-1.216,2.8,5.065,5.065,0,0,1-3.366,1.025Zm0-2.017h2.225a2.187,2.187,0,0,0,1.507-.465,1.691,1.691,0,0,0,.519-1.328A1.994,1.994,0,0,0-69.581-9.5a1.953,1.953,0,0,0-1.444-.564h-2.283ZM-62.459,0h-2.407V-12.75h2.407Zm7.18,0a2.664,2.664,0,0,1-.241-.805,2.9,2.9,0,0,1-2.266.971A3.189,3.189,0,0,1-59.973-.6a2.456,2.456,0,0,1-.867-1.926,2.538,2.538,0,0,1,1.058-2.191,5.222,5.222,0,0,1,3.059-.772h1.1V-6a1.48,1.48,0,0,0-.32-1,1.257,1.257,0,0,0-1.009-.374,1.429,1.429,0,0,0-.95.291.987.987,0,0,0-.344.8h-2.4a2.41,2.41,0,0,1,.481-1.444A3.182,3.182,0,0,1-58.8-8.77a4.961,4.961,0,0,1,1.976-.378,3.92,3.92,0,0,1,2.635.834,2.918,2.918,0,0,1,.975,2.345v3.893a4.294,4.294,0,0,0,.357,1.934V0Zm-1.984-1.668a2.066,2.066,0,0,0,.979-.237,1.554,1.554,0,0,0,.664-.635V-4.084h-.9q-1.8,0-1.917,1.245l-.008.141a.96.96,0,0,0,.315.739A1.225,1.225,0,0,0-57.263-1.668Zm8.1-7.313.075,1.038a3.136,3.136,0,0,1,2.582-1.2,2.606,2.606,0,0,1,2.125.838A3.912,3.912,0,0,1-43.666-5.8V0h-2.4V-5.744A1.556,1.556,0,0,0-46.4-6.852,1.486,1.486,0,0,0-47.5-7.2a1.65,1.65,0,0,0-1.519.863V0h-2.4V-8.981Zm10.185-2.208v2.208h1.536v1.76h-1.536v4.482a1.07,1.07,0,0,0,.191.714.959.959,0,0,0,.73.216,3.826,3.826,0,0,0,.706-.058V-.05A4.939,4.939,0,0,1-38.8.166a2.29,2.29,0,0,1-2.573-2.548V-7.222h-1.312v-1.76h1.312v-2.208ZM-30.9,0a2.664,2.664,0,0,1-.241-.805,2.9,2.9,0,0,1-2.266.971A3.189,3.189,0,0,1-35.594-.6a2.456,2.456,0,0,1-.867-1.926A2.538,2.538,0,0,1-35.4-4.715a5.222,5.222,0,0,1,3.059-.772h1.1V-6a1.48,1.48,0,0,0-.32-1,1.257,1.257,0,0,0-1.009-.374,1.429,1.429,0,0,0-.95.291.987.987,0,0,0-.344.8h-2.4a2.41,2.41,0,0,1,.481-1.444A3.182,3.182,0,0,1-34.419-8.77a4.961,4.961,0,0,1,1.976-.378,3.92,3.92,0,0,1,2.635.834,2.918,2.918,0,0,1,.975,2.345v3.893a4.294,4.294,0,0,0,.357,1.934V0Zm-1.984-1.668a2.066,2.066,0,0,0,.979-.237,1.554,1.554,0,0,0,.664-.635V-4.084h-.9q-1.8,0-1.917,1.245l-.008.141a.96.96,0,0,0,.315.739A1.225,1.225,0,0,0-32.884-1.668Zm9.753-2.889A5.413,5.413,0,0,1-22.188-7.9a3.057,3.057,0,0,1,2.577-1.245,2.751,2.751,0,0,1,2.167.979V-12.75h2.407V0H-17.2l-.116-.955A2.823,2.823,0,0,1-19.627.166a3.049,3.049,0,0,1-2.544-1.249A5.587,5.587,0,0,1-23.13-4.557Zm2.4.179a3.546,3.546,0,0,0,.44,1.937,1.433,1.433,0,0,0,1.278.673,1.605,1.605,0,0,0,1.569-.939v-3.55A1.582,1.582,0,0,0-19-7.2Q-20.731-7.2-20.731-4.379ZM-9.044.166A4.409,4.409,0,0,1-12.26-1.046,4.308,4.308,0,0,1-13.5-4.275v-.232a5.426,5.426,0,0,1,.523-2.42A3.838,3.838,0,0,1-11.5-8.571a4.159,4.159,0,0,1,2.187-.577,3.727,3.727,0,0,1,2.9,1.162A4.722,4.722,0,0,1-5.35-4.69v.979h-5.719a2.229,2.229,0,0,0,.7,1.411,2.12,2.12,0,0,0,1.482.531,2.589,2.589,0,0,0,2.167-1l1.179,1.32A3.6,3.6,0,0,1-7-.261,4.793,4.793,0,0,1-9.044.166Zm-.274-7.379a1.5,1.5,0,0,0-1.158.484,2.5,2.5,0,0,0-.569,1.384h3.337v-.192a1.786,1.786,0,0,0-.432-1.238A1.547,1.547,0,0,0-9.318-7.213Zm14.609.481A6.517,6.517,0,0,0,4.428-6.8a1.757,1.757,0,0,0-1.785.921V0H.245V-8.981H2.511l.066,1.071a2.223,2.223,0,0,1,2-1.237,2.514,2.514,0,0,1,.747.108Zm5.13,6.9A4.409,4.409,0,0,1,7.205-1.046,4.308,4.308,0,0,1,5.964-4.275v-.232a5.426,5.426,0,0,1,.523-2.42A3.838,3.838,0,0,1,7.969-8.571a4.159,4.159,0,0,1,2.187-.577,3.727,3.727,0,0,1,2.9,1.162,4.722,4.722,0,0,1,1.058,3.3v.979H8.4A2.229,2.229,0,0,0,9.1-2.3a2.12,2.12,0,0,0,1.482.531,2.589,2.589,0,0,0,2.167-1l1.179,1.32A3.6,3.6,0,0,1,12.464-.261,4.793,4.793,0,0,1,10.422.166Zm-.274-7.379A1.5,1.5,0,0,0,8.99-6.73a2.5,2.5,0,0,0-.569,1.384h3.337v-.192a1.786,1.786,0,0,0-.432-1.238A1.547,1.547,0,0,0,10.148-7.213ZM16.133,0V-7.222H14.8v-1.76h1.336v-.764A3.1,3.1,0,0,1,17-12.09a3.359,3.359,0,0,1,2.428-.834,5.608,5.608,0,0,1,1.22.166L20.623-10.9a3.058,3.058,0,0,0-.73-.075q-1.353,0-1.353,1.27v.722h1.785v1.76H18.54V0ZM25.5.166a4.409,4.409,0,0,1-3.217-1.212,4.308,4.308,0,0,1-1.241-3.229v-.232a5.426,5.426,0,0,1,.523-2.42,3.838,3.838,0,0,1,1.482-1.644,4.159,4.159,0,0,1,2.187-.577,3.727,3.727,0,0,1,2.9,1.162A4.722,4.722,0,0,1,29.2-4.69v.979H23.479a2.229,2.229,0,0,0,.7,1.411,2.12,2.12,0,0,0,1.482.531,2.589,2.589,0,0,0,2.167-1l1.179,1.32A3.6,3.6,0,0,1,27.546-.261,4.793,4.793,0,0,1,25.5.166ZM25.23-7.213a1.5,1.5,0,0,0-1.158.484A2.5,2.5,0,0,0,23.5-5.346h3.337v-.192a1.786,1.786,0,0,0-.432-1.238A1.547,1.547,0,0,0,25.23-7.213Zm10.376.481a6.517,6.517,0,0,0-.863-.066,1.757,1.757,0,0,0-1.785.921V0h-2.4V-8.981h2.266l.066,1.071a2.223,2.223,0,0,1,2-1.237,2.514,2.514,0,0,1,.747.108Zm5.13,6.9A4.409,4.409,0,0,1,37.52-1.046a4.308,4.308,0,0,1-1.241-3.229v-.232a5.426,5.426,0,0,1,.523-2.42,3.838,3.838,0,0,1,1.482-1.644,4.159,4.159,0,0,1,2.187-.577,3.727,3.727,0,0,1,2.9,1.162,4.722,4.722,0,0,1,1.058,3.3v.979H38.711a2.229,2.229,0,0,0,.7,1.411,2.12,2.12,0,0,0,1.482.531,2.589,2.589,0,0,0,2.167-1l1.179,1.32A3.6,3.6,0,0,1,42.778-.261,4.793,4.793,0,0,1,40.736.166Zm-.274-7.379A1.5,1.5,0,0,0,39.3-6.73a2.5,2.5,0,0,0-.569,1.384h3.337v-.192a1.786,1.786,0,0,0-.432-1.238A1.547,1.547,0,0,0,40.462-7.213ZM48-8.981l.075,1.038a3.136,3.136,0,0,1,2.582-1.2,2.606,2.606,0,0,1,2.125.838A3.912,3.912,0,0,1,53.494-5.8V0H51.1V-5.744a1.556,1.556,0,0,0-.332-1.108,1.486,1.486,0,0,0-1.1-.344,1.65,1.65,0,0,0-1.519.863V0h-2.4V-8.981ZM59.048-1.768a1.573,1.573,0,0,0,1.079-.365,1.28,1.28,0,0,0,.432-.971h2.25a3.077,3.077,0,0,1-.5,1.673A3.286,3.286,0,0,1,60.969-.253a4.2,4.2,0,0,1-1.88.419,3.9,3.9,0,0,1-3.038-1.224,4.845,4.845,0,0,1-1.112-3.383V-4.6a4.79,4.79,0,0,1,1.1-3.312,3.854,3.854,0,0,1,3.03-1.237,3.778,3.778,0,0,1,2.7.959,3.4,3.4,0,0,1,1.033,2.552h-2.25a1.648,1.648,0,0,0-.432-1.139,1.439,1.439,0,0,0-1.1-.438,1.445,1.445,0,0,0-1.266.611,3.541,3.541,0,0,0-.427,1.983v.249a3.586,3.586,0,0,0,.423,2A1.463,1.463,0,0,0,59.048-1.768ZM66.709,0H64.3V-8.981h2.407ZM64.161-11.306a1.181,1.181,0,0,1,.361-.888,1.356,1.356,0,0,1,.984-.349,1.36,1.36,0,0,1,.979.349,1.175,1.175,0,0,1,.365.888,1.178,1.178,0,0,1-.369.9,1.363,1.363,0,0,1-.975.349,1.363,1.363,0,0,1-.975-.349A1.178,1.178,0,0,1,64.161-11.306ZM73.889,0a2.664,2.664,0,0,1-.241-.805,2.9,2.9,0,0,1-2.266.971A3.189,3.189,0,0,1,69.2-.6a2.456,2.456,0,0,1-.867-1.926,2.538,2.538,0,0,1,1.058-2.191,5.222,5.222,0,0,1,3.059-.772h1.1V-6a1.48,1.48,0,0,0-.32-1,1.257,1.257,0,0,0-1.009-.374,1.429,1.429,0,0,0-.95.291.987.987,0,0,0-.344.8h-2.4a2.41,2.41,0,0,1,.481-1.444A3.182,3.182,0,0,1,70.37-8.77a4.961,4.961,0,0,1,1.976-.378,3.92,3.92,0,0,1,2.635.834,2.918,2.918,0,0,1,.975,2.345v3.893a4.294,4.294,0,0,0,.357,1.934V0ZM71.906-1.668a2.066,2.066,0,0,0,.979-.237,1.554,1.554,0,0,0,.664-.635V-4.084h-.9q-1.8,0-1.917,1.245l-.008.141a.96.96,0,0,0,.315.739A1.225,1.225,0,0,0,71.906-1.668ZM-18.976,19.974a4.277,4.277,0,0,1-1.44,3.071,5.058,5.058,0,0,1-3.424,1.121A4.548,4.548,0,0,1-27.5,22.6a6.416,6.416,0,0,1-1.332-4.3v-.739a7.245,7.245,0,0,1,.614-3.071,4.6,4.6,0,0,1,1.756-2.038,4.918,4.918,0,0,1,2.652-.71,4.927,4.927,0,0,1,3.37,1.121,4.6,4.6,0,0,1,1.478,3.146h-2.49a2.524,2.524,0,0,0-.652-1.7,2.413,2.413,0,0,0-1.706-.527,2.116,2.116,0,0,0-1.864.892,5,5,0,0,0-.635,2.768v.913a5.352,5.352,0,0,0,.594,2.864,2.077,2.077,0,0,0,1.872.9,2.458,2.458,0,0,0,1.722-.527,2.381,2.381,0,0,0,.652-1.631Zm4.125-.232V24h-2.49V11.914h4.715a5.455,5.455,0,0,1,2.395.5,3.67,3.67,0,0,1,1.59,1.415,3.946,3.946,0,0,1,.556,2.088,3.47,3.47,0,0,1-1.216,2.8,5.065,5.065,0,0,1-3.366,1.025Zm0-2.017h2.225a2.187,2.187,0,0,0,1.507-.465,1.691,1.691,0,0,0,.519-1.328,1.994,1.994,0,0,0-.523-1.436,1.953,1.953,0,0,0-1.444-.564H-14.85ZM7.006,11.914v7.96a4.076,4.076,0,0,1-1.241,3.138,4.784,4.784,0,0,1-3.391,1.154A4.838,4.838,0,0,1-.988,23.045a4.006,4.006,0,0,1-1.27-3.08V11.914H.232v7.977A2.3,2.3,0,0,0,.8,21.622a2.183,2.183,0,0,0,1.573.544q2.1,0,2.133-2.208V11.914Zm8.309,8.915a1.278,1.278,0,0,0-.5-1.083,6.533,6.533,0,0,0-1.793-.8,12.71,12.71,0,0,1-2.05-.826,3.35,3.35,0,0,1-2.059-3,2.919,2.919,0,0,1,.552-1.747,3.6,3.6,0,0,1,1.585-1.2,5.967,5.967,0,0,1,2.32-.432,5.432,5.432,0,0,1,2.308.469,3.674,3.674,0,0,1,1.573,1.324,3.464,3.464,0,0,1,.56,1.942h-2.49a1.63,1.63,0,0,0-.523-1.291,2.15,2.15,0,0,0-1.469-.461,2.3,2.3,0,0,0-1.419.386,1.217,1.217,0,0,0-.506,1.017,1.166,1.166,0,0,0,.594.988,6.705,6.705,0,0,0,1.747.747,7.55,7.55,0,0,1,3.1,1.585,3.157,3.157,0,0,1,.971,2.357,2.909,2.909,0,0,1-1.187,2.461,5.2,5.2,0,0,1-3.2.892,6.171,6.171,0,0,1-2.54-.51,4.019,4.019,0,0,1-1.747-1.4,3.582,3.582,0,0,1-.6-2.059h2.5q0,2,2.391,2a2.326,2.326,0,0,0,1.386-.361A1.175,1.175,0,0,0,15.315,20.829Zm13.671-.855a4.277,4.277,0,0,1-1.44,3.071,5.058,5.058,0,0,1-3.424,1.121A4.548,4.548,0,0,1,20.466,22.6a6.416,6.416,0,0,1-1.332-4.3v-.739a7.245,7.245,0,0,1,.614-3.071A4.6,4.6,0,0,1,21.5,12.458a4.918,4.918,0,0,1,2.652-.71,4.927,4.927,0,0,1,3.37,1.121A4.6,4.6,0,0,1,29,16.015h-2.49a2.524,2.524,0,0,0-.652-1.7,2.413,2.413,0,0,0-1.706-.527,2.116,2.116,0,0,0-1.864.892,5,5,0,0,0-.635,2.768v.913a5.352,5.352,0,0,0,.594,2.864,2.077,2.077,0,0,0,1.872.9,2.458,2.458,0,0,0,1.722-.527,2.381,2.381,0,0,0,.652-1.631Z" transform="translate(-3523.104 -8489)" fill="#12263f"/>
    <g id="Trazado_602172" data-name="Trazado 602172" transform="translate(-3429 -8536)" fill="#fdffff">
      <path d="M 166.5 135.5 L 0.5 135.5 L 0.5 0.5 L 166.5 0.5 L 166.5 135.5 Z" stroke="none"/>
      <path d="M 1 1 L 1 135 L 166 135 L 166 1 L 1 1 M 0 0 L 167 0 L 167 136 L 0 136 L 0 0 Z" stroke="none" fill="#707070"/>
    </g>
    <path id="Trazado_602173" data-name="Trazado 602173" d="M3.84-4.7a5.762,5.762,0,0,1-.977,3.609A3.409,3.409,0,0,1,0,.156,3.433,3.433,0,0,1-2.84-1.07,5.594,5.594,0,0,1-3.848-4.586V-6.68A5.687,5.687,0,0,1-2.859-10.3,3.434,3.434,0,0,1-.012-11.531a3.437,3.437,0,0,1,2.844,1.223A5.576,5.576,0,0,1,3.84-6.8Zm-2.258-2.3A4.165,4.165,0,0,0,1.2-9.066,1.307,1.307,0,0,0-.012-9.711,1.284,1.284,0,0,0-1.187-9.1a3.9,3.9,0,0,0-.4,1.92v2.768a4.372,4.372,0,0,0,.379,2.068A1.29,1.29,0,0,0,0-1.664a1.268,1.268,0,0,0,1.2-.649A4.268,4.268,0,0,0,1.582-4.3Z" transform="translate(-3429 -8376)" fill="#12263f"/>
    <path id="Trazado_602174" data-name="Trazado 602174" d="M-2.922,0H-5.18V-8.7l-2.7.836V-9.7l4.711-1.687h.242ZM8.43-4.7a5.762,5.762,0,0,1-.977,3.609A3.409,3.409,0,0,1,4.594.156,3.433,3.433,0,0,1,1.75-1.07,5.594,5.594,0,0,1,.742-4.586V-6.68A5.687,5.687,0,0,1,1.73-10.3a3.434,3.434,0,0,1,2.848-1.234,3.437,3.437,0,0,1,2.844,1.223A5.576,5.576,0,0,1,8.43-6.8Zm-2.258-2.3a4.165,4.165,0,0,0-.387-2.061,1.307,1.307,0,0,0-1.207-.645A1.284,1.284,0,0,0,3.4-9.1,3.9,3.9,0,0,0,3-7.177v2.768a4.372,4.372,0,0,0,.379,2.068,1.29,1.29,0,0,0,1.215.676,1.268,1.268,0,0,0,1.2-.649A4.268,4.268,0,0,0,6.172-4.3Z" transform="translate(-3393 -8376)" fill="#12263f"/>
    <path id="Trazado_602175" data-name="Trazado 602175" d="M-.609,0h-7.8V-1.547l3.68-3.922A9.078,9.078,0,0,0-3.605-6.914a2.322,2.322,0,0,0,.363-1.172,1.738,1.738,0,0,0-.383-1.191,1.382,1.382,0,0,0-1.094-.434,1.49,1.49,0,0,0-1.207.527A2.089,2.089,0,0,0-6.367-7.8H-8.633a3.729,3.729,0,0,1,.5-1.9,3.5,3.5,0,0,1,1.4-1.348,4.262,4.262,0,0,1,2.055-.488,4.036,4.036,0,0,1,2.73.844A2.985,2.985,0,0,1-.977-8.3a3.825,3.825,0,0,1-.437,1.719,9.551,9.551,0,0,1-1.5,2.039L-5.5-1.82H-.609ZM8.43-4.7a5.762,5.762,0,0,1-.977,3.609A3.409,3.409,0,0,1,4.594.156,3.433,3.433,0,0,1,1.75-1.07,5.594,5.594,0,0,1,.742-4.586V-6.68A5.687,5.687,0,0,1,1.73-10.3a3.434,3.434,0,0,1,2.848-1.234,3.437,3.437,0,0,1,2.844,1.223A5.576,5.576,0,0,1,8.43-6.8Zm-2.258-2.3a4.165,4.165,0,0,0-.387-2.061,1.307,1.307,0,0,0-1.207-.645A1.284,1.284,0,0,0,3.4-9.1,3.9,3.9,0,0,0,3-7.177v2.768a4.372,4.372,0,0,0,.379,2.068,1.29,1.29,0,0,0,1.215.676,1.268,1.268,0,0,0,1.2-.649A4.268,4.268,0,0,0,6.172-4.3Z" transform="translate(-3361 -8376)" fill="#12263f"/>
    <path id="Trazado_602176" data-name="Trazado 602176" d="M-6.109-6.687h1.2a1.7,1.7,0,0,0,1.273-.43,1.574,1.574,0,0,0,.414-1.141,1.392,1.392,0,0,0-.41-1.07,1.59,1.59,0,0,0-1.129-.383,1.666,1.666,0,0,0-1.086.355,1.137,1.137,0,0,0-.437.926H-8.539a2.777,2.777,0,0,1,.48-1.6,3.2,3.2,0,0,1,1.344-1.105,4.485,4.485,0,0,1,1.9-.4,4.253,4.253,0,0,1,2.828.863A2.945,2.945,0,0,1-.961-8.289a2.394,2.394,0,0,1-.477,1.438,3.1,3.1,0,0,1-1.25,1.008A2.826,2.826,0,0,1-1.254-4.812,2.8,2.8,0,0,1-.781-3.187,2.994,2.994,0,0,1-1.887-.758,4.445,4.445,0,0,1-4.812.156,4.214,4.214,0,0,1-7.6-.742,2.934,2.934,0,0,1-8.68-3.117h2.258a1.308,1.308,0,0,0,.48,1.047,1.771,1.771,0,0,0,1.184.406A1.779,1.779,0,0,0-3.5-2.09a1.47,1.47,0,0,0,.457-1.129q0-1.7-1.875-1.7h-1.2ZM8.43-4.7a5.762,5.762,0,0,1-.977,3.609A3.409,3.409,0,0,1,4.594.156,3.433,3.433,0,0,1,1.75-1.07,5.594,5.594,0,0,1,.742-4.586V-6.68A5.687,5.687,0,0,1,1.73-10.3a3.434,3.434,0,0,1,2.848-1.234,3.437,3.437,0,0,1,2.844,1.223A5.576,5.576,0,0,1,8.43-6.8Zm-2.258-2.3a4.165,4.165,0,0,0-.387-2.061,1.307,1.307,0,0,0-1.207-.645A1.284,1.284,0,0,0,3.4-9.1,3.9,3.9,0,0,0,3-7.177v2.768a4.372,4.372,0,0,0,.379,2.068,1.29,1.29,0,0,0,1.215.676,1.268,1.268,0,0,0,1.2-.649A4.268,4.268,0,0,0,6.172-4.3Z" transform="translate(-3326 -8376)" fill="#12263f"/>
    <path id="Trazado_602177" data-name="Trazado 602177" d="M-1.727-4.281H-.437v1.82H-1.727V0H-3.984V-2.461H-8.648l-.1-1.422,4.742-7.492h2.281Zm-4.773,0h2.516V-8.3l-.148.258ZM8.43-4.7a5.762,5.762,0,0,1-.977,3.609A3.409,3.409,0,0,1,4.594.156,3.433,3.433,0,0,1,1.75-1.07,5.594,5.594,0,0,1,.742-4.586V-6.68A5.687,5.687,0,0,1,1.73-10.3a3.434,3.434,0,0,1,2.848-1.234,3.437,3.437,0,0,1,2.844,1.223A5.576,5.576,0,0,1,8.43-6.8Zm-2.258-2.3a4.165,4.165,0,0,0-.387-2.061,1.307,1.307,0,0,0-1.207-.645A1.284,1.284,0,0,0,3.4-9.1,3.9,3.9,0,0,0,3-7.177v2.768a4.372,4.372,0,0,0,.379,2.068,1.29,1.29,0,0,0,1.215.676,1.268,1.268,0,0,0,1.2-.649A4.268,4.268,0,0,0,6.172-4.3Z" transform="translate(-3294 -8376)" fill="#12263f"/>
    <path id="Trazado_602178" data-name="Trazado 602178" d="M-8.07-5.594l.656-5.781h6.375v1.883H-5.562l-.281,2.445a3.58,3.58,0,0,1,1.711-.43A3.279,3.279,0,0,1-1.586-6.469a4.026,4.026,0,0,1,.922,2.82,4.124,4.124,0,0,1-.465,1.973A3.281,3.281,0,0,1-2.461-.324a4.158,4.158,0,0,1-2.047.48A4.416,4.416,0,0,1-6.422-.262,3.4,3.4,0,0,1-7.816-1.437a3.2,3.2,0,0,1-.543-1.727h2.234a1.669,1.669,0,0,0,.5,1.105,1.573,1.573,0,0,0,1.113.395,1.388,1.388,0,0,0,1.18-.551,2.551,2.551,0,0,0,.414-1.559A2.11,2.11,0,0,0-3.4-5.258,1.749,1.749,0,0,0-4.75-5.773a1.954,1.954,0,0,0-1.3.422l-.219.2ZM8.43-4.7a5.762,5.762,0,0,1-.977,3.609A3.409,3.409,0,0,1,4.594.156,3.433,3.433,0,0,1,1.75-1.07,5.594,5.594,0,0,1,.742-4.586V-6.68A5.687,5.687,0,0,1,1.73-10.3a3.434,3.434,0,0,1,2.848-1.234,3.437,3.437,0,0,1,2.844,1.223A5.576,5.576,0,0,1,8.43-6.8Zm-2.258-2.3a4.165,4.165,0,0,0-.387-2.061,1.307,1.307,0,0,0-1.207-.645A1.284,1.284,0,0,0,3.4-9.1,3.9,3.9,0,0,0,3-7.177v2.768a4.372,4.372,0,0,0,.379,2.068,1.29,1.29,0,0,0,1.215.676,1.268,1.268,0,0,0,1.2-.649A4.268,4.268,0,0,0,6.172-4.3Z" transform="translate(-3262 -8376)" fill="#12263f"/>
    <path id="Trazado_600798" data-name="Trazado 600798" d="M-3586-8607v135.753" transform="translate(193 71)" fill="none" stroke="#707070" stroke-width="1"/>
    <path id="Trazado_600799" data-name="Trazado 600799" d="M-3586-8607v135.753" transform="translate(225 71)" fill="none" stroke="#707070" stroke-width="1"/>
    <path id="Trazado_600800" data-name="Trazado 600800" d="M-3586-8607v135.753" transform="translate(257 71)" fill="none" stroke="#707070" stroke-width="1"/>
    <path id="Trazado_600801" data-name="Trazado 600801" d="M-3586-8607v135.753" transform="translate(289 71)" fill="none" stroke="#707070" stroke-width="1"/>
    <path id="Trazado_602179" data-name="Trazado 602179" d="M0,0H119V27H0Z" transform="translate(-3429 -8444)" fill="#0f58b9"/>
    <path id="Trazado_602180" data-name="Trazado 602180" d="M0,0H152V27H0Z" transform="translate(-3429 -8506)" fill="#770b08"/>
  </g>
</svg>
