<svg xmlns="http://www.w3.org/2000/svg" xmlns:xlink="http://www.w3.org/1999/xlink" width="295" height="140.748" viewBox="0 0 295 140.748">
  <defs>
    <clipPath id="clip-path">
      <rect id="Rectángulo_45510" data-name="Rectángulo 45510" width="250" height="140.748" fill="none"/>
    </clipPath>
    <clipPath id="clip-path-3">
      <rect id="Rectángulo_45504" data-name="Rectángulo 45504" width="25.878" height="28.923" fill="none"/>
    </clipPath>
    <clipPath id="clip-path-4">
      <rect id="Rectángulo_45505" data-name="Rectángulo 45505" width="17.327" height="19.366" fill="none"/>
    </clipPath>
    <clipPath id="clip-path-5">
      <rect id="Rectángulo_45506" data-name="Rectángulo 45506" width="22.817" height="25.5" fill="none"/>
    </clipPath>
  </defs>
  <g id="Grupo_159057" data-name="Grupo 159057" transform="translate(-180 -384.709)">
    <rect id="Rectángulo_45434" data-name="Rectángulo 45434" width="190" height="72" transform="translate(180 404)" fill="#cdfcfc"/>
    <g id="Grupo_159056" data-name="Grupo 159056" transform="translate(225 384.709)">
      <g id="Grupo_159055" data-name="Grupo 159055" clip-path="url(#clip-path)">
        <g id="Grupo_159054" data-name="Grupo 159054">
          <g id="Grupo_159053" data-name="Grupo 159053" clip-path="url(#clip-path)">
            <path id="Trazado_600970" data-name="Trazado 600970" d="M250,118.6c0,2.176-55.964,3.941-125,3.941S0,120.772,0,118.6s55.966-3.941,125-3.941,125,1.765,125,3.941" transform="translate(0 18.21)" fill="#90cc3a"/>
            <path id="Trazado_600971" data-name="Trazado 600971" d="M13.378,94.9l.409-.382,1.633,1.729a1.3,1.3,0,0,0,1.819.059l1.393-1.3a1.849,1.849,0,0,1,2.619.094l1.074,1.155a1.3,1.3,0,0,0,1.84.053l1.217-1.172a1.853,1.853,0,0,1,2.7.144l.665.79a1.295,1.295,0,0,0,1.961.02l1.478-1.685.418.37-1.475,1.686a1.848,1.848,0,0,1-2.81-.032l-.662-.789a1.293,1.293,0,0,0-1.885-.1l-1.22,1.17a1.848,1.848,0,0,1-2.635-.074l-1.073-1.154a1.294,1.294,0,0,0-1.826-.067l-1.393,1.3a1.855,1.855,0,0,1-2.609-.083Z" transform="translate(2.125 14.994)" fill="#ffb502"/>
            <rect id="Rectángulo_45435" data-name="Rectángulo 45435" width="0.823" height="1.956" transform="translate(100.72 99.347) rotate(-0.081)" fill="#848fb7"/>
            <path id="Trazado_600972" data-name="Trazado 600972" d="M87.736,83.216h-.824l0,1.957h.823Z" transform="translate(13.804 13.217)" fill="#848fb7"/>
            <rect id="Rectángulo_45436" data-name="Rectángulo 45436" width="0.823" height="1.956" transform="translate(100.714 93.52) rotate(-0.081)" fill="#848fb7"/>
            <rect id="Rectángulo_45437" data-name="Rectángulo 45437" width="0.823" height="1.955" transform="translate(100.712 90.606)" fill="#848fb7"/>
            <rect id="Rectángulo_45438" data-name="Rectángulo 45438" width="0.824" height="1.957" transform="translate(100.707 87.692) rotate(-0.081)" fill="#848fb7"/>
            <rect id="Rectángulo_45439" data-name="Rectángulo 45439" width="0.823" height="1.956" transform="translate(100.703 84.778) rotate(-0.081)" fill="#848fb7"/>
            <rect id="Rectángulo_45440" data-name="Rectángulo 45440" width="0.823" height="1.956" transform="translate(100.701 81.865)" fill="#848fb7"/>
            <rect id="Rectángulo_45441" data-name="Rectángulo 45441" width="0.823" height="1.956" transform="translate(100.697 78.95)" fill="#848fb7"/>
            <path id="Trazado_600973" data-name="Trazado 600973" d="M87.716,65.615h-.823l0,1.955h.823Z" transform="translate(13.801 10.421)" fill="#848fb7"/>
            <rect id="Rectángulo_45442" data-name="Rectángulo 45442" width="0.823" height="1.956" transform="matrix(1, -0.001, 0.001, 1, 100.69, 73.123)" fill="#848fb7"/>
            <rect id="Rectángulo_45443" data-name="Rectángulo 45443" width="0.823" height="1.956" transform="matrix(1, -0.003, 0.003, 1, 100.687, 70.21)" fill="#848fb7"/>
            <rect id="Rectángulo_45444" data-name="Rectángulo 45444" width="0.823" height="1.957" transform="matrix(1, -0.001, 0.001, 1, 100.684, 67.295)" fill="#848fb7"/>
            <rect id="Rectángulo_45445" data-name="Rectángulo 45445" width="0.822" height="1.956" transform="translate(100.682 64.381) rotate(-0.081)" fill="#848fb7"/>
            <path id="Trazado_600974" data-name="Trazado 600974" d="M87.7,53.043h-.824l0,1.957.824,0Z" transform="translate(13.799 8.425)" fill="#848fb7"/>
            <path id="Trazado_600975" data-name="Trazado 600975" d="M189.6,73.47a6.58,6.58,0,1,1-6.29-6.859,6.564,6.564,0,0,1,6.29,6.859" transform="translate(28.025 10.579)" fill="#cbe9f4"/>
            <path id="Trazado_600976" data-name="Trazado 600976" d="M209.062,72.643A8.91,8.91,0,0,1,206.3,65c.258-1.662,4.932-4.554,4.932-4.554l-6.974-7.579s-3.271,4.436-4.944,4.55a8.354,8.354,0,0,1-7.01-3.263c-.99-1.359.291-6.707.291-6.707l-10.3-.443s.808,5.443-.287,6.706a7.146,7.146,0,0,1-6.438,2.19c-1.649-.328-4.314-5.136-4.314-5.136l-7.892,6.63s4.271,3.46,4.317,5.132a9.468,9.468,0,0,1-3.786,7.6c-1.369.976-6.712-.373-6.712-.373l-.577,10.293s5.444-.749,6.69.366a8.934,8.934,0,0,1,2.761,7.644c-.255,1.659-4.938,4.552-4.938,4.552l6.974,7.576s3.269-4.429,4.946-4.546a8.411,8.411,0,0,1,7.017,3.263c.987,1.363-.284,6.7-.284,6.7l10.292.445s-.816-5.441.282-6.7a7.173,7.173,0,0,1,6.45-2.191c1.642.333,4.311,5.136,4.311,5.136L209,95.663s-4.266-3.461-4.318-5.137a9.492,9.492,0,0,1,3.788-7.6c1.37-.969,6.715.38,6.715.38l.57-10.292s-5.436.739-6.69-.375m-23.61,20.7a17.067,17.067,0,1,1,17.787-16.314,17.065,17.065,0,0,1-17.787,16.314" transform="translate(24.874 7.466)" fill="#cbe9f4"/>
            <path id="Trazado_600977" data-name="Trazado 600977" d="M196.952,74.833a13.041,13.041,0,1,1-12.468-13.6,13.036,13.036,0,0,1,12.468,13.6" transform="translate(27.141 9.724)" fill="#cbe9f4"/>
            <rect id="Rectángulo_45446" data-name="Rectángulo 45446" width="22.784" height="83.891" transform="translate(177.27 51.65)" fill="#64b4d7"/>
            <rect id="Rectángulo_45447" data-name="Rectángulo 45447" width="40.228" height="83.891" transform="translate(137.043 51.65)" fill="#c1e4fa"/>
            <rect id="Rectángulo_45448" data-name="Rectángulo 45448" width="10.695" height="18.041" transform="translate(183.314 113.625)" fill="#848fb7"/>
            <rect id="Rectángulo_45449" data-name="Rectángulo 45449" width="8.054" height="0.783" transform="translate(184.635 115.549)" fill="#464f72"/>
            <rect id="Rectángulo_45450" data-name="Rectángulo 45450" width="8.054" height="0.783" transform="translate(184.635 116.918)" fill="#464f72"/>
            <rect id="Rectángulo_45451" data-name="Rectángulo 45451" width="8.054" height="0.786" transform="translate(184.635 118.319)" fill="#464f72"/>
            <rect id="Rectángulo_45452" data-name="Rectángulo 45452" width="8.054" height="0.786" transform="translate(184.635 119.688)" fill="#464f72"/>
            <rect id="Rectángulo_45453" data-name="Rectángulo 45453" width="8.054" height="0.783" transform="translate(184.635 121.085)" fill="#464f72"/>
            <rect id="Rectángulo_45454" data-name="Rectángulo 45454" width="8.054" height="0.783" transform="translate(184.635 122.454)" fill="#464f72"/>
            <rect id="Rectángulo_45455" data-name="Rectángulo 45455" width="8.054" height="0.783" transform="translate(184.635 123.855)" fill="#464f72"/>
            <rect id="Rectángulo_45456" data-name="Rectángulo 45456" width="8.054" height="0.786" transform="translate(184.635 125.224)" fill="#464f72"/>
            <rect id="Rectángulo_45457" data-name="Rectángulo 45457" width="8.054" height="0.786" transform="translate(184.635 126.89)" fill="#464f72"/>
            <rect id="Rectángulo_45458" data-name="Rectángulo 45458" width="8.054" height="0.783" transform="translate(184.635 128.294)" fill="#464f72"/>
            <rect id="Rectángulo_45459" data-name="Rectángulo 45459" width="8.054" height="0.786" transform="translate(184.635 129.662)" fill="#464f72"/>
            <path id="Trazado_600978" data-name="Trazado 600978" d="M158.072,65.6h10.967l-5.485-10.968Z" transform="translate(25.106 8.677)" fill="#6d76a1"/>
            <path id="Trazado_600979" data-name="Trazado 600979" d="M167.832,64.635l-4.422-8.612-4.423,8.612Z" transform="translate(25.252 8.898)" fill="#ffcf03"/>
            <path id="Trazado_600980" data-name="Trazado 600980" d="M163.746,63.653l.083-3.888-1,1.352-.271-3.422-.017,4.461.81-1.128Z" transform="translate(25.816 9.164)" fill="#6d76a1"/>
            <rect id="Rectángulo_45460" data-name="Rectángulo 45460" width="30.724" height="12.831" transform="translate(141.564 58.588)" fill="#6d76a1"/>
            <rect id="Rectángulo_45461" data-name="Rectángulo 45461" width="22.26" height="6.416" transform="translate(143.13 60.101)" fill="#464f72"/>
            <rect id="Rectángulo_45462" data-name="Rectángulo 45462" width="30.724" height="3.486" transform="translate(141.564 74.575)" fill="#6d76a1"/>
            <rect id="Rectángulo_45463" data-name="Rectángulo 45463" width="2.3" height="12.77" transform="translate(169.987 82.21)" fill="#6d76a1"/>
            <rect id="Rectángulo_45464" data-name="Rectángulo 45464" width="2.303" height="12.77" transform="translate(165.893 82.21)" fill="#6d76a1"/>
            <rect id="Rectángulo_45465" data-name="Rectángulo 45465" width="2.3" height="12.77" transform="translate(161.801 82.21)" fill="#6d76a1"/>
            <rect id="Rectángulo_45466" data-name="Rectángulo 45466" width="2.303" height="12.77" transform="translate(157.708 82.21)" fill="#6d76a1"/>
            <rect id="Rectángulo_45467" data-name="Rectángulo 45467" width="2.303" height="12.77" transform="translate(154.255 82.21)" fill="#6d76a1"/>
            <rect id="Rectángulo_45468" data-name="Rectángulo 45468" width="2.303" height="12.77" transform="translate(150.163 82.21)" fill="#6d76a1"/>
            <rect id="Rectángulo_45469" data-name="Rectángulo 45469" width="2.3" height="12.77" transform="translate(146.073 82.21)" fill="#6d76a1"/>
            <rect id="Rectángulo_45470" data-name="Rectángulo 45470" width="2.303" height="12.77" transform="translate(141.98 82.21)" fill="#6d76a1"/>
            <rect id="Rectángulo_45471" data-name="Rectángulo 45471" width="0.29" height="25.51" transform="translate(142.985 93.594)" fill="#6d76a1"/>
            <rect id="Rectángulo_45472" data-name="Rectángulo 45472" width="0.29" height="25.51" transform="translate(147.077 93.594)" fill="#6d76a1"/>
            <rect id="Rectángulo_45473" data-name="Rectángulo 45473" width="0.29" height="25.51" transform="translate(151.169 93.594)" fill="#6d76a1"/>
            <rect id="Rectángulo_45474" data-name="Rectángulo 45474" width="0.29" height="25.51" transform="translate(155.262 93.594)" fill="#6d76a1"/>
            <rect id="Rectángulo_45475" data-name="Rectángulo 45475" width="0.29" height="25.51" transform="translate(158.715 93.594)" fill="#6d76a1"/>
            <rect id="Rectángulo_45476" data-name="Rectángulo 45476" width="0.29" height="25.51" transform="translate(162.807 93.594)" fill="#6d76a1"/>
            <rect id="Rectángulo_45477" data-name="Rectángulo 45477" width="0.29" height="25.51" transform="translate(166.899 93.594)" fill="#6d76a1"/>
            <rect id="Rectángulo_45478" data-name="Rectángulo 45478" width="0.29" height="25.51" transform="translate(170.992 93.594)" fill="#6d76a1"/>
            <rect id="Rectángulo_45479" data-name="Rectángulo 45479" width="30.724" height="1.546" transform="translate(141.564 118.828)" fill="#6d76a1"/>
            <path id="Trazado_600981" data-name="Trazado 600981" d="M148.617,73.29l-.017-2.237a1.033,1.033,0,0,0-.3-.727.854.854,0,0,0-.6-.253h-.007l-3.832.029a1.38,1.38,0,0,1-1-.435,1.513,1.513,0,0,1-.41-1.037l-.021-2.774.579,0,.021,2.774a.939.939,0,0,0,.251.643.779.779,0,0,0,.569.254h.006l3.831-.029h.013a1.432,1.432,0,0,1,1.007.418,1.616,1.616,0,0,1,.47,1.136l.017,2.237Z" transform="translate(22.622 10.459)" fill="#6d76a1"/>
            <path id="Trazado_600982" data-name="Trazado 600982" d="M141.487,73.289l-.016-2.239a1.035,1.035,0,0,0-.276-.7.855.855,0,0,0-.623-.276h-.008l-3.831.029h-.012a1.351,1.351,0,0,1-.988-.435,1.518,1.518,0,0,1-.41-1.035l-.02-2.777.579,0,.02,2.778a.938.938,0,0,0,.251.64.767.767,0,0,0,.575.254l3.831-.029h.013a1.43,1.43,0,0,1,1.044.457,1.6,1.6,0,0,1,.435,1.1l.016,2.239Z" transform="translate(21.49 10.459)" fill="#6d76a1"/>
            <path id="Trazado_600983" data-name="Trazado 600983" d="M134.72,73.287l-.016-2.239a.911.911,0,0,0-.8-.979h0l-3.512.027h-.009a1.218,1.218,0,0,1-.859-.364,1.575,1.575,0,0,1-.451-1.107l-.021-2.775.579,0,.021,2.775a1,1,0,0,0,.277.7.646.646,0,0,0,.453.2h0l3.512-.027h.009a1.485,1.485,0,0,1,1.384,1.554l.016,2.239Z" transform="translate(20.496 10.458)" fill="#6d76a1"/>
            <path id="Trazado_600984" data-name="Trazado 600984" d="M127.7,73.29l-.016-2.237a1.249,1.249,0,0,0-.225-.729.573.573,0,0,0-.433-.25h0l-3.042.02h-.009a1.038,1.038,0,0,1-.722-.312,1.641,1.641,0,0,1-.45-1.159l-.022-2.775.579,0,.022,2.775a1.071,1.071,0,0,0,.278.751.457.457,0,0,0,.315.145h0l3.042-.02h.009a1.128,1.128,0,0,1,.895.482,1.813,1.813,0,0,1,.342,1.072l.016,2.237Z" transform="translate(19.5 10.458)" fill="#6d76a1"/>
            <rect id="Rectángulo_45480" data-name="Rectángulo 45480" width="30.724" height="4.832" transform="translate(141.564 122.844)" fill="#6d76a1"/>
            <rect id="Rectángulo_45481" data-name="Rectángulo 45481" width="2.3" height="3.322" transform="translate(169.987 100.111)" fill="#6d76a1"/>
            <rect id="Rectángulo_45482" data-name="Rectángulo 45482" width="2.303" height="3.322" transform="translate(165.893 109.522)" fill="#6d76a1"/>
            <rect id="Rectángulo_45483" data-name="Rectángulo 45483" width="2.3" height="3.32" transform="translate(161.801 101.773)" fill="#6d76a1"/>
            <rect id="Rectángulo_45484" data-name="Rectángulo 45484" width="2.301" height="3.322" transform="translate(157.709 114.279)" fill="#6d76a1"/>
            <rect id="Rectángulo_45485" data-name="Rectángulo 45485" width="2.303" height="3.322" transform="translate(154.255 98.449)" fill="#6d76a1"/>
            <rect id="Rectángulo_45486" data-name="Rectángulo 45486" width="2.303" height="3.322" transform="translate(146.336 100.111)" fill="#6d76a1"/>
            <rect id="Rectángulo_45487" data-name="Rectángulo 45487" width="2.303" height="3.322" transform="translate(141.98 112.618)" fill="#6d76a1"/>
            <rect id="Rectángulo_45488" data-name="Rectángulo 45488" width="1.474" height="20.277" transform="translate(176.163 59.745)" fill="#c1e4fa"/>
            <rect id="Rectángulo_45489" data-name="Rectángulo 45489" width="1.474" height="20.279" transform="translate(176.163 106.245)" fill="#c1e4fa"/>
            <path id="Trazado_600985" data-name="Trazado 600985" d="M108.593,69.025a3.144,3.144,0,0,1,3.694-.7c2.195,1.179,5,5.413,8.436,5.3,3.45-.118,4.531-2.173,5.442-3.45s.663-2.22,1.278-2.906,1.4.071.433,2.476c-.459,1.152-2.05,7.1-6.122,8-5.335,1.173-15.52-5.631-13.162-8.72" transform="translate(17.192 10.646)" fill="#fbc6b4"/>
            <path id="Trazado_600986" data-name="Trazado 600986" d="M109.112,67.827s-2.052,1.8.541,4.927a21.651,21.651,0,0,0,4.156,4.135s2.454-1.023,4.46-4.678c0,0-6.632-7.333-9.157-4.384" transform="translate(17.208 10.662)" fill="#eda503"/>
            <path id="Trazado_600987" data-name="Trazado 600987" d="M101.906,74.181a20.2,20.2,0,0,1,0,11.724c1.588.512.642,1.363.6,1.469-2.246,4.66,11.712,1.9,14.164-1.874.845-1.3.037-2.945.188-5.435.054-.561.07-1.128.075-1.684a31.159,31.159,0,0,0-.462-6.737c-1.1-5.143-5.932-5.394-8.875-4.982a12.073,12.073,0,0,0-4.417,1.2l-.007.012c-1.561.943-2.4,2.125-1.264,6.31" transform="translate(16.102 10.566)" fill="#ffb502"/>
            <path id="Trazado_600988" data-name="Trazado 600988" d="M105.292,71.429c.6,2.553,2.76,10.348-3.458,14.248,0,0,10.3,7.539,16.188,1.016,0,0-1.184-11.129-2.831-15.547-.472-1.27-1.728-5.17-3.989-4.606,0,0,3.974,6.259,2.161,7.91s-3.524.265-4.325-.979a35.9,35.9,0,0,1-2.651-6.637l-2.4.612a25.737,25.737,0,0,1,1.308,3.983" transform="translate(16.174 10.56)" fill="#1c2745"/>
            <path id="Trazado_600989" data-name="Trazado 600989" d="M106.569,63.427s1.32,2.073-.083,3.453c-1.443,1.415,5.187,3.916,4.866,2.642-.41-1.643-1.389-2.522-.823-4.543Z" transform="translate(16.88 10.074)" fill="#f7b2a0"/>
            <path id="Trazado_600990" data-name="Trazado 600990" d="M109.681,59.483c1.595,1.157,3.874,6.839,2.552,8.33-.584.647-3.337.352-5.358-2.018a4.97,4.97,0,0,1-1.133-4.985c.374-.971,2.089-2.669,3.94-1.327" transform="translate(16.75 9.369)" fill="#fbc6b4"/>
            <path id="Trazado_600991" data-name="Trazado 600991" d="M111.336,60.085c.408.7.34.878-1.839,1.5s-2.577.525-2.284,1.023c.866,1.473-.758,1.371.294,3.118s-.961.867-1.975-.546a4.238,4.238,0,0,1-.542-4.1c.911-2.855,4.836-3.555,6.346-1" transform="translate(16.632 9.292)" fill="#1d1b3a"/>
            <path id="Trazado_600992" data-name="Trazado 600992" d="M106.618,63.836s6.742-1.905,6.429-4.006c-.194-1.3-4.107-.788-4.107-.788Z" transform="translate(16.934 9.362)" fill="#eda503"/>
            <path id="Trazado_600993" data-name="Trazado 600993" d="M111.4,60.195c-.539,2.028-2.13,3.144-6.262,4.464,0,0-2.237-4.008.662-6.131,2.56-1.868,5.945.369,5.6,1.668" transform="translate(16.568 9.182)" fill="#ffb502"/>
            <path id="Trazado_600994" data-name="Trazado 600994" d="M98.967,103.484c-1.4,5.469-3.036,17.145-.351,17.213s4.183-.754,2.636-1.187-1.611-.6-1.563-1.038c.665-5.641,9.485-14.436,10.234-21.14.253-2.288.425-4.382.545-6.219,1,4.91.265,10.122.353,11.844.283,6.129,1.593,17.715,4.531,17.741,3.129.02,4.665-.847,2.665-1.258-1.729-.367-1.656-.446-1.625-.874.421-6.19,3.422-17.632,4-24.983.666-8.485-20.205,5.12-21.422,9.9" transform="translate(15.434 14.43)" fill="#fbc6b4"/>
            <path id="Trazado_600995" data-name="Trazado 600995" d="M111.438,115.4s2.334.924,3.774,0c0,0,2.631.353.979.993s-4.852,1.173-4.754-.993" transform="translate(17.699 18.329)" fill="#ffb502"/>
            <path id="Trazado_600996" data-name="Trazado 600996" d="M97.436,115.583s2.335.921,3.774,0c0,0,2.633.36.973,1s-4.846,1.173-4.748-1" transform="translate(15.475 18.358)" fill="#ffb502"/>
            <path id="Trazado_600997" data-name="Trazado 600997" d="M118.412,80.767c-5.349,3.569-12.828,3.205-15.74,2.641-.788,6.363-5.569,30.236-6.108,33.513a12.8,12.8,0,0,0,3.808.942c11.338-14.621,10.037-20.894,10.156-22.732.426,2.124-.973,12.528,1.475,22.732a5.174,5.174,0,0,0,5.085,0c.09-.652,3.417-12.372,3.344-21.545-.05-6.254-1.1-10.545-2.02-15.551" transform="translate(15.337 12.828)" fill="#1c2745"/>
            <path id="Trazado_600998" data-name="Trazado 600998" d="M102.175,88.3a5.281,5.281,0,0,0,3.621-4.375l-.442-.032a4.745,4.745,0,0,1-3.315,3.989Z" transform="translate(16.207 13.325)" fill="#fff"/>
            <path id="Trazado_600999" data-name="Trazado 600999" d="M116.086,87.593l.134-.421a4.81,4.81,0,0,1-3.315-3.989l-.443.035a5.281,5.281,0,0,0,3.624,4.375" transform="translate(17.862 13.212)" fill="#fff"/>
            <rect id="Rectángulo_45490" data-name="Rectángulo 45490" width="23.324" height="13.471" transform="translate(76.178 123.025)" fill="#c1e4fa"/>
            <rect id="Rectángulo_45491" data-name="Rectángulo 45491" width="9.049" height="13.471" transform="translate(99.502 123.025)" fill="#4ca1bf"/>
            <rect id="Rectángulo_45492" data-name="Rectángulo 45492" width="3.35" height="6.568" transform="translate(77.586 118.802)" fill="#c1e4fa"/>
            <rect id="Rectángulo_45493" data-name="Rectángulo 45493" width="24.933" height="0.803" transform="translate(79.26 119.74)" fill="#464f72"/>
            <rect id="Rectángulo_45494" data-name="Rectángulo 45494" width="3.35" height="6.568" transform="translate(102.518 118.802)" fill="#4ca1bf"/>
            <rect id="Rectángulo_45495" data-name="Rectángulo 45495" width="19.106" height="11.036" transform="translate(109.381 97.836)" fill="#c1e4fa"/>
            <rect id="Rectángulo_45496" data-name="Rectángulo 45496" width="7.412" height="11.036" transform="translate(128.486 97.836)" fill="#4ca1bf"/>
            <rect id="Rectángulo_45497" data-name="Rectángulo 45497" width="2.744" height="5.38" transform="translate(110.534 94.377)" fill="#c1e4fa"/>
            <rect id="Rectángulo_45498" data-name="Rectángulo 45498" width="20.423" height="0.658" transform="translate(111.906 95.148)" fill="#464f72"/>
            <rect id="Rectángulo_45499" data-name="Rectángulo 45499" width="2.744" height="5.38" transform="translate(130.957 94.377)" fill="#4ca1bf"/>
            <path id="Trazado_601000" data-name="Trazado 601000" d="M104.424,68.124a2.553,2.553,0,0,1,1.42,2.92c-.378,2.349-3.32,6.2-2.144,9.261s3.371,3.4,4.808,3.826,2.206-.09,3.018.242.371,1.286-2.1,1.168c-1.181-.057-7.045.372-9.122-3.021-2.722-4.443.6-15.558,4.118-14.4" transform="translate(15.772 10.806)" fill="#fbc6b4"/>
            <path id="Trazado_601001" data-name="Trazado 601001" d="M104.52,67.314s-1.627-.3-3.639,3.018a20.763,20.763,0,0,0-2.425,5.032,10.006,10.006,0,0,0,5.609,2.564s4.417-8.67.455-10.614" transform="translate(15.638 10.69)" fill="#eda503"/>
            <rect id="Rectángulo_45500" data-name="Rectángulo 45500" width="1.09" height="5.16" transform="translate(123.882 57.297) rotate(-45.455)" fill="#ffb502"/>
            <rect id="Rectángulo_45501" data-name="Rectángulo 45501" width="5.103" height="1.09" transform="translate(123.916 60.141) rotate(-45.086)" fill="#ffb502"/>
            <path id="Trazado_601002" data-name="Trazado 601002" d="M145.909,37.528l.474-.525s-.235-.235-.47-.466c-.219-.254-.439-.505-.439-.505l-.549.444.472.543.513.509" transform="translate(23.018 5.723)" fill="#fbe366"/>
            <path id="Trazado_601003" data-name="Trazado 601003" d="M147.647,38.415l.15-.7a2.938,2.938,0,0,1-.581-.2,2.52,2.52,0,0,1-.38-.209l-.168-.109-.4.584.2.124a2.565,2.565,0,0,0,.457.249,3.659,3.659,0,0,0,.728.251" transform="translate(23.231 5.909)" fill="#fbe366"/>
            <path id="Trazado_601004" data-name="Trazado 601004" d="M149.586,38.086l-.282-.649a3.793,3.793,0,0,1-.6.212,2.682,2.682,0,0,1-.608.09l.023.709a3.506,3.506,0,0,0,.761-.114,4.764,4.764,0,0,0,.707-.249" transform="translate(23.522 5.946)" fill="#fbe366"/>
            <path id="Trazado_601005" data-name="Trazado 601005" d="M151.176,37.167l-.38-.6-.583.37-.578.346.345.618.612-.365.584-.373" transform="translate(23.766 5.808)" fill="#fbe366"/>
            <path id="Trazado_601006" data-name="Trazado 601006" d="M152.675,36.394l-.213-.674a6.359,6.359,0,0,0-.688.278c-.328.161-.632.344-.632.344l.359.612s.29-.173.581-.32a5.45,5.45,0,0,1,.593-.24" transform="translate(24.006 5.673)" fill="#fbe366"/>
            <path id="Trazado_601007" data-name="Trazado 601007" d="M154.145,36.5l.292-.643a2.992,2.992,0,0,0-.742-.233,2.829,2.829,0,0,0-.78-.034l.066.706a1.978,1.978,0,0,1,.591.025,2.484,2.484,0,0,1,.572.178" transform="translate(24.287 5.651)" fill="#fbe366"/>
            <path id="Trazado_601008" data-name="Trazado 601008" d="M155.381,37.6l.532-.468s-.247-.263-.5-.523c-.14-.118-.279-.24-.385-.329a2.028,2.028,0,0,0-.19-.136l-.406.579a1.74,1.74,0,0,1,.16.116c.093.076.216.183.337.287.231.233.455.473.455.473" transform="translate(24.527 5.74)" fill="#fbe366"/>
            <rect id="Rectángulo_45502" data-name="Rectángulo 45502" width="10.032" height="0.774" transform="translate(86.712 112.571)" fill="#27355c"/>
            <rect id="Rectángulo_45503" data-name="Rectángulo 45503" width="5.531" height="0.776" transform="translate(90.628 110.035)" fill="#27355c"/>
            <path id="Trazado_601009" data-name="Trazado 601009" d="M38.855,128.218H57.571L53.789,54.73H48.213Z" transform="translate(6.171 8.693)" fill="#ae6a44"/>
            <path id="Trazado_601010" data-name="Trazado 601010" d="M38.855,128.218H49.633L48.213,54.73Z" transform="translate(6.171 8.693)" fill="#9b5a3a"/>
            <path id="Trazado_601011" data-name="Trazado 601011" d="M49.1,30.3c0,4.507,3.946,8.16,8.815,8.16s8.815-3.654,8.815-8.16-3.947-8.163-8.815-8.163S49.1,25.792,49.1,30.3" transform="translate(7.799 3.516)" fill="#90cc3a"/>
            <path id="Trazado_601012" data-name="Trazado 601012" d="M39.384,19.266c0,7.544,6.6,13.66,14.752,13.66s14.751-6.116,14.751-13.66-6.6-13.66-14.751-13.66-14.752,6.116-14.752,13.66" transform="translate(6.255 0.89)" fill="#90cc3a"/>
            <path id="Trazado_601013" data-name="Trazado 601013" d="M31.017,10.078c0,5.566,4.874,10.078,10.885,10.078s10.884-4.512,10.884-10.078S47.913,0,41.9,0,31.017,4.512,31.017,10.078" transform="translate(4.926)" fill="#90cc3a"/>
            <path id="Trazado_601014" data-name="Trazado 601014" d="M20.072,29.872a5.253,5.253,0,0,0,5.442,5.039,5.253,5.253,0,0,0,5.443-5.039,5.252,5.252,0,0,0-5.443-5.04,5.252,5.252,0,0,0-5.442,5.04" transform="translate(3.188 3.944)" fill="#90cc3a"/>
            <path id="Trazado_601015" data-name="Trazado 601015" d="M22.09,23.793c0,7.544,6.605,13.66,14.754,13.66s14.751-6.116,14.751-13.66-6.6-13.659-14.751-13.659S22.09,16.25,22.09,23.793" transform="translate(3.508 1.61)" fill="#90cc3a"/>
            <path id="Trazado_601016" data-name="Trazado 601016" d="M29.465,37.593c0,7.544,6.6,13.66,14.752,13.66S58.97,45.137,58.97,37.593s-6.605-13.66-14.753-13.66S29.465,30.05,29.465,37.593" transform="translate(4.68 3.801)" fill="#90cc3a"/>
            <path id="Trazado_601017" data-name="Trazado 601017" d="M46.231,44.923c0,8.973,7.856,16.247,17.546,16.247S81.32,53.9,81.32,44.923,73.467,28.677,63.777,28.677,46.231,35.951,46.231,44.923" transform="translate(7.343 4.555)" fill="#90cc3a"/>
            <path id="Trazado_601018" data-name="Trazado 601018" d="M49.179,69.711c0,8.972,7.853,16.244,17.545,16.244s17.543-7.273,17.543-16.244S76.413,53.464,66.724,53.464,49.179,60.738,49.179,69.711" transform="translate(7.811 8.492)" fill="#90cc3a"/>
            <path id="Trazado_601019" data-name="Trazado 601019" d="M27.055,73.233C27.055,82.2,34.91,89.48,44.6,89.48S62.145,82.2,62.145,73.233,54.29,56.986,44.6,56.986,27.055,64.26,27.055,73.233" transform="translate(4.297 9.051)" fill="#90cc3a"/>
            <path id="Trazado_601020" data-name="Trazado 601020" d="M21.121,37.176c0,5.865,5.134,10.618,11.468,10.618s11.469-4.754,11.469-10.618S38.923,26.557,32.589,26.557,21.121,31.312,21.121,37.176" transform="translate(3.355 4.218)" fill="#90cc3a"/>
            <path id="Trazado_601021" data-name="Trazado 601021" d="M34.821,55.775c0,10.027,8.779,18.157,19.609,18.157s19.61-8.129,19.61-18.157S65.261,37.618,54.43,37.618,34.821,45.747,34.821,55.775" transform="translate(5.531 5.975)" fill="#90cc3a"/>
            <path id="Trazado_601022" data-name="Trazado 601022" d="M64.843,54.479c0,5.16,4.519,9.346,10.1,9.346s10.095-4.186,10.095-9.346-4.521-9.347-10.095-9.347-10.1,4.185-10.1,9.347" transform="translate(10.299 7.168)" fill="#90cc3a"/>
            <g id="Grupo_159046" data-name="Grupo 159046" transform="translate(55.804 35.213)" opacity="0.2" style="mix-blend-mode: overlay;isolation: isolate">
              <g id="Grupo_159045" data-name="Grupo 159045">
                <g id="Grupo_159044" data-name="Grupo 159044" clip-path="url(#clip-path-3)">
                  <path id="Trazado_601023" data-name="Trazado 601023" d="M48.155,36.984a6.875,6.875,0,0,1,7.126-6.6,7.092,7.092,0,0,1,6.784,4.58,11.463,11.463,0,0,1,1.407-.088c5.832,0,10.562,4.377,10.562,9.778a9.385,9.385,0,0,1-2.983,6.806,4.618,4.618,0,0,1,1.1,2.972,5.278,5.278,0,0,1-10.526,0c0-.051.006-.1.007-.149a10.027,10.027,0,0,1-8.719-9.629,9.258,9.258,0,0,1,.11-1.418,6.663,6.663,0,0,1-4.866-6.254" transform="translate(-48.155 -30.387)"/>
                </g>
              </g>
            </g>
            <path id="Trazado_601024" data-name="Trazado 601024" d="M43.84,44.218a6.879,6.879,0,0,1,7.127-6.6A7.093,7.093,0,0,1,57.751,42.2a11.477,11.477,0,0,1,1.407-.088c5.831,0,10.56,4.377,10.56,9.778a9.387,9.387,0,0,1-2.98,6.806,4.627,4.627,0,0,1,1.1,2.972,5.28,5.28,0,0,1-10.528,0c0-.05.006-.1.008-.151A10.027,10.027,0,0,1,48.6,51.889a9.407,9.407,0,0,1,.109-1.418,6.666,6.666,0,0,1-4.866-6.253" transform="translate(6.963 5.975)" fill="#90cc3a"/>
            <g id="Grupo_159049" data-name="Grupo 159049" transform="translate(35.116 8.75)" opacity="0.2" style="mix-blend-mode: overlay;isolation: isolate">
              <g id="Grupo_159048" data-name="Grupo 159048">
                <g id="Grupo_159047" data-name="Grupo 159047" clip-path="url(#clip-path-4)">
                  <path id="Trazado_601025" data-name="Trazado 601025" d="M47.63,11.97a4.605,4.605,0,0,0-4.771-4.419,4.75,4.75,0,0,0-4.543,3.067,7.659,7.659,0,0,0-.942-.059A6.823,6.823,0,0,0,30.3,17.107a6.284,6.284,0,0,0,2,4.558,3.094,3.094,0,0,0-.736,1.99,3.535,3.535,0,0,0,7.049,0c0-.035,0-.067-.006-.1a6.712,6.712,0,0,0,5.838-6.445,6.271,6.271,0,0,0-.073-.95A4.461,4.461,0,0,0,47.63,11.97" transform="translate(-30.303 -7.551)"/>
                </g>
              </g>
            </g>
            <path id="Trazado_601026" data-name="Trazado 601026" d="M50.52,16.81a4.607,4.607,0,0,0-4.772-4.417A4.753,4.753,0,0,0,41.2,15.458a8.129,8.129,0,0,0-.942-.057,6.824,6.824,0,0,0-7.071,6.547,6.278,6.278,0,0,0,2,4.557,3.087,3.087,0,0,0-.737,1.99,3.536,3.536,0,0,0,7.05,0,.959.959,0,0,0-.007-.1,6.712,6.712,0,0,0,5.839-6.445A5.828,5.828,0,0,0,47.258,21,4.466,4.466,0,0,0,50.52,16.81" transform="translate(5.272 1.968)" fill="#90cc3a"/>
            <path id="Trazado_601027" data-name="Trazado 601027" d="M13.222,54.723c0,8.3,7.27,15.036,16.241,15.036S45.7,63.026,45.7,54.723,38.431,39.686,29.463,39.686,13.222,46.418,13.222,54.723" transform="translate(2.1 6.303)" fill="#90cc3a"/>
            <path id="Trazado_601028" data-name="Trazado 601028" d="M15.107,70.134c0,8.508,7.45,15.405,16.637,15.405s16.638-6.9,16.638-15.405-7.45-15.405-16.638-15.405-16.637,6.9-16.637,15.405" transform="translate(2.399 8.692)" fill="#90cc3a"/>
            <g id="Grupo_159052" data-name="Grupo 159052" transform="translate(26.739 53.78)" opacity="0.2" style="mix-blend-mode: overlay;isolation: isolate">
              <g id="Grupo_159051" data-name="Grupo 159051">
                <g id="Grupo_159050" data-name="Grupo 159050" clip-path="url(#clip-path-5)">
                  <path id="Trazado_601029" data-name="Trazado 601029" d="M45.891,52.226a6.064,6.064,0,0,0-6.283-5.817,6.251,6.251,0,0,0-5.981,4.039,10.191,10.191,0,0,0-1.24-.079c-5.144,0-9.312,3.86-9.312,8.622a8.275,8.275,0,0,0,2.628,6,4.079,4.079,0,0,0-.97,2.621,4.479,4.479,0,0,0,4.642,4.3,4.478,4.478,0,0,0,4.641-4.3c0-.046-.006-.088-.008-.133a8.841,8.841,0,0,0,7.69-8.49,8.114,8.114,0,0,0-.1-1.25,5.875,5.875,0,0,0,4.291-5.514" transform="translate(-23.074 -46.409)"/>
                </g>
              </g>
            </g>
            <path id="Trazado_601030" data-name="Trazado 601030" d="M49.694,58.6a6.064,6.064,0,0,0-6.282-5.817,6.254,6.254,0,0,0-5.982,4.04,10.174,10.174,0,0,0-1.24-.08c-5.142,0-9.312,3.861-9.312,8.622a8.277,8.277,0,0,0,2.629,6,4.077,4.077,0,0,0-.97,2.621,4.655,4.655,0,0,0,9.283,0c0-.045-.006-.088-.008-.133a8.84,8.84,0,0,0,7.689-8.49,8.114,8.114,0,0,0-.1-1.25,5.875,5.875,0,0,0,4.29-5.514" transform="translate(4.269 8.384)" fill="#90cc3a"/>
            <path id="Trazado_601031" data-name="Trazado 601031" d="M25.428,108.1s7.039,2.5,5.7,11.439H29.018a11.583,11.583,0,0,0-3.59-11.439" transform="translate(4.039 17.169)" fill="#90cc3a"/>
            <path id="Trazado_601032" data-name="Trazado 601032" d="M35.217,105.81s-7.039,3.056-5.7,13.98h2.111a16.448,16.448,0,0,1,3.59-13.98" transform="translate(4.661 16.806)" fill="#8bbf30"/>
            <path id="Trazado_601033" data-name="Trazado 601033" d="M35.756,108.1s-7.039,2.5-5.7,11.439h2.111a11.583,11.583,0,0,1,3.59-11.439" transform="translate(4.747 17.169)" fill="#90cc3a"/>
            <path id="Trazado_601034" data-name="Trazado 601034" d="M25.4,111.263s4.205,1.1,4.484,7.454l-1.175.194a9.691,9.691,0,0,0-3.308-7.647" transform="translate(4.034 17.672)" fill="#8bbf30"/>
            <path id="Trazado_601035" data-name="Trazado 601035" d="M35.822,111.263s-4.205,1.1-4.486,7.454l1.175.194a9.7,9.7,0,0,1,3.311-7.647" transform="translate(4.977 17.672)" fill="#8bbf30"/>
            <path id="Trazado_601036" data-name="Trazado 601036" d="M51.836,108.475s7.039,2.5,5.7,11.439H55.426a11.583,11.583,0,0,0-3.59-11.439" transform="translate(8.233 17.229)" fill="#90cc3a"/>
            <path id="Trazado_601037" data-name="Trazado 601037" d="M61.625,106.184s-7.039,3.056-5.7,13.98h2.111a16.448,16.448,0,0,1,3.59-13.98" transform="translate(8.855 16.865)" fill="#8bbf30"/>
            <path id="Trazado_601038" data-name="Trazado 601038" d="M62.164,108.475s-7.039,2.5-5.7,11.439h2.111a11.583,11.583,0,0,1,3.59-11.439" transform="translate(8.941 17.229)" fill="#90cc3a"/>
            <path id="Trazado_601039" data-name="Trazado 601039" d="M51.807,111.637s4.205,1.1,4.484,7.454l-1.175.194a9.691,9.691,0,0,0-3.308-7.647" transform="translate(8.228 17.731)" fill="#8bbf30"/>
            <path id="Trazado_601040" data-name="Trazado 601040" d="M62.23,111.637s-4.205,1.1-4.486,7.454l1.175.194a9.7,9.7,0,0,1,3.311-7.647" transform="translate(9.171 17.731)" fill="#8bbf30"/>
            <path id="Trazado_601041" data-name="Trazado 601041" d="M195.6,108.052s7.039,2.5,5.7,11.439h-2.111a11.583,11.583,0,0,0-3.59-11.439" transform="translate(31.066 17.162)" fill="#90cc3a"/>
            <path id="Trazado_601042" data-name="Trazado 601042" d="M205.386,105.761s-7.039,3.056-5.7,13.98H201.8a16.448,16.448,0,0,1,3.59-13.98" transform="translate(31.688 16.798)" fill="#8bbf30"/>
            <path id="Trazado_601043" data-name="Trazado 601043" d="M205.925,108.052s-7.039,2.5-5.7,11.439h2.111a11.583,11.583,0,0,1,3.59-11.439" transform="translate(31.774 17.162)" fill="#90cc3a"/>
            <path id="Trazado_601044" data-name="Trazado 601044" d="M195.567,111.214s4.205,1.1,4.484,7.454l-1.175.194a9.691,9.691,0,0,0-3.308-7.647" transform="translate(31.061 17.664)" fill="#8bbf30"/>
            <path id="Trazado_601045" data-name="Trazado 601045" d="M205.991,111.214s-4.205,1.1-4.486,7.454l1.175.194a9.7,9.7,0,0,1,3.311-7.647" transform="translate(32.005 17.664)" fill="#8bbf30"/>
            <rect id="Rectángulo_45507" data-name="Rectángulo 45507" width="10.031" height="0.775" transform="translate(208.46 124.117)" fill="#27355c"/>
            <rect id="Rectángulo_45508" data-name="Rectángulo 45508" width="5.531" height="0.774" transform="translate(212.376 121.584)" fill="#27355c"/>
          </g>
        </g>
      </g>
    </g>
  </g>
</svg>
