<svg xmlns="http://www.w3.org/2000/svg" xmlns:xlink="http://www.w3.org/1999/xlink" width="1152" height="426" viewBox="0 0 1152 426">
  <defs>
    <clipPath id="clip-path">
      <rect id="Rectángulo_45415" data-name="Rectángulo 45415" width="641" height="426" transform="translate(0 -0.435)" fill="#fff"/>
    </clipPath>
    <clipPath id="clip-path-2">
      <rect id="Rectángulo_45404" data-name="Rectángulo 45404" width="640.675" height="714.094" fill="none"/>
    </clipPath>
    <clipPath id="clip-path-3">
      <rect id="Rectángulo_45406" data-name="Rectángulo 45406" width="382.318" height="395.852" transform="translate(0 0.399) rotate(-0.063)" fill="none"/>
    </clipPath>
  </defs>
  <g id="Grupo_159027" data-name="Grupo 159027" transform="translate(4343 9783.435)">
    <rect id="Rectángulo_45363" data-name="Rectángulo 45363" width="1152" height="426" transform="translate(-4343 -9783.435)" fill="#fff"/>
    <g id="Enmascarar_grupo_60" data-name="Enmascarar grupo 60" transform="translate(-3832 -9783)" opacity="0.2" clip-path="url(#clip-path)">
      <g id="Grupo_159026" data-name="Grupo 159026" transform="translate(31.848 5.708)">
        <g id="Grupo_159025" data-name="Grupo 159025" transform="translate(0)">
          <g id="Grupo_159020" data-name="Grupo 159020">
            <g id="Grupo_159019" data-name="Grupo 159019" clip-path="url(#clip-path-2)">
              <path id="Trazado_600803" data-name="Trazado 600803" d="M148.593,349.844C94.934,318.586,60.209,266.937,64.354,215c4.27-53.5,47.2-100.9,98.05-137.22,31.585-22.565,67.21-42.273,107.3-54.21s85.006-15.721,126.358-6.722c53.637,11.674,97.492,44.477,120.5,83.812s26.4,84.5,16.05,126.934c-8.607,35.309-26.824,69.674-56.785,97.092C393.2,400.3,249.883,408.851,148.593,349.844" transform="translate(33.198 2.104)" fill="#e4daf7"/>
            </g>
          </g>
          <g id="Grupo_159022" data-name="Grupo 159022" transform="translate(132.97 22.546)">
            <g id="Grupo_159021" data-name="Grupo 159021" transform="translate(0 0)" clip-path="url(#clip-path-3)">
              <path id="Trazado_600804" data-name="Trazado 600804" d="M219.487,252.876c-6.266,22.426-11.175,34.314-18.814,74.111l157.886-.168c-.411-41.357-7.638-67.477-7.638-67.477Z" transform="translate(-28.908 22.264)" fill="#263238"/>
              <path id="Trazado_600805" data-name="Trazado 600805" d="M243.057,300.03c5.644,37,100.652,232.151,126.6,304.119,27.765,4.3,74.4-8.01,74.4-8.01-11.793-128.354-50.482-150.455-53.977-164.757s-30.022-120.1-60.935-174.473Z" transform="translate(-6.93 22.978)" fill="#263238"/>
              <path id="Trazado_600806" data-name="Trazado 600806" d="M221.208,252.876c-29.257,43.439-24.378,157.68-21.987,215.85s13.167,137.5,13.167,137.5,35.449,9.836,67.145,1.782c3.812-127.95,9.877-288.812,9.877-288.812Z" transform="translate(-30.628 22.264)" fill="#263238"/>
              <path id="Trazado_600807" data-name="Trazado 600807" d="M247.586,289.6l-.017.007h0l.018-.008" transform="translate(-4.591 28.771)" fill="#38474f"/>
              <path id="Trazado_600808" data-name="Trazado 600808" d="M205.263,291.76a42.425,42.425,0,0,0,14.994-11.708,31.068,31.068,0,0,0,5.974-11.666c2.884-.077,5.772-.23,8.577-.273,5.344-.084,10.688-.153,16.031-.252,2.131-.04,4.261-.094,6.392-.137a119.275,119.275,0,0,0,3.892,18.061,1.307,1.307,0,0,0,.735.777,2.972,2.972,0,0,0,2.25,2.8,7.223,7.223,0,0,0,4.931-.165c3.046-1.184,3.511-3.964,3.145-6.32-.8-5.16-1.834-10.293-3-15.411q6.859-.14,13.716-.291l9.909-.239a1.917,1.917,0,0,0-.519,1.455c.325,3.979,2.411,8.11,3.731,11.958q1.923,5.614,3.846,11.226,3.938,11.419,8.641,22.685c6.314,15.156,11.652,30.482,17.236,45.807.377,1.035,2.4.617,2.077-.424-4.855-15.474-9.925-30.858-14.038-46.462q-3.05-11.584-6.861-23.05-1.872-5.621-3.768-11.241c-1.291-3.852-2.1-8.252-4.339-11.843a2.615,2.615,0,0,0-.2-.251q13.337-.321,26.671-.693a2.868,2.868,0,0,0,.358,2.221A46.5,46.5,0,0,0,339.33,282.46a62.938,62.938,0,0,0,20.083,8.632,2.855,2.855,0,0,0,3.277-1.489c.393-1.171-.568-2.14-1.921-2.54-12.47-3.693-22.775-11.844-28.235-21.168q7.517-.237,15.032-.517c3.294-.126,3.316-3.942-.008-3.984-21.734-.263-43.463-.16-65.2-.112q-16.031.037-32.064.159c-5.345.045-10.689.112-16.033.168-5.632.06-11.489-.231-17.067.406a3.244,3.244,0,0,0-2.972,3.463c.284,1.682,1.974,2.578,4.018,2.757.876.077,1.774.094,2.665.125a32.852,32.852,0,0,1-6.127,9.077c-3.664,3.9-8.214,6.591-13.4,9.029-4.329,2.032-.492,7.251,3.889,5.293m56.358-24.13q1.973-.039,3.945-.082c.156,3.827.387,7.648.747,11.468q.148,1.582.3,3.162a6.5,6.5,0,0,1,.053,2.353c.012-.04-.14.351-.213.52h0l0,0-.014,0h0l-.033.006-.026,0c-.232-.081-.457-.173-.689-.253a3.919,3.919,0,0,0-1.18-.211,121.384,121.384,0,0,0-2.885-16.968" transform="translate(-29.529 23.742)" fill="#38474f"/>
              <path id="Trazado_600809" data-name="Trazado 600809" d="M223.809,312.091c.2-6.529.8-13.075,1.35-19.591q.419-4.948.837-9.9c.275-3.24.228-6.885,2.008-9.884.992-1.669,4.536-1.636,5.218.225,1.15,3.141.465,6.665.1,9.868q-.565,4.926-1.131,9.853c-.767,6.676-1.359,13.442-2.615,20.075-1.23,6.51-2.422,13-3.436,19.54-1.055,6.8-2.424,13.591-3.175,20.413-.032.286-.586.2-.562-.08,1.2-13.467.995-27.04,1.411-40.524" transform="translate(-17.643 25.565)" fill="#38474f"/>
              <path id="Trazado_600810" data-name="Trazado 600810" d="M344.48,116.715c-26.265-4.626-69.867,9.3-69.867,9.3s-53.983,11.141-71.681,20.178,7.168,96.389,7.326,127.516l146.831,3.321c10.264-69.889,31.782-152.492-12.609-160.311" transform="translate(-31.032 -2.031)" fill="#ebebeb"/>
              <path id="Trazado_600811" data-name="Trazado 600811" d="M233.448,274.469s-.085-57.924,1.534-78.158c2.09-26.1,5.546-54.828,5.546-54.828l31.586-1.874c-9.122,24.939-14.505,136.048-14.505,136.048Z" transform="translate(-11.913 2.193)" fill="#a6cce4"/>
              <path id="Trazado_600812" data-name="Trazado 600812" d="M260.059,240.925s-6.49,93.558-9.978,112.5c-3.459,18.94-14.349,21.49-64.777,2.842,3.459-19.3,7.634-39.117,11.919-57.845.463-1.962.9-3.9,1.365-5.845,11.793-50.595,23.934-91.892,23.934-91.892Z" transform="translate(-36.879 13.015)" fill="#ebebeb"/>
              <path id="Trazado_600813" data-name="Trazado 600813" d="M244.261,233.261s23.208,116.007,38.657,136.527S389.83,357.6,389.83,357.6c-15.905-56.984-65.773-181.577-65.773-181.577Z" transform="translate(-6.305 8.646)" fill="#ebebeb"/>
              <path id="Trazado_600814" data-name="Trazado 600814" d="M365.561,337.824q-2.774.881-5.549,1.74c-2.273-8.11-5.233-16.136-7.894-24.14-3.636-10.943-7.333-21.88-11.344-32.743s-7.956-21.745-11.758-32.659-8.227-21.689-12.155-32.577c-.2-.559-1.294-.334-1.121.23,3.347,11.007,6.184,22.1,9.658,33.086s6.792,21.985,10.054,33.006,6.837,21.978,10.471,32.922c2.718,8.183,5.171,16.507,8.331,24.627a311.041,311.041,0,0,1-36.474,8.855c-14.637,2.519-30.661,5.332-45.192,1.384-1.49-.4-2.9,1.094-2.074,2.1,4.267,5.169,12.433,5.694,19.623,5.339a205.45,205.45,0,0,0,26.267-3.284,234.834,234.834,0,0,0,39.463-10.428q.868,2.047,1.819,4.068c1.031,2.194,4.946,1.37,4.487-.917-.343-1.721-.749-3.436-1.178-5.149,2.2-.9,4.376-1.833,6.5-2.822,2.226-1.036.322-3.354-1.936-2.636" transform="translate(7.182 15.928)" fill="#dbdbdb"/>
              <path id="Trazado_600815" data-name="Trazado 600815" d="M238.109,328.494a112.122,112.122,0,0,1-22.709-2.237,106.511,106.511,0,0,1-10.575-2.689c-1.672-.539-3.317-1.136-4.932-1.772a37.115,37.115,0,0,0-5.707-2.165c-3.354-.731-5.816,2.678-3.357,4.551,2.876,2.19,7.631,3.368,11.331,4.484a81.4,81.4,0,0,0,11.918,2.718,90.171,90.171,0,0,0,24.566.287c2.381-.308,1.774-3.169-.535-3.178" transform="translate(-34.53 34.075)" fill="#dbdbdb"/>
              <path id="Trazado_600816" data-name="Trazado 600816" d="M321.844,276.4c-3.73-1.466-8.592.766-12.2,1.73-3.751,1-7.535,1.949-11.327,2.851s-7.62,1.689-11.447,2.477c-4.077.839-8.13,1.831-12.311,2.3-2.138.242-1.669,3.044.491,2.917,4.2-.247,8.416-.177,12.612-.516,4.231-.34,8.408-.883,12.575-1.541s8.264-1.49,12.323-2.5c3.875-.966,9.228-1.73,10.8-4.961.469-.967-.357-2.31-1.506-2.762" transform="translate(8.685 26.347)" fill="#dbdbdb"/>
              <path id="Trazado_600817" data-name="Trazado 600817" d="M258.366,99.3l31.014,7.113L299.6,119.626l-61.673,13.515-6.65-15.74Z" transform="translate(-13.04 -4.95)" fill="#a6cce4"/>
              <path id="Trazado_600818" data-name="Trazado 600818" d="M178.009,258.742c18.584-11.138,94.591-50.063,104.236-91.255,7.1-30.327-21.983-41.845-51.416-21.582s-98.52,70.917-98.52,70.917Z" transform="translate(-64.359 1.509)" fill="#ebebeb"/>
              <path id="Trazado_600819" data-name="Trazado 600819" d="M99.007,158.842l20.476,58.938c7.342,21.135,37.712,31.847,63.09,22.253l5.127-1.939-69.748-79.287Z" transform="translate(-81.629 5.595)" fill="#ac635b"/>
              <path id="Trazado_600833" data-name="Trazado 600833" d="M232.6,114.677l-4.3,7.086,4.351,24.15,23.895-16.926Z" transform="translate(-14.582 -2.225)" fill="#a6cce4"/>
              <path id="Trazado_600834" data-name="Trazado 600834" d="M197.4,252.685c-22.774,13.3-58.008,9.286-102.485-54.656l36.874-28.1,63.865,66.509Z" transform="translate(-83.75 7.565)" fill="#ebebeb"/>
              <path id="Trazado_600835" data-name="Trazado 600835" d="M277.773,47.856c-15.694-11.085-30.7-19.391-48.946-8.137s-22.03,13.1-22.03,13.1-13.6,18.344,2.081,34.141Z" transform="translate(-28.57 -16.457)" fill="#263238"/>
              <path id="Trazado_600836" data-name="Trazado 600836" d="M239.158,46.487c40.823-14.1,67.626,21.778,37.938,55.029Z" transform="translate(-8.952 -14.867)" fill="#263238"/>
              <path id="Trazado_600837" data-name="Trazado 600837" d="M283.748,133.731c.015,8.359-29.155,22.841-29.155,22.841s-11.372-11.282-13.368-19.938l-9.086-35.667,47.616-15.3,3.936,46.974c.027.363.056.725.056,1.088" transform="translate(-12.591 -7.365)" fill="#ac635b"/>
              <path id="Trazado_600838" data-name="Trazado 600838" d="M272.4,97.528c.027,15.515-12.624,30.356-33.165,30.379l-6.124-23.185-.371-2.886Z" transform="translate(-12.282 -5.264)" fill="#263238"/>
              <path id="Trazado_600839" data-name="Trazado 600839" d="M211.98,113.085A43.871,43.871,0,0,0,240.8,131.049c17.246,2.788,34.915-4.961,45.847-15.672a47.209,47.209,0,0,0,12.691-21.041c4.651-16.516-1.271-34.341-21.345-43.877-13.734-6.528-37.874-7.611-54.521-1.366-6.534,2.438-11.924,6-15.069,10.829-9.978,15.332-6.581,38.456,3.575,53.162" transform="translate(-28.003 -14.582)" fill="#ac635b"/>
              <path id="Trazado_600840" data-name="Trazado 600840" d="M272.569,73.919c5.2-2.206,12.293-2.61,17.031.107a11.632,11.632,0,0,1,5.687,9.759,17.448,17.448,0,0,1-4.862,13.36,24.3,24.3,0,0,1-16.15,6.92c-6.469.29-13.216-2.135-16.238-6.3-5.8-7.98,5.193-19.885,14.533-23.85" transform="translate(0.002 -9.765)" fill="#ac635b"/>
              <path id="Trazado_600841" data-name="Trazado 600841" d="M212.26,51.084c10.733,7.154,35.569,10.336,49.579,8.77,2.149,5.4,9.634,11.673,13.971,12.808a105.187,105.187,0,0,0,6.656,22.363c5.253-3.756,13.658-16.462,13.658-16.462-3.356-30.273-53.964-45.137-83.864-27.479" transform="translate(-22.9 -14.836)" fill="#263238"/>
              <path id="Trazado_600842" data-name="Trazado 600842" d="M270.255,83.057c-4.372,2.584-6.223,7.319-2.613,8.149,2,.459,2.75-1.564,3.705-3.716,2.153-4.847,6.253-5.239,6.311-5.941.061-.753-3.5-.8-7.4,1.509" transform="translate(4.827 -8.178)" fill="#263238"/>
              <path id="Trazado_600843" data-name="Trazado 600843" d="M209.26,87.341a3.612,3.612,0,0,0,3.046,4.132,3.689,3.689,0,0,0,3.907-3.4,3.612,3.612,0,0,0-3.046-4.132,3.69,3.69,0,0,0-3.907,3.4" transform="translate(-24.47 -7.674)" fill="#263238"/>
              <path id="Trazado_600844" data-name="Trazado 600844" d="M217.491,96.547c1.461-5.169,3.262-10.238,5.13-15.32.181-.493,1.165-.379,1.03.144-1.083,4.223-2.213,8.4-3.541,12.582-.642,2.025-1.675,4.249-1.3,6.358.314,1.763,2.086,2.886,3.973,3.675a.488.488,0,0,1-.065.958,4.834,4.834,0,0,1-4.975-2.039c-1.235-1.977-.834-4.3-.251-6.358" transform="translate(-20.476 -8.208)" fill="#263238"/>
              <path id="Trazado_600845" data-name="Trazado 600845" d="M252.915,72.97c-1.69-3.887-15.7-4.287-18.4-.733-4.685,6.173,21.31,7.419,18.4.733" transform="translate(-11.654 -10.178)" fill="#263238"/>
              <path id="Trazado_600846" data-name="Trazado 600846" d="M218.4,72.812C216.647,69.524,204.49,69.8,202.42,73c-3.6,5.552,18.991,5.469,15.978-.186" transform="translate(-28.204 -10.058)" fill="#263238"/>
              <path id="Trazado_600847" data-name="Trazado 600847" d="M246.413,89.291a42.482,42.482,0,0,0-7.514-1.413c-1.068-.127-2.143-.173-3.21-.267a50.479,50.479,0,0,1,10.565-3.647c1.112-.245.852-1.556-.328-1.394-5.042.7-12.162,2.137-15.74,5.176a1.548,1.548,0,0,0-.185.2.882.882,0,0,0-.19.3.9.9,0,0,0-.068.187c0,.006-.006.009-.006.015s.006.025.006.036a.766.766,0,0,0,.2.62c.023.027.067.029.093.054a1.258,1.258,0,0,0,.527.3,1.44,1.44,0,0,0,.336.067c.017,0,.03.009.047.009,5.1.006,10.1.479,15.164.889.876.072,1.086-.9.305-1.136" transform="translate(-13.838 -7.917)" fill="#263238"/>
              <path id="Trazado_600848" data-name="Trazado 600848" d="M240.776,100.8a18.106,18.106,0,0,1-3.863,3.17,13.5,13.5,0,0,1-5.793,1.859c-.68,0-.673.725-.059.9a9.98,9.98,0,0,0,7.473-.9,5.418,5.418,0,0,0,3.25-4.774c0-.367-.729-.566-1.007-.254" transform="translate(-13.387 -4.712)" fill="#263238"/>
              <path id="Trazado_600849" data-name="Trazado 600849" d="M223.705,53.851a12.009,12.009,0,0,1,.02,5.671,11.693,11.693,0,0,0,.058,5.668,7.216,7.216,0,0,0,5.093,4.385c-.249-.983.641-2.2,1.56-3.044s2.1-1.561,3.095-2.37c3.093-2.512,4.235-5.89,3-8.876Z" transform="translate(-17.123 -13.004)" fill="#263238"/>
              <path id="Trazado_600850" data-name="Trazado 600850" d="M227.118,48.511c-1.926-2.293-6.2-2.685-9.55-1.825s-6.138,2.66-9.195,4.028S201.56,53.029,198.287,52c2.055,5.2,10.067,9.2,16.965,8.193,5.938-.861,10.923-4.551,16.961-4.678Z" transform="translate(-30.146 -14.348)" fill="#263238"/>
              <path id="Trazado_600851" data-name="Trazado 600851" d="M273.041,111.964,252.73,130.871l18.66,15.957,17.079-29.445Z" transform="translate(-1.914 -2.706)" fill="#a6cce4"/>
              <path id="Trazado_600852" data-name="Trazado 600852" d="M228.3,120.7l18.107,29.238,9.506,17.925,24.863-29.089L265.4,129.323l2.266,12.16-11.086,5.29-12.747-14.34Z" transform="translate(-14.582 -1.159)" fill="#a6cce4"/>
              <path id="Trazado_600853" data-name="Trazado 600853" d="M253.816,152.282a1.145,1.145,0,0,0-.175-.707,1.4,1.4,0,0,0-.494-.637l-.507-.317a2.2,2.2,0,0,0-.885-.232,1.546,1.546,0,0,0-.615-.012,2.234,2.234,0,0,0-.9.2l-.527.3a1.855,1.855,0,0,0-.661.841c-.091.251-.188.5-.289.747a2.993,2.993,0,0,0-.115.372c-.017.062-.033.125-.049.188a1.653,1.653,0,0,0-.035,1.065l0,.027c.006.038.012.075.017.113.082.167.164.334.245.5a1.764,1.764,0,0,0,.7.623,1.429,1.429,0,0,0,.6.28,2.489,2.489,0,0,0,.99.188l.679-.054.647-.19a1.961,1.961,0,0,0,.8-.542,1.484,1.484,0,0,0,.5-.706,3.986,3.986,0,0,0,.071-2.044" transform="translate(-4.11 4.096)" fill="#90b9d1"/>
              <path id="Trazado_600854" data-name="Trazado 600854" d="M251.985,178.082a1.171,1.171,0,0,0-.181-.729,1.438,1.438,0,0,0-.507-.657,1.992,1.992,0,0,0-.822-.427,2.319,2.319,0,0,0-.929-.175l-.636.051a2.767,2.767,0,0,0-1.151.483l-.421.406a1.623,1.623,0,0,0-.357.951q-.093.768-.184,1.535a1.244,1.244,0,0,0,.19.769,1.53,1.53,0,0,0,.535.691,2.09,2.09,0,0,0,.866.45,2.435,2.435,0,0,0,.979.185l.67-.053a2.93,2.93,0,0,0,1.213-.509l.442-.427a1.715,1.715,0,0,0,.377-1c-.027-.513-.056-1.028-.084-1.541" transform="translate(-4.992 8.658)" fill="#90b9d1"/>
              <path id="Trazado_600855" data-name="Trazado 600855" d="M248.582,148.123A785.115,785.115,0,0,0,240.99,240.9c-.185,8.724-.248,17.48.091,26.2.087,2.259,4.519,2.265,4.534,0,.194-30.97-.058-61.905,2.014-92.847.583-8.712,1.276-17.421,2.029-26.126.046-.543-1-.521-1.075,0" transform="translate(-8.08 3.631)" fill="#90b9d1"/>
              <path id="Trazado_600856" data-name="Trazado 600856" d="M228.974,154.4c25.857,33.584,91.314,100.848,91.314,100.848l-1.143.152c-41.258,5.48-71.275-14.992-83.934-45.922l-35.9-46.748Z" transform="translate(-29.617 4.814)" fill="#ac635b"/>
              <path id="Trazado_600857" data-name="Trazado 600857" d="M222.9,142c-.02-.018-4.408-4.9-7.969-8.864-2.65-2.95-7.5-4.18-11.89-3.016l-16.5,4.373,6.585,9.319,11.382-1.522Z" transform="translate(-36.236 0.434)" fill="#ac635b"/>
              <path id="Trazado_600858" data-name="Trazado 600858" d="M206.709,142.067l-30.658.085c-1.962.006-3.558-1.223-3.566-2.744l-.02-4.469c-.008-1.521,1.578-2.758,3.54-2.763l30.658-.085c1.962-.006,3.558,1.223,3.564,2.743l.021,4.47c.006,1.52-1.578,2.757-3.54,2.763" transform="translate(-43.536 0.861)" fill="#ac635b"/>
              <path id="Trazado_635540" data-name="Trazado 635540" d="M0,0,7.557.429l3.128,44.153-7.557-.429Z" transform="matrix(0.966, -0.258, 0.258, 0.966, 145.777, 123.154)" fill="#263238"/>
              <path id="Trazado_600859" data-name="Trazado 600859" d="M222.549,132.692s12.129,11.608,20.661,25.646l-7.2,13.226-41.551-17.79L175,142.555c-3.169-1.713-4.091-5.033-2.112-7.6s6.147-3.516,9.593-2.192l12.774,4.6Z" transform="translate(-43.855 0.874)" fill="#ac635b"/>
              <path id="Trazado_600860" data-name="Trazado 600860" d="M177.515,141.286c-2.418.968-3.813,2.909-3.575,4.861.38,3.089,3.367,4.379,6.187,4.48-1.9,1-3.084,2.838-2.683,4.511s2.164,3.221,4.48,3.935c-1.367,1.517-.767,3.875,1.172,5.229a17.953,17.953,0,0,0,7.342,2.45,327.042,327.042,0,0,0,44.506,3.2Z" transform="translate(-42.785 2.49)" fill="#ac635b"/>
              <path id="Trazado_600861" data-name="Trazado 600861" d="M202.363,105.445c4.194,12.03.955,23.4-7.165,27.043-9.374.041-19.562-8.519-23.761-20.563s-.961-23.418,7.165-27.043c9.379-.027,19.567,8.533,23.761,20.563" transform="translate(-45.023 -7.505)" fill="#a6cce4"/>
              <path id="Trazado_600862" data-name="Trazado 600862" d="M183.074,91.361a3.67,3.67,0,0,0-1.458-.684,1.423,1.423,0,0,0-1.452.493,1.121,1.121,0,0,0,.008.81,46.029,46.029,0,0,0,4.78,11.455c.711,1.22,1.8,3.092,3.7,3.4a2.84,2.84,0,0,0,3.172-1.954c.84-2.792-2.03-6.829-3.9-9.094a23.5,23.5,0,0,0-4.859-4.423" transform="translate(-39.582 -6.482)" fill="#fff"/>
              <path id="Trazado_600863" data-name="Trazado 600863" d="M185.313,108.315a2.782,2.782,0,0,0,.963,2.638,4.312,4.312,0,0,0,4.252.865,2.918,2.918,0,0,0,1.438-1.254,2.588,2.588,0,0,0-.431-3.062c-1.746-1.867-5.622-1.678-6.221.812" transform="translate(-36.905 -3.718)" fill="#fff"/>
              <path id="Trazado_600864" data-name="Trazado 600864" d="M183.243,84.2l-5.631,1.18c-10.108,2.118-14.531,14.609-9.895,27.9s16.572,22.36,26.68,20.242l5.631-1.18c10.108-2.118,14.531-14.609,9.895-27.9s-16.574-22.36-26.68-20.242m13.884,48.464c-9.374.041-19.562-8.519-23.761-20.563s-.961-23.418,7.165-27.043c9.379-.028,19.567,8.533,23.761,20.563s.955,23.4-7.165,27.043" transform="translate(-46.952 -7.68)" fill="#263238"/>
              <path id="Trazado_600865" data-name="Trazado 600865" d="M205.576,134.067a8.421,8.421,0,0,0-2.694.563c-1.024.293-2.062.543-3.107.785a67.12,67.12,0,0,1-6.673,1.209,81.578,81.578,0,0,1-13.4.77c-.258-.011-.369.293-.1.354a41,41,0,0,0,13.746,1.023,46.982,46.982,0,0,0,6.682-1.2c1.178-.3,2.32-.669,3.444-1.072a6.875,6.875,0,0,0,2.743-1.371c.374-.4.027-1.037-.636-1.062" transform="translate(-39.917 1.21)" fill="#263238"/>
              <path id="Trazado_600866" data-name="Trazado 600866" d="M194.658,144.856a27.573,27.573,0,0,0-4.093-.141,39.348,39.348,0,0,1-4.38-.286c-1.392-.171-2.765-.41-4.152-.6a27.16,27.16,0,0,1-4.194-.864c-.466-.141-.767.451-.328.627,1.32.531,2.635,1.078,4,1.531a22.69,22.69,0,0,0,4.436.922,43.781,43.781,0,0,0,4.466.311,12.844,12.844,0,0,0,4.414-.476c.579-.193.408-.934-.175-1.025" transform="translate(-41.03 2.784)" fill="#824645"/>
              <path id="Trazado_600867" data-name="Trazado 600867" d="M187.421,150.742a6.975,6.975,0,0,0-1.7-.463c-.531-.047-1.062-.091-1.592-.152-1.145-.133-2.288-.215-3.42-.419-.569-.1-.776.536-.228.677,1.11.285,2.214.609,3.359.8.56.092,1.124.181,1.69.244a5.787,5.787,0,0,0,1.807-.162c.289-.057.386-.417.087-.52" transform="translate(-39.547 3.98)" fill="#824645"/>
              <path id="Trazado_600868" data-name="Trazado 600868" d="M184.092,156.6c-.237-.08-.457-.178-.689-.265a3.837,3.837,0,0,0-.992-.175c-.574-.056-1.171-.046-1.749-.064a.556.556,0,0,0-.58.4.473.473,0,0,0,.433.5c.571.082,1.143.185,1.719.241a3.757,3.757,0,0,0,.989.012c.264-.046.519-.106.785-.146.29-.042.367-.408.085-.505" transform="translate(-39.589 5.114)" fill="#824645"/>
              <path id="Trazado_600869" data-name="Trazado 600869" d="M294.681,261.141c46.167-33.181,53.547-110.078,42.213-130.543-8.293-14.975-28.654-13.588-42.419,14.421s-19.67,48.409-45.789,87.786Z" transform="translate(-4.011 -1.081)" fill="#ebebeb"/>
              <path id="Trazado_600870" data-name="Trazado 600870" d="M320.269,253.837c-48.849,40.246-87.987-4.77-120.929-63.189l37.117-28.292,56.308,50.82Z" transform="translate(-29.6 6.224)" fill="#ebebeb"/>
              <path id="Trazado_600871" data-name="Trazado 600871" d="M208.047,189.688c-2.661,3.455,4.15,11.32,8.428,10.348,7.057-1.6-4.129-15.931-8.428-10.348" transform="translate(-25.396 10.839)" fill="#dbdbdb"/>
              <path id="Trazado_600872" data-name="Trazado 600872" d="M366.585,149.056a282.774,282.774,0,0,1-4.322,32.049,143.705,143.705,0,0,1-9.41,30.943,102.746,102.746,0,0,1-37.833,44.612,97.9,97.9,0,0,1-15.33,8.149c-2.674,1.134-5.427,2.168-8.246,3.07-2.891.925-9.277,2.928-9.277,2.928a117.272,117.272,0,0,1-19.617-7.971A103.373,103.373,0,0,1,244.755,250.7c-11.814-9.934-20.8-21.7-28.92-33.594-4.758-6.974-9.2-14.119-13.464-21.28a.4.4,0,0,0-.255-.168,2.245,2.245,0,0,0,.381-.2c12.439-9.722,24.877-19.471,36.078-30.07.518-.489-.267-1.1-.9-.693-13.577,8.769-26.046,18.49-38.482,28.21-1.781,1.394.284,3.4,2.244,3.011a.23.23,0,0,0-.017.207c6.844,13.446,13.292,27.037,22.882,39.5a112.092,112.092,0,0,0,33.63,29.259c4.234,2.4,19.023,10.039,25.217,9.481,4.742-.426,12.241-3.076,17-4.95a101.659,101.659,0,0,0,14.47-7.1,105.315,105.315,0,0,0,24.1-19.612c15.217-16.624,22.7-36.8,26.286-56.776,2.194-12.238,2.717-24.535,3.251-36.866.036-.842-1.613-.829-1.676,0" transform="translate(-30.026 3.756)" fill="#dbdbdb"/>
              <path id="Trazado_600873" data-name="Trazado 600873" d="M284.229,197.711q3.6-7.466,6.817-15.031c4.214-9.926,7.843-20.014,11.082-30.155,1.859-5.821,3.411-11.678,5.017-17.541.176-.645-1.069-.826-1.286-.2-6.982,20.267-15.86,40.2-25.3,59.843q-1.941,4.037-3.967,8.047A77.746,77.746,0,0,0,273,209.8c-7.4-6.86-14.8-13.723-22.321-20.5q-5.941-5.35-11.893-10.695c-4.068-3.649-8.4-7.1-12.49-10.729-.72-.638-2.152.312-1.468.979,3.8,3.711,7.333,7.571,11.164,11.266s7.67,7.4,11.523,11.086c7.676,7.349,15.471,14.621,23.266,21.895a1.874,1.874,0,0,0,1.329,1.559l.035.015c2.127,3.281,4.267,6.558,6.375,9.848a69.586,69.586,0,0,1,6.033,10.616c.234.567,1.307.28,1.124-.285-1.26-3.868-2.165-7.8-3.673-11.624a52.36,52.36,0,0,0-2.358-5.1,90.688,90.688,0,0,1,10.642,6.355c5.493,3.841,10.733,8.272,14.464,13.246.465.62,1.6.018,1.189-.6a68.947,68.947,0,0,0-13-14.965,72.408,72.408,0,0,0-16.226-10.054c1.722-2.123,2.724-4.739,3.9-7.064q1.845-3.659,3.62-7.337" transform="translate(-16.477 1.269)" fill="#dbdbdb"/>
              <path id="Trazado_600874" data-name="Trazado 600874" d="M165.759,229.315a46.784,46.784,0,0,0-4.046-8.346,77.744,77.744,0,0,0-5.172-7.976,72.416,72.416,0,0,0-6.127-7.309c-2.336-2.42-5.034-4.544-7.657-6.768-.855-.723-2.134.328-1.367,1.062a82.174,82.174,0,0,1,6.29,7.175c1.976,2.38,3.842,4.8,5.543,7.306a72.574,72.574,0,0,1,4.5,7.527c1.391,2.7,2.352,5.5,3.61,8.234.976,2.125,5.146,1.343,4.427-.905" transform="translate(-59.772 12.659)" fill="#dbdbdb"/>
              <path id="Trazado_600875" data-name="Trazado 600875" d="M146.753,213.5c-.557-1.68-1.115-3.342-1.824-4.988q-.51-1.187-1.066-2.36a3.988,3.988,0,0,0-1.982-2.424,1.921,1.921,0,0,0-2.527.83c-.311.983.217,1.717.726,2.6q.708,1.22,1.365,2.458c.816,1.546,1.648,3.1,2.361,4.672a64.651,64.651,0,0,1,3.821,9.958c.213.8,1.707.458,1.558-.319a80.695,80.695,0,0,0-2.433-10.426" transform="translate(-60.754 13.525)" fill="#dbdbdb"/>
              <path id="Trazado_600876" data-name="Trazado 600876" d="M130.888,170.693c-5.913,3.666-11.136,7.941-16.785,11.845-2.79,1.928-5.491,3.9-8.114,5.964-2.753,2.163-8.519,6-10.645,8.566-1.557,1.882,1.663,4.486,4.108,3.177a92.715,92.715,0,0,0,11.438-7.956c2.647-2.165,5.166-4.394,7.629-6.686,4.875-4.538,10.22-8.757,14.777-13.492,1.113-1.157-1.189-2.174-2.408-1.418" transform="translate(-83.74 7.655)" fill="#dbdbdb"/>
              <path id="Trazado_600877" data-name="Trazado 600877" d="M103.636,196.58c-2.659,3.455,4.15,11.32,8.428,10.348,7.057-1.6-4.129-15.931-8.428-10.348" transform="translate(-79.538 12.06)" fill="#dbdbdb"/>
              <path id="Trazado_600878" data-name="Trazado 600878" d="M225.315,288.284c-4.017-.124-7.977-.077-11.968-.436-3.851-.358-7.676-.886-11.473-1.522-2.944-.509-5.834-1.082-8.723-1.74.463-1.962.9-3.9,1.364-5.845,3,.892,6.029,1.7,9.083,2.443,3.716.892,7.485,1.634,11.283,2.334,3.632.657,7.183,1.463,10.9,1.907,2.118.254,1.6,2.9-.463,2.858" transform="translate(-32.809 26.847)" fill="#dbdbdb"/>
              <path id="Trazado_600879" data-name="Trazado 600879" d="M225.232,91.392c1.7,7.4-2.863,14.226-10.191,15.238s-14.648-4.171-16.349-11.575,2.862-14.226,10.191-15.238S223.531,83.988,225.232,91.392Z" transform="translate(-30.12 -8.425)" fill="none" stroke="#ebebeb" stroke-miterlimit="10" stroke-width="1"/>
              <path id="Trazado_600880" data-name="Trazado 600880" d="M252.763,88.586c1.7,7.4-2.864,14.226-10.193,15.238s-14.648-4.171-16.347-11.575,2.861-14.226,10.191-15.238S251.061,81.182,252.763,88.586Z" transform="translate(-15.843 -8.922)" fill="none" stroke="#ebebeb" stroke-miterlimit="10" stroke-width="1"/>
              <path id="Trazado_600881" data-name="Trazado 600881" d="M215.227,86.854a34.065,34.065,0,0,1,16.159.669" transform="translate(-21.361 -7.28)" fill="none" stroke="#ebebeb" stroke-miterlimit="10" stroke-width="1"/>
              <line id="Línea_723" data-name="Línea 723" y1="6.729" x2="19.489" transform="translate(236.919 72.936)" fill="none" stroke="#ebebeb" stroke-miterlimit="10" stroke-width="1"/>
            </g>
          </g>
          <g id="Grupo_159023" data-name="Grupo 159023" clip-path="url(#clip-path-2)">
            <path id="Trazado_600882" data-name="Trazado 600882" d="M444.461,337.086l.018,10.7.02,10.7-36.567.039-.014-7.006c0-2.042-2.66-3.7-5.933-3.692l-36.485.039c-3.274,0-5.924,1.662-5.921,3.7l.012,7.005-36.567.039-.02-10.7-.018-10.7Z" transform="translate(167.489 59.731)" fill="#38474f"/>
            <path id="Trazado_600883" data-name="Trazado 600883" d="M324.584,340.856c3.525-.574,7.43-.271,11.025-.3q5.8-.041,11.6-.079c7.614-.049,15.227-.045,22.841-.046l45.33-.008c4.217,0,8.434.021,12.651.038,4.194.017,8.54-.051,12.521,1.021.837.225.84,1.041,0,1.267a43.611,43.611,0,0,1-10.761,1.037c-3.863.059-7.732.057-11.6.07q-11.419.041-22.841.045c-15.108.03-30.221.131-45.331.066l-12.65-.059-6.326-.029a42.144,42.144,0,0,1-6.457-.251,1.387,1.387,0,0,1,0-2.775" transform="translate(167.6 60.324)" fill="#263238"/>
            <path id="Trazado_600884" data-name="Trazado 600884" d="M406.341,320.219l-.017-9.531a19.759,19.759,0,0,0-.717-5.227L398.24,278.7c-1.084-3.939-5.578-6.752-10.773-6.748l-13.509.015-.024-13.995,18.593-.02,13.045-.013c5.445-.006,10.366,2.521,12.481,6.412l21.091,38.806a21.169,21.169,0,0,1,2.644,10.106l.041,22.589.018,10.423-35.458.039-82.121.087-.011-5.986c0-2.45,2.554-4.439,5.716-4.443l56.175-.06c11.167-.012,20.209-7.04,20.194-15.7" transform="translate(168.147 45.707)" fill="#dbdbdb"/>
            <path id="Trazado_600885" data-name="Trazado 600885" d="M321.622,331.942l132.256-.141c3.55,0,6.431,2.224,6.437,4.975v.74c.006,2.751-2.867,4.984-6.419,4.989l-132.256.14c-3.55,0-6.431-2.223-6.436-4.975l0-.739c-.006-2.751,2.869-4.985,6.419-4.989" transform="translate(163.452 58.795)" fill="#38474f"/>
            <rect id="Rectángulo_45407" data-name="Rectángulo 45407" width="13.89" height="18.332" transform="translate(528.272 260.184) rotate(-0.081)" fill="#a6cce4"/>
            <rect id="Rectángulo_45408" data-name="Rectángulo 45408" width="19.94" height="86.337" transform="translate(525.273 266.354) rotate(-0.079)" fill="#263238"/>
            <rect id="Rectángulo_45409" data-name="Rectángulo 45409" width="36.845" height="68.825" transform="translate(516.839 278.524) rotate(-0.078)" fill="#ebebeb"/>
            <rect id="Rectángulo_45410" data-name="Rectángulo 45410" width="7.588" height="7.156" transform="translate(520.81 329.381) rotate(-0.08)" fill="#fff"/>
            <rect id="Rectángulo_45411" data-name="Rectángulo 45411" width="7.602" height="41.362" transform="translate(520.73 284.554) rotate(-0.08)" fill="#fff"/>
            <rect id="Rectángulo_45412" data-name="Rectángulo 45412" width="10.613" height="14.118" transform="translate(530.1 367.535) rotate(-0.082)" fill="#263238"/>
            <path id="Trazado_600886" data-name="Trazado 600886" d="M354.168,258.419c.012,6.778,7.108,12.265,15.852,12.256s15.822-5.512,15.813-12.29-7.113-12.265-15.857-12.256-15.822,5.512-15.808,12.29" transform="translate(183.658 43.614)" fill="#a6cce4"/>
            <path id="Trazado_600887" data-name="Trazado 600887" d="M358.17,257.7c.008,4.177,4.381,7.556,9.767,7.552s9.748-3.4,9.74-7.573-4.379-7.556-9.767-7.551S358.162,253.528,358.17,257.7Z" transform="translate(185.733 44.323)" fill="none" stroke="#263238" stroke-miterlimit="10" stroke-width="1"/>
            <path id="Trazado_600888" data-name="Trazado 600888" d="M337.879,317.211l48.658-.052c2.132,0,3.859-1.344,3.856-3v-.444c0-1.654-1.736-2.992-3.868-2.99l-48.658.052c-2.132,0-3.859,1.345-3.856,3v.445c0,1.653,1.734,2.991,3.868,2.989" transform="translate(173.205 55.061)" fill="#38474f"/>
            <path id="Trazado_600889" data-name="Trazado 600889" d="M369.333,111.3c-10.7-4.616-22.794-5-34.543-6.73-12.235-1.8-27.331-6.621-28.544-17.747-.135-1.224-2.3-1.1-2.408.078-.855,8.981,8.463,16.593,18.449,19.991,11.552,3.932,24.393,4.1,36.257,7.2,5.105,1.334,10.059,3.387,13.775,6.456a15.431,15.431,0,0,1,5.6,12.628c-.164,10.078-7.345,19.079-10.824,28.557-3.564,9.712-3.238,22.528,9.345,28.229,2.764,1.253,5.187-1.739,3.15-3.409-8.188-6.711-7.758-16.522-4.466-24.765,3.725-9.327,9.919-17.936,10.512-27.888.576-9.664-5.447-17.912-16.3-22.6" transform="translate(157.53 15.232)" fill="#263238"/>
            <path id="Trazado_600890" data-name="Trazado 600890" d="M345.164,76.432c-1.844.093-3.543,1-5.174,1.635l-4.662,1.8-10.1,3.9c-6.747,2.609-13.436,5.282-20.063,8.07-1.543.65-.657,2.61,1.031,2.022,6.99-2.427,13.9-4.971,20.774-7.587L337.1,82.423l5.063-1.926a13.952,13.952,0,0,0,4.416-2.092c.951-.846-.112-2.038-1.411-1.973" transform="translate(157.834 13.543)" fill="#dbdbdb"/>
            <path id="Trazado_600891" data-name="Trazado 600891" d="M345.174,83.394c-1.8-.056-2.94.6-4.507,1.25-1.409.584-2.823,1.16-4.235,1.739q-4.765,1.957-9.573,3.852c-6.308,2.476-12.709,4.814-18.9,7.458-1.59.678-.744,2.592,1.066,2.088,6.761-1.881,13.251-4.292,19.687-6.757q4.651-1.782,9.257-3.633c1.654-.667,3.294-1.353,4.934-2.041,1.478-.62,2.692-1.017,3.567-2.167.522-.685-.295-1.758-1.292-1.788" transform="translate(159.259 14.777)" fill="#dbdbdb"/>
            <path id="Trazado_600892" data-name="Trazado 600892" d="M340.359,93.2a2.573,2.573,0,0,0-2.062-.243c-7.1,2.922-14.252,5.758-21.345,8.688-1.573.65-.708,2.564,1.042,2.045,3.749-1.112,7.438-2.265,11.079-3.578s7.2-2.728,10.747-4.166c.606-.246,1.283-.675,1.291-1.27a1.375,1.375,0,0,0-.752-1.476" transform="translate(163.932 16.45)" fill="#dbdbdb"/>
            <path id="Trazado_600893" data-name="Trazado 600893" d="M348.683,105.61c-2.623.416-5.159,2.081-7.433,3.15-2.337,1.1-4.662,2.207-6.966,3.348-4.784,2.37-9.479,4.849-14.111,7.394-1.494.823.175,2.57,1.678,1.774q6.913-3.662,14.109-6.984,3.528-1.633,7.111-3.195c2.308-1,5.374-1.769,7.215-3.246,1.056-.848-.12-2.476-1.6-2.241" transform="translate(165.727 18.71)" fill="#dbdbdb"/>
            <path id="Trazado_600894" data-name="Trazado 600894" d="M363.325,110.694c-1.989.35-3.376,1.287-5.095,2.086-1.9.884-3.84,1.727-5.751,2.6q-5.528,2.534-10.987,5.158-11.127,5.35-21.831,11.173c-1.686.917.173,2.832,1.875,1.982q10.811-5.395,21.8-10.583,5.292-2.49,10.65-4.9c1.921-.863,3.839-1.741,5.787-2.566,1.869-.793,3.827-1.269,5.332-2.467,1.162-.926-.131-2.779-1.781-2.49" transform="translate(165.42 19.609)" fill="#dbdbdb"/>
            <path id="Trazado_600895" data-name="Trazado 600895" d="M368.722,116.976c-3.884,1.373-7.47,3.651-10.981,5.528-3.681,1.967-7.406,3.892-11.035,5.915-7.262,4.047-14.6,8-21.922,11.986-1.625.884.16,2.708,1.8,1.907,7.456-3.634,14.856-7.329,22.4-10.857,3.7-1.73,7.3-3.59,10.935-5.394,3.663-1.815,7.945-3.519,11.143-5.8,1.875-1.341.393-4.251-2.34-3.284" transform="translate(168.088 20.694)" fill="#dbdbdb"/>
            <path id="Trazado_600896" data-name="Trazado 600896" d="M363.873,129.98a2.868,2.868,0,0,0-2.715-.047,69.884,69.884,0,0,0-6.261,3.554q-3.13,1.773-6.352,3.452c-4.278,2.233-8.668,4.353-13.119,6.373-1.572.713-.091,2.812,1.55,2.175q7.15-2.776,13.969-6.013,3.312-1.575,6.547-3.243a46.091,46.091,0,0,0,6.717-3.824,1.389,1.389,0,0,0,.337-1.718,1.813,1.813,0,0,0-.673-.71" transform="translate(173.592 22.968)" fill="#dbdbdb"/>
            <path id="Trazado_600897" data-name="Trazado 600897" d="M372.524,143.432a13.417,13.417,0,0,0-3.518,1.7l-2.949,1.639-6.387,3.55q-6.389,3.551-12.709,7.173c-2.093,1.2.251,3.654,2.381,2.517q6.476-3.459,12.894-6.976,3.207-1.762,6.413-3.523l2.961-1.627a12.166,12.166,0,0,0,3.213-2.033c1.189-1.326-.366-2.847-2.3-2.421" transform="translate(179.497 25.403)" fill="#dbdbdb"/>
            <path id="Trazado_600898" data-name="Trazado 600898" d="M391.868,146.681a29.286,29.286,0,0,0-5.389,2.44q-2.861,1.395-5.693,2.825c-3.643,1.833-7.3,3.645-10.918,5.512-7.335,3.789-14.9,7.43-21.873,11.618-1.914,1.149.164,3.161,2.164,2.287,7.694-3.361,14.974-7.353,22.34-11.126,3.62-1.854,7.193-3.765,10.785-5.652q2.8-1.469,5.563-2.964a26.741,26.741,0,0,0,4.946-2.916c1.169-1.028-.425-2.414-1.922-2.025" transform="translate(180.063 25.98)" fill="#dbdbdb"/>
            <path id="Trazado_600899" data-name="Trazado 600899" d="M395.837,152.439c-14.537-2.226-29.254,1.173-43.847.17-11.4-.784-25.049-4.937-27.211-14.792-2.3-10.509,6.533-20.1,12.354-28.97,3.562-5.428,6.262-11.215,6.543-17.358.289-6.312-1.8-12.139-5.6-17.692-.916-1.338-3.727-.559-2.893.886a25.817,25.817,0,0,1,3.051,16.531c-.77,5.39-3.582,10.283-6.9,15-6.542,9.319-14.785,18.3-14.473,29.4.3,10.579,10.445,18.261,22.945,21.227,13.972,3.316,28.186,1.122,42.457.842,7.316-.144,14.592.487,21.264,2.939a26.514,26.514,0,0,1,13.615,10.911c1.551,2.361,5.912,1.579,5.775-1.135-.518-10.258-15.782-16.237-27.088-17.968" transform="translate(164.31 12.955)" fill="#a6cce4"/>
            <path id="Trazado_600908" data-name="Trazado 600908" d="M160.927,305.825a108.442,108.442,0,0,0,4.106-88.788,772.9,772.9,0,0,1-16.786,91.51Z" transform="translate(76.875 38.459)" fill="#90b9d1"/>
            <path id="Trazado_600909" data-name="Trazado 600909" d="M144.572,297.454c-9.354-23.586-6.6-49.919,7.524-72.031-10.625,24.183,13.688,51.079,4.5,75.613Z" transform="translate(72.136 39.945)" fill="#90b9d1"/>
            <path id="Trazado_600910" data-name="Trazado 600910" d="M197.508,237.816C179,253.909,168.041,248.5,161.33,275.234c-1.355,5.4-8.235,25.395.694,24.739,8.984-.66,12.241-21.386,16.785-31.68,6.126-13.872,13.506-20.416,18.7-30.478" transform="translate(81.685 42.141)" fill="#90b9d1"/>
            <path id="Trazado_600911" data-name="Trazado 600911" d="M148.147,293.559a24.352,24.352,0,0,0,11.823-18.137c.934-6.934-.545-13.907-1.851-20.806s-2.44-13.947-.832-20.807c1.842,11.25,11.275,19.748,15.292,30.652,3.979,10.8,1.342,22.948-6.978,32.143Z" transform="translate(76.823 41.431)" fill="#a6cce4"/>
            <path id="Trazado_600912" data-name="Trazado 600912" d="M147.243,300.722c-12.06-17.307-18.64-39.056-10.141-66.888,8.568,18.806,21.073,65.564,21.073,65.564Z" transform="translate(69.103 41.435)" fill="#a6cce4"/>
            <path id="Trazado_600913" data-name="Trazado 600913" d="M185.969,282.585l-3.522,17.691-2.879,14.549a3.038,3.038,0,0,1-3.124,2.084l-33.235.035a3.012,3.012,0,0,1-3.15-2.148l-5.442-32.213c-.243-1.477,1.236-2.77,3.142-2.772l45.077-.048c1.944,0,3.426,1.33,3.133,2.823" transform="translate(69.794 49.574)" fill="#dbdbdb"/>
            <path id="Trazado_600914" data-name="Trazado 600914" d="M176.192,282.585l-3.522,17.691c-6.445-3.321-13.71-9.4-19.226-20.493l19.615-.021c1.944,0,3.426,1.33,3.133,2.823" transform="translate(79.57 49.574)" fill="#ebebeb"/>
            <path id="Trazado_600915" data-name="Trazado 600915" d="M19.8,319.293l.077,43.311,117.42-.126-.076-43.312Zm82.373,35.364-70.514.075-.05-27.594,70.514-.075Z" transform="translate(10.268 56.556)" fill="#dbdbdb"/>
            <rect id="Rectángulo_45413" data-name="Rectángulo 45413" width="16.844" height="27.599" transform="matrix(1, -0.001, 0.001, 1, 41.878, 383.694)" fill="#dbdbdb"/>
            <path id="Trazado_600916" data-name="Trazado 600916" d="M49.959,307.639l-12.237.013c-1.939,0-3.508,1.222-3.506,2.725s1.578,2.721,3.515,2.718h.433l.074,41.666c0,2.434,2.554,4.405,5.693,4.4s5.682-1.98,5.678-4.414l-.073-41.666h.431c1.939,0,3.509-1.223,3.506-2.725s-1.576-2.721-3.515-2.718" transform="translate(17.743 54.513)" fill="#fff"/>
            <path id="Trazado_600917" data-name="Trazado 600917" d="M65.253,307.618l-12.237.013c-1.939,0-3.508,1.222-3.506,2.725s1.578,2.721,3.515,2.718h.433l.074,41.667c0,2.433,2.553,4.4,5.693,4.4s5.682-1.979,5.678-4.413l-.073-41.666h.431c1.939,0,3.509-1.223,3.506-2.725s-1.576-2.721-3.515-2.718" transform="translate(25.674 54.51)" fill="#fff"/>
            <path id="Trazado_600918" data-name="Trazado 600918" d="M80.547,307.6l-12.237.013c-1.939,0-3.508,1.222-3.506,2.725s1.578,2.719,3.515,2.718h.433l.074,41.666c0,2.434,2.553,4.405,5.693,4.4s5.682-1.979,5.678-4.413l-.073-41.666h.431c1.939,0,3.509-1.223,3.506-2.725s-1.576-2.721-3.515-2.718" transform="translate(33.605 54.506)" fill="#fff"/>
            <path id="Trazado_600919" data-name="Trazado 600919" d="M48.187,315.834l.067,37.467c0,2.432-2.534,4.406-5.673,4.409s-5.684-1.965-5.689-4.4l-.065-37.467Z" transform="translate(19.097 55.966)" fill="#a6cce4"/>
            <path id="Trazado_600920" data-name="Trazado 600920" d="M49.959,307.639l-12.237.013c-1.939,0-3.508,1.222-3.506,2.725s1.578,2.721,3.515,2.718h.433l.074,41.666c0,2.434,2.554,4.405,5.693,4.4s5.682-1.98,5.678-4.414l-.073-41.666h.431c1.939,0,3.509-1.223,3.506-2.725S51.9,307.637,49.959,307.639Z" transform="translate(17.743 54.513)" fill="none" stroke="#ebebeb" stroke-linecap="round" stroke-linejoin="round" stroke-width="1"/>
            <path id="Trazado_600921" data-name="Trazado 600921" d="M63.506,334.219l.027,15.8c0,2.432-2.534,4.4-5.672,4.409s-5.684-1.965-5.689-4.4l-.027-15.8Z" transform="translate(27.041 59.223)" fill="#263238"/>
            <path id="Trazado_600922" data-name="Trazado 600922" d="M65.253,307.618l-12.237.013c-1.939,0-3.508,1.222-3.506,2.725s1.578,2.721,3.515,2.718h.433l.074,41.667c0,2.433,2.553,4.4,5.693,4.4s5.682-1.979,5.678-4.413l-.073-41.666h.431c1.939,0,3.509-1.223,3.506-2.725S67.192,307.616,65.253,307.618Z" transform="translate(25.674 54.51)" fill="none" stroke="#ebebeb" stroke-linecap="round" stroke-linejoin="round" stroke-width="1"/>
            <path id="Trazado_600923" data-name="Trazado 600923" d="M78.785,323.494l.05,28.4c0,2.432-2.534,4.406-5.672,4.41s-5.684-1.965-5.689-4.4l-.05-28.4Z" transform="translate(34.964 57.323)" fill="#38474f"/>
            <path id="Trazado_600924" data-name="Trazado 600924" d="M80.547,307.6l-12.237.013c-1.939,0-3.508,1.222-3.506,2.725s1.578,2.719,3.515,2.718h.433l.074,41.666c0,2.434,2.553,4.405,5.693,4.4s5.682-1.979,5.678-4.413l-.073-41.666h.431c1.939,0,3.509-1.223,3.506-2.725S82.486,307.595,80.547,307.6Z" transform="translate(33.605 54.506)" fill="none" stroke="#ebebeb" stroke-linecap="round" stroke-linejoin="round" stroke-width="1"/>
            <path id="Trazado_600925" data-name="Trazado 600925" d="M19.8,319.289l.077,43.311,94.1-.1-.076-43.312Zm82.373,35.364-70.514.075-.05-27.594,70.514-.075Z" transform="translate(10.268 56.56)" fill="#ebebeb"/>
            <path id="Trazado_600926" data-name="Trazado 600926" d="M217.516,334.874l-123.07.132L94.4,310.932l123.07-.132c6.9-.007,12.495,4.321,12.505,9.668l.008,4.711c.011,5.347-5.573,9.687-12.47,9.694" transform="translate(48.954 55.073)" fill="#38474f"/>
            <path id="Trazado_600927" data-name="Trazado 600927" d="M145.995,334.939l-51.548.055L94.4,310.92l51.549-.055c6.9-.007,12.495,4.321,12.505,9.667l.008,4.712c.009,5.347-5.573,9.687-12.471,9.694" transform="translate(48.954 55.085)" fill="#263238"/>
            <path id="Trazado_600928" data-name="Trazado 600928" d="M144.358,330.553l-49.973.053-.029-16.447,49.973-.054c4.712,0,8.537,2.952,8.543,6.605l.006,3.22c.006,3.653-3.809,6.618-8.521,6.623" transform="translate(48.929 55.659)" fill="#ebebeb"/>
            <path id="Trazado_600929" data-name="Trazado 600929" d="M147.885,318.243a43.14,43.14,0,0,0-6.009-.511c-2.22-.058-4.442-.09-6.654-.263-4.554-.357-9.108-.334-13.676-.374-4.431-.039-8.878-.12-13.307,0-4.267.118-8.979-.153-13.085,1.005a.54.54,0,0,0,0,1.057c4.011,1.119,8.559.848,12.719.965,4.553.128,9.122.034,13.676-.015,4.442-.048,8.879-.017,13.306-.373,2.216-.179,4.431-.229,6.653-.3,1.109-.033,2.217-.042,3.327-.062a20.516,20.516,0,0,0,3.049-.472.338.338,0,0,0,0-.663" transform="translate(49.121 56.178)" fill="#dbdbdb"/>
            <path id="Trazado_600930" data-name="Trazado 600930" d="M150.77,323.333c-1.821-.756-4.05-.673-6.018-.693q-3.531-.035-7.061-.04l-14.123-.019c-4.583-.007-9.166.021-13.751.049s-9.531-.341-14.051.421a1.079,1.079,0,0,0,0,2.114c4.405.735,9.215.372,13.681.391,4.708.019,9.415.039,14.123.022l13.751-.048q3.531-.012,7.061-.053c2.082-.025,4.46.1,6.387-.71a.8.8,0,0,0,0-1.435" transform="translate(49.214 57.158)" fill="#dbdbdb"/>
            <path id="Trazado_600931" data-name="Trazado 600931" d="M182.083,322.831a11.644,11.644,0,0,1-3.8,8.533,13.748,13.748,0,0,1-9.256,3.52l-13.878.014a13.737,13.737,0,0,0,9.256-3.52,11.638,11.638,0,0,0,3.8-8.532c-.011-6.637-5.859-12.033-13.095-12.026l13.878-.014c7.236-.008,13.082,5.388,13.095,12.025" transform="translate(80.434 55.075)" fill="#263238"/>
            <path id="Trazado_600932" data-name="Trazado 600932" d="M167.87,322.85a11.647,11.647,0,0,1-3.8,8.535,13.743,13.743,0,0,1-9.256,3.52l-13.878.014a13.737,13.737,0,0,0,9.256-3.52,11.638,11.638,0,0,0,3.8-8.533c-.011-6.637-5.859-12.032-13.095-12.025l13.878-.014c7.236-.008,13.082,5.388,13.095,12.024" transform="translate(73.064 55.078)" fill="#263238"/>
            <path id="Trazado_600933" data-name="Trazado 600933" d="M224.979,360.053l-138.4.148-.05-28.807,138.4-.147c8.253-.009,14.953,5.17,14.964,11.567l.011,5.639c.011,6.4-6.669,11.591-14.923,11.6" transform="translate(44.87 58.697)" fill="#263238"/>
            <path id="Trazado_600934" data-name="Trazado 600934" d="M153.458,360.118l-66.879.072-.052-28.807,66.879-.071c8.253-.009,14.953,5.17,14.964,11.567l.011,5.639c.011,6.4-6.67,11.591-14.923,11.6" transform="translate(44.87 58.708)" fill="#38474f"/>
            <path id="Trazado_600935" data-name="Trazado 600935" d="M152.583,354.87l-66.041.071-.035-19.682,66.041-.071c5.638-.006,10.215,3.533,10.223,7.9l.008,3.853c.008,4.371-4.557,7.919-10.2,7.925" transform="translate(44.859 59.395)" fill="#ebebeb"/>
            <path id="Trazado_600936" data-name="Trazado 600936" d="M157.8,340.138a36.3,36.3,0,0,0-6.009-.612c-2.22-.071-4.442-.108-6.654-.317-4.554-.427-9.108-.4-13.676-.45-4.431-.047-26.663-.127-31.093.018-4.269.14-8.979-.184-13.085,1.2a.68.68,0,0,0,0,1.264c4.011,1.342,8.559,1.017,12.721,1.158,4.553.155,26.907.023,31.462-.034,4.442-.056,8.879-.019,13.306-.444,2.216-.213,4.43-.273,6.653-.353,1.109-.039,2.217-.051,3.326-.075a17.328,17.328,0,0,0,3.051-.563.426.426,0,0,0,0-.793" transform="translate(45.037 60.016)" fill="#dbdbdb"/>
            <path id="Trazado_600937" data-name="Trazado 600937" d="M160.683,346.228c-1.821-.905-4.05-.806-6.018-.83q-3.531-.044-7.061-.051l-14.123-.026c-4.583-.008-26.953.042-31.536.075s-9.53-.41-14.051.5a1.358,1.358,0,0,0,0,2.53c4.405.879,9.215.447,13.681.47,4.708.024,27.2.029,31.908.011l13.751-.054q3.531-.014,7.061-.062c2.082-.029,4.462.114,6.387-.848a1.045,1.045,0,0,0,0-1.718" transform="translate(45.132 61.19)" fill="#dbdbdb"/>
            <path id="Trazado_600938" data-name="Trazado 600938" d="M177.649,355.872a12.612,12.612,0,0,1-9.254,4.206l6.461-.007a12.61,12.61,0,0,0,9.254-4.206,15.314,15.314,0,0,0,3.795-10.206c-.015-7.952-5.863-14.418-13.1-14.411l-6.463.007c7.237-.007,13.085,6.459,13.1,14.411a15.316,15.316,0,0,1-3.793,10.206" transform="translate(87.296 58.697)" fill="#38474f"/>
            <path id="Trazado_600939" data-name="Trazado 600939" d="M146.88,355.914a12.611,12.611,0,0,1-9.254,4.206l6.461-.007a12.609,12.609,0,0,0,9.254-4.206,15.316,15.316,0,0,0,3.795-10.206c-.015-7.952-5.863-14.418-13.1-14.411l-6.463.007c7.237-.007,13.085,6.458,13.1,14.411a15.315,15.315,0,0,1-3.793,10.206" transform="translate(71.341 58.704)" fill="#38474f"/>
            <path id="Trazado_600940" data-name="Trazado 600940" d="M177.782,12.179C163.79,1.42,141.2,1.492,127.317,12.339s-13.786,28.362.206,39.121c11.727,9.017,29.5,10.421,43.112,4.255l18.129,3.87-5.139-14.023c7.842-10.6,5.885-24.366-5.843-33.384" transform="translate(108.154 15.72)" fill="#fff"/>
            <path id="Trazado_600941" data-name="Trazado 600941" d="M177.782,12.179C163.79,1.42,141.2,1.492,127.317,12.339s-13.786,28.362.206,39.121c11.727,9.017,29.5,10.421,43.112,4.255l18.129,3.87-5.139-14.023C191.467,34.958,189.509,21.2,177.782,12.179Z" transform="translate(108.154 15.72)" fill="none" stroke="#dbdbdb" stroke-miterlimit="10" stroke-width="1"/>
            <path id="Trazado_600942" data-name="Trazado 600942" d="M151.061,15.952a22.4,22.4,0,0,0-5.008-1.079c-.236,1.627-1.874,2.979-4.062,3.185a4.9,4.9,0,0,1-4.927-2.34,20.136,20.136,0,0,0-4.53,1.975,3,3,0,0,1,.03,4.485,5.584,5.584,0,0,1-5.625,1.051,11.755,11.755,0,0,0-1.392,3.882c2.1.184,3.843,1.453,4.109,3.15s-1.036,3.252-3.018,3.819a13.668,13.668,0,0,0,2.548,3.512,5.757,5.757,0,0,1,5.786-.023,3.124,3.124,0,0,1,1.354,4.36,22.4,22.4,0,0,0,5.008,1.079c.236-1.627,1.875-2.979,4.063-3.185a4.9,4.9,0,0,1,4.927,2.34,20.122,20.122,0,0,0,4.531-1.976,3,3,0,0,1-.03-4.485,5.585,5.585,0,0,1,5.625-1.05,11.733,11.733,0,0,0,1.391-3.883c-2.1-.183-3.843-1.452-4.109-3.149s1.036-3.253,3.019-3.819a13.659,13.659,0,0,0-2.549-3.512,5.756,5.756,0,0,1-5.785.023,3.126,3.126,0,0,1-1.354-4.36m-2.632,15.866a7.251,7.251,0,0,1-8.448.794c-2.617-1.589-3.076-4.521-1.026-6.549a7.254,7.254,0,0,1,8.449-.8c2.616,1.589,3.075,4.522,1.025,6.55" transform="translate(108.646 13.787)" fill="#38474f"/>
            <path id="Trazado_600943" data-name="Trazado 600943" d="M176.469,48.378a7.405,7.405,0,0,0-.092-2.715,3.424,3.424,0,0,1-3.449-1.4,2.118,2.118,0,0,1,.973-2.923,11.556,11.556,0,0,0-2.536-1.873,3.687,3.687,0,0,1-3.722.9,2.435,2.435,0,0,1-1.982-2.6,15.792,15.792,0,0,0-3.5.071,2.36,2.36,0,0,1-1.807,2.674,3.738,3.738,0,0,1-3.77-.754,11.149,11.149,0,0,0-2.416,1.966,2.162,2.162,0,0,1,1.161,2.885,3.339,3.339,0,0,1-3.357,1.537,7.4,7.4,0,0,0,.092,2.715,3.424,3.424,0,0,1,3.449,1.4,2.117,2.117,0,0,1-.973,2.922,11.533,11.533,0,0,0,2.536,1.874,3.685,3.685,0,0,1,3.722-.9,2.434,2.434,0,0,1,1.982,2.6,15.743,15.743,0,0,0,3.5-.07,2.36,2.36,0,0,1,1.807-2.674,3.738,3.738,0,0,1,3.77.754,11.149,11.149,0,0,0,2.416-1.966,2.161,2.161,0,0,1-1.161-2.885,3.339,3.339,0,0,1,3.357-1.537m-13.707,1.816c-2.09-.624-3.132-2.442-2.327-4.063s3.151-2.428,5.241-1.8S168.808,46.77,168,48.39s-3.151,2.428-5.241,1.8" transform="translate(110.155 9.669)" fill="#a6cce4"/>
            <line id="Línea_724" data-name="Línea 724" y1="0.684" x2="640.673" transform="translate(0.001 418.217)" fill="none" stroke="#263238" stroke-miterlimit="10" stroke-width="1"/>
            <path id="Trazado_600944" data-name="Trazado 600944" d="M37.041,109.354c-5.825,0-5.828,7.008,0,7.008s5.828-7.008,0-7.008" transform="translate(16.942 19.377)" fill="#f4f4f4"/>
            <path id="Trazado_600945" data-name="Trazado 600945" d="M214.828,0c-5.827,0-5.83,7.008,0,7.008S220.656,0,214.828,0" transform="translate(109.135)" fill="#f4f4f4"/>
            <path id="Trazado_600946" data-name="Trazado 600946" d="M377.466,74.455c-5.825,0-5.828,7.008,0,7.008s5.828-7.008,0-7.008" transform="translate(193.473 13.193)" fill="#f4f4f4"/>
            <path id="Trazado_600947" data-name="Trazado 600947" d="M383.588,223.85c-5.825,0-5.828,7.008,0,7.008s5.828-7.008,0-7.008" transform="translate(196.648 39.666)" fill="#f4f4f4"/>
            <path id="Trazado_600949" data-name="Trazado 600949" d="M270.318,30.983c-5.825,0-5.828,7.008,0,7.008s5.828-7.008,0-7.008" transform="translate(137.91 5.49)" fill="#fff"/>
            <path id="Trazado_600950" data-name="Trazado 600950" d="M148.475,152.826c-5.825,0-5.828,7.008,0,7.008s5.828-7.008,0-7.008" transform="translate(74.727 27.081)" fill="#fff"/>
            <path id="Trazado_600951" data-name="Trazado 600951" d="M147.863,79.353c-5.825,0-5.828,7.008,0,7.008s5.828-7.008,0-7.008" transform="translate(74.41 14.061)" fill="#fff"/>
            <g id="Grupo_159043" data-name="Grupo 159043" transform="translate(193.93 146.893)">
              <path id="Trazado_600900" data-name="Trazado 600900" d="M78.659,255.635a14.631,14.631,0,0,0-3.744,3.351c-1.178,1.246-2.341,2.5-3.464,3.776-2.222,2.522-4.423,5.051-6.694,7.547-.387.426.425.892.838.481,2.42-2.41,4.9-4.778,7.367-7.159,1.217-1.175,2.4-2.372,3.567-3.577,1.136-1.175,2.585-2.414,3.135-3.842.189-.491-.452-.86-1-.576" transform="translate(-53.653 -236.317)" fill="#a6cce4"/>
              <path id="Trazado_600901" data-name="Trazado 600901" d="M100.283,256.81a21.473,21.473,0,0,0-5.7-.329c-1.992.011-3.984.036-5.976.1-3.937.123-7.868.262-11.807.339-.671.013-.67.8,0,.807,3.939.068,7.871.2,11.807.311,1.943.056,3.887.078,5.831.084a22.066,22.066,0,0,0,5.848-.343c.62-.175.62-.793,0-.968" transform="translate(-53.738 -236.528)" fill="#38474f"/>
              <path id="Trazado_600902" data-name="Trazado 600902" d="M62.26,240.106c-2.905-1.177-6.492-.306-8.012,1.947s-.4,5.032,2.51,6.21a7.251,7.251,0,0,0,7.008-.873c.159.069.316.142.476.209,1.672.694,3.368,1.344,5.072,1.987,3.362,1.273,6.675,2.621,10.039,3.888.759.287,1.343-.579.606-.9-3.263-1.417-6.581-2.756-9.847-4.171-1.613-.7-3.227-1.389-4.871-2.043-.135-.055-.272-.1-.407-.155,1.411-2.232.283-4.94-2.576-6.1" transform="translate(-53.571 -232.64)" fill="#38474f"/>
              <path id="Trazado_600903" data-name="Trazado 600903" d="M77.041,235.382c-.258-.939-1.947-.778-1.9.182a62.27,62.27,0,0,0,1.2,8.077c.481,2.686,1.086,5.357,1.584,8.041.135.729,1.561.593,1.463-.14-.357-2.7-.609-5.4-.984-8.1a62.415,62.415,0,0,0-1.364-8.062" transform="translate(-53.73 -231.527)" fill="#a6cce4"/>
              <path id="Trazado_600904" data-name="Trazado 600904" d="M81.42,251.409c3.059,1.24,4.244,4.169,2.643,6.541s-5.377,3.29-8.437,2.049-4.244-4.168-2.643-6.54,5.377-3.29,8.436-2.05" transform="translate(-53.709 -235.238)" fill="#a6cce4"/>
              <path id="Trazado_600905" data-name="Trazado 600905" d="M77.981,231.027c2.586,1.048,3.585,3.522,2.233,5.527s-4.543,2.779-7.129,1.731-3.585-3.522-2.233-5.527,4.543-2.779,7.129-1.731" transform="translate(-53.694 -230.56)" fill="#a6cce4"/>
              <path id="Trazado_600906" data-name="Trazado 600906" d="M68.811,269.308c3.034,1.23,4.207,4.132,2.621,6.483s-5.33,3.261-8.363,2.031-4.207-4.132-2.621-6.483,5.329-3.261,8.363-2.032" transform="translate(-53.617 -239.365)" fill="#a6cce4"/>
              <path id="Trazado_600907" data-name="Trazado 600907" d="M100.472,254.1c2.289.928,3.174,3.119,1.978,4.893s-4.023,2.461-6.313,1.534-3.174-3.119-1.977-4.893,4.023-2.462,6.312-1.534" transform="translate(-53.866 -235.89)" fill="#38474f"/>
              <path id="Trazado_600948" data-name="Trazado 600948" d="M60.631,267.933c-3.808,0-3.81,4.581,0,4.581s3.81-4.581,0-4.581" transform="translate(-53.602 -239.175)" fill="#f4f4f4"/>
              <path id="Trazado_600952" data-name="Trazado 600952" d="M101.523,252.928c-3.808,0-3.81,4.581,0,4.581s3.81-4.581,0-4.581" transform="translate(-53.903 -235.716)" fill="#fff"/>
            </g>
            <path id="Trazado_600953" data-name="Trazado 600953" d="M87,168.188c-5.825,0-5.828,7.008,0,7.008s5.828-7.008,0-7.008" transform="translate(42.848 29.803)" fill="#fff"/>
            <path id="Trazado_600954" data-name="Trazado 600954" d="M188.885,261.811c-5.825,0-5.828,7.008,0,7.008s5.828-7.008,0-7.008" transform="translate(95.682 46.393)" fill="#fff"/>
            <path id="Trazado_600955" data-name="Trazado 600955" d="M330.32,199.359c-5.825,0-5.828,7.008,0,7.008s5.828-7.008,0-7.008" transform="translate(169.025 35.326)" fill="#fff"/>
            <path id="Trazado_600956" data-name="Trazado 600956" d="M290.523,98.333c-5.825,0-5.828,7.008,0,7.008s5.828-7.008,0-7.008" transform="translate(148.388 17.425)" fill="#fff"/>
            <path id="Trazado_600957" data-name="Trazado 600957" d="M348.689,89.149c-5.825,0-5.828,7.008,0,7.008s5.828-7.008,0-7.008" transform="translate(178.551 15.797)" fill="#fff"/>
            <path id="Trazado_600958" data-name="Trazado 600958" d="M330.32,247.116c-5.825,0-5.828,7.008,0,7.008s5.828-7.008,0-7.008" transform="translate(169.025 43.789)" fill="#fff"/>
          </g>
        </g>
      </g>
    </g>
    <g id="Grupo_159007" data-name="Grupo 159007" transform="translate(-4188 -9763)">
      <text id="Balance_de_masa" data-name="Balance de masa" transform="translate(412.896 32)" fill="#2e0877" font-size="20" font-family="Roboto-Bold, Roboto" font-weight="700"><tspan x="-76.519" y="0">Balance de masa</tspan></text>
      <text id="Ley_de_conservación_de_la_materia_La_masa_no_se_crea_ni_se_destruye_sólo_se_transforma" data-name="Ley de conservación de la materia

La masa no se crea ni se destruye, sólo se transforma" transform="translate(412.896 94)" fill="#12263f" font-size="18" font-family="Roboto-Regular, Roboto"><tspan x="-135.861" y="0">Ley de conservación de la materia</tspan><tspan x="0" y="24"></tspan><tspan x="-214.805" y="48">La masa no se crea ni se destruye, sólo se transforma</tspan></text>
      <text id="Definición_del_balance_Entradas_-_salidas_acumulación" data-name="Definición del balance

Entradas - salidas = acumulación" transform="translate(413 334.566)" fill="#12263f" font-size="18" font-family="Roboto-Regular, Roboto"><tspan x="-87.75" y="0">Definición del balance</tspan><tspan x="0" y="24"></tspan><tspan x="-131.739" y="48">Entradas - salidas = acumulación</tspan></text>
      <rect id="Rectángulo_45364" data-name="Rectángulo 45364" width="430" height="98" transform="translate(198 183.565)" fill="#cdfcfc"/>
      <text id="Proceso" transform="translate(412.896 239)" fill="#12263f" font-size="18" font-family="Roboto-Bold, Roboto" font-weight="700"><tspan x="-33.293" y="0">Proceso</tspan></text>
      <text id="Masa_que_entra" data-name="Masa que entra" transform="translate(80.896 239)" fill="#12263f" font-size="18" font-family="Roboto-Regular, Roboto"><tspan x="-62.029" y="0">Masa que entra</tspan></text>
      <text id="Masa_que_sale" data-name="Masa que sale" transform="translate(742.896 239)" fill="#12263f" font-size="18" font-family="Roboto-Regular, Roboto"><tspan x="-58.078" y="0">Masa que sale</tspan></text>
      <g id="Grupo_159005" data-name="Grupo 159005" transform="translate(655 248)">
        <path id="Polígono_27" data-name="Polígono 27" d="M9.358,0l9.358,16.557H0Z" transform="translate(186.847 0) rotate(90)" fill="#2e0877"/>
        <rect id="Rectángulo_45300" data-name="Rectángulo 45300" width="173.069" height="9.274" transform="translate(0 4.636)" fill="#2e0877"/>
      </g>
      <g id="Grupo_159006" data-name="Grupo 159006" transform="translate(0 248)">
        <path id="Polígono_27-2" data-name="Polígono 27" d="M9.358,0l9.358,16.557H0Z" transform="translate(177.978 0) rotate(90)" fill="#2e0877"/>
        <rect id="Rectángulo_45300-2" data-name="Rectángulo 45300" width="164.201" height="9.274" transform="translate(0 4.636)" fill="#2e0877"/>
      </g>
      <g id="Rectángulo_45695" data-name="Rectángulo 45695" transform="translate(281 -0.435)" fill="none" stroke="#2e0877" stroke-width="1">
        <rect width="273" height="50" stroke="none"/>
        <rect x="0.5" y="0.5" width="272" height="49" fill="none"/>
      </g>
    </g>
  </g>
</svg>
