<svg xmlns="http://www.w3.org/2000/svg" xmlns:xlink="http://www.w3.org/1999/xlink" width="85" height="85" viewBox="0 0 85 85">
  <defs>
    <clipPath id="clip-path">
      <rect id="Rectángulo_45654" data-name="Rectángulo 45654" width="54" height="54" transform="translate(1036 1692)" fill="#fff"/>
    </clipPath>
  </defs>
  <g id="Grupo_159307" data-name="Grupo 159307" transform="translate(-1020 -1676)">
    <circle id="Elipse_4762" data-name="Elipse 4762" cx="42.5" cy="42.5" r="42.5" transform="translate(1020 1676)" fill="#cdfcfc"/>
    <g id="Enmascarar_grupo_63" data-name="Enmascarar grupo 63" clip-path="url(#clip-path)">
      <g id="investigacion" transform="translate(1036 1692.001)">
        <path id="Trazado_601246" data-name="Trazado 601246" d="M17.1,27.9a.9.9,0,0,0,.9.9h7.2a.9.9,0,0,0,.9-.9V20.7a4.5,4.5,0,0,0-3.34-4.329,5.4,5.4,0,1,0-7.717,0A4.5,4.5,0,0,0,11.7,20.7V23.8a.9.9,0,1,0,1.8,0V20.7A2.7,2.7,0,0,1,16.2,18h5.4a2.7,2.7,0,0,1,2.7,2.7V27H18a.9.9,0,0,0-.9.9Zm1.8-18.9a3.6,3.6,0,1,1-3.6,3.6A3.6,3.6,0,0,1,18.9,9.006Zm0,0"/>
        <path id="Trazado_601247" data-name="Trazado 601247" d="M21.6,22.5a.9.9,0,0,0,0-1.8H19.8a.9.9,0,0,0,0,1.8Zm0,0"/>
        <path id="Trazado_601248" data-name="Trazado 601248" d="M53.2,45.571,42.387,34.755a2.77,2.77,0,0,0-3.059-.511l-4.769-4.769A18.9,18.9,0,1,0,6.892,33.486.9.9,0,0,0,8.037,32.1a17.116,17.116,0,1,1,24.49-2.908c-.216.286-.435.568-.669.838-.02.025-.042.046-.063.07A17.059,17.059,0,0,1,30.1,31.788c-.028.025-.054.051-.083.076q-.405.345-.827.66A16.99,16.99,0,0,1,18.9,36c-.285,0-.569-.014-.85-.029a.9.9,0,1,0-.1,1.8c.316.017.63.032.949.032A18.789,18.789,0,0,0,29.47,34.564l5.283,5.283a.9.9,0,0,0,1.272,0l3.818-3.818a.924.924,0,0,1,1.273,0L51.932,46.846a.9.9,0,0,1,0,1.271l-3.817,3.818a.9.9,0,0,1-1.273,0l-7.089-7.089a.9.9,0,0,0-1.272,1.272l7.089,7.089a2.7,2.7,0,0,0,3.818,0L53.2,49.391a2.7,2.7,0,0,0,0-3.818ZM33.469,30.926l4.464,4.464-2.545,2.545-4.465-4.465A19.056,19.056,0,0,0,33.469,30.926Zm0,0"/>
        <path id="Trazado_601249" data-name="Trazado 601249" d="M18.9,32.4a.9.9,0,1,0,0,1.8A15.248,15.248,0,0,0,33.7,15.08a.9.9,0,0,0-1.743.45A13.446,13.446,0,0,1,18.9,32.4Zm0,0"/>
        <path id="Trazado_601250" data-name="Trazado 601250" d="M26.3,5.519A15.287,15.287,0,0,0,8.685,30.27a.9.9,0,1,0,1.2-1.339A13.488,13.488,0,0,1,25.431,7.094.9.9,0,1,0,26.3,5.519Zm0,0"/>
        <path id="Trazado_601251" data-name="Trazado 601251" d="M8.1,47.7a.9.9,0,0,0,0,1.8h5.4a.9.9,0,0,0,0-1.8Zm0,0"/>
        <path id="Trazado_601252" data-name="Trazado 601252" d="M25.2,39.6H15.3V27.9a.9.9,0,0,0-1.681-.45L6.682,39.6H5.4a2.7,2.7,0,0,0-2.7,2.7v9A2.7,2.7,0,0,0,5.4,54H25.2a2.7,2.7,0,0,0,2.7-2.7V49.5a.9.9,0,0,0-1.8,0v1.8a.9.9,0,0,1-.9.9H5.4a.9.9,0,0,1-.9-.9v-9a.9.9,0,0,1,.9-.9H7.2a.9.9,0,0,0,.781-.45L13.5,31.291V40.5a.9.9,0,0,0,.9.9H25.2a.9.9,0,0,1,.9.9v1.8a.9.9,0,0,0,1.8,0V42.3a2.7,2.7,0,0,0-2.7-2.7Zm0,0"/>
        <path id="Trazado_601253" data-name="Trazado 601253" d="M17.1,45a.9.9,0,0,0-.9-.9H9.9a.9.9,0,1,0,0,1.8h6.3A.9.9,0,0,0,17.1,45Zm0,0"/>
        <path id="Trazado_601254" data-name="Trazado 601254" d="M24.3,45a.9.9,0,0,0-.9-.9H19.8a.9.9,0,1,0,0,1.8h3.6A.9.9,0,0,0,24.3,45Zm0,0"/>
        <path id="Trazado_601255" data-name="Trazado 601255" d="M17.1,49.5h3.6a.9.9,0,0,0,0-1.8H17.1a.9.9,0,0,0,0,1.8Zm0,0"/>
        <path id="Trazado_601256" data-name="Trazado 601256" d="M39.6,7.206h8.1a.9.9,0,1,0,0-1.8H39.6a.9.9,0,1,0,0,1.8Zm0,0"/>
        <path id="Trazado_601257" data-name="Trazado 601257" d="M39.6,11.706h8.1a.9.9,0,1,0,0-1.8H39.6a.9.9,0,1,0,0,1.8Zm0,0"/>
        <path id="Trazado_601258" data-name="Trazado 601258" d="M47.7,14.4H43.2a.9.9,0,1,0,0,1.8h4.5a.9.9,0,1,0,0-1.8Zm0,0"/>
        <path id="Trazado_601259" data-name="Trazado 601259" d="M47.7,18.9H43.2a.9.9,0,1,0,0,1.8h4.5a.9.9,0,1,0,0-1.8Zm0,0"/>
        <path id="Trazado_601260" data-name="Trazado 601260" d="M41.4,26.1a.9.9,0,0,0,0,1.8h5.4a1.8,1.8,0,0,0,1.8-1.8V24.3a1.8,1.8,0,0,0-1.8-1.8H41.4a.9.9,0,0,0,0,1.8h5.4v1.8Zm0,0"/>
      </g>
    </g>
  </g>
</svg>
