<svg xmlns="http://www.w3.org/2000/svg" width="1030" height="401" viewBox="0 0 1030 401">
  <g id="Grupo_159160" data-name="Grupo 159160" transform="translate(-285 -2466)">
    <path id="Trazado_602351" data-name="Trazado 602351" d="M0,0H1030V401H0Z" transform="translate(285 2466)" fill="#fff"/>
    <path id="Trazado_602352" data-name="Trazado 602352" d="M7.487-4.059H9.164v1.253H7.487V0H5.943V-2.806H.44v-.9l5.412-8.375H7.487Zm-5.3,0h3.76V-9.986l-.183.332Zm15.946-1.1a7.023,7.023,0,0,1-.921,4.009A3.277,3.277,0,0,1,14.327.166a3.3,3.3,0,0,1-2.864-1.282A6.666,6.666,0,0,1,10.5-4.947V-7a6.867,6.867,0,0,1,.921-3.959,3.3,3.3,0,0,1,2.889-1.295A3.332,3.332,0,0,1,17.183-11a6.627,6.627,0,0,1,.946,3.856Zm-1.536-2.1a5.627,5.627,0,0,0-.548-2.843,1.886,1.886,0,0,0-1.735-.892,1.861,1.861,0,0,0-1.718.888,5.494,5.494,0,0,0-.556,2.731v2.457A5.717,5.717,0,0,0,12.6-2.021a1.882,1.882,0,0,0,1.722.934,1.856,1.856,0,0,0,1.689-.88,5.51,5.51,0,0,0,.577-2.772Zm11.082,2.1a7.023,7.023,0,0,1-.921,4.009A3.277,3.277,0,0,1,23.873.166a3.3,3.3,0,0,1-2.864-1.282,6.666,6.666,0,0,1-.963-3.831V-7a6.867,6.867,0,0,1,.921-3.959,3.3,3.3,0,0,1,2.889-1.295A3.332,3.332,0,0,1,26.729-11a6.627,6.627,0,0,1,.946,3.856Zm-1.536-2.1a5.627,5.627,0,0,0-.548-2.843,1.886,1.886,0,0,0-1.735-.892,1.861,1.861,0,0,0-1.718.888,5.494,5.494,0,0,0-.556,2.731v2.457a5.717,5.717,0,0,0,.569,2.893,1.882,1.882,0,0,0,1.722.934,1.856,1.856,0,0,0,1.689-.88,5.51,5.51,0,0,0,.577-2.772ZM29.75,2.407l-.872-.6a4.006,4.006,0,0,0,.813-2.241V-1.818h1.5v1.2a3.781,3.781,0,0,1-.411,1.677A3.926,3.926,0,0,1,29.75,2.407ZM40.558-5.155a7.023,7.023,0,0,1-.921,4.009A3.277,3.277,0,0,1,36.756.166a3.3,3.3,0,0,1-2.864-1.282,6.666,6.666,0,0,1-.963-3.831V-7a6.867,6.867,0,0,1,.921-3.959,3.3,3.3,0,0,1,2.889-1.295A3.332,3.332,0,0,1,39.611-11a6.627,6.627,0,0,1,.946,3.856Zm-1.536-2.1a5.627,5.627,0,0,0-.548-2.843,1.886,1.886,0,0,0-1.735-.892,1.861,1.861,0,0,0-1.718.888,5.494,5.494,0,0,0-.556,2.731v2.457a5.717,5.717,0,0,0,.569,2.893,1.882,1.882,0,0,0,1.722.934,1.856,1.856,0,0,0,1.689-.88,5.51,5.51,0,0,0,.577-2.772ZM50.1-5.155a7.023,7.023,0,0,1-.921,4.009A3.277,3.277,0,0,1,46.3.166a3.3,3.3,0,0,1-2.864-1.282,6.666,6.666,0,0,1-.963-3.831V-7a6.867,6.867,0,0,1,.921-3.959,3.3,3.3,0,0,1,2.889-1.295A3.332,3.332,0,0,1,49.157-11,6.627,6.627,0,0,1,50.1-7.147Zm-1.536-2.1A5.627,5.627,0,0,0,48.02-10.1a1.886,1.886,0,0,0-1.735-.892,1.861,1.861,0,0,0-1.718.888,5.494,5.494,0,0,0-.556,2.731v2.457a5.717,5.717,0,0,0,.569,2.893,1.882,1.882,0,0,0,1.722.934,1.856,1.856,0,0,0,1.689-.88,5.51,5.51,0,0,0,.577-2.772Zm11.082,2.1a7.023,7.023,0,0,1-.921,4.009A3.277,3.277,0,0,1,55.848.166a3.3,3.3,0,0,1-2.864-1.282,6.666,6.666,0,0,1-.963-3.831V-7a6.867,6.867,0,0,1,.921-3.959,3.3,3.3,0,0,1,2.889-1.295A3.332,3.332,0,0,1,58.7-11a6.627,6.627,0,0,1,.946,3.856Zm-1.536-2.1a5.627,5.627,0,0,0-.548-2.843,1.886,1.886,0,0,0-1.735-.892,1.861,1.861,0,0,0-1.718.888,5.494,5.494,0,0,0-.556,2.731v2.457a5.717,5.717,0,0,0,.569,2.893,1.882,1.882,0,0,0,1.722.934,1.856,1.856,0,0,0,1.689-.88,5.51,5.51,0,0,0,.577-2.772Z" transform="translate(452 2538)" fill="#12263f"/>
    <path id="Trazado_602353" data-name="Trazado 602353" d="M6.051,0H4.507V-10.235L1.411-9.1v-1.395l4.4-1.652h.241ZM18.129-5.155a7.023,7.023,0,0,1-.921,4.009A3.277,3.277,0,0,1,14.327.166a3.3,3.3,0,0,1-2.864-1.282A6.666,6.666,0,0,1,10.5-4.947V-7a6.867,6.867,0,0,1,.921-3.959,3.3,3.3,0,0,1,2.889-1.295A3.332,3.332,0,0,1,17.183-11a6.627,6.627,0,0,1,.946,3.856Zm-1.536-2.1a5.627,5.627,0,0,0-.548-2.843,1.886,1.886,0,0,0-1.735-.892,1.861,1.861,0,0,0-1.718.888,5.494,5.494,0,0,0-.556,2.731v2.457A5.717,5.717,0,0,0,12.6-2.021a1.882,1.882,0,0,0,1.722.934,1.856,1.856,0,0,0,1.689-.88,5.51,5.51,0,0,0,.577-2.772Zm11.082,2.1a7.023,7.023,0,0,1-.921,4.009A3.277,3.277,0,0,1,23.873.166a3.3,3.3,0,0,1-2.864-1.282,6.666,6.666,0,0,1-.963-3.831V-7a6.867,6.867,0,0,1,.921-3.959,3.3,3.3,0,0,1,2.889-1.295A3.332,3.332,0,0,1,26.729-11a6.627,6.627,0,0,1,.946,3.856Zm-1.536-2.1a5.627,5.627,0,0,0-.548-2.843,1.886,1.886,0,0,0-1.735-.892,1.861,1.861,0,0,0-1.718.888,5.494,5.494,0,0,0-.556,2.731v2.457a5.717,5.717,0,0,0,.569,2.893,1.882,1.882,0,0,0,1.722.934,1.856,1.856,0,0,0,1.689-.88,5.51,5.51,0,0,0,.577-2.772Zm3.37-2.507a2.452,2.452,0,0,1,.693-1.793,2.388,2.388,0,0,1,1.781-.706,2.374,2.374,0,0,1,1.789.71,2.537,2.537,0,0,1,.685,1.839v.589a2.421,2.421,0,0,1-.693,1.789A2.389,2.389,0,0,1,32-6.641a2.442,2.442,0,0,1-1.785-.693,2.472,2.472,0,0,1-.706-1.847Zm1.146.636a1.571,1.571,0,0,0,.365,1.069,1.232,1.232,0,0,0,.979.42,1.208,1.208,0,0,0,.95-.408,1.622,1.622,0,0,0,.361-1.115v-.607a1.61,1.61,0,0,0-.357-1.073,1.2,1.2,0,0,0-.971-.424,1.2,1.2,0,0,0-.971.424,1.661,1.661,0,0,0-.357,1.107Zm4.74,6.163a2.438,2.438,0,0,1,.693-1.789,2.4,2.4,0,0,1,1.781-.7,2.417,2.417,0,0,1,1.785.7,2.5,2.5,0,0,1,.7,1.851v.589a2.438,2.438,0,0,1-.693,1.789,2.385,2.385,0,0,1-1.772.7A2.442,2.442,0,0,1,36.1-.519a2.472,2.472,0,0,1-.706-1.847Zm1.146.644a1.583,1.583,0,0,0,.365,1.077,1.232,1.232,0,0,0,.979.42,1.2,1.2,0,0,0,.955-.412A1.65,1.65,0,0,0,39.2-2.353v-.616a1.578,1.578,0,0,0-.361-1.073,1.216,1.216,0,0,0-.967-.416,1.228,1.228,0,0,0-.959.412,1.6,1.6,0,0,0-.369,1.111ZM32.348-.913l-.872-.548,5.9-9.446.872.548Z" transform="translate(1125 2538)" fill="#12263f"/>
    <path id="Trazado_602354" data-name="Trazado 602354" d="M8.334-8.932a2.807,2.807,0,0,1-.477,1.61,3.248,3.248,0,0,1-1.291,1.1,3.464,3.464,0,0,1,1.5,1.187,2.987,2.987,0,0,1,.552,1.768,3.158,3.158,0,0,1-1.058,2.5,4.066,4.066,0,0,1-2.785.93A4.048,4.048,0,0,1,1.98-.768,3.173,3.173,0,0,1,.93-3.262,3.076,3.076,0,0,1,1.465-5.03a3.332,3.332,0,0,1,1.482-1.2,3.167,3.167,0,0,1-1.27-1.1,2.846,2.846,0,0,1-.465-1.6,3.124,3.124,0,0,1,.979-2.424,3.674,3.674,0,0,1,2.582-.9,3.678,3.678,0,0,1,2.577.9A3.117,3.117,0,0,1,8.334-8.932ZM7.081-3.3a2.228,2.228,0,0,0-.643-1.652,2.281,2.281,0,0,0-1.681-.639,2.241,2.241,0,0,0-1.664.631A2.253,2.253,0,0,0,2.465-3.3a2.145,2.145,0,0,0,.61,1.619,2.342,2.342,0,0,0,1.7.589,2.335,2.335,0,0,0,1.693-.594A2.14,2.14,0,0,0,7.081-3.3ZM4.773-10.99a1.981,1.981,0,0,0-1.465.56,2.058,2.058,0,0,0-.56,1.523A2.048,2.048,0,0,0,3.3-7.417a1.959,1.959,0,0,0,1.473.569,1.959,1.959,0,0,0,1.473-.569A2.048,2.048,0,0,0,6.8-8.907a2.049,2.049,0,0,0-.573-1.5A1.953,1.953,0,0,0,4.773-10.99ZM18.129-5.155a7.023,7.023,0,0,1-.921,4.009A3.277,3.277,0,0,1,14.327.166a3.3,3.3,0,0,1-2.864-1.282A6.666,6.666,0,0,1,10.5-4.947V-7a6.867,6.867,0,0,1,.921-3.959,3.3,3.3,0,0,1,2.889-1.295A3.332,3.332,0,0,1,17.183-11a6.627,6.627,0,0,1,.946,3.856Zm-1.536-2.1a5.627,5.627,0,0,0-.548-2.843,1.886,1.886,0,0,0-1.735-.892,1.861,1.861,0,0,0-1.718.888,5.494,5.494,0,0,0-.556,2.731v2.457A5.717,5.717,0,0,0,12.6-2.021a1.882,1.882,0,0,0,1.722.934,1.856,1.856,0,0,0,1.689-.88,5.51,5.51,0,0,0,.577-2.772Zm3.37-2.507a2.452,2.452,0,0,1,.693-1.793,2.388,2.388,0,0,1,1.781-.706,2.374,2.374,0,0,1,1.789.71,2.537,2.537,0,0,1,.685,1.839v.589a2.421,2.421,0,0,1-.693,1.789,2.389,2.389,0,0,1-1.764.693,2.442,2.442,0,0,1-1.785-.693,2.472,2.472,0,0,1-.706-1.847Zm1.146.636a1.571,1.571,0,0,0,.365,1.069,1.232,1.232,0,0,0,.979.42,1.208,1.208,0,0,0,.95-.408,1.622,1.622,0,0,0,.361-1.115v-.607a1.61,1.61,0,0,0-.357-1.073,1.2,1.2,0,0,0-.971-.424,1.2,1.2,0,0,0-.971.424,1.661,1.661,0,0,0-.357,1.107Zm4.74,6.163a2.438,2.438,0,0,1,.693-1.789,2.4,2.4,0,0,1,1.781-.7,2.417,2.417,0,0,1,1.785.7,2.5,2.5,0,0,1,.7,1.851v.589a2.438,2.438,0,0,1-.693,1.789,2.385,2.385,0,0,1-1.772.7,2.442,2.442,0,0,1-1.785-.693,2.472,2.472,0,0,1-.706-1.847Zm1.146.644a1.583,1.583,0,0,0,.365,1.077,1.232,1.232,0,0,0,.979.42,1.2,1.2,0,0,0,.955-.412,1.65,1.65,0,0,0,.357-1.119v-.616a1.578,1.578,0,0,0-.361-1.073,1.216,1.216,0,0,0-.967-.416,1.228,1.228,0,0,0-.959.412,1.6,1.6,0,0,0-.369,1.111ZM22.8-.913l-.872-.548,5.9-9.446.872.548Z" transform="translate(1125 2584)" fill="#12263f"/>
    <path id="Trazado_602355" data-name="Trazado 602355" d="M7.031-12.094v1.3H6.749A4.043,4.043,0,0,0,3.893-9.729a4.421,4.421,0,0,0-1.229,2.9,3.278,3.278,0,0,1,2.606-1.1A3.134,3.134,0,0,1,7.79-6.815a4.29,4.29,0,0,1,.942,2.872A4.277,4.277,0,0,1,7.716-.955,3.5,3.5,0,0,1,4.989.166,3.45,3.45,0,0,1,2.175-1.166,5.28,5.28,0,0,1,1.1-4.6v-.589a7.956,7.956,0,0,1,1.424-5.1,5.228,5.228,0,0,1,4.238-1.805ZM5.014-6.649a2.45,2.45,0,0,0-1.453.473A2.465,2.465,0,0,0,2.64-4.989v.564a3.965,3.965,0,0,0,.672,2.407A2.015,2.015,0,0,0,4.989-1.1,1.952,1.952,0,0,0,6.62-1.868a3.169,3.169,0,0,0,.594-2,3.17,3.17,0,0,0-.6-2.013A1.929,1.929,0,0,0,5.014-6.649ZM18.129-5.155a7.023,7.023,0,0,1-.921,4.009A3.277,3.277,0,0,1,14.327.166a3.3,3.3,0,0,1-2.864-1.282A6.666,6.666,0,0,1,10.5-4.947V-7a6.867,6.867,0,0,1,.921-3.959,3.3,3.3,0,0,1,2.889-1.295A3.332,3.332,0,0,1,17.183-11a6.627,6.627,0,0,1,.946,3.856Zm-1.536-2.1a5.627,5.627,0,0,0-.548-2.843,1.886,1.886,0,0,0-1.735-.892,1.861,1.861,0,0,0-1.718.888,5.494,5.494,0,0,0-.556,2.731v2.457A5.717,5.717,0,0,0,12.6-2.021a1.882,1.882,0,0,0,1.722.934,1.856,1.856,0,0,0,1.689-.88,5.51,5.51,0,0,0,.577-2.772Zm3.37-2.507a2.452,2.452,0,0,1,.693-1.793,2.388,2.388,0,0,1,1.781-.706,2.374,2.374,0,0,1,1.789.71,2.537,2.537,0,0,1,.685,1.839v.589a2.421,2.421,0,0,1-.693,1.789,2.389,2.389,0,0,1-1.764.693,2.442,2.442,0,0,1-1.785-.693,2.472,2.472,0,0,1-.706-1.847Zm1.146.636a1.571,1.571,0,0,0,.365,1.069,1.232,1.232,0,0,0,.979.42,1.208,1.208,0,0,0,.95-.408,1.622,1.622,0,0,0,.361-1.115v-.607a1.61,1.61,0,0,0-.357-1.073,1.2,1.2,0,0,0-.971-.424,1.2,1.2,0,0,0-.971.424,1.661,1.661,0,0,0-.357,1.107Zm4.74,6.163a2.438,2.438,0,0,1,.693-1.789,2.4,2.4,0,0,1,1.781-.7,2.417,2.417,0,0,1,1.785.7,2.5,2.5,0,0,1,.7,1.851v.589a2.438,2.438,0,0,1-.693,1.789,2.385,2.385,0,0,1-1.772.7,2.442,2.442,0,0,1-1.785-.693,2.472,2.472,0,0,1-.706-1.847Zm1.146.644a1.583,1.583,0,0,0,.365,1.077,1.232,1.232,0,0,0,.979.42,1.2,1.2,0,0,0,.955-.412,1.65,1.65,0,0,0,.357-1.119v-.616a1.578,1.578,0,0,0-.361-1.073,1.216,1.216,0,0,0-.967-.416,1.228,1.228,0,0,0-.959.412,1.6,1.6,0,0,0-.369,1.111ZM22.8-.913l-.872-.548,5.9-9.446.872.548Z" transform="translate(1125 2630)" fill="#12263f"/>
    <path id="Trazado_602356" data-name="Trazado 602356" d="M7.487-4.059H9.164v1.253H7.487V0H5.943V-2.806H.44v-.9l5.412-8.375H7.487Zm-5.3,0h3.76V-9.986l-.183.332Zm15.946-1.1a7.023,7.023,0,0,1-.921,4.009A3.277,3.277,0,0,1,14.327.166a3.3,3.3,0,0,1-2.864-1.282A6.666,6.666,0,0,1,10.5-4.947V-7a6.867,6.867,0,0,1,.921-3.959,3.3,3.3,0,0,1,2.889-1.295A3.332,3.332,0,0,1,17.183-11a6.627,6.627,0,0,1,.946,3.856Zm-1.536-2.1a5.627,5.627,0,0,0-.548-2.843,1.886,1.886,0,0,0-1.735-.892,1.861,1.861,0,0,0-1.718.888,5.494,5.494,0,0,0-.556,2.731v2.457A5.717,5.717,0,0,0,12.6-2.021a1.882,1.882,0,0,0,1.722.934,1.856,1.856,0,0,0,1.689-.88,5.51,5.51,0,0,0,.577-2.772Zm3.37-2.507a2.452,2.452,0,0,1,.693-1.793,2.388,2.388,0,0,1,1.781-.706,2.374,2.374,0,0,1,1.789.71,2.537,2.537,0,0,1,.685,1.839v.589a2.421,2.421,0,0,1-.693,1.789,2.389,2.389,0,0,1-1.764.693,2.442,2.442,0,0,1-1.785-.693,2.472,2.472,0,0,1-.706-1.847Zm1.146.636a1.571,1.571,0,0,0,.365,1.069,1.232,1.232,0,0,0,.979.42,1.208,1.208,0,0,0,.95-.408,1.622,1.622,0,0,0,.361-1.115v-.607a1.61,1.61,0,0,0-.357-1.073,1.2,1.2,0,0,0-.971-.424,1.2,1.2,0,0,0-.971.424,1.661,1.661,0,0,0-.357,1.107Zm4.74,6.163a2.438,2.438,0,0,1,.693-1.789,2.4,2.4,0,0,1,1.781-.7,2.417,2.417,0,0,1,1.785.7,2.5,2.5,0,0,1,.7,1.851v.589a2.438,2.438,0,0,1-.693,1.789,2.385,2.385,0,0,1-1.772.7,2.442,2.442,0,0,1-1.785-.693,2.472,2.472,0,0,1-.706-1.847Zm1.146.644a1.583,1.583,0,0,0,.365,1.077,1.232,1.232,0,0,0,.979.42,1.2,1.2,0,0,0,.955-.412,1.65,1.65,0,0,0,.357-1.119v-.616a1.578,1.578,0,0,0-.361-1.073,1.216,1.216,0,0,0-.967-.416,1.228,1.228,0,0,0-.959.412,1.6,1.6,0,0,0-.369,1.111ZM22.8-.913l-.872-.548,5.9-9.446.872.548Z" transform="translate(1125 2675)" fill="#12263f"/>
    <path id="Trazado_602357" data-name="Trazado 602357" d="M8.923,0H1V-1.1L5.188-5.752A9.939,9.939,0,0,0,6.47-7.467a2.861,2.861,0,0,0,.353-1.365,2.169,2.169,0,0,0-.573-1.552,2,2,0,0,0-1.527-.606,2.372,2.372,0,0,0-1.781.652,2.489,2.489,0,0,0-.635,1.814H.772a3.565,3.565,0,0,1,1.075-2.7,3.985,3.985,0,0,1,2.876-1.029,3.829,3.829,0,0,1,2.665.884,3.015,3.015,0,0,1,.979,2.353q0,1.785-2.274,4.25L2.855-1.253H8.923Zm9.206-5.155a7.023,7.023,0,0,1-.921,4.009A3.277,3.277,0,0,1,14.327.166a3.3,3.3,0,0,1-2.864-1.282A6.666,6.666,0,0,1,10.5-4.947V-7a6.867,6.867,0,0,1,.921-3.959,3.3,3.3,0,0,1,2.889-1.295A3.332,3.332,0,0,1,17.183-11a6.627,6.627,0,0,1,.946,3.856Zm-1.536-2.1a5.627,5.627,0,0,0-.548-2.843,1.886,1.886,0,0,0-1.735-.892,1.861,1.861,0,0,0-1.718.888,5.494,5.494,0,0,0-.556,2.731v2.457A5.717,5.717,0,0,0,12.6-2.021a1.882,1.882,0,0,0,1.722.934,1.856,1.856,0,0,0,1.689-.88,5.51,5.51,0,0,0,.577-2.772Zm3.37-2.507a2.452,2.452,0,0,1,.693-1.793,2.388,2.388,0,0,1,1.781-.706,2.374,2.374,0,0,1,1.789.71,2.537,2.537,0,0,1,.685,1.839v.589a2.421,2.421,0,0,1-.693,1.789,2.389,2.389,0,0,1-1.764.693,2.442,2.442,0,0,1-1.785-.693,2.472,2.472,0,0,1-.706-1.847Zm1.146.636a1.571,1.571,0,0,0,.365,1.069,1.232,1.232,0,0,0,.979.42,1.208,1.208,0,0,0,.95-.408,1.622,1.622,0,0,0,.361-1.115v-.607a1.61,1.61,0,0,0-.357-1.073,1.2,1.2,0,0,0-.971-.424,1.2,1.2,0,0,0-.971.424,1.661,1.661,0,0,0-.357,1.107Zm4.74,6.163a2.438,2.438,0,0,1,.693-1.789,2.4,2.4,0,0,1,1.781-.7,2.417,2.417,0,0,1,1.785.7,2.5,2.5,0,0,1,.7,1.851v.589a2.438,2.438,0,0,1-.693,1.789,2.385,2.385,0,0,1-1.772.7,2.442,2.442,0,0,1-1.785-.693,2.472,2.472,0,0,1-.706-1.847Zm1.146.644a1.583,1.583,0,0,0,.365,1.077,1.232,1.232,0,0,0,.979.42,1.2,1.2,0,0,0,.955-.412,1.65,1.65,0,0,0,.357-1.119v-.616a1.578,1.578,0,0,0-.361-1.073,1.216,1.216,0,0,0-.967-.416,1.228,1.228,0,0,0-.959.412,1.6,1.6,0,0,0-.369,1.111ZM22.8-.913l-.872-.548,5.9-9.446.872.548Z" transform="translate(1125 2721)" fill="#12263f"/>
    <path id="Trazado_602358" data-name="Trazado 602358" d="M-25.853-4.026a4.277,4.277,0,0,1-1.44,3.071A5.058,5.058,0,0,1-30.717.166,4.548,4.548,0,0,1-34.374-1.4a6.416,6.416,0,0,1-1.332-4.3v-.739A7.245,7.245,0,0,1-35.092-9.5a4.6,4.6,0,0,1,1.756-2.038,4.918,4.918,0,0,1,2.652-.71,4.927,4.927,0,0,1,3.37,1.121,4.6,4.6,0,0,1,1.478,3.146h-2.49a2.524,2.524,0,0,0-.652-1.7,2.413,2.413,0,0,0-1.706-.527,2.116,2.116,0,0,0-1.864.892,5,5,0,0,0-.635,2.768v.913a5.352,5.352,0,0,0,.594,2.864,2.077,2.077,0,0,0,1.872.9,2.458,2.458,0,0,0,1.722-.527,2.381,2.381,0,0,0,.652-1.631Zm1.1-.548a5.327,5.327,0,0,1,.515-2.382,3.768,3.768,0,0,1,1.482-1.619,4.323,4.323,0,0,1,2.245-.573A4.09,4.09,0,0,1-17.54-8.035a4.464,4.464,0,0,1,1.282,3.021l.017.614a4.694,4.694,0,0,1-1.154,3.316A4.011,4.011,0,0,1-20.49.166a4.031,4.031,0,0,1-3.1-1.245,4.777,4.777,0,0,1-1.158-3.387Zm2.4.17a3.357,3.357,0,0,0,.481,1.958,1.588,1.588,0,0,0,1.378.678,1.592,1.592,0,0,0,1.361-.669,3.674,3.674,0,0,0,.49-2.141,3.324,3.324,0,0,0-.49-1.945,1.592,1.592,0,0,0-1.378-.69,1.566,1.566,0,0,0-1.361.686A3.735,3.735,0,0,0-22.35-4.4Zm9.795-4.578.075,1.038A3.136,3.136,0,0,1-9.9-9.147a2.606,2.606,0,0,1,2.125.838A3.912,3.912,0,0,1-7.06-5.8V0h-2.4V-5.744a1.556,1.556,0,0,0-.332-1.108,1.486,1.486,0,0,0-1.1-.344,1.65,1.65,0,0,0-1.519.863V0h-2.4V-8.981Zm12.177,6.5a.773.773,0,0,0-.436-.693,4.95,4.95,0,0,0-1.4-.452q-3.2-.672-3.2-2.723a2.468,2.468,0,0,1,.992-2,4,4,0,0,1,2.594-.8A4.307,4.307,0,0,1,.9-8.342,2.538,2.538,0,0,1,1.93-6.25h-2.4A1.161,1.161,0,0,0-.8-7.1a1.405,1.405,0,0,0-1.038-.336,1.436,1.436,0,0,0-.938.274.865.865,0,0,0-.332.7.739.739,0,0,0,.378.643A3.885,3.885,0,0,0-1.457-5.4,10.407,10.407,0,0,1,.054-5a2.482,2.482,0,0,1,1.9,2.416A2.343,2.343,0,0,1,.9-.594a4.548,4.548,0,0,1-2.723.76,4.75,4.75,0,0,1-2-.4A3.363,3.363,0,0,1-5.2-1.341a2.565,2.565,0,0,1-.5-1.515h2.274a1.252,1.252,0,0,0,.473.979,1.877,1.877,0,0,0,1.179.34A1.737,1.737,0,0,0-.73-1.8.814.814,0,0,0-.378-2.482ZM8.878-.913A3.008,3.008,0,0,1,6.421.166a2.837,2.837,0,0,1-2.2-.83A3.543,3.543,0,0,1,3.441-3.1V-8.981h2.4v5.809q0,1.4,1.278,1.4a1.732,1.732,0,0,0,1.677-.848V-8.981H11.2V0H8.944Zm6.383-8.068.075,1a3.156,3.156,0,0,1,2.582-1.17A2.4,2.4,0,0,1,20.3-7.778,3.084,3.084,0,0,1,23-9.147a2.679,2.679,0,0,1,2.175.851,3.911,3.911,0,0,1,.714,2.561V0H23.479V-5.728a1.71,1.71,0,0,0-.3-1.116A1.324,1.324,0,0,0,22.126-7.2a1.5,1.5,0,0,0-1.494,1.029L20.64,0h-2.4V-5.719a1.689,1.689,0,0,0-.307-1.129A1.337,1.337,0,0,0,16.888-7.2a1.555,1.555,0,0,0-1.478.847V0h-2.4V-8.981ZM27.355-4.574a5.327,5.327,0,0,1,.515-2.382,3.768,3.768,0,0,1,1.482-1.619A4.323,4.323,0,0,1,31.6-9.147a4.09,4.09,0,0,1,2.968,1.112,4.464,4.464,0,0,1,1.282,3.021l.017.614A4.694,4.694,0,0,1,34.71-1.083a4.011,4.011,0,0,1-3.1,1.249,4.031,4.031,0,0,1-3.1-1.245,4.777,4.777,0,0,1-1.158-3.387Zm2.4.17a3.357,3.357,0,0,0,.481,1.958,1.588,1.588,0,0,0,1.378.678,1.592,1.592,0,0,0,1.361-.669,3.674,3.674,0,0,0,.49-2.141,3.324,3.324,0,0,0-.49-1.945,1.592,1.592,0,0,0-1.378-.69,1.566,1.566,0,0,0-1.361.686A3.735,3.735,0,0,0,29.754-4.4ZM-44.152,19.086a12.739,12.739,0,0,1,.506-3.619,9.551,9.551,0,0,1,1.494-3.042,5.579,5.579,0,0,1,2.142-1.839l.465,1.295a5.778,5.778,0,0,0-1.893,2.772,12.837,12.837,0,0,0-.681,4.383v.257a13.082,13.082,0,0,0,.672,4.4,5.89,5.89,0,0,0,1.9,2.814l-.465,1.27a5.581,5.581,0,0,1-2.1-1.789,9.391,9.391,0,0,1-1.49-2.959,12.663,12.663,0,0,1-.548-3.5Zm9.8.066-1.295,1.395V24h-2.49V11.914h2.49v5.479l1.1-1.5,3.08-3.976h3.063L-32.7,17.285-28.281,24h-2.963Zm16.419,1.361,1.627-8.6h2.482L-16.5,24h-2.507l-1.967-8.085L-22.943,24H-25.45l-2.681-12.086h2.482l1.635,8.583,1.992-8.583h2.108ZM-10.293,16a2.994,2.994,0,0,1,2.4-1.146q2.922,0,2.963,3.4V24h-2.4V18.314a1.669,1.669,0,0,0-.332-1.141,1.423,1.423,0,0,0-1.1-.369,1.633,1.633,0,0,0-1.527.813V24h-2.4V11.25h2.4Zm7.927,9.04H-4.15L.3,11.914H2.083ZM9.712,15.019l.075,1a3.156,3.156,0,0,1,2.582-1.17,2.4,2.4,0,0,1,2.382,1.37,3.084,3.084,0,0,1,2.7-1.37,2.679,2.679,0,0,1,2.175.851,3.911,3.911,0,0,1,.714,2.561V24H17.93V18.272a1.71,1.71,0,0,0-.3-1.116,1.324,1.324,0,0,0-1.054-.353,1.5,1.5,0,0,0-1.494,1.029L15.091,24h-2.4V18.281a1.689,1.689,0,0,0-.307-1.129,1.337,1.337,0,0,0-1.046-.349,1.555,1.555,0,0,0-1.478.847V24h-2.4V15.019Zm16.6,9.147A4.409,4.409,0,0,1,23.1,22.954a4.308,4.308,0,0,1-1.241-3.229v-.232a5.426,5.426,0,0,1,.523-2.42,3.838,3.838,0,0,1,1.482-1.644,4.159,4.159,0,0,1,2.187-.577,3.727,3.727,0,0,1,2.9,1.162,4.722,4.722,0,0,1,1.058,3.3v.979H24.288a2.229,2.229,0,0,0,.7,1.411,2.12,2.12,0,0,0,1.482.531,2.589,2.589,0,0,0,2.167-1l1.179,1.32a3.6,3.6,0,0,1-1.461,1.191A4.793,4.793,0,0,1,26.313,24.166Zm-.274-7.379a1.5,1.5,0,0,0-1.158.484,2.5,2.5,0,0,0-.569,1.384H27.65v-.192a1.786,1.786,0,0,0-.432-1.238A1.547,1.547,0,0,0,26.04,16.787Zm10.193,4.731a.773.773,0,0,0-.436-.693,4.95,4.95,0,0,0-1.4-.452q-3.2-.672-3.2-2.723a2.468,2.468,0,0,1,.992-2,4,4,0,0,1,2.594-.8,4.307,4.307,0,0,1,2.735.805,2.538,2.538,0,0,1,1.025,2.092h-2.4a1.161,1.161,0,0,0-.332-.851,1.405,1.405,0,0,0-1.038-.336,1.436,1.436,0,0,0-.938.274.865.865,0,0,0-.332.7.739.739,0,0,0,.378.643,3.885,3.885,0,0,0,1.274.423,10.407,10.407,0,0,1,1.511.4,2.482,2.482,0,0,1,1.9,2.416,2.343,2.343,0,0,1-1.054,1.988,4.548,4.548,0,0,1-2.723.76,4.75,4.75,0,0,1-2-.4,3.363,3.363,0,0,1-1.374-1.1,2.565,2.565,0,0,1-.5-1.515h2.274a1.252,1.252,0,0,0,.473.979,1.877,1.877,0,0,0,1.179.34A1.737,1.737,0,0,0,35.88,22.2.814.814,0,0,0,36.233,21.518Zm8.01-2.241a12.088,12.088,0,0,1-.54,3.611,9.8,9.8,0,0,1-1.552,3.063,5.592,5.592,0,0,1-2.167,1.826l-.465-1.27a5.837,5.837,0,0,0,1.859-2.739,12.685,12.685,0,0,0,.706-4.258v-.44a12.972,12.972,0,0,0-.677-4.375,6.084,6.084,0,0,0-1.888-2.839l.465-1.27a5.594,5.594,0,0,1,2.129,1.776,9.675,9.675,0,0,1,1.552,3,12,12,0,0,1,.577,3.544Z" transform="translate(373 2624)" fill="#12263f"/>
    <path id="Trazado_602359" data-name="Trazado 602359" d="M-44.023-9.762a2.389,2.389,0,0,1,.722-1.805,2.619,2.619,0,0,1,1.893-.693,2.66,2.66,0,0,1,1.909.685,2.435,2.435,0,0,1,.722,1.855v.6a2.359,2.359,0,0,1-.722,1.8,2.647,2.647,0,0,1-1.893.681A2.664,2.664,0,0,1-43.3-7.325a2.417,2.417,0,0,1-.726-1.847Zm1.594.639a1.118,1.118,0,0,0,.286.8.986.986,0,0,0,.751.3.94.94,0,0,0,.739-.307,1.189,1.189,0,0,0,.274-.822v-.614a1.164,1.164,0,0,0-.274-.805.96.96,0,0,0-.755-.307.963.963,0,0,0-.739.3,1.188,1.188,0,0,0-.282.843Zm4.184,6.159a2.359,2.359,0,0,1,.73-1.805,2.656,2.656,0,0,1,1.893-.685,2.683,2.683,0,0,1,1.905.677,2.422,2.422,0,0,1,.726,1.864v.6a2.377,2.377,0,0,1-.714,1.8,2.631,2.631,0,0,1-1.9.685,2.662,2.662,0,0,1-1.917-.689,2.407,2.407,0,0,1-.722-1.826Zm1.594.647a1.11,1.11,0,0,0,.3.78.974.974,0,0,0,.747.324q1.013,0,1.013-1.121v-.631a1.128,1.128,0,0,0-.282-.8.973.973,0,0,0-.747-.3.973.973,0,0,0-.747.3,1.164,1.164,0,0,0-.282.826ZM-40.919-.9l-1.17-.631,5.9-9.446,1.17.631Zm23.458-3.121A4.277,4.277,0,0,1-18.9-.955,5.058,5.058,0,0,1-22.325.166,4.548,4.548,0,0,1-25.981-1.4a6.416,6.416,0,0,1-1.332-4.3v-.739A7.245,7.245,0,0,1-26.7-9.5a4.6,4.6,0,0,1,1.756-2.038,4.918,4.918,0,0,1,2.652-.71,4.927,4.927,0,0,1,3.37,1.121,4.6,4.6,0,0,1,1.478,3.146h-2.49a2.524,2.524,0,0,0-.652-1.7,2.413,2.413,0,0,0-1.706-.527,2.116,2.116,0,0,0-1.864.892,5,5,0,0,0-.635,2.768v.913A5.352,5.352,0,0,0-24.2-2.772a2.077,2.077,0,0,0,1.872.9A2.458,2.458,0,0,0-20.6-2.395a2.381,2.381,0,0,0,.652-1.631Zm1.1-.548a5.327,5.327,0,0,1,.515-2.382A3.768,3.768,0,0,1-14.36-8.575a4.323,4.323,0,0,1,2.245-.573A4.09,4.09,0,0,1-9.147-8.035,4.464,4.464,0,0,1-7.865-5.014l.017.614A4.694,4.694,0,0,1-9-1.083,4.011,4.011,0,0,1-12.1.166a4.031,4.031,0,0,1-3.1-1.245,4.777,4.777,0,0,1-1.158-3.387Zm2.4.17a3.357,3.357,0,0,0,.481,1.958,1.588,1.588,0,0,0,1.378.678,1.592,1.592,0,0,0,1.361-.669,3.674,3.674,0,0,0,.49-2.141,3.324,3.324,0,0,0-.49-1.945,1.592,1.592,0,0,0-1.378-.69,1.566,1.566,0,0,0-1.361.686A3.735,3.735,0,0,0-13.958-4.4Zm9.795-4.578.075,1.038a3.136,3.136,0,0,1,2.582-1.2,2.606,2.606,0,0,1,2.125.838A3.912,3.912,0,0,1,1.332-5.8V0h-2.4V-5.744A1.556,1.556,0,0,0-1.4-6.852,1.486,1.486,0,0,0-2.5-7.2a1.65,1.65,0,0,0-1.519.863V0h-2.4V-8.981Zm12.177,6.5a.773.773,0,0,0-.436-.693,4.95,4.95,0,0,0-1.4-.452q-3.2-.672-3.2-2.723a2.468,2.468,0,0,1,.992-2,4,4,0,0,1,2.594-.8A4.307,4.307,0,0,1,9.3-8.342,2.538,2.538,0,0,1,10.322-6.25h-2.4A1.161,1.161,0,0,0,7.591-7.1a1.405,1.405,0,0,0-1.038-.336,1.436,1.436,0,0,0-.938.274.865.865,0,0,0-.332.7.739.739,0,0,0,.378.643A3.885,3.885,0,0,0,6.935-5.4,10.407,10.407,0,0,1,8.446-5a2.482,2.482,0,0,1,1.9,2.416A2.343,2.343,0,0,1,9.293-.594,4.548,4.548,0,0,1,6.57.166a4.75,4.75,0,0,1-2-.4,3.363,3.363,0,0,1-1.374-1.1,2.565,2.565,0,0,1-.5-1.515H4.968a1.252,1.252,0,0,0,.473.979,1.877,1.877,0,0,0,1.179.34A1.737,1.737,0,0,0,7.662-1.8.814.814,0,0,0,8.014-2.482ZM17.27-.913A3.008,3.008,0,0,1,14.813.166a2.837,2.837,0,0,1-2.2-.83A3.543,3.543,0,0,1,11.833-3.1V-8.981h2.4v5.809q0,1.4,1.278,1.4a1.732,1.732,0,0,0,1.677-.848V-8.981h2.407V0H17.336Zm6.383-8.068.075,1a3.156,3.156,0,0,1,2.582-1.17,2.4,2.4,0,0,1,2.382,1.37,3.084,3.084,0,0,1,2.7-1.37,2.679,2.679,0,0,1,2.175.851,3.911,3.911,0,0,1,.714,2.561V0H31.871V-5.728a1.71,1.71,0,0,0-.3-1.116A1.324,1.324,0,0,0,30.518-7.2a1.5,1.5,0,0,0-1.494,1.029L29.032,0h-2.4V-5.719a1.689,1.689,0,0,0-.307-1.129A1.337,1.337,0,0,0,25.28-7.2,1.555,1.555,0,0,0,23.8-6.35V0H21.4V-8.981ZM35.747-4.574a5.327,5.327,0,0,1,.515-2.382,3.767,3.767,0,0,1,1.482-1.619,4.323,4.323,0,0,1,2.245-.573,4.09,4.09,0,0,1,2.968,1.112,4.464,4.464,0,0,1,1.282,3.021l.017.614A4.694,4.694,0,0,1,43.1-1.083a4.011,4.011,0,0,1-3.1,1.249,4.031,4.031,0,0,1-3.1-1.245,4.777,4.777,0,0,1-1.158-3.387Zm2.4.17a3.357,3.357,0,0,0,.481,1.958,1.588,1.588,0,0,0,1.378.678,1.592,1.592,0,0,0,1.361-.669,3.674,3.674,0,0,0,.49-2.141,3.324,3.324,0,0,0-.49-1.945,1.592,1.592,0,0,0-1.378-.69,1.566,1.566,0,0,0-1.361.686A3.735,3.735,0,0,0,38.146-4.4ZM-35.527,21.51h-4.366l-.83,2.49h-2.648l4.5-12.086h2.308L-32.041,24h-2.648Zm-3.694-2.017H-36.2l-1.519-4.524Zm11.887,2.739a1.573,1.573,0,0,0,1.079-.365,1.28,1.28,0,0,0,.432-.971h2.25a3.077,3.077,0,0,1-.5,1.673,3.286,3.286,0,0,1-1.341,1.179,4.2,4.2,0,0,1-1.88.419,3.9,3.9,0,0,1-3.038-1.224,4.845,4.845,0,0,1-1.112-3.383V19.4a4.79,4.79,0,0,1,1.1-3.312,3.854,3.854,0,0,1,3.03-1.237,3.778,3.778,0,0,1,2.7.959,3.4,3.4,0,0,1,1.033,2.552h-2.25a1.648,1.648,0,0,0-.432-1.139,1.439,1.439,0,0,0-1.1-.438,1.445,1.445,0,0,0-1.266.611,3.541,3.541,0,0,0-.427,1.983v.249a3.586,3.586,0,0,0,.423,2A1.463,1.463,0,0,0-27.334,22.232Zm10.509.855a3.008,3.008,0,0,1-2.457,1.079,2.837,2.837,0,0,1-2.2-.83,3.543,3.543,0,0,1-.776-2.432V15.019h2.4v5.809q0,1.4,1.278,1.4a1.732,1.732,0,0,0,1.677-.848V15.019H-14.5V24h-2.258Zm6.383-8.068.075,1a3.156,3.156,0,0,1,2.582-1.17A2.4,2.4,0,0,1-5.4,16.222a3.084,3.084,0,0,1,2.7-1.37A2.679,2.679,0,0,1-.531,15.7a3.911,3.911,0,0,1,.714,2.561V24H-2.225V18.272a1.71,1.71,0,0,0-.3-1.116A1.324,1.324,0,0,0-3.578,16.8a1.5,1.5,0,0,0-1.494,1.029L-5.063,24h-2.4V18.281a1.689,1.689,0,0,0-.307-1.129A1.337,1.337,0,0,0-8.815,16.8a1.555,1.555,0,0,0-1.478.847V24h-2.4V15.019ZM7.4,23.087a3.008,3.008,0,0,1-2.457,1.079,2.837,2.837,0,0,1-2.2-.83A3.543,3.543,0,0,1,1.967,20.9V15.019h2.4v5.809q0,1.4,1.278,1.4a1.732,1.732,0,0,0,1.677-.848V15.019H9.729V24H7.471ZM14.07,24H11.663V11.25H14.07Zm7.18,0a2.664,2.664,0,0,1-.241-.805,2.9,2.9,0,0,1-2.266.971,3.189,3.189,0,0,1-2.187-.764,2.456,2.456,0,0,1-.867-1.926,2.538,2.538,0,0,1,1.058-2.191,5.222,5.222,0,0,1,3.059-.772h1.1V18a1.48,1.48,0,0,0-.32-1,1.257,1.257,0,0,0-1.009-.374,1.429,1.429,0,0,0-.95.291.987.987,0,0,0-.344.8h-2.4a2.41,2.41,0,0,1,.481-1.444A3.182,3.182,0,0,1,17.73,15.23a4.961,4.961,0,0,1,1.976-.378,3.92,3.92,0,0,1,2.635.834,2.918,2.918,0,0,1,.975,2.345v3.893a4.294,4.294,0,0,0,.357,1.934V24Zm-1.984-1.668a2.066,2.066,0,0,0,.979-.237,1.554,1.554,0,0,0,.664-.635V19.916h-.9q-1.8,0-1.917,1.245l-.008.141a.96.96,0,0,0,.315.739A1.225,1.225,0,0,0,19.266,22.332Zm5.52-2.889a5.413,5.413,0,0,1,.942-3.345,3.057,3.057,0,0,1,2.577-1.245,2.751,2.751,0,0,1,2.167.979V11.25h2.407V24H30.713l-.116-.955a2.823,2.823,0,0,1-2.308,1.121,3.049,3.049,0,0,1-2.544-1.249A5.587,5.587,0,0,1,24.786,19.443Zm2.4.179a3.546,3.546,0,0,0,.44,1.937,1.433,1.433,0,0,0,1.278.673,1.605,1.605,0,0,0,1.569-.939v-3.55A1.582,1.582,0,0,0,28.92,16.8Q27.185,16.8,27.185,19.621Zm7.18-.2a5.327,5.327,0,0,1,.515-2.382,3.767,3.767,0,0,1,1.482-1.619,4.323,4.323,0,0,1,2.245-.573,4.09,4.09,0,0,1,2.968,1.112,4.464,4.464,0,0,1,1.282,3.021l.017.614a4.694,4.694,0,0,1-1.154,3.316,4.472,4.472,0,0,1-6.2,0,4.777,4.777,0,0,1-1.158-3.387Zm2.4.17a3.357,3.357,0,0,0,.481,1.958,1.73,1.73,0,0,0,2.739.008,3.674,3.674,0,0,0,.49-2.141,3.324,3.324,0,0,0-.49-1.945,1.592,1.592,0,0,0-1.378-.69,1.566,1.566,0,0,0-1.361.686A3.735,3.735,0,0,0,36.764,19.6Z" transform="translate(1227 2624)" fill="#12263f"/>
    <path id="Trazado_602360" data-name="Trazado 602360" d="M3.237-6.79H4.391A2.536,2.536,0,0,0,6.1-7.363a1.914,1.914,0,0,0,.623-1.5A1.875,1.875,0,0,0,4.607-10.99a2.2,2.2,0,0,0-1.59.569,1.99,1.99,0,0,0-.594,1.507H.888A3.083,3.083,0,0,1,1.938-11.3a3.825,3.825,0,0,1,2.669-.95,3.78,3.78,0,0,1,2.681.9,3.269,3.269,0,0,1,.971,2.515A2.653,2.653,0,0,1,7.749-7.3a3.082,3.082,0,0,1-1.39,1.1A2.97,2.97,0,0,1,7.9-5.155,2.9,2.9,0,0,1,8.442-3.37,3.3,3.3,0,0,1,7.379-.789,3.979,3.979,0,0,1,4.615.166,4.084,4.084,0,0,1,1.847-.755,3.056,3.056,0,0,1,.78-3.187H2.324A1.975,1.975,0,0,0,2.947-1.66a2.368,2.368,0,0,0,1.668.573,2.324,2.324,0,0,0,1.7-.581,2.239,2.239,0,0,0,.589-1.668,2.032,2.032,0,0,0-.647-1.619,2.821,2.821,0,0,0-1.868-.581H3.237Zm8.019.73.614-6.026h6.192v1.419H13.173l-.365,3.3a3.9,3.9,0,0,1,2.017-.523A3.334,3.334,0,0,1,17.448-6.8a4.278,4.278,0,0,1,.971,2.951A4.129,4.129,0,0,1,17.411-.909,3.676,3.676,0,0,1,14.593.166a3.82,3.82,0,0,1-2.615-.888,3.545,3.545,0,0,1-1.154-2.457h1.453a2.439,2.439,0,0,0,.739,1.565,2.3,2.3,0,0,0,1.577.527,2.072,2.072,0,0,0,1.681-.73,3.054,3.054,0,0,0,.61-2.017,2.8,2.8,0,0,0-.66-1.947,2.245,2.245,0,0,0-1.756-.735,2.532,2.532,0,0,0-1.577.44l-.407.332Zm16.419.9a7.023,7.023,0,0,1-.921,4.009A3.277,3.277,0,0,1,23.873.166a3.3,3.3,0,0,1-2.864-1.282,6.666,6.666,0,0,1-.963-3.831V-7a6.867,6.867,0,0,1,.921-3.959,3.3,3.3,0,0,1,2.889-1.295A3.332,3.332,0,0,1,26.729-11a6.627,6.627,0,0,1,.946,3.856Zm-1.536-2.1a5.627,5.627,0,0,0-.548-2.843,1.886,1.886,0,0,0-1.735-.892,1.861,1.861,0,0,0-1.718.888,5.494,5.494,0,0,0-.556,2.731v2.457a5.717,5.717,0,0,0,.569,2.893,1.882,1.882,0,0,0,1.722.934,1.856,1.856,0,0,0,1.689-.88,5.51,5.51,0,0,0,.577-2.772ZM29.75,2.407l-.872-.6a4.006,4.006,0,0,0,.813-2.241V-1.818h1.5v1.2a3.781,3.781,0,0,1-.411,1.677A3.926,3.926,0,0,1,29.75,2.407ZM40.558-5.155a7.023,7.023,0,0,1-.921,4.009A3.277,3.277,0,0,1,36.756.166a3.3,3.3,0,0,1-2.864-1.282,6.666,6.666,0,0,1-.963-3.831V-7a6.867,6.867,0,0,1,.921-3.959,3.3,3.3,0,0,1,2.889-1.295A3.332,3.332,0,0,1,39.611-11a6.627,6.627,0,0,1,.946,3.856Zm-1.536-2.1a5.627,5.627,0,0,0-.548-2.843,1.886,1.886,0,0,0-1.735-.892,1.861,1.861,0,0,0-1.718.888,5.494,5.494,0,0,0-.556,2.731v2.457a5.717,5.717,0,0,0,.569,2.893,1.882,1.882,0,0,0,1.722.934,1.856,1.856,0,0,0,1.689-.88,5.51,5.51,0,0,0,.577-2.772ZM50.1-5.155a7.023,7.023,0,0,1-.921,4.009A3.277,3.277,0,0,1,46.3.166a3.3,3.3,0,0,1-2.864-1.282,6.666,6.666,0,0,1-.963-3.831V-7a6.867,6.867,0,0,1,.921-3.959,3.3,3.3,0,0,1,2.889-1.295A3.332,3.332,0,0,1,49.157-11,6.627,6.627,0,0,1,50.1-7.147Zm-1.536-2.1A5.627,5.627,0,0,0,48.02-10.1a1.886,1.886,0,0,0-1.735-.892,1.861,1.861,0,0,0-1.718.888,5.494,5.494,0,0,0-.556,2.731v2.457a5.717,5.717,0,0,0,.569,2.893,1.882,1.882,0,0,0,1.722.934,1.856,1.856,0,0,0,1.689-.88,5.51,5.51,0,0,0,.577-2.772Zm11.082,2.1a7.023,7.023,0,0,1-.921,4.009A3.277,3.277,0,0,1,55.848.166a3.3,3.3,0,0,1-2.864-1.282,6.666,6.666,0,0,1-.963-3.831V-7a6.867,6.867,0,0,1,.921-3.959,3.3,3.3,0,0,1,2.889-1.295A3.332,3.332,0,0,1,58.7-11a6.627,6.627,0,0,1,.946,3.856Zm-1.536-2.1a5.627,5.627,0,0,0-.548-2.843,1.886,1.886,0,0,0-1.735-.892,1.861,1.861,0,0,0-1.718.888,5.494,5.494,0,0,0-.556,2.731v2.457a5.717,5.717,0,0,0,.569,2.893,1.882,1.882,0,0,0,1.722.934,1.856,1.856,0,0,0,1.689-.88,5.51,5.51,0,0,0,.577-2.772Z" transform="translate(452 2567)" fill="#12263f"/>
    <path id="Trazado_602361" data-name="Trazado 602361" d="M3.237-6.79H4.391A2.536,2.536,0,0,0,6.1-7.363a1.914,1.914,0,0,0,.623-1.5A1.875,1.875,0,0,0,4.607-10.99a2.2,2.2,0,0,0-1.59.569,1.99,1.99,0,0,0-.594,1.507H.888A3.083,3.083,0,0,1,1.938-11.3a3.825,3.825,0,0,1,2.669-.95,3.78,3.78,0,0,1,2.681.9,3.269,3.269,0,0,1,.971,2.515A2.653,2.653,0,0,1,7.749-7.3a3.082,3.082,0,0,1-1.39,1.1A2.97,2.97,0,0,1,7.9-5.155,2.9,2.9,0,0,1,8.442-3.37,3.3,3.3,0,0,1,7.379-.789,3.979,3.979,0,0,1,4.615.166,4.084,4.084,0,0,1,1.847-.755,3.056,3.056,0,0,1,.78-3.187H2.324A1.975,1.975,0,0,0,2.947-1.66a2.368,2.368,0,0,0,1.668.573,2.324,2.324,0,0,0,1.7-.581,2.239,2.239,0,0,0,.589-1.668,2.032,2.032,0,0,0-.647-1.619,2.821,2.821,0,0,0-1.868-.581H3.237ZM18.129-5.155a7.023,7.023,0,0,1-.921,4.009A3.277,3.277,0,0,1,14.327.166a3.3,3.3,0,0,1-2.864-1.282A6.666,6.666,0,0,1,10.5-4.947V-7a6.867,6.867,0,0,1,.921-3.959,3.3,3.3,0,0,1,2.889-1.295A3.332,3.332,0,0,1,17.183-11a6.627,6.627,0,0,1,.946,3.856Zm-1.536-2.1a5.627,5.627,0,0,0-.548-2.843,1.886,1.886,0,0,0-1.735-.892,1.861,1.861,0,0,0-1.718.888,5.494,5.494,0,0,0-.556,2.731v2.457A5.717,5.717,0,0,0,12.6-2.021a1.882,1.882,0,0,0,1.722.934,1.856,1.856,0,0,0,1.689-.88,5.51,5.51,0,0,0,.577-2.772Zm11.082,2.1a7.023,7.023,0,0,1-.921,4.009A3.277,3.277,0,0,1,23.873.166a3.3,3.3,0,0,1-2.864-1.282,6.666,6.666,0,0,1-.963-3.831V-7a6.867,6.867,0,0,1,.921-3.959,3.3,3.3,0,0,1,2.889-1.295A3.332,3.332,0,0,1,26.729-11a6.627,6.627,0,0,1,.946,3.856Zm-1.536-2.1a5.627,5.627,0,0,0-.548-2.843,1.886,1.886,0,0,0-1.735-.892,1.861,1.861,0,0,0-1.718.888,5.494,5.494,0,0,0-.556,2.731v2.457a5.717,5.717,0,0,0,.569,2.893,1.882,1.882,0,0,0,1.722.934,1.856,1.856,0,0,0,1.689-.88,5.51,5.51,0,0,0,.577-2.772ZM29.75,2.407l-.872-.6a4.006,4.006,0,0,0,.813-2.241V-1.818h1.5v1.2a3.781,3.781,0,0,1-.411,1.677A3.926,3.926,0,0,1,29.75,2.407ZM40.558-5.155a7.023,7.023,0,0,1-.921,4.009A3.277,3.277,0,0,1,36.756.166a3.3,3.3,0,0,1-2.864-1.282,6.666,6.666,0,0,1-.963-3.831V-7a6.867,6.867,0,0,1,.921-3.959,3.3,3.3,0,0,1,2.889-1.295A3.332,3.332,0,0,1,39.611-11a6.627,6.627,0,0,1,.946,3.856Zm-1.536-2.1a5.627,5.627,0,0,0-.548-2.843,1.886,1.886,0,0,0-1.735-.892,1.861,1.861,0,0,0-1.718.888,5.494,5.494,0,0,0-.556,2.731v2.457a5.717,5.717,0,0,0,.569,2.893,1.882,1.882,0,0,0,1.722.934,1.856,1.856,0,0,0,1.689-.88,5.51,5.51,0,0,0,.577-2.772ZM50.1-5.155a7.023,7.023,0,0,1-.921,4.009A3.277,3.277,0,0,1,46.3.166a3.3,3.3,0,0,1-2.864-1.282,6.666,6.666,0,0,1-.963-3.831V-7a6.867,6.867,0,0,1,.921-3.959,3.3,3.3,0,0,1,2.889-1.295A3.332,3.332,0,0,1,49.157-11,6.627,6.627,0,0,1,50.1-7.147Zm-1.536-2.1A5.627,5.627,0,0,0,48.02-10.1a1.886,1.886,0,0,0-1.735-.892,1.861,1.861,0,0,0-1.718.888,5.494,5.494,0,0,0-.556,2.731v2.457a5.717,5.717,0,0,0,.569,2.893,1.882,1.882,0,0,0,1.722.934,1.856,1.856,0,0,0,1.689-.88,5.51,5.51,0,0,0,.577-2.772Zm11.082,2.1a7.023,7.023,0,0,1-.921,4.009A3.277,3.277,0,0,1,55.848.166a3.3,3.3,0,0,1-2.864-1.282,6.666,6.666,0,0,1-.963-3.831V-7a6.867,6.867,0,0,1,.921-3.959,3.3,3.3,0,0,1,2.889-1.295A3.332,3.332,0,0,1,58.7-11a6.627,6.627,0,0,1,.946,3.856Zm-1.536-2.1a5.627,5.627,0,0,0-.548-2.843,1.886,1.886,0,0,0-1.735-.892,1.861,1.861,0,0,0-1.718.888,5.494,5.494,0,0,0-.556,2.731v2.457a5.717,5.717,0,0,0,.569,2.893,1.882,1.882,0,0,0,1.722.934,1.856,1.856,0,0,0,1.689-.88,5.51,5.51,0,0,0,.577-2.772Z" transform="translate(452 2596)" fill="#12263f"/>
    <path id="Trazado_602362" data-name="Trazado 602362" d="M8.923,0H1V-1.1L5.188-5.752A9.939,9.939,0,0,0,6.47-7.467a2.861,2.861,0,0,0,.353-1.365,2.169,2.169,0,0,0-.573-1.552,2,2,0,0,0-1.527-.606,2.372,2.372,0,0,0-1.781.652,2.489,2.489,0,0,0-.635,1.814H.772a3.565,3.565,0,0,1,1.075-2.7,3.985,3.985,0,0,1,2.876-1.029,3.829,3.829,0,0,1,2.665.884,3.015,3.015,0,0,1,.979,2.353q0,1.785-2.274,4.25L2.855-1.253H8.923Zm2.333-6.06.614-6.026h6.192v1.419H13.173l-.365,3.3a3.9,3.9,0,0,1,2.017-.523A3.334,3.334,0,0,1,17.448-6.8a4.278,4.278,0,0,1,.971,2.951A4.129,4.129,0,0,1,17.411-.909,3.676,3.676,0,0,1,14.593.166a3.82,3.82,0,0,1-2.615-.888,3.545,3.545,0,0,1-1.154-2.457h1.453a2.439,2.439,0,0,0,.739,1.565,2.3,2.3,0,0,0,1.577.527,2.072,2.072,0,0,0,1.681-.73,3.054,3.054,0,0,0,.61-2.017,2.8,2.8,0,0,0-.66-1.947,2.245,2.245,0,0,0-1.756-.735,2.532,2.532,0,0,0-1.577.44l-.407.332Zm16.419.9a7.023,7.023,0,0,1-.921,4.009A3.277,3.277,0,0,1,23.873.166a3.3,3.3,0,0,1-2.864-1.282,6.666,6.666,0,0,1-.963-3.831V-7a6.867,6.867,0,0,1,.921-3.959,3.3,3.3,0,0,1,2.889-1.295A3.332,3.332,0,0,1,26.729-11a6.627,6.627,0,0,1,.946,3.856Zm-1.536-2.1a5.627,5.627,0,0,0-.548-2.843,1.886,1.886,0,0,0-1.735-.892,1.861,1.861,0,0,0-1.718.888,5.494,5.494,0,0,0-.556,2.731v2.457a5.717,5.717,0,0,0,.569,2.893,1.882,1.882,0,0,0,1.722.934,1.856,1.856,0,0,0,1.689-.88,5.51,5.51,0,0,0,.577-2.772ZM29.75,2.407l-.872-.6a4.006,4.006,0,0,0,.813-2.241V-1.818h1.5v1.2a3.781,3.781,0,0,1-.411,1.677A3.926,3.926,0,0,1,29.75,2.407ZM40.558-5.155a7.023,7.023,0,0,1-.921,4.009A3.277,3.277,0,0,1,36.756.166a3.3,3.3,0,0,1-2.864-1.282,6.666,6.666,0,0,1-.963-3.831V-7a6.867,6.867,0,0,1,.921-3.959,3.3,3.3,0,0,1,2.889-1.295A3.332,3.332,0,0,1,39.611-11a6.627,6.627,0,0,1,.946,3.856Zm-1.536-2.1a5.627,5.627,0,0,0-.548-2.843,1.886,1.886,0,0,0-1.735-.892,1.861,1.861,0,0,0-1.718.888,5.494,5.494,0,0,0-.556,2.731v2.457a5.717,5.717,0,0,0,.569,2.893,1.882,1.882,0,0,0,1.722.934,1.856,1.856,0,0,0,1.689-.88,5.51,5.51,0,0,0,.577-2.772ZM50.1-5.155a7.023,7.023,0,0,1-.921,4.009A3.277,3.277,0,0,1,46.3.166a3.3,3.3,0,0,1-2.864-1.282,6.666,6.666,0,0,1-.963-3.831V-7a6.867,6.867,0,0,1,.921-3.959,3.3,3.3,0,0,1,2.889-1.295A3.332,3.332,0,0,1,49.157-11,6.627,6.627,0,0,1,50.1-7.147Zm-1.536-2.1A5.627,5.627,0,0,0,48.02-10.1a1.886,1.886,0,0,0-1.735-.892,1.861,1.861,0,0,0-1.718.888,5.494,5.494,0,0,0-.556,2.731v2.457a5.717,5.717,0,0,0,.569,2.893,1.882,1.882,0,0,0,1.722.934,1.856,1.856,0,0,0,1.689-.88,5.51,5.51,0,0,0,.577-2.772Zm11.082,2.1a7.023,7.023,0,0,1-.921,4.009A3.277,3.277,0,0,1,55.848.166a3.3,3.3,0,0,1-2.864-1.282,6.666,6.666,0,0,1-.963-3.831V-7a6.867,6.867,0,0,1,.921-3.959,3.3,3.3,0,0,1,2.889-1.295A3.332,3.332,0,0,1,58.7-11a6.627,6.627,0,0,1,.946,3.856Zm-1.536-2.1a5.627,5.627,0,0,0-.548-2.843,1.886,1.886,0,0,0-1.735-.892,1.861,1.861,0,0,0-1.718.888,5.494,5.494,0,0,0-.556,2.731v2.457a5.717,5.717,0,0,0,.569,2.893,1.882,1.882,0,0,0,1.722.934,1.856,1.856,0,0,0,1.689-.88,5.51,5.51,0,0,0,.577-2.772Z" transform="translate(452 2625)" fill="#12263f"/>
    <path id="Trazado_602363" data-name="Trazado 602363" d="M8.923,0H1V-1.1L5.188-5.752A9.939,9.939,0,0,0,6.47-7.467a2.861,2.861,0,0,0,.353-1.365,2.169,2.169,0,0,0-.573-1.552,2,2,0,0,0-1.527-.606,2.372,2.372,0,0,0-1.781.652,2.489,2.489,0,0,0-.635,1.814H.772a3.565,3.565,0,0,1,1.075-2.7,3.985,3.985,0,0,1,2.876-1.029,3.829,3.829,0,0,1,2.665.884,3.015,3.015,0,0,1,.979,2.353q0,1.785-2.274,4.25L2.855-1.253H8.923Zm9.206-5.155a7.023,7.023,0,0,1-.921,4.009A3.277,3.277,0,0,1,14.327.166a3.3,3.3,0,0,1-2.864-1.282A6.666,6.666,0,0,1,10.5-4.947V-7a6.867,6.867,0,0,1,.921-3.959,3.3,3.3,0,0,1,2.889-1.295A3.332,3.332,0,0,1,17.183-11a6.627,6.627,0,0,1,.946,3.856Zm-1.536-2.1a5.627,5.627,0,0,0-.548-2.843,1.886,1.886,0,0,0-1.735-.892,1.861,1.861,0,0,0-1.718.888,5.494,5.494,0,0,0-.556,2.731v2.457A5.717,5.717,0,0,0,12.6-2.021a1.882,1.882,0,0,0,1.722.934,1.856,1.856,0,0,0,1.689-.88,5.51,5.51,0,0,0,.577-2.772Zm11.082,2.1a7.023,7.023,0,0,1-.921,4.009A3.277,3.277,0,0,1,23.873.166a3.3,3.3,0,0,1-2.864-1.282,6.666,6.666,0,0,1-.963-3.831V-7a6.867,6.867,0,0,1,.921-3.959,3.3,3.3,0,0,1,2.889-1.295A3.332,3.332,0,0,1,26.729-11a6.627,6.627,0,0,1,.946,3.856Zm-1.536-2.1a5.627,5.627,0,0,0-.548-2.843,1.886,1.886,0,0,0-1.735-.892,1.861,1.861,0,0,0-1.718.888,5.494,5.494,0,0,0-.556,2.731v2.457a5.717,5.717,0,0,0,.569,2.893,1.882,1.882,0,0,0,1.722.934,1.856,1.856,0,0,0,1.689-.88,5.51,5.51,0,0,0,.577-2.772ZM29.75,2.407l-.872-.6a4.006,4.006,0,0,0,.813-2.241V-1.818h1.5v1.2a3.781,3.781,0,0,1-.411,1.677A3.926,3.926,0,0,1,29.75,2.407ZM40.558-5.155a7.023,7.023,0,0,1-.921,4.009A3.277,3.277,0,0,1,36.756.166a3.3,3.3,0,0,1-2.864-1.282,6.666,6.666,0,0,1-.963-3.831V-7a6.867,6.867,0,0,1,.921-3.959,3.3,3.3,0,0,1,2.889-1.295A3.332,3.332,0,0,1,39.611-11a6.627,6.627,0,0,1,.946,3.856Zm-1.536-2.1a5.627,5.627,0,0,0-.548-2.843,1.886,1.886,0,0,0-1.735-.892,1.861,1.861,0,0,0-1.718.888,5.494,5.494,0,0,0-.556,2.731v2.457a5.717,5.717,0,0,0,.569,2.893,1.882,1.882,0,0,0,1.722.934,1.856,1.856,0,0,0,1.689-.88,5.51,5.51,0,0,0,.577-2.772ZM50.1-5.155a7.023,7.023,0,0,1-.921,4.009A3.277,3.277,0,0,1,46.3.166a3.3,3.3,0,0,1-2.864-1.282,6.666,6.666,0,0,1-.963-3.831V-7a6.867,6.867,0,0,1,.921-3.959,3.3,3.3,0,0,1,2.889-1.295A3.332,3.332,0,0,1,49.157-11,6.627,6.627,0,0,1,50.1-7.147Zm-1.536-2.1A5.627,5.627,0,0,0,48.02-10.1a1.886,1.886,0,0,0-1.735-.892,1.861,1.861,0,0,0-1.718.888,5.494,5.494,0,0,0-.556,2.731v2.457a5.717,5.717,0,0,0,.569,2.893,1.882,1.882,0,0,0,1.722.934,1.856,1.856,0,0,0,1.689-.88,5.51,5.51,0,0,0,.577-2.772Zm11.082,2.1a7.023,7.023,0,0,1-.921,4.009A3.277,3.277,0,0,1,55.848.166a3.3,3.3,0,0,1-2.864-1.282,6.666,6.666,0,0,1-.963-3.831V-7a6.867,6.867,0,0,1,.921-3.959,3.3,3.3,0,0,1,2.889-1.295A3.332,3.332,0,0,1,58.7-11a6.627,6.627,0,0,1,.946,3.856Zm-1.536-2.1a5.627,5.627,0,0,0-.548-2.843,1.886,1.886,0,0,0-1.735-.892,1.861,1.861,0,0,0-1.718.888,5.494,5.494,0,0,0-.556,2.731v2.457a5.717,5.717,0,0,0,.569,2.893,1.882,1.882,0,0,0,1.722.934,1.856,1.856,0,0,0,1.689-.88,5.51,5.51,0,0,0,.577-2.772Z" transform="translate(452 2651)" fill="#12263f"/>
    <path id="Trazado_602364" data-name="Trazado 602364" d="M6.051,0H4.507V-10.235L1.411-9.1v-1.395l4.4-1.652h.241Zm5.2-6.06.614-6.026h6.192v1.419H13.173l-.365,3.3a3.9,3.9,0,0,1,2.017-.523A3.334,3.334,0,0,1,17.448-6.8a4.278,4.278,0,0,1,.971,2.951A4.129,4.129,0,0,1,17.411-.909,3.676,3.676,0,0,1,14.593.166a3.82,3.82,0,0,1-2.615-.888,3.545,3.545,0,0,1-1.154-2.457h1.453a2.439,2.439,0,0,0,.739,1.565,2.3,2.3,0,0,0,1.577.527,2.072,2.072,0,0,0,1.681-.73,3.054,3.054,0,0,0,.61-2.017,2.8,2.8,0,0,0-.66-1.947,2.245,2.245,0,0,0-1.756-.735,2.532,2.532,0,0,0-1.577.44l-.407.332Zm16.419.9a7.023,7.023,0,0,1-.921,4.009A3.277,3.277,0,0,1,23.873.166a3.3,3.3,0,0,1-2.864-1.282,6.666,6.666,0,0,1-.963-3.831V-7a6.867,6.867,0,0,1,.921-3.959,3.3,3.3,0,0,1,2.889-1.295A3.332,3.332,0,0,1,26.729-11a6.627,6.627,0,0,1,.946,3.856Zm-1.536-2.1a5.627,5.627,0,0,0-.548-2.843,1.886,1.886,0,0,0-1.735-.892,1.861,1.861,0,0,0-1.718.888,5.494,5.494,0,0,0-.556,2.731v2.457a5.717,5.717,0,0,0,.569,2.893,1.882,1.882,0,0,0,1.722.934,1.856,1.856,0,0,0,1.689-.88,5.51,5.51,0,0,0,.577-2.772ZM29.75,2.407l-.872-.6a4.006,4.006,0,0,0,.813-2.241V-1.818h1.5v1.2a3.781,3.781,0,0,1-.411,1.677A3.926,3.926,0,0,1,29.75,2.407ZM40.558-5.155a7.023,7.023,0,0,1-.921,4.009A3.277,3.277,0,0,1,36.756.166a3.3,3.3,0,0,1-2.864-1.282,6.666,6.666,0,0,1-.963-3.831V-7a6.867,6.867,0,0,1,.921-3.959,3.3,3.3,0,0,1,2.889-1.295A3.332,3.332,0,0,1,39.611-11a6.627,6.627,0,0,1,.946,3.856Zm-1.536-2.1a5.627,5.627,0,0,0-.548-2.843,1.886,1.886,0,0,0-1.735-.892,1.861,1.861,0,0,0-1.718.888,5.494,5.494,0,0,0-.556,2.731v2.457a5.717,5.717,0,0,0,.569,2.893,1.882,1.882,0,0,0,1.722.934,1.856,1.856,0,0,0,1.689-.88,5.51,5.51,0,0,0,.577-2.772ZM50.1-5.155a7.023,7.023,0,0,1-.921,4.009A3.277,3.277,0,0,1,46.3.166a3.3,3.3,0,0,1-2.864-1.282,6.666,6.666,0,0,1-.963-3.831V-7a6.867,6.867,0,0,1,.921-3.959,3.3,3.3,0,0,1,2.889-1.295A3.332,3.332,0,0,1,49.157-11,6.627,6.627,0,0,1,50.1-7.147Zm-1.536-2.1A5.627,5.627,0,0,0,48.02-10.1a1.886,1.886,0,0,0-1.735-.892,1.861,1.861,0,0,0-1.718.888,5.494,5.494,0,0,0-.556,2.731v2.457a5.717,5.717,0,0,0,.569,2.893,1.882,1.882,0,0,0,1.722.934,1.856,1.856,0,0,0,1.689-.88,5.51,5.51,0,0,0,.577-2.772Zm11.082,2.1a7.023,7.023,0,0,1-.921,4.009A3.277,3.277,0,0,1,55.848.166a3.3,3.3,0,0,1-2.864-1.282,6.666,6.666,0,0,1-.963-3.831V-7a6.867,6.867,0,0,1,.921-3.959,3.3,3.3,0,0,1,2.889-1.295A3.332,3.332,0,0,1,58.7-11a6.627,6.627,0,0,1,.946,3.856Zm-1.536-2.1a5.627,5.627,0,0,0-.548-2.843,1.886,1.886,0,0,0-1.735-.892,1.861,1.861,0,0,0-1.718.888,5.494,5.494,0,0,0-.556,2.731v2.457a5.717,5.717,0,0,0,.569,2.893,1.882,1.882,0,0,0,1.722.934,1.856,1.856,0,0,0,1.689-.88,5.51,5.51,0,0,0,.577-2.772Z" transform="translate(452 2680)" fill="#12263f"/>
    <path id="Trazado_602365" data-name="Trazado 602365" d="M6.051,0H4.507V-10.235L1.411-9.1v-1.395l4.4-1.652h.241ZM18.129-5.155a7.023,7.023,0,0,1-.921,4.009A3.277,3.277,0,0,1,14.327.166a3.3,3.3,0,0,1-2.864-1.282A6.666,6.666,0,0,1,10.5-4.947V-7a6.867,6.867,0,0,1,.921-3.959,3.3,3.3,0,0,1,2.889-1.295A3.332,3.332,0,0,1,17.183-11a6.627,6.627,0,0,1,.946,3.856Zm-1.536-2.1a5.627,5.627,0,0,0-.548-2.843,1.886,1.886,0,0,0-1.735-.892,1.861,1.861,0,0,0-1.718.888,5.494,5.494,0,0,0-.556,2.731v2.457A5.717,5.717,0,0,0,12.6-2.021a1.882,1.882,0,0,0,1.722.934,1.856,1.856,0,0,0,1.689-.88,5.51,5.51,0,0,0,.577-2.772Zm11.082,2.1a7.023,7.023,0,0,1-.921,4.009A3.277,3.277,0,0,1,23.873.166a3.3,3.3,0,0,1-2.864-1.282,6.666,6.666,0,0,1-.963-3.831V-7a6.867,6.867,0,0,1,.921-3.959,3.3,3.3,0,0,1,2.889-1.295A3.332,3.332,0,0,1,26.729-11a6.627,6.627,0,0,1,.946,3.856Zm-1.536-2.1a5.627,5.627,0,0,0-.548-2.843,1.886,1.886,0,0,0-1.735-.892,1.861,1.861,0,0,0-1.718.888,5.494,5.494,0,0,0-.556,2.731v2.457a5.717,5.717,0,0,0,.569,2.893,1.882,1.882,0,0,0,1.722.934,1.856,1.856,0,0,0,1.689-.88,5.51,5.51,0,0,0,.577-2.772ZM29.75,2.407l-.872-.6a4.006,4.006,0,0,0,.813-2.241V-1.818h1.5v1.2a3.781,3.781,0,0,1-.411,1.677A3.926,3.926,0,0,1,29.75,2.407ZM40.558-5.155a7.023,7.023,0,0,1-.921,4.009A3.277,3.277,0,0,1,36.756.166a3.3,3.3,0,0,1-2.864-1.282,6.666,6.666,0,0,1-.963-3.831V-7a6.867,6.867,0,0,1,.921-3.959,3.3,3.3,0,0,1,2.889-1.295A3.332,3.332,0,0,1,39.611-11a6.627,6.627,0,0,1,.946,3.856Zm-1.536-2.1a5.627,5.627,0,0,0-.548-2.843,1.886,1.886,0,0,0-1.735-.892,1.861,1.861,0,0,0-1.718.888,5.494,5.494,0,0,0-.556,2.731v2.457a5.717,5.717,0,0,0,.569,2.893,1.882,1.882,0,0,0,1.722.934,1.856,1.856,0,0,0,1.689-.88,5.51,5.51,0,0,0,.577-2.772ZM50.1-5.155a7.023,7.023,0,0,1-.921,4.009A3.277,3.277,0,0,1,46.3.166a3.3,3.3,0,0,1-2.864-1.282,6.666,6.666,0,0,1-.963-3.831V-7a6.867,6.867,0,0,1,.921-3.959,3.3,3.3,0,0,1,2.889-1.295A3.332,3.332,0,0,1,49.157-11,6.627,6.627,0,0,1,50.1-7.147Zm-1.536-2.1A5.627,5.627,0,0,0,48.02-10.1a1.886,1.886,0,0,0-1.735-.892,1.861,1.861,0,0,0-1.718.888,5.494,5.494,0,0,0-.556,2.731v2.457a5.717,5.717,0,0,0,.569,2.893,1.882,1.882,0,0,0,1.722.934,1.856,1.856,0,0,0,1.689-.88,5.51,5.51,0,0,0,.577-2.772Zm11.082,2.1a7.023,7.023,0,0,1-.921,4.009A3.277,3.277,0,0,1,55.848.166a3.3,3.3,0,0,1-2.864-1.282,6.666,6.666,0,0,1-.963-3.831V-7a6.867,6.867,0,0,1,.921-3.959,3.3,3.3,0,0,1,2.889-1.295A3.332,3.332,0,0,1,58.7-11a6.627,6.627,0,0,1,.946,3.856Zm-1.536-2.1a5.627,5.627,0,0,0-.548-2.843,1.886,1.886,0,0,0-1.735-.892,1.861,1.861,0,0,0-1.718.888,5.494,5.494,0,0,0-.556,2.731v2.457a5.717,5.717,0,0,0,.569,2.893,1.882,1.882,0,0,0,1.722.934,1.856,1.856,0,0,0,1.689-.88,5.51,5.51,0,0,0,.577-2.772Z" transform="translate(452 2709)" fill="#12263f"/>
    <path id="Trazado_602366" data-name="Trazado 602366" d="M1.71-6.06l.614-6.026H8.517v1.419H3.627l-.365,3.3a3.9,3.9,0,0,1,2.017-.523A3.334,3.334,0,0,1,7.9-6.8a4.278,4.278,0,0,1,.971,2.951A4.129,4.129,0,0,1,7.865-.909,3.676,3.676,0,0,1,5.047.166,3.82,3.82,0,0,1,2.432-.722,3.545,3.545,0,0,1,1.278-3.179H2.731A2.439,2.439,0,0,0,3.47-1.615a2.3,2.3,0,0,0,1.577.527,2.072,2.072,0,0,0,1.681-.73,3.054,3.054,0,0,0,.61-2.017,2.8,2.8,0,0,0-.66-1.947,2.245,2.245,0,0,0-1.756-.735,2.532,2.532,0,0,0-1.577.44l-.407.332Zm16.419.9a7.023,7.023,0,0,1-.921,4.009A3.277,3.277,0,0,1,14.327.166a3.3,3.3,0,0,1-2.864-1.282A6.666,6.666,0,0,1,10.5-4.947V-7a6.867,6.867,0,0,1,.921-3.959,3.3,3.3,0,0,1,2.889-1.295A3.332,3.332,0,0,1,17.183-11a6.627,6.627,0,0,1,.946,3.856Zm-1.536-2.1a5.627,5.627,0,0,0-.548-2.843,1.886,1.886,0,0,0-1.735-.892,1.861,1.861,0,0,0-1.718.888,5.494,5.494,0,0,0-.556,2.731v2.457A5.717,5.717,0,0,0,12.6-2.021a1.882,1.882,0,0,0,1.722.934,1.856,1.856,0,0,0,1.689-.88,5.51,5.51,0,0,0,.577-2.772ZM20.2,2.407l-.872-.6a4.006,4.006,0,0,0,.813-2.241V-1.818h1.5v1.2a3.781,3.781,0,0,1-.411,1.677A3.926,3.926,0,0,1,20.2,2.407ZM31.012-5.155a7.023,7.023,0,0,1-.921,4.009A3.277,3.277,0,0,1,27.21.166a3.3,3.3,0,0,1-2.864-1.282,6.666,6.666,0,0,1-.963-3.831V-7a6.867,6.867,0,0,1,.921-3.959,3.3,3.3,0,0,1,2.889-1.295A3.332,3.332,0,0,1,30.065-11a6.627,6.627,0,0,1,.946,3.856Zm-1.536-2.1a5.627,5.627,0,0,0-.548-2.843,1.886,1.886,0,0,0-1.735-.892,1.861,1.861,0,0,0-1.718.888,5.494,5.494,0,0,0-.556,2.731v2.457a5.717,5.717,0,0,0,.569,2.893,1.882,1.882,0,0,0,1.722.934,1.856,1.856,0,0,0,1.689-.88,5.51,5.51,0,0,0,.577-2.772Zm11.082,2.1a7.023,7.023,0,0,1-.921,4.009A3.277,3.277,0,0,1,36.756.166a3.3,3.3,0,0,1-2.864-1.282,6.666,6.666,0,0,1-.963-3.831V-7a6.867,6.867,0,0,1,.921-3.959,3.3,3.3,0,0,1,2.889-1.295A3.332,3.332,0,0,1,39.611-11a6.627,6.627,0,0,1,.946,3.856Zm-1.536-2.1a5.627,5.627,0,0,0-.548-2.843,1.886,1.886,0,0,0-1.735-.892,1.861,1.861,0,0,0-1.718.888,5.494,5.494,0,0,0-.556,2.731v2.457a5.717,5.717,0,0,0,.569,2.893,1.882,1.882,0,0,0,1.722.934,1.856,1.856,0,0,0,1.689-.88,5.51,5.51,0,0,0,.577-2.772ZM50.1-5.155a7.023,7.023,0,0,1-.921,4.009A3.277,3.277,0,0,1,46.3.166a3.3,3.3,0,0,1-2.864-1.282,6.666,6.666,0,0,1-.963-3.831V-7a6.867,6.867,0,0,1,.921-3.959,3.3,3.3,0,0,1,2.889-1.295A3.332,3.332,0,0,1,49.157-11,6.627,6.627,0,0,1,50.1-7.147Zm-1.536-2.1A5.627,5.627,0,0,0,48.02-10.1a1.886,1.886,0,0,0-1.735-.892,1.861,1.861,0,0,0-1.718.888,5.494,5.494,0,0,0-.556,2.731v2.457a5.717,5.717,0,0,0,.569,2.893,1.882,1.882,0,0,0,1.722.934,1.856,1.856,0,0,0,1.689-.88,5.51,5.51,0,0,0,.577-2.772Z" transform="translate(462 2738)" fill="#12263f"/>
    <path id="Trazado_602367" data-name="Trazado 602367" d="M8.234-5.586H3V-1.3H9.081V0H1.4V-12.086H9v1.3H3V-6.89H8.234Zm5.6-.116L15.83-8.981h1.793L14.684-4.541,17.714,0H15.938L13.862-3.362,11.787,0H10l3.03-4.541L10.094-8.981H11.87Zm7.5-5.454v2.175H23.01v1.187H21.333v5.577a1.247,1.247,0,0,0,.224.81.943.943,0,0,0,.764.27,3.718,3.718,0,0,0,.73-.1V0a4.478,4.478,0,0,1-1.179.165A1.912,1.912,0,0,1,20.32-.457,2.675,2.675,0,0,1,19.8-2.225v-5.57H18.162V-8.981H19.8v-2.175ZM29.144-7.6a4.6,4.6,0,0,0-.755-.058,2.024,2.024,0,0,0-2.05,1.287V0H24.8V-8.981H26.3l.025,1.038a2.391,2.391,0,0,1,2.142-1.2,1.569,1.569,0,0,1,.681.116ZM36.1-.888A3.262,3.262,0,0,1,33.469.166a2.792,2.792,0,0,1-2.187-.834,3.611,3.611,0,0,1-.76-2.469V-8.981h1.536v5.8q0,2.042,1.66,2.042a2.3,2.3,0,0,0,2.341-1.312V-8.981h1.536V0H36.133Zm9.056-1.494a1.13,1.13,0,0,0-.469-.967,4.514,4.514,0,0,0-1.635-.594,7.731,7.731,0,0,1-1.851-.6,2.633,2.633,0,0,1-1.013-.83,1.986,1.986,0,0,1-.328-1.146,2.33,2.33,0,0,1,.934-1.868,3.647,3.647,0,0,1,2.386-.764,3.753,3.753,0,0,1,2.478.789,2.5,2.5,0,0,1,.95,2.017H45.065a1.386,1.386,0,0,0-.535-1.087,2.006,2.006,0,0,0-1.349-.457,2.1,2.1,0,0,0-1.312.365,1.15,1.15,0,0,0-.473.955.932.932,0,0,0,.44.838,5.413,5.413,0,0,0,1.59.54,8.283,8.283,0,0,1,1.864.614,2.718,2.718,0,0,1,1.058.859,2.112,2.112,0,0,1,.344,1.224,2.3,2.3,0,0,1-.963,1.93,4.039,4.039,0,0,1-2.5.726,4.523,4.523,0,0,1-1.909-.382,3.105,3.105,0,0,1-1.3-1.067,2.571,2.571,0,0,1-.469-1.482h1.536a1.59,1.59,0,0,0,.618,1.224,2.4,2.4,0,0,0,1.523.452,2.476,2.476,0,0,0,1.4-.353A1.084,1.084,0,0,0,45.156-2.382ZM50.361,0H48.825V-8.981h1.536ZM48.7-11.364a.917.917,0,0,1,.228-.631.857.857,0,0,1,.677-.257.87.87,0,0,1,.681.257.907.907,0,0,1,.232.631.877.877,0,0,1-.232.623.886.886,0,0,1-.681.249.872.872,0,0,1-.677-.249A.886.886,0,0,1,48.7-11.364Zm3.71,6.79a5.3,5.3,0,0,1,.519-2.374,3.87,3.87,0,0,1,1.444-1.627,3.932,3.932,0,0,1,2.113-.573,3.788,3.788,0,0,1,2.968,1.27A4.886,4.886,0,0,1,60.587-4.5v.108a5.351,5.351,0,0,1-.5,2.353A3.813,3.813,0,0,1,58.649-.415,3.977,3.977,0,0,1,56.5.166,3.778,3.778,0,0,1,53.544-1.1a4.861,4.861,0,0,1-1.133-3.362Zm1.544.183a3.842,3.842,0,0,0,.693,2.4,2.218,2.218,0,0,0,1.855.9A2.2,2.2,0,0,0,58.363-2a4.2,4.2,0,0,0,.689-2.569,3.836,3.836,0,0,0-.7-2.395,2.23,2.23,0,0,0-1.864-.917,2.205,2.205,0,0,0-1.834.9A4.17,4.17,0,0,0,53.955-4.391Zm3.229-8.359h1.859l-2.225,2.44-1.237,0Zm6.782,3.769.05,1.129a3.273,3.273,0,0,1,2.689-1.295q2.847,0,2.872,3.212V0H68.042V-5.943A2.068,2.068,0,0,0,67.6-7.379a1.78,1.78,0,0,0-1.357-.465,2.216,2.216,0,0,0-1.312.4,2.706,2.706,0,0,0-.88,1.046V0H62.513V-8.981Z" transform="translate(529 2806)" fill="#12263f"/>
    <path id="Trazado_602368" data-name="Trazado 602368" d="M10.567-4.026A4.277,4.277,0,0,1,9.127-.955,5.058,5.058,0,0,1,5.7.166,4.548,4.548,0,0,1,2.046-1.4a6.416,6.416,0,0,1-1.332-4.3v-.739A7.245,7.245,0,0,1,1.328-9.5a4.6,4.6,0,0,1,1.756-2.038,4.918,4.918,0,0,1,2.652-.71,4.927,4.927,0,0,1,3.37,1.121,4.6,4.6,0,0,1,1.478,3.146H8.093a2.524,2.524,0,0,0-.652-1.7,2.413,2.413,0,0,0-1.706-.527,2.116,2.116,0,0,0-1.864.892,5,5,0,0,0-.635,2.768v.913a5.352,5.352,0,0,0,.594,2.864,2.077,2.077,0,0,0,1.872.9,2.458,2.458,0,0,0,1.722-.527,2.381,2.381,0,0,0,.652-1.631Zm1.1-.548a5.327,5.327,0,0,1,.515-2.382,3.768,3.768,0,0,1,1.482-1.619,4.323,4.323,0,0,1,2.245-.573A4.09,4.09,0,0,1,18.88-8.035a4.464,4.464,0,0,1,1.282,3.021l.017.614a4.694,4.694,0,0,1-1.154,3.316,4.011,4.011,0,0,1-3.1,1.249,4.031,4.031,0,0,1-3.1-1.245,4.777,4.777,0,0,1-1.158-3.387Zm2.4.17a3.357,3.357,0,0,0,.481,1.958,1.588,1.588,0,0,0,1.378.678,1.592,1.592,0,0,0,1.361-.669,3.674,3.674,0,0,0,.49-2.141,3.324,3.324,0,0,0-.49-1.945,1.592,1.592,0,0,0-1.378-.69,1.566,1.566,0,0,0-1.361.686A3.735,3.735,0,0,0,14.07-4.4Zm9.795-4.578.075,1.038a3.136,3.136,0,0,1,2.582-1.2,2.606,2.606,0,0,1,2.125.838A3.912,3.912,0,0,1,29.36-5.8V0h-2.4V-5.744a1.556,1.556,0,0,0-.332-1.108,1.486,1.486,0,0,0-1.1-.344,1.65,1.65,0,0,0-1.519.863V0h-2.4V-8.981Zm12.177,6.5a.773.773,0,0,0-.436-.693,4.95,4.95,0,0,0-1.4-.452Q31-4.3,31-6.35a2.468,2.468,0,0,1,.992-2,4,4,0,0,1,2.594-.8,4.307,4.307,0,0,1,2.735.805A2.538,2.538,0,0,1,38.35-6.25h-2.4a1.161,1.161,0,0,0-.332-.851,1.405,1.405,0,0,0-1.038-.336,1.436,1.436,0,0,0-.938.274.865.865,0,0,0-.332.7.739.739,0,0,0,.378.643,3.885,3.885,0,0,0,1.274.423,10.407,10.407,0,0,1,1.511.4,2.482,2.482,0,0,1,1.9,2.416A2.343,2.343,0,0,1,37.32-.594,4.548,4.548,0,0,1,34.6.166a4.75,4.75,0,0,1-2-.4,3.363,3.363,0,0,1-1.374-1.1,2.565,2.565,0,0,1-.5-1.515H33a1.252,1.252,0,0,0,.473.979,1.877,1.877,0,0,0,1.179.34A1.737,1.737,0,0,0,35.689-1.8.814.814,0,0,0,36.042-2.482ZM45.3-.913A3.008,3.008,0,0,1,42.84.166a2.837,2.837,0,0,1-2.2-.83A3.543,3.543,0,0,1,39.86-3.1V-8.981h2.4v5.809q0,1.4,1.278,1.4a1.732,1.732,0,0,0,1.677-.848V-8.981h2.407V0H45.364Zm6.383-8.068.075,1a3.156,3.156,0,0,1,2.582-1.17,2.4,2.4,0,0,1,2.382,1.37,3.084,3.084,0,0,1,2.7-1.37,2.679,2.679,0,0,1,2.175.851,3.911,3.911,0,0,1,.714,2.561V0H59.9V-5.728a1.71,1.71,0,0,0-.3-1.116A1.324,1.324,0,0,0,58.545-7.2a1.5,1.5,0,0,0-1.494,1.029L57.06,0h-2.4V-5.719a1.689,1.689,0,0,0-.307-1.129A1.337,1.337,0,0,0,53.308-7.2a1.555,1.555,0,0,0-1.478.847V0h-2.4V-8.981ZM63.775-4.574a5.327,5.327,0,0,1,.515-2.382,3.768,3.768,0,0,1,1.482-1.619,4.323,4.323,0,0,1,2.245-.573,4.09,4.09,0,0,1,2.968,1.112,4.464,4.464,0,0,1,1.282,3.021l.017.614a4.694,4.694,0,0,1-1.154,3.316,4.011,4.011,0,0,1-3.1,1.249,4.031,4.031,0,0,1-3.1-1.245,4.777,4.777,0,0,1-1.158-3.387Zm2.4.17a3.357,3.357,0,0,0,.481,1.958,1.588,1.588,0,0,0,1.378.678,1.592,1.592,0,0,0,1.361-.669,3.674,3.674,0,0,0,.49-2.141,3.324,3.324,0,0,0-.49-1.945,1.592,1.592,0,0,0-1.378-.69,1.566,1.566,0,0,0-1.361.686A3.736,3.736,0,0,0,66.174-4.4Z" transform="translate(355 2806)" fill="#12263f"/>
    <path id="Trazado_602369" data-name="Trazado 602369" d="M.789-9.762a2.389,2.389,0,0,1,.722-1.805A2.619,2.619,0,0,1,3.4-12.26a2.66,2.66,0,0,1,1.909.685A2.435,2.435,0,0,1,6.035-9.72v.6a2.359,2.359,0,0,1-.722,1.8,2.647,2.647,0,0,1-1.893.681,2.664,2.664,0,0,1-1.905-.685A2.417,2.417,0,0,1,.789-9.172Zm1.594.639a1.118,1.118,0,0,0,.286.8.986.986,0,0,0,.751.3.94.94,0,0,0,.739-.307,1.189,1.189,0,0,0,.274-.822v-.614a1.164,1.164,0,0,0-.274-.805.96.96,0,0,0-.755-.307.963.963,0,0,0-.739.3,1.188,1.188,0,0,0-.282.843ZM6.566-2.963A2.359,2.359,0,0,1,7.3-4.769a2.656,2.656,0,0,1,1.893-.685,2.683,2.683,0,0,1,1.905.677,2.422,2.422,0,0,1,.726,1.864v.6a2.377,2.377,0,0,1-.714,1.8,2.631,2.631,0,0,1-1.9.685A2.662,2.662,0,0,1,7.288-.523a2.407,2.407,0,0,1-.722-1.826Zm1.594.647a1.11,1.11,0,0,0,.3.78.974.974,0,0,0,.747.324q1.013,0,1.013-1.121v-.631a1.128,1.128,0,0,0-.282-.8.973.973,0,0,0-.747-.3.973.973,0,0,0-.747.3,1.164,1.164,0,0,0-.282.826ZM3.893-.9l-1.17-.631,5.9-9.446,1.17.631Zm22.57-9.164h-3.7V0h-2.49V-10.069H16.618v-2.017h9.845Zm-.838,5.5a5.327,5.327,0,0,1,.515-2.382,3.768,3.768,0,0,1,1.482-1.619,4.323,4.323,0,0,1,2.245-.573,4.09,4.09,0,0,1,2.968,1.112,4.464,4.464,0,0,1,1.282,3.021l.017.614a4.694,4.694,0,0,1-1.154,3.316,4.011,4.011,0,0,1-3.1,1.249,4.031,4.031,0,0,1-3.1-1.245,4.777,4.777,0,0,1-1.158-3.387Zm2.4.17A3.357,3.357,0,0,0,28.5-2.446a1.588,1.588,0,0,0,1.378.678,1.592,1.592,0,0,0,1.361-.669,3.674,3.674,0,0,0,.49-2.141,3.324,3.324,0,0,0-.49-1.945,1.592,1.592,0,0,0-1.378-.69,1.566,1.566,0,0,0-1.361.686A3.735,3.735,0,0,0,28.023-4.4Zm10.459-6.786v2.208h1.536v1.76H38.482v4.482a1.07,1.07,0,0,0,.191.714.959.959,0,0,0,.73.216,3.826,3.826,0,0,0,.706-.058V-.05a4.939,4.939,0,0,1-1.453.216,2.29,2.29,0,0,1-2.573-2.548V-7.222H34.772v-1.76h1.312v-2.208ZM46.559,0a2.664,2.664,0,0,1-.241-.805,2.9,2.9,0,0,1-2.266.971A3.189,3.189,0,0,1,41.865-.6,2.456,2.456,0,0,1,41-2.523a2.538,2.538,0,0,1,1.058-2.191,5.222,5.222,0,0,1,3.059-.772h1.1V-6a1.48,1.48,0,0,0-.32-1,1.257,1.257,0,0,0-1.009-.374,1.429,1.429,0,0,0-.95.291.987.987,0,0,0-.344.8H41.2a2.41,2.41,0,0,1,.481-1.444A3.182,3.182,0,0,1,43.04-8.77a4.961,4.961,0,0,1,1.976-.378,3.92,3.92,0,0,1,2.635.834,2.918,2.918,0,0,1,.975,2.345v3.893a4.294,4.294,0,0,0,.357,1.934V0ZM44.575-1.668a2.066,2.066,0,0,0,.979-.237,1.554,1.554,0,0,0,.664-.635V-4.084h-.9q-1.8,0-1.917,1.245L43.4-2.7a.96.96,0,0,0,.315.739A1.225,1.225,0,0,0,44.575-1.668ZM53,0H50.593V-12.75H53ZM64.414,0a2.664,2.664,0,0,1-.241-.805,2.9,2.9,0,0,1-2.266.971A3.189,3.189,0,0,1,59.72-.6a2.456,2.456,0,0,1-.867-1.926,2.538,2.538,0,0,1,1.058-2.191,5.222,5.222,0,0,1,3.059-.772h1.1V-6a1.48,1.48,0,0,0-.32-1,1.257,1.257,0,0,0-1.009-.374,1.429,1.429,0,0,0-.95.291.987.987,0,0,0-.344.8h-2.4a2.41,2.41,0,0,1,.481-1.444A3.182,3.182,0,0,1,60.895-8.77a4.961,4.961,0,0,1,1.976-.378,3.92,3.92,0,0,1,2.635.834,2.918,2.918,0,0,1,.975,2.345v3.893a4.294,4.294,0,0,0,.357,1.934V0ZM62.43-1.668a2.066,2.066,0,0,0,.979-.237,1.554,1.554,0,0,0,.664-.635V-4.084h-.9q-1.8,0-1.917,1.245l-.008.141a.96.96,0,0,0,.315.739A1.225,1.225,0,0,0,62.43-1.668Zm9.629-.1a1.573,1.573,0,0,0,1.079-.365A1.28,1.28,0,0,0,73.57-3.1h2.25a3.077,3.077,0,0,1-.5,1.673A3.286,3.286,0,0,1,73.981-.253,4.2,4.2,0,0,1,72.1.166a3.9,3.9,0,0,1-3.038-1.224A4.845,4.845,0,0,1,67.95-4.441V-4.6a4.79,4.79,0,0,1,1.1-3.312,3.854,3.854,0,0,1,3.03-1.237,3.778,3.778,0,0,1,2.7.959,3.4,3.4,0,0,1,1.033,2.552H73.57a1.648,1.648,0,0,0-.432-1.139,1.439,1.439,0,0,0-1.1-.438,1.445,1.445,0,0,0-1.266.611,3.541,3.541,0,0,0-.427,1.983v.249a3.586,3.586,0,0,0,.423,2A1.463,1.463,0,0,0,72.059-1.768Zm10.509.855A3.008,3.008,0,0,1,80.111.166a2.837,2.837,0,0,1-2.2-.83A3.543,3.543,0,0,1,77.131-3.1V-8.981h2.4v5.809q0,1.4,1.278,1.4a1.732,1.732,0,0,0,1.677-.848V-8.981h2.407V0H82.634Zm6.383-8.068.075,1a3.156,3.156,0,0,1,2.582-1.17,2.4,2.4,0,0,1,2.382,1.37,3.084,3.084,0,0,1,2.7-1.37,2.679,2.679,0,0,1,2.175.851,3.911,3.911,0,0,1,.714,2.561V0H97.169V-5.728a1.71,1.71,0,0,0-.3-1.116A1.324,1.324,0,0,0,95.816-7.2a1.5,1.5,0,0,0-1.494,1.029L94.33,0h-2.4V-5.719a1.689,1.689,0,0,0-.307-1.129A1.337,1.337,0,0,0,90.578-7.2,1.555,1.555,0,0,0,89.1-6.35V0H86.7V-8.981ZM106.8-.913A3.008,3.008,0,0,1,104.341.166a2.837,2.837,0,0,1-2.2-.83,3.543,3.543,0,0,1-.776-2.432V-8.981h2.4v5.809q0,1.4,1.278,1.4a1.732,1.732,0,0,0,1.677-.848V-8.981h2.407V0h-2.258ZM113.463,0h-2.407V-12.75h2.407Zm7.18,0a2.664,2.664,0,0,1-.241-.805,2.9,2.9,0,0,1-2.266.971A3.189,3.189,0,0,1,115.949-.6a2.456,2.456,0,0,1-.867-1.926,2.538,2.538,0,0,1,1.058-2.191,5.222,5.222,0,0,1,3.059-.772h1.1V-6a1.48,1.48,0,0,0-.32-1,1.257,1.257,0,0,0-1.009-.374,1.429,1.429,0,0,0-.95.291.987.987,0,0,0-.344.8h-2.4a2.41,2.41,0,0,1,.481-1.444,3.182,3.182,0,0,1,1.361-1.042,4.961,4.961,0,0,1,1.976-.378,3.92,3.92,0,0,1,2.635.834,2.918,2.918,0,0,1,.975,2.345v3.893a4.294,4.294,0,0,0,.357,1.934V0ZM118.66-1.668a2.066,2.066,0,0,0,.979-.237,1.554,1.554,0,0,0,.664-.635V-4.084h-.9q-1.8,0-1.917,1.245l-.008.141a.96.96,0,0,0,.315.739A1.225,1.225,0,0,0,118.66-1.668Zm5.52-2.889a5.413,5.413,0,0,1,.942-3.345A3.057,3.057,0,0,1,127.7-9.147a2.751,2.751,0,0,1,2.167.979V-12.75h2.407V0h-2.167l-.116-.955A2.823,2.823,0,0,1,127.683.166a3.049,3.049,0,0,1-2.544-1.249A5.587,5.587,0,0,1,124.18-4.557Zm2.4.179a3.546,3.546,0,0,0,.44,1.937,1.433,1.433,0,0,0,1.278.673,1.605,1.605,0,0,0,1.569-.939v-3.55a1.582,1.582,0,0,0-1.552-.939Q126.579-7.2,126.579-4.379Zm7.18-.2a5.327,5.327,0,0,1,.515-2.382,3.767,3.767,0,0,1,1.482-1.619A4.323,4.323,0,0,1,138-9.147a4.09,4.09,0,0,1,2.968,1.112,4.464,4.464,0,0,1,1.282,3.021l.017.614a4.694,4.694,0,0,1-1.154,3.316,4.011,4.011,0,0,1-3.1,1.249,4.031,4.031,0,0,1-3.1-1.245,4.777,4.777,0,0,1-1.158-3.387Zm2.4.17a3.357,3.357,0,0,0,.481,1.958,1.588,1.588,0,0,0,1.378.678,1.592,1.592,0,0,0,1.361-.669,3.674,3.674,0,0,0,.49-2.141,3.324,3.324,0,0,0-.49-1.945A1.592,1.592,0,0,0,138-7.213a1.566,1.566,0,0,0-1.361.686A3.735,3.735,0,0,0,136.158-4.4Z" transform="translate(355 2832)" fill="#12263f"/>
    <path id="Trazado_602370" data-name="Trazado 602370" d="M8.077-3.163H3.013L1.876,0H.232L4.848-12.086H6.242L10.866,0H9.23Zm-4.582-1.3H7.6L5.545-10.119ZM13.92,0H12.385V-8.981H13.92ZM12.26-11.364a.917.917,0,0,1,.228-.631.857.857,0,0,1,.677-.257.87.87,0,0,1,.681.257.907.907,0,0,1,.232.631.877.877,0,0,1-.232.623.886.886,0,0,1-.681.249.872.872,0,0,1-.677-.249A.886.886,0,0,1,12.26-11.364ZM20.719-7.6a4.6,4.6,0,0,0-.755-.058,2.024,2.024,0,0,0-2.05,1.287V0H16.377V-8.981h1.494L17.9-7.944a2.391,2.391,0,0,1,2.142-1.2,1.569,1.569,0,0,1,.681.116ZM25.7.166a3.924,3.924,0,0,1-2.972-1.2,4.452,4.452,0,0,1-1.146-3.208v-.282a5.39,5.39,0,0,1,.51-2.386A3.982,3.982,0,0,1,23.52-8.554a3.59,3.59,0,0,1,1.988-.594,3.364,3.364,0,0,1,2.723,1.154,5,5,0,0,1,.971,3.3v.639H23.118a3.193,3.193,0,0,0,.776,2.146,2.44,2.44,0,0,0,1.888.818,2.675,2.675,0,0,0,1.378-.332,3.462,3.462,0,0,0,.988-.88l.938.73A3.772,3.772,0,0,1,25.7.166Zm-.191-8.052a2.048,2.048,0,0,0-1.561.677,3.288,3.288,0,0,0-.78,1.9h4.5v-.116a2.925,2.925,0,0,0-.631-1.814A1.928,1.928,0,0,0,25.508-7.886Zm13.281,6.8a2.212,2.212,0,0,0,1.436-.5,1.752,1.752,0,0,0,.681-1.245h1.453a2.785,2.785,0,0,1-.531,1.469A3.5,3.5,0,0,1,40.52-.249,3.772,3.772,0,0,1,38.79.166a3.7,3.7,0,0,1-2.918-1.224,4.877,4.877,0,0,1-1.083-3.349v-.257A5.407,5.407,0,0,1,35.27-7a3.667,3.667,0,0,1,1.382-1.585,3.926,3.926,0,0,1,2.129-.564,3.6,3.6,0,0,1,2.511.9,3.234,3.234,0,0,1,1.067,2.349H40.906a2.116,2.116,0,0,0-.66-1.432,2.053,2.053,0,0,0-1.465-.56,2.149,2.149,0,0,0-1.814.843,3.957,3.957,0,0,0-.643,2.436v.291a3.878,3.878,0,0,0,.639,2.391A2.16,2.16,0,0,0,38.79-1.087Zm4.889-3.486A5.3,5.3,0,0,1,44.2-6.948a3.87,3.87,0,0,1,1.444-1.627,3.932,3.932,0,0,1,2.113-.573,3.788,3.788,0,0,1,2.968,1.27A4.886,4.886,0,0,1,51.855-4.5v.108a5.351,5.351,0,0,1-.5,2.353A3.813,3.813,0,0,1,49.917-.415a3.977,3.977,0,0,1-2.146.581A3.778,3.778,0,0,1,44.812-1.1a4.861,4.861,0,0,1-1.133-3.362Zm1.544.183a3.842,3.842,0,0,0,.693,2.4,2.218,2.218,0,0,0,1.855.9A2.2,2.2,0,0,0,49.63-2a4.2,4.2,0,0,0,.689-2.569,3.836,3.836,0,0,0-.7-2.395,2.23,2.23,0,0,0-1.864-.917,2.205,2.205,0,0,0-1.834.9A4.17,4.17,0,0,0,45.223-4.391Zm10-4.59.042,1a3.317,3.317,0,0,1,2.665-1.162A2.568,2.568,0,0,1,60.5-7.7a3.4,3.4,0,0,1,1.166-1.046,3.445,3.445,0,0,1,1.7-.4q2.955,0,3,3.129V0H64.829V-5.927a2.062,2.062,0,0,0-.44-1.44,1.937,1.937,0,0,0-1.478-.477,2.036,2.036,0,0,0-1.419.51,2.071,2.071,0,0,0-.656,1.374V0H59.292V-5.885a1.713,1.713,0,0,0-1.917-1.959,2.055,2.055,0,0,0-2.067,1.287V0H53.772V-8.981Zm21.042,4.59a5.378,5.378,0,0,1-.938,3.3A3.006,3.006,0,0,1,72.79.166,3.294,3.294,0,0,1,70.216-.872V3.453H68.681V-8.981h1.4l.075,1a3.163,3.163,0,0,1,2.606-1.162,3.063,3.063,0,0,1,2.561,1.22,5.437,5.437,0,0,1,.942,3.4Zm-1.536-.174a3.968,3.968,0,0,0-.647-2.4,2.086,2.086,0,0,0-1.776-.88,2.257,2.257,0,0,0-2.092,1.237v4.292a2.262,2.262,0,0,0,2.108,1.229,2.076,2.076,0,0,0,1.756-.876A4.332,4.332,0,0,0,74.732-4.565ZM82.56-7.6a4.6,4.6,0,0,0-.755-.058,2.024,2.024,0,0,0-2.05,1.287V0H78.218V-8.981h1.494l.025,1.038a2.391,2.391,0,0,1,2.142-1.2,1.569,1.569,0,0,1,.681.116ZM85.639,0H84.1V-8.981h1.536Zm-1.66-11.364a.917.917,0,0,1,.228-.631.857.857,0,0,1,.677-.257.87.87,0,0,1,.681.257.907.907,0,0,1,.232.631.877.877,0,0,1-.232.623.886.886,0,0,1-.681.249.872.872,0,0,1-.677-.249A.886.886,0,0,1,83.979-11.364Zm5.562,2.382.042,1a3.317,3.317,0,0,1,2.665-1.162A2.568,2.568,0,0,1,94.812-7.7a3.4,3.4,0,0,1,1.166-1.046,3.445,3.445,0,0,1,1.7-.4q2.955,0,3,3.129V0H99.145V-5.927a2.062,2.062,0,0,0-.44-1.44,1.937,1.937,0,0,0-1.478-.477,2.036,2.036,0,0,0-1.419.51,2.071,2.071,0,0,0-.656,1.374V0H93.608V-5.885A1.713,1.713,0,0,0,91.69-7.844a2.055,2.055,0,0,0-2.067,1.287V0H88.088V-8.981ZM104.665,0h-1.536V-8.981h1.536ZM103-11.364a.917.917,0,0,1,.228-.631.857.857,0,0,1,.677-.257.87.87,0,0,1,.681.257.907.907,0,0,1,.232.631.877.877,0,0,1-.232.623.886.886,0,0,1-.681.249.872.872,0,0,1-.677-.249A.886.886,0,0,1,103-11.364Zm3.744,6.8a5.261,5.261,0,0,1,.979-3.324,3.1,3.1,0,0,1,2.565-1.258,3.115,3.115,0,0,1,2.5,1.079V-12.75h1.536V0h-1.411l-.075-.963A3.127,3.127,0,0,1,110.276.166a3.068,3.068,0,0,1-2.544-1.278,5.321,5.321,0,0,1-.984-3.337Zm1.536.174A3.984,3.984,0,0,0,108.915-2a2.039,2.039,0,0,0,1.743.863,2.24,2.24,0,0,0,2.133-1.312V-6.574a2.257,2.257,0,0,0-2.117-1.27,2.049,2.049,0,0,0-1.76.872A4.386,4.386,0,0,0,108.284-4.391Zm8.019-.183a5.3,5.3,0,0,1,.519-2.374,3.87,3.87,0,0,1,1.444-1.627,3.932,3.932,0,0,1,2.113-.573,3.788,3.788,0,0,1,2.968,1.27A4.886,4.886,0,0,1,124.479-4.5v.108a5.351,5.351,0,0,1-.5,2.353A3.813,3.813,0,0,1,122.54-.415a3.977,3.977,0,0,1-2.146.581,3.778,3.778,0,0,1-2.959-1.27A4.861,4.861,0,0,1,116.3-4.466Zm1.544.183a3.842,3.842,0,0,0,.693,2.4,2.218,2.218,0,0,0,1.855.9A2.2,2.2,0,0,0,122.254-2a4.2,4.2,0,0,0,.689-2.569,3.836,3.836,0,0,0-.7-2.395,2.23,2.23,0,0,0-1.864-.917,2.205,2.205,0,0,0-1.834.9A4.17,4.17,0,0,0,117.846-4.391Z" transform="translate(647 2806)" fill="#12263f"/>
    <path id="Trazado_602371" data-name="Trazado 602371" d="M1.4,0V-12.086H5.354a4.587,4.587,0,0,1,2.959.813,2.932,2.932,0,0,1,.992,2.407,2.455,2.455,0,0,1-.481,1.5A3.121,3.121,0,0,1,7.512-6.358,2.8,2.8,0,0,1,9.06-5.317a2.99,2.99,0,0,1,.569,1.83A3.232,3.232,0,0,1,8.575-.93,4.36,4.36,0,0,1,5.595,0ZM3-5.653V-1.3H5.628A2.534,2.534,0,0,0,7.384-1.88a2.026,2.026,0,0,0,.643-1.59q0-2.183-2.374-2.183ZM3-6.931H5.4a2.523,2.523,0,0,0,1.673-.524A1.757,1.757,0,0,0,7.7-8.878a1.728,1.728,0,0,0-.581-1.452,2.853,2.853,0,0,0-1.768-.453H3ZM17.291-.888A3.262,3.262,0,0,1,14.659.166a2.792,2.792,0,0,1-2.187-.834,3.611,3.611,0,0,1-.76-2.469V-8.981h1.536v5.8q0,2.042,1.66,2.042a2.3,2.3,0,0,0,2.341-1.312V-8.981h1.536V0H17.324ZM22.57-8.981l.05,1.129a3.273,3.273,0,0,1,2.689-1.295q2.847,0,2.872,3.212V0H26.646V-5.943A2.068,2.068,0,0,0,26.2-7.379a1.78,1.78,0,0,0-1.357-.465,2.216,2.216,0,0,0-1.312.4,2.706,2.706,0,0,0-.88,1.046V0H21.117V-8.981ZM34.1-1.087a2.212,2.212,0,0,0,1.436-.5,1.752,1.752,0,0,0,.681-1.245h1.453a2.785,2.785,0,0,1-.531,1.469A3.5,3.5,0,0,1,35.83-.249,3.772,3.772,0,0,1,34.1.166a3.7,3.7,0,0,1-2.918-1.224A4.877,4.877,0,0,1,30.1-4.408v-.257A5.407,5.407,0,0,1,30.58-7a3.667,3.667,0,0,1,1.382-1.585,3.926,3.926,0,0,1,2.129-.564,3.6,3.6,0,0,1,2.511.9,3.234,3.234,0,0,1,1.067,2.349H36.216a2.116,2.116,0,0,0-.66-1.432,2.053,2.053,0,0,0-1.465-.56,2.149,2.149,0,0,0-1.814.843,3.957,3.957,0,0,0-.643,2.436v.291a3.878,3.878,0,0,0,.639,2.391A2.16,2.16,0,0,0,34.1-1.087Zm6.832-6.807a3.265,3.265,0,0,1,2.656-1.253q2.847,0,2.872,3.212V0H44.924V-5.943a2.068,2.068,0,0,0-.444-1.436,1.78,1.78,0,0,0-1.357-.465,2.216,2.216,0,0,0-1.312.4,2.706,2.706,0,0,0-.88,1.046V0H39.4V-12.75h1.536ZM52.486.166a3.924,3.924,0,0,1-2.972-1.2,4.452,4.452,0,0,1-1.146-3.208v-.282a5.39,5.39,0,0,1,.51-2.386,3.982,3.982,0,0,1,1.428-1.644,3.59,3.59,0,0,1,1.988-.594,3.364,3.364,0,0,1,2.723,1.154,5,5,0,0,1,.971,3.3v.639H49.9a3.193,3.193,0,0,0,.776,2.146,2.44,2.44,0,0,0,1.888.818,2.675,2.675,0,0,0,1.378-.332,3.462,3.462,0,0,0,.988-.88l.938.73A3.772,3.772,0,0,1,52.486.166Zm-.191-8.052a2.048,2.048,0,0,0-1.561.677,3.288,3.288,0,0,0-.78,1.9h4.5v-.116a2.925,2.925,0,0,0-.631-1.814A1.928,1.928,0,0,0,52.295-7.886ZM63.31,0a3.226,3.226,0,0,1-.216-.946A3.426,3.426,0,0,1,60.538.166a3.17,3.17,0,0,1-2.179-.751,2.43,2.43,0,0,1-.851-1.905,2.539,2.539,0,0,1,1.067-2.179,5.029,5.029,0,0,1,3-.776h1.494v-.706a1.725,1.725,0,0,0-.481-1.282,1.935,1.935,0,0,0-1.419-.477,2.239,2.239,0,0,0-1.378.415,1.223,1.223,0,0,0-.556,1H57.69a2.119,2.119,0,0,1,.477-1.3,3.258,3.258,0,0,1,1.295-.992,4.356,4.356,0,0,1,1.8-.365,3.551,3.551,0,0,1,2.432.776A2.8,2.8,0,0,1,64.6-6.234V-2.1A5.054,5.054,0,0,0,64.92-.133V0ZM60.762-1.17a2.7,2.7,0,0,0,1.37-.374,2.259,2.259,0,0,0,.938-.971V-4.358h-1.2q-2.822,0-2.822,1.652a1.4,1.4,0,0,0,.481,1.129A1.85,1.85,0,0,0,60.762-1.17Zm5.877-3.4a5.261,5.261,0,0,1,.979-3.324,3.1,3.1,0,0,1,2.565-1.258,3.115,3.115,0,0,1,2.5,1.079V-12.75h1.536V0H72.806l-.075-.963A3.127,3.127,0,0,1,70.167.166a3.068,3.068,0,0,1-2.544-1.278,5.321,5.321,0,0,1-.984-3.337Zm1.536.174A3.984,3.984,0,0,0,68.805-2a2.039,2.039,0,0,0,1.743.863,2.24,2.24,0,0,0,2.133-1.312V-6.574a2.257,2.257,0,0,0-2.117-1.27,2.049,2.049,0,0,0-1.76.872A4.386,4.386,0,0,0,68.174-4.391Zm8.019-.183a5.3,5.3,0,0,1,.519-2.374,3.87,3.87,0,0,1,1.444-1.627,3.932,3.932,0,0,1,2.113-.573,3.788,3.788,0,0,1,2.968,1.27A4.886,4.886,0,0,1,84.369-4.5v.108a5.351,5.351,0,0,1-.5,2.353A3.813,3.813,0,0,1,82.431-.415a3.977,3.977,0,0,1-2.146.581A3.778,3.778,0,0,1,77.326-1.1a4.861,4.861,0,0,1-1.133-3.362Zm1.544.183a3.842,3.842,0,0,0,.693,2.4,2.218,2.218,0,0,0,1.855.9A2.2,2.2,0,0,0,82.145-2a4.2,4.2,0,0,0,.689-2.569,3.836,3.836,0,0,0-.7-2.395,2.23,2.23,0,0,0-1.864-.917,2.205,2.205,0,0,0-1.834.9A4.17,4.17,0,0,0,77.737-4.391Z" transform="translate(810 2806)" fill="#12263f"/>
    <path id="Trazado_602372" data-name="Trazado 602372" d="M8.068-5.337H3V0H1.4V-12.086H8.89v1.3H3v4.142H8.068ZM14.684-7.6a4.6,4.6,0,0,0-.755-.058,2.024,2.024,0,0,0-2.05,1.287V0H10.343V-8.981h1.494l.025,1.038A2.391,2.391,0,0,1,14-9.147a1.569,1.569,0,0,1,.681.116ZM21.308,0a3.226,3.226,0,0,1-.216-.946A3.426,3.426,0,0,1,18.536.166a3.17,3.17,0,0,1-2.179-.751,2.43,2.43,0,0,1-.851-1.905,2.539,2.539,0,0,1,1.067-2.179,5.029,5.029,0,0,1,3-.776h1.494v-.706a1.725,1.725,0,0,0-.481-1.282,1.935,1.935,0,0,0-1.419-.477,2.239,2.239,0,0,0-1.378.415,1.223,1.223,0,0,0-.556,1H15.688a2.119,2.119,0,0,1,.477-1.3,3.258,3.258,0,0,1,1.295-.992,4.356,4.356,0,0,1,1.8-.365,3.551,3.551,0,0,1,2.432.776A2.8,2.8,0,0,1,22.6-6.234V-2.1a5.054,5.054,0,0,0,.315,1.967V0ZM18.76-1.17a2.7,2.7,0,0,0,1.37-.374,2.259,2.259,0,0,0,.938-.971V-4.358h-1.2q-2.822,0-2.822,1.652a1.4,1.4,0,0,0,.481,1.129A1.85,1.85,0,0,0,18.76-1.17Zm9.853.083a2.212,2.212,0,0,0,1.436-.5,1.752,1.752,0,0,0,.681-1.245h1.453a2.785,2.785,0,0,1-.531,1.469A3.5,3.5,0,0,1,30.344-.249a3.772,3.772,0,0,1-1.731.415A3.7,3.7,0,0,1,25.7-1.058a4.877,4.877,0,0,1-1.083-3.349v-.257A5.407,5.407,0,0,1,25.093-7a3.667,3.667,0,0,1,1.382-1.585A3.926,3.926,0,0,1,28.6-9.147a3.6,3.6,0,0,1,2.511.9,3.234,3.234,0,0,1,1.067,2.349H30.729a2.116,2.116,0,0,0-.66-1.432,2.053,2.053,0,0,0-1.465-.56,2.149,2.149,0,0,0-1.814.843,3.957,3.957,0,0,0-.643,2.436v.291a3.878,3.878,0,0,0,.639,2.391A2.16,2.16,0,0,0,28.613-1.087Zm8.9,0a2.212,2.212,0,0,0,1.436-.5,1.752,1.752,0,0,0,.681-1.245h1.453a2.785,2.785,0,0,1-.531,1.469A3.5,3.5,0,0,1,39.242-.249a3.772,3.772,0,0,1-1.731.415,3.7,3.7,0,0,1-2.918-1.224A4.877,4.877,0,0,1,33.51-4.408v-.257A5.407,5.407,0,0,1,33.992-7a3.667,3.667,0,0,1,1.382-1.585A3.926,3.926,0,0,1,37.5-9.147a3.6,3.6,0,0,1,2.511.9,3.234,3.234,0,0,1,1.067,2.349H39.628a2.116,2.116,0,0,0-.66-1.432,2.053,2.053,0,0,0-1.465-.56,2.149,2.149,0,0,0-1.814.843,3.957,3.957,0,0,0-.643,2.436v.291a3.878,3.878,0,0,0,.639,2.391A2.16,2.16,0,0,0,37.511-1.087ZM44.476,0H42.94V-8.981h1.536Zm-1.66-11.364a.917.917,0,0,1,.228-.631.857.857,0,0,1,.677-.257.87.87,0,0,1,.681.257.907.907,0,0,1,.232.631.877.877,0,0,1-.232.623.886.886,0,0,1-.681.249.872.872,0,0,1-.677-.249A.886.886,0,0,1,42.815-11.364Zm3.71,6.79a5.3,5.3,0,0,1,.519-2.374,3.87,3.87,0,0,1,1.444-1.627A3.932,3.932,0,0,1,50.6-9.147a3.788,3.788,0,0,1,2.968,1.27A4.886,4.886,0,0,1,54.7-4.5v.108a5.351,5.351,0,0,1-.5,2.353A3.813,3.813,0,0,1,52.764-.415a3.977,3.977,0,0,1-2.146.581A3.778,3.778,0,0,1,47.659-1.1a4.861,4.861,0,0,1-1.133-3.362Zm1.544.183a3.842,3.842,0,0,0,.693,2.4,2.218,2.218,0,0,0,1.855.9A2.2,2.2,0,0,0,52.478-2a4.2,4.2,0,0,0,.689-2.569,3.836,3.836,0,0,0-.7-2.395A2.23,2.23,0,0,0,50.6-7.886a2.205,2.205,0,0,0-1.834.9A4.17,4.17,0,0,0,48.07-4.391Zm10.011-4.59.05,1.129A3.273,3.273,0,0,1,60.82-9.147q2.847,0,2.872,3.212V0H62.156V-5.943a2.068,2.068,0,0,0-.444-1.436,1.78,1.78,0,0,0-1.357-.465,2.216,2.216,0,0,0-1.312.4,2.706,2.706,0,0,0-.88,1.046V0H56.628V-8.981ZM71.553,0a3.226,3.226,0,0,1-.216-.946A3.426,3.426,0,0,1,68.78.166,3.17,3.17,0,0,1,66.6-.585,2.43,2.43,0,0,1,65.75-2.49a2.539,2.539,0,0,1,1.067-2.179,5.029,5.029,0,0,1,3-.776h1.494v-.706a1.725,1.725,0,0,0-.481-1.282,1.935,1.935,0,0,0-1.419-.477,2.239,2.239,0,0,0-1.378.415,1.223,1.223,0,0,0-.556,1H65.933a2.119,2.119,0,0,1,.477-1.3,3.258,3.258,0,0,1,1.295-.992,4.356,4.356,0,0,1,1.8-.365,3.551,3.551,0,0,1,2.432.776,2.8,2.8,0,0,1,.913,2.137V-2.1a5.054,5.054,0,0,0,.315,1.967V0ZM69-1.17a2.7,2.7,0,0,0,1.37-.374,2.259,2.259,0,0,0,.938-.971V-4.358h-1.2q-2.822,0-2.822,1.652a1.4,1.4,0,0,0,.481,1.129A1.85,1.85,0,0,0,69-1.17Zm5.877-3.4a5.261,5.261,0,0,1,.979-3.324,3.1,3.1,0,0,1,2.565-1.258,3.115,3.115,0,0,1,2.5,1.079V-12.75H82.46V0H81.049l-.075-.963A3.127,3.127,0,0,1,78.409.166a3.068,3.068,0,0,1-2.544-1.278,5.321,5.321,0,0,1-.984-3.337Zm1.536.174A3.984,3.984,0,0,0,77.048-2a2.039,2.039,0,0,0,1.743.863,2.24,2.24,0,0,0,2.133-1.312V-6.574a2.257,2.257,0,0,0-2.117-1.27,2.049,2.049,0,0,0-1.76.872A4.386,4.386,0,0,0,76.417-4.391Zm8.019-.183a5.3,5.3,0,0,1,.519-2.374A3.87,3.87,0,0,1,86.4-8.575a3.932,3.932,0,0,1,2.113-.573,3.788,3.788,0,0,1,2.968,1.27A4.886,4.886,0,0,1,92.612-4.5v.108a5.351,5.351,0,0,1-.5,2.353A3.813,3.813,0,0,1,90.674-.415a3.977,3.977,0,0,1-2.146.581A3.778,3.778,0,0,1,85.569-1.1a4.861,4.861,0,0,1-1.133-3.362Zm1.544.183a3.842,3.842,0,0,0,.693,2.4,2.218,2.218,0,0,0,1.855.9A2.2,2.2,0,0,0,90.387-2a4.2,4.2,0,0,0,.689-2.569,3.836,3.836,0,0,0-.7-2.395,2.23,2.23,0,0,0-1.864-.917,2.205,2.205,0,0,0-1.834.9A4.17,4.17,0,0,0,85.979-4.391Z" transform="translate(951 2806)" fill="#12263f"/>
    <path id="Trazado_602373" data-name="Trazado 602373" d="M9.753-10.783H5.869V0H4.283V-10.783H.407v-1.3H9.753ZM15.024-7.6a4.6,4.6,0,0,0-.755-.058,2.024,2.024,0,0,0-2.05,1.287V0H10.683V-8.981h1.494L12.2-7.944a2.391,2.391,0,0,1,2.142-1.2,1.569,1.569,0,0,1,.681.116ZM20,.166a3.924,3.924,0,0,1-2.972-1.2,4.452,4.452,0,0,1-1.146-3.208v-.282A5.39,5.39,0,0,1,16.4-6.91a3.982,3.982,0,0,1,1.428-1.644,3.59,3.59,0,0,1,1.988-.594,3.364,3.364,0,0,1,2.723,1.154,5,5,0,0,1,.971,3.3v.639H17.423A3.193,3.193,0,0,0,18.2-1.905a2.44,2.44,0,0,0,1.888.818,2.675,2.675,0,0,0,1.378-.332,3.462,3.462,0,0,0,.988-.88l.938.73A3.772,3.772,0,0,1,20,.166Zm-.191-8.052a2.048,2.048,0,0,0-1.561.677,3.288,3.288,0,0,0-.78,1.9h4.5v-.116a2.925,2.925,0,0,0-.631-1.814A1.928,1.928,0,0,0,19.814-7.886ZM25.8,0V-7.794H24.379V-8.981H25.8v-.764a3.12,3.12,0,0,1,.859-2.341,3.332,3.332,0,0,1,2.428-.838,7.311,7.311,0,0,1,2.349.506l-.257,1.295a5.321,5.321,0,0,0-1.976-.415,1.933,1.933,0,0,0-1.424.444,1.831,1.831,0,0,0-.436,1.332v.78h1.834v1.187H27.343V0Zm6.4,0H30.655V-8.981H32.2Zm4.167,0H34.83V-12.75h1.536Zm8,0a3.226,3.226,0,0,1-.216-.946A3.426,3.426,0,0,1,41.6.166a3.17,3.17,0,0,1-2.179-.751,2.43,2.43,0,0,1-.851-1.905,2.539,2.539,0,0,1,1.067-2.179,5.029,5.029,0,0,1,3-.776h1.494v-.706a1.725,1.725,0,0,0-.481-1.282,1.935,1.935,0,0,0-1.419-.477,2.239,2.239,0,0,0-1.378.415,1.223,1.223,0,0,0-.556,1H38.748a2.119,2.119,0,0,1,.477-1.3,3.258,3.258,0,0,1,1.295-.992,4.356,4.356,0,0,1,1.8-.365,3.551,3.551,0,0,1,2.432.776,2.8,2.8,0,0,1,.913,2.137V-2.1a5.054,5.054,0,0,0,.315,1.967V0ZM41.819-1.17a2.7,2.7,0,0,0,1.37-.374,2.259,2.259,0,0,0,.938-.971V-4.358h-1.2q-2.822,0-2.822,1.652a1.4,1.4,0,0,0,.481,1.129A1.85,1.85,0,0,0,41.819-1.17Zm5.877-3.4a5.261,5.261,0,0,1,.979-3.324,3.1,3.1,0,0,1,2.565-1.258,3.115,3.115,0,0,1,2.5,1.079V-12.75h1.536V0H53.864l-.075-.963A3.127,3.127,0,0,1,51.224.166,3.068,3.068,0,0,1,48.68-1.112,5.321,5.321,0,0,1,47.7-4.449Zm1.536.174A3.984,3.984,0,0,0,49.863-2a2.039,2.039,0,0,0,1.743.863,2.24,2.24,0,0,0,2.133-1.312V-6.574a2.257,2.257,0,0,0-2.117-1.27,2.049,2.049,0,0,0-1.76.872A4.386,4.386,0,0,0,49.232-4.391Zm8.019-.183a5.3,5.3,0,0,1,.519-2.374,3.87,3.87,0,0,1,1.444-1.627,3.932,3.932,0,0,1,2.113-.573,3.788,3.788,0,0,1,2.968,1.27A4.886,4.886,0,0,1,65.427-4.5v.108a5.351,5.351,0,0,1-.5,2.353A3.813,3.813,0,0,1,63.489-.415a3.977,3.977,0,0,1-2.146.581A3.778,3.778,0,0,1,58.384-1.1,4.861,4.861,0,0,1,57.25-4.466Zm1.544.183a3.842,3.842,0,0,0,.693,2.4,2.218,2.218,0,0,0,1.855.9A2.2,2.2,0,0,0,63.2-2a4.2,4.2,0,0,0,.689-2.569,3.836,3.836,0,0,0-.7-2.395,2.23,2.23,0,0,0-1.864-.917,2.205,2.205,0,0,0-1.834.9A4.17,4.17,0,0,0,58.794-4.391Z" transform="translate(600 2832)" fill="#12263f"/>
    <path id="Trazado_602374" data-name="Trazado 602374" d="M10.293-3.835A4.447,4.447,0,0,1,8.878-.876,4.638,4.638,0,0,1,5.711.166,4.259,4.259,0,0,1,2.279-1.37,6.178,6.178,0,0,1,.988-5.479V-6.641A6.886,6.886,0,0,1,1.59-9.6,4.5,4.5,0,0,1,3.3-11.567a4.75,4.75,0,0,1,2.557-.685A4.367,4.367,0,0,1,8.94-11.177,4.5,4.5,0,0,1,10.293-8.2h-1.6a3.472,3.472,0,0,0-.9-2.1,2.725,2.725,0,0,0-1.938-.649,2.851,2.851,0,0,0-2.395,1.13A5.187,5.187,0,0,0,2.59-6.6v1.171A5.332,5.332,0,0,0,3.412-2.3a2.655,2.655,0,0,0,2.3,1.163,3.067,3.067,0,0,0,2.038-.6,3.34,3.34,0,0,0,.942-2.1ZM17.772,0a3.226,3.226,0,0,1-.216-.946A3.426,3.426,0,0,1,15,.166a3.17,3.17,0,0,1-2.179-.751A2.43,2.43,0,0,1,11.97-2.49a2.539,2.539,0,0,1,1.067-2.179,5.029,5.029,0,0,1,3-.776h1.494v-.706a1.725,1.725,0,0,0-.481-1.282,1.935,1.935,0,0,0-1.419-.477,2.239,2.239,0,0,0-1.378.415,1.223,1.223,0,0,0-.556,1H12.152a2.119,2.119,0,0,1,.477-1.3,3.258,3.258,0,0,1,1.295-.992,4.356,4.356,0,0,1,1.8-.365,3.551,3.551,0,0,1,2.432.776,2.8,2.8,0,0,1,.913,2.137V-2.1a5.054,5.054,0,0,0,.315,1.967V0ZM15.224-1.17a2.7,2.7,0,0,0,1.37-.374,2.259,2.259,0,0,0,.938-.971V-4.358h-1.2q-2.822,0-2.822,1.652a1.4,1.4,0,0,0,.481,1.129A1.85,1.85,0,0,0,15.224-1.17ZM29.078-4.391a5.34,5.34,0,0,1-.946,3.308A3.024,3.024,0,0,1,25.591.166a3.131,3.131,0,0,1-2.631-1.2L22.885,0H21.474V-12.75H23.01v4.756a3.113,3.113,0,0,1,2.565-1.154,3.042,3.042,0,0,1,2.569,1.237,5.5,5.5,0,0,1,.934,3.387Zm-1.536-.174a4.15,4.15,0,0,0-.606-2.424,2.006,2.006,0,0,0-1.743-.855A2.255,2.255,0,0,0,23.01-6.433v3.885a2.318,2.318,0,0,0,2.2,1.411,2,2,0,0,0,1.718-.855A4.413,4.413,0,0,0,27.542-4.565ZM32.68,0H31.145V-12.75H32.68Zm6.184.166a3.924,3.924,0,0,1-2.972-1.2,4.452,4.452,0,0,1-1.146-3.208v-.282a5.39,5.39,0,0,1,.51-2.386,3.982,3.982,0,0,1,1.428-1.644,3.59,3.59,0,0,1,1.988-.594A3.364,3.364,0,0,1,41.4-7.994a5,5,0,0,1,.971,3.3v.639H36.283a3.193,3.193,0,0,0,.776,2.146,2.44,2.44,0,0,0,1.888.818,2.675,2.675,0,0,0,1.378-.332,3.462,3.462,0,0,0,.988-.88l.938.73A3.772,3.772,0,0,1,38.864.166Zm-.191-8.052a2.048,2.048,0,0,0-1.561.677,3.288,3.288,0,0,0-.78,1.9h4.5v-.116A2.925,2.925,0,0,0,40.2-7.242,1.928,1.928,0,0,0,38.673-7.886ZM49.688,0a3.226,3.226,0,0,1-.216-.946A3.426,3.426,0,0,1,46.916.166a3.17,3.17,0,0,1-2.179-.751,2.43,2.43,0,0,1-.851-1.905,2.539,2.539,0,0,1,1.067-2.179,5.029,5.029,0,0,1,3-.776h1.494v-.706a1.725,1.725,0,0,0-.481-1.282,1.935,1.935,0,0,0-1.419-.477,2.239,2.239,0,0,0-1.378.415,1.223,1.223,0,0,0-.556,1H44.069a2.119,2.119,0,0,1,.477-1.3,3.258,3.258,0,0,1,1.295-.992,4.356,4.356,0,0,1,1.8-.365,3.551,3.551,0,0,1,2.432.776,2.8,2.8,0,0,1,.913,2.137V-2.1A5.054,5.054,0,0,0,51.3-.133V0ZM47.14-1.17a2.7,2.7,0,0,0,1.37-.374,2.259,2.259,0,0,0,.938-.971V-4.358h-1.2q-2.822,0-2.822,1.652A1.4,1.4,0,0,0,45.9-1.577,1.85,1.85,0,0,0,47.14-1.17Zm5.877-3.4A5.261,5.261,0,0,1,54-7.89a3.1,3.1,0,0,1,2.565-1.258,3.115,3.115,0,0,1,2.5,1.079V-12.75H60.6V0H59.185L59.11-.963A3.127,3.127,0,0,1,56.545.166,3.068,3.068,0,0,1,54-1.112a5.321,5.321,0,0,1-.984-3.337Zm1.536.174A3.984,3.984,0,0,0,55.184-2a2.039,2.039,0,0,0,1.743.863A2.24,2.24,0,0,0,59.06-2.449V-6.574a2.257,2.257,0,0,0-2.117-1.27,2.049,2.049,0,0,0-1.76.872A4.386,4.386,0,0,0,54.553-4.391Zm8.019-.183a5.3,5.3,0,0,1,.519-2.374,3.87,3.87,0,0,1,1.444-1.627,3.932,3.932,0,0,1,2.113-.573,3.788,3.788,0,0,1,2.968,1.27A4.886,4.886,0,0,1,70.748-4.5v.108a5.351,5.351,0,0,1-.5,2.353A3.813,3.813,0,0,1,68.809-.415a3.977,3.977,0,0,1-2.146.581A3.778,3.778,0,0,1,63.7-1.1a4.861,4.861,0,0,1-1.133-3.362Zm1.544.183a3.842,3.842,0,0,0,.693,2.4,2.218,2.218,0,0,0,1.855.9A2.2,2.2,0,0,0,68.523-2a4.2,4.2,0,0,0,.689-2.569,3.836,3.836,0,0,0-.7-2.395,2.23,2.23,0,0,0-1.864-.917,2.205,2.205,0,0,0-1.834.9A4.17,4.17,0,0,0,64.115-4.391Z" transform="translate(745 2832)" fill="#12263f"/>
    <path id="Trazado_602375" data-name="Trazado 602375" d="M10.293-3.835A4.447,4.447,0,0,1,8.878-.876,4.638,4.638,0,0,1,5.711.166,4.259,4.259,0,0,1,2.279-1.37,6.178,6.178,0,0,1,.988-5.479V-6.641A6.886,6.886,0,0,1,1.59-9.6,4.5,4.5,0,0,1,3.3-11.567a4.75,4.75,0,0,1,2.557-.685A4.367,4.367,0,0,1,8.94-11.177,4.5,4.5,0,0,1,10.293-8.2h-1.6a3.472,3.472,0,0,0-.9-2.1,2.725,2.725,0,0,0-1.938-.649,2.851,2.851,0,0,0-2.395,1.13A5.187,5.187,0,0,0,2.59-6.6v1.171A5.332,5.332,0,0,0,3.412-2.3a2.655,2.655,0,0,0,2.3,1.163,3.067,3.067,0,0,0,2.038-.6,3.34,3.34,0,0,0,.942-2.1Zm3.47-4.059a3.265,3.265,0,0,1,2.656-1.253q2.847,0,2.872,3.212V0H17.755V-5.943a2.068,2.068,0,0,0-.444-1.436,1.78,1.78,0,0,0-1.357-.465,2.216,2.216,0,0,0-1.312.4,2.706,2.706,0,0,0-.88,1.046V0H12.227V-12.75h1.536ZM23.259,0H21.723V-8.981h1.536ZM21.6-11.364a.917.917,0,0,1,.228-.631.857.857,0,0,1,.677-.257.87.87,0,0,1,.681.257.907.907,0,0,1,.232.631.877.877,0,0,1-.232.623.886.886,0,0,1-.681.249.872.872,0,0,1-.677-.249A.886.886,0,0,1,21.6-11.364ZM27.384,0H25.849V-12.75h1.536ZM31.51,0H29.974V-12.75H31.51Zm6.184.166a3.924,3.924,0,0,1-2.972-1.2,4.452,4.452,0,0,1-1.146-3.208v-.282a5.39,5.39,0,0,1,.51-2.386,3.982,3.982,0,0,1,1.428-1.644A3.59,3.59,0,0,1,37.5-9.147a3.364,3.364,0,0,1,2.723,1.154,5,5,0,0,1,.971,3.3v.639H35.112a3.193,3.193,0,0,0,.776,2.146,2.44,2.44,0,0,0,1.888.818,2.675,2.675,0,0,0,1.378-.332,3.462,3.462,0,0,0,.988-.88l.938.73A3.772,3.772,0,0,1,37.694.166ZM37.5-7.886a2.048,2.048,0,0,0-1.561.677,3.288,3.288,0,0,0-.78,1.9h4.5v-.116a2.925,2.925,0,0,0-.631-1.814A1.928,1.928,0,0,0,37.5-7.886Zm9.812.282a4.6,4.6,0,0,0-.755-.058,2.024,2.024,0,0,0-2.05,1.287V0H42.973V-8.981h1.494l.025,1.038a2.391,2.391,0,0,1,2.142-1.2,1.569,1.569,0,0,1,.681.116Z" transform="translate(901 2832)" fill="#12263f"/>
    <path id="Trazado_602376" data-name="Trazado 602376" d="M5.835-4.889H3V0h-1.6V-12.086h4a4.736,4.736,0,0,1,3.142.93,3.345,3.345,0,0,1,1.1,2.706,3.254,3.254,0,0,1-.61,1.967,3.642,3.642,0,0,1-1.7,1.253L10.168-.1V0H8.458ZM3-6.192H5.445a2.762,2.762,0,0,0,1.888-.615,2.081,2.081,0,0,0,.7-1.647,2.191,2.191,0,0,0-.668-1.721,2.829,2.829,0,0,0-1.93-.607H3ZM15.356.166a3.924,3.924,0,0,1-2.972-1.2,4.452,4.452,0,0,1-1.146-3.208v-.282a5.39,5.39,0,0,1,.51-2.386,3.982,3.982,0,0,1,1.428-1.644,3.59,3.59,0,0,1,1.988-.594,3.364,3.364,0,0,1,2.723,1.154,5,5,0,0,1,.971,3.3v.639H12.775a3.193,3.193,0,0,0,.776,2.146,2.44,2.44,0,0,0,1.888.818,2.675,2.675,0,0,0,1.378-.332,3.462,3.462,0,0,0,.988-.88l.938.73A3.772,3.772,0,0,1,15.356.166Zm-.191-8.052a2.048,2.048,0,0,0-1.561.677,3.288,3.288,0,0,0-.78,1.9h4.5v-.116a2.925,2.925,0,0,0-.631-1.814A1.928,1.928,0,0,0,15.166-7.886ZM28.223-4.391a5.378,5.378,0,0,1-.938,3.3A3.006,3.006,0,0,1,24.745.166,3.294,3.294,0,0,1,22.171-.872V3.453H20.636V-8.981h1.4l.075,1A3.163,3.163,0,0,1,24.72-9.147a3.063,3.063,0,0,1,2.561,1.22,5.437,5.437,0,0,1,.942,3.4Zm-1.536-.174a3.968,3.968,0,0,0-.647-2.4,2.086,2.086,0,0,0-1.776-.88,2.257,2.257,0,0,0-2.092,1.237v4.292A2.262,2.262,0,0,0,24.28-1.087a2.076,2.076,0,0,0,1.756-.876A4.332,4.332,0,0,0,26.687-4.565ZM35.718,0A3.226,3.226,0,0,1,35.5-.946,3.426,3.426,0,0,1,32.946.166a3.17,3.17,0,0,1-2.179-.751,2.43,2.43,0,0,1-.851-1.905,2.539,2.539,0,0,1,1.067-2.179,5.029,5.029,0,0,1,3-.776h1.494v-.706A1.725,1.725,0,0,0,35-7.433a1.935,1.935,0,0,0-1.419-.477A2.239,2.239,0,0,0,32.2-7.5a1.223,1.223,0,0,0-.556,1H30.1a2.119,2.119,0,0,1,.477-1.3,3.258,3.258,0,0,1,1.295-.992,4.356,4.356,0,0,1,1.8-.365,3.551,3.551,0,0,1,2.432.776,2.8,2.8,0,0,1,.913,2.137V-2.1a5.054,5.054,0,0,0,.315,1.967V0ZM33.17-1.17a2.7,2.7,0,0,0,1.37-.374,2.259,2.259,0,0,0,.938-.971V-4.358h-1.2q-2.822,0-2.822,1.652a1.4,1.4,0,0,0,.481,1.129A1.85,1.85,0,0,0,33.17-1.17ZM44.65-2.382a1.13,1.13,0,0,0-.469-.967,4.514,4.514,0,0,0-1.635-.594,7.731,7.731,0,0,1-1.851-.6,2.633,2.633,0,0,1-1.013-.83,1.986,1.986,0,0,1-.328-1.146,2.33,2.33,0,0,1,.934-1.868,3.647,3.647,0,0,1,2.386-.764,3.753,3.753,0,0,1,2.478.789,2.5,2.5,0,0,1,.95,2.017H44.559a1.386,1.386,0,0,0-.535-1.087,2.006,2.006,0,0,0-1.349-.457,2.1,2.1,0,0,0-1.312.365,1.15,1.15,0,0,0-.473.955.932.932,0,0,0,.44.838,5.413,5.413,0,0,0,1.59.54,8.283,8.283,0,0,1,1.864.614,2.718,2.718,0,0,1,1.058.859,2.112,2.112,0,0,1,.344,1.224,2.3,2.3,0,0,1-.963,1.93,4.039,4.039,0,0,1-2.5.726,4.523,4.523,0,0,1-1.909-.382,3.105,3.105,0,0,1-1.3-1.067,2.571,2.571,0,0,1-.469-1.482h1.536A1.59,1.59,0,0,0,41.2-1.54a2.4,2.4,0,0,0,1.523.452,2.476,2.476,0,0,0,1.4-.353A1.084,1.084,0,0,0,44.65-2.382ZM53.731,0a3.226,3.226,0,0,1-.216-.946A3.426,3.426,0,0,1,50.958.166,3.17,3.17,0,0,1,48.78-.585a2.43,2.43,0,0,1-.851-1.905A2.539,2.539,0,0,1,49-4.669a5.029,5.029,0,0,1,3-.776H53.49v-.706a1.725,1.725,0,0,0-.481-1.282,1.935,1.935,0,0,0-1.419-.477,2.239,2.239,0,0,0-1.378.415,1.223,1.223,0,0,0-.556,1H48.111a2.119,2.119,0,0,1,.477-1.3,3.258,3.258,0,0,1,1.295-.992,4.356,4.356,0,0,1,1.8-.365,3.551,3.551,0,0,1,2.432.776,2.8,2.8,0,0,1,.913,2.137V-2.1a5.054,5.054,0,0,0,.315,1.967V0ZM51.183-1.17a2.7,2.7,0,0,0,1.37-.374,2.259,2.259,0,0,0,.938-.971V-4.358h-1.2q-2.822,0-2.822,1.652a1.4,1.4,0,0,0,.481,1.129A1.85,1.85,0,0,0,51.183-1.17Zm5.877-3.4a5.261,5.261,0,0,1,.979-3.324A3.1,3.1,0,0,1,60.6-9.147a3.115,3.115,0,0,1,2.5,1.079V-12.75h1.536V0H63.227l-.075-.963A3.127,3.127,0,0,1,60.587.166a3.068,3.068,0,0,1-2.544-1.278,5.321,5.321,0,0,1-.984-3.337Zm1.536.174A3.984,3.984,0,0,0,59.226-2a2.039,2.039,0,0,0,1.743.863A2.24,2.24,0,0,0,63.1-2.449V-6.574a2.257,2.257,0,0,0-2.117-1.27,2.049,2.049,0,0,0-1.76.872A4.386,4.386,0,0,0,58.6-4.391Zm8.019-.183a5.3,5.3,0,0,1,.519-2.374,3.87,3.87,0,0,1,1.444-1.627,3.932,3.932,0,0,1,2.113-.573,3.788,3.788,0,0,1,2.968,1.27A4.886,4.886,0,0,1,74.79-4.5v.108a5.351,5.351,0,0,1-.5,2.353A3.813,3.813,0,0,1,72.852-.415a3.977,3.977,0,0,1-2.146.581A3.778,3.778,0,0,1,67.747-1.1a4.861,4.861,0,0,1-1.133-3.362Zm1.544.183a3.842,3.842,0,0,0,.693,2.4,2.218,2.218,0,0,0,1.855.9A2.2,2.2,0,0,0,72.565-2a4.2,4.2,0,0,0,.689-2.569,3.836,3.836,0,0,0-.7-2.395,2.23,2.23,0,0,0-1.864-.917,2.205,2.205,0,0,0-1.834.9A4.17,4.17,0,0,0,68.158-4.391Z" transform="translate(1033 2832)" fill="#12263f"/>
    <path id="Trazado_602377" data-name="Trazado 602377" d="M8.583-5.155a7.023,7.023,0,0,1-.921,4.009A3.277,3.277,0,0,1,4.781.166,3.3,3.3,0,0,1,1.917-1.116,6.666,6.666,0,0,1,.955-4.947V-7a6.867,6.867,0,0,1,.921-3.959,3.3,3.3,0,0,1,2.889-1.295A3.332,3.332,0,0,1,7.637-11a6.627,6.627,0,0,1,.946,3.856Zm-1.536-2.1A5.627,5.627,0,0,0,6.5-10.1a1.886,1.886,0,0,0-1.735-.892,1.861,1.861,0,0,0-1.718.888A5.494,5.494,0,0,0,2.49-7.371v2.457a5.717,5.717,0,0,0,.569,2.893,1.882,1.882,0,0,0,1.722.934,1.856,1.856,0,0,0,1.689-.88A5.51,5.51,0,0,0,7.047-4.74Z" transform="translate(503 2767)" fill="#12263f"/>
    <path id="Trazado_602378" data-name="Trazado 602378" d="M8.583-5.155a7.023,7.023,0,0,1-.921,4.009A3.277,3.277,0,0,1,4.781.166,3.3,3.3,0,0,1,1.917-1.116,6.666,6.666,0,0,1,.955-4.947V-7a6.867,6.867,0,0,1,.921-3.959,3.3,3.3,0,0,1,2.889-1.295A3.332,3.332,0,0,1,7.637-11a6.627,6.627,0,0,1,.946,3.856Zm-1.536-2.1A5.627,5.627,0,0,0,6.5-10.1a1.886,1.886,0,0,0-1.735-.892,1.861,1.861,0,0,0-1.718.888A5.494,5.494,0,0,0,2.49-7.371v2.457a5.717,5.717,0,0,0,.569,2.893,1.882,1.882,0,0,0,1.722.934,1.856,1.856,0,0,0,1.689-.88A5.51,5.51,0,0,0,7.047-4.74Zm3.37-2.507a2.452,2.452,0,0,1,.693-1.793,2.388,2.388,0,0,1,1.781-.706,2.374,2.374,0,0,1,1.789.71,2.537,2.537,0,0,1,.685,1.839v.589a2.421,2.421,0,0,1-.693,1.789,2.389,2.389,0,0,1-1.764.693,2.442,2.442,0,0,1-1.785-.693,2.472,2.472,0,0,1-.706-1.847Zm1.146.636a1.571,1.571,0,0,0,.365,1.069,1.232,1.232,0,0,0,.979.42,1.208,1.208,0,0,0,.95-.408,1.622,1.622,0,0,0,.361-1.115v-.607a1.61,1.61,0,0,0-.357-1.073,1.2,1.2,0,0,0-.971-.424,1.2,1.2,0,0,0-.971.424,1.661,1.661,0,0,0-.357,1.107ZM16.3-2.963A2.438,2.438,0,0,1,17-4.752a2.4,2.4,0,0,1,1.781-.7,2.417,2.417,0,0,1,1.785.7,2.5,2.5,0,0,1,.7,1.851v.589a2.438,2.438,0,0,1-.693,1.789,2.385,2.385,0,0,1-1.772.7,2.442,2.442,0,0,1-1.785-.693A2.472,2.472,0,0,1,16.3-2.366Zm1.146.644a1.583,1.583,0,0,0,.365,1.077,1.232,1.232,0,0,0,.979.42,1.2,1.2,0,0,0,.955-.412A1.65,1.65,0,0,0,20.1-2.353v-.616a1.578,1.578,0,0,0-.361-1.073,1.216,1.216,0,0,0-.967-.416,1.228,1.228,0,0,0-.959.412,1.6,1.6,0,0,0-.369,1.111ZM13.256-.913l-.872-.548,5.9-9.446.872.548Z" transform="translate(1125 2767)" fill="#12263f"/>
    <path id="Trazado_602379" data-name="Trazado 602379" d="M-87.456,0V-14.219h4.375a6.644,6.644,0,0,1,3.354.845,5.89,5.89,0,0,1,2.31,2.4,7.41,7.41,0,0,1,.83,3.54v.654A7.431,7.431,0,0,1-77.4-3.252,5.84,5.84,0,0,1-79.7-.859,6.694,6.694,0,0,1-83.052,0Zm2.93-11.846v9.492h1.416a3.181,3.181,0,0,0,2.627-1.123,5.075,5.075,0,0,0,.928-3.213v-.752a5.156,5.156,0,0,0-.9-3.286,3.171,3.171,0,0,0-2.627-1.118ZM-71.665,0H-74.5V-10.566h2.832Zm-3-13.3a1.39,1.39,0,0,1,.425-1.045,1.6,1.6,0,0,1,1.157-.41,1.6,1.6,0,0,1,1.152.41A1.382,1.382,0,0,1-71.5-13.3a1.386,1.386,0,0,1-.435,1.055,1.6,1.6,0,0,1-1.147.41,1.6,1.6,0,0,1-1.147-.41A1.386,1.386,0,0,1-74.663-13.3ZM-63.218,0A3.134,3.134,0,0,1-63.5-.947,3.415,3.415,0,0,1-66.167.2,3.752,3.752,0,0,1-68.74-.7a2.89,2.89,0,0,1-1.021-2.266,2.986,2.986,0,0,1,1.245-2.578,6.144,6.144,0,0,1,3.6-.908h1.3v-.605a1.741,1.741,0,0,0-.376-1.172,1.479,1.479,0,0,0-1.187-.439A1.682,1.682,0,0,0-66.3-8.33a1.161,1.161,0,0,0-.405.938h-2.822a2.835,2.835,0,0,1,.566-1.7,3.744,3.744,0,0,1,1.6-1.226,5.837,5.837,0,0,1,2.324-.444,4.611,4.611,0,0,1,3.1.981,3.433,3.433,0,0,1,1.147,2.759v4.58a5.052,5.052,0,0,0,.42,2.275V0Zm-2.334-1.963A2.431,2.431,0,0,0-64.4-2.241a1.828,1.828,0,0,0,.781-.747V-4.8h-1.055q-2.119,0-2.256,1.465l-.01.166a1.13,1.13,0,0,0,.371.869A1.441,1.441,0,0,0-65.552-1.963Zm6.523-3.4a6.193,6.193,0,0,1,1.157-3.916,3.75,3.75,0,0,1,3.12-1.484A3.289,3.289,0,0,1-52.046-9.57l.117-1h2.559V-.352A4.516,4.516,0,0,1-50,2.061a4.045,4.045,0,0,1-1.772,1.563,6.231,6.231,0,0,1-2.676.537A5.794,5.794,0,0,1-56.714,3.7a4.021,4.021,0,0,1-1.67-1.2l1.25-1.719a3.306,3.306,0,0,0,2.559,1.182,2.42,2.42,0,0,0,1.748-.6,2.253,2.253,0,0,0,.625-1.7V-.908A3.264,3.264,0,0,1-54.771.2a3.74,3.74,0,0,1-3.081-1.489,6.191,6.191,0,0,1-1.177-3.95Zm2.822.21A3.856,3.856,0,0,0-55.63-2.9a1.833,1.833,0,0,0,1.582.817A1.96,1.96,0,0,0-52.2-3.048V-7.5a1.955,1.955,0,0,0-1.826-.968,1.844,1.844,0,0,0-1.6.831A4.346,4.346,0,0,0-56.206-5.151ZM-41.265-7.92A7.667,7.667,0,0,0-42.28-8a2.067,2.067,0,0,0-2.1,1.084V0H-47.2V-10.566h2.666l.078,1.26A2.615,2.615,0,0,1-42.1-10.762a2.957,2.957,0,0,1,.879.127ZM-34.077,0a3.134,3.134,0,0,1-.283-.947A3.415,3.415,0,0,1-37.026.2,3.752,3.752,0,0,1-39.6-.7,2.89,2.89,0,0,1-40.62-2.969a2.986,2.986,0,0,1,1.245-2.578,6.144,6.144,0,0,1,3.6-.908h1.3v-.605a1.741,1.741,0,0,0-.376-1.172,1.479,1.479,0,0,0-1.187-.439,1.682,1.682,0,0,0-1.118.342,1.161,1.161,0,0,0-.405.938h-2.822a2.835,2.835,0,0,1,.566-1.7,3.744,3.744,0,0,1,1.6-1.226,5.837,5.837,0,0,1,2.324-.444,4.611,4.611,0,0,1,3.1.981,3.433,3.433,0,0,1,1.147,2.759v4.58a5.052,5.052,0,0,0,.42,2.275V0Zm-2.334-1.963a2.431,2.431,0,0,0,1.152-.278,1.828,1.828,0,0,0,.781-.747V-4.8h-1.055q-2.119,0-2.256,1.465l-.01.166a1.13,1.13,0,0,0,.371.869A1.441,1.441,0,0,0-36.411-1.963Zm9.58-8.6.088,1.182a3.713,3.713,0,0,1,3.037-1.377A2.818,2.818,0,0,1-20.9-9.15a3.628,3.628,0,0,1,3.174-1.611,3.152,3.152,0,0,1,2.559,1,4.6,4.6,0,0,1,.84,3.013V0h-2.832V-6.738a2.012,2.012,0,0,0-.352-1.313,1.558,1.558,0,0,0-1.24-.415,1.761,1.761,0,0,0-1.758,1.211L-20.5,0h-2.822V-6.729a1.988,1.988,0,0,0-.361-1.328,1.573,1.573,0,0,0-1.23-.41,1.829,1.829,0,0,0-1.738,1V0h-2.822V-10.566ZM-6.04,0a3.134,3.134,0,0,1-.283-.947A3.415,3.415,0,0,1-8.989.2a3.752,3.752,0,0,1-2.573-.9,2.89,2.89,0,0,1-1.021-2.266,2.986,2.986,0,0,1,1.245-2.578,6.144,6.144,0,0,1,3.6-.908h1.3v-.605a1.741,1.741,0,0,0-.376-1.172A1.479,1.479,0,0,0-8-8.672a1.682,1.682,0,0,0-1.118.342,1.161,1.161,0,0,0-.405.938h-2.822a2.835,2.835,0,0,1,.566-1.7,3.744,3.744,0,0,1,1.6-1.226,5.837,5.837,0,0,1,2.324-.444,4.611,4.611,0,0,1,3.1.981A3.433,3.433,0,0,1-3.608-7.021v4.58a5.052,5.052,0,0,0,.42,2.275V0ZM-8.374-1.963a2.431,2.431,0,0,0,1.152-.278,1.828,1.828,0,0,0,.781-.747V-4.8H-7.5q-2.119,0-2.256,1.465l-.01.166A1.13,1.13,0,0,0-9.39-2.3,1.441,1.441,0,0,0-8.374-1.963ZM3.1-5.361A6.368,6.368,0,0,1,4.209-9.3a3.6,3.6,0,0,1,3.032-1.465A3.236,3.236,0,0,1,9.79-9.609V-15h2.832V0H10.073L9.937-1.123A3.321,3.321,0,0,1,7.222.2a3.587,3.587,0,0,1-2.993-1.47A6.573,6.573,0,0,1,3.1-5.361Zm2.822.21A4.171,4.171,0,0,0,6.44-2.872a1.686,1.686,0,0,0,1.5.792A1.888,1.888,0,0,0,9.79-3.185V-7.362A1.861,1.861,0,0,0,7.964-8.467Q5.923-8.467,5.923-5.151ZM19.673.2A5.187,5.187,0,0,1,15.889-1.23a5.068,5.068,0,0,1-1.46-3.8V-5.3a6.383,6.383,0,0,1,.615-2.847,4.515,4.515,0,0,1,1.743-1.934,4.893,4.893,0,0,1,2.573-.679,4.385,4.385,0,0,1,3.413,1.367,5.555,5.555,0,0,1,1.245,3.877v1.152H17.29a2.622,2.622,0,0,0,.825,1.66,2.5,2.5,0,0,0,1.743.625,3.046,3.046,0,0,0,2.549-1.182l1.387,1.553a4.237,4.237,0,0,1-1.719,1.4A5.639,5.639,0,0,1,19.673.2Zm-.322-8.682a1.764,1.764,0,0,0-1.362.569,2.946,2.946,0,0,0-.669,1.628h3.926v-.226a2.1,2.1,0,0,0-.508-1.457A1.819,1.819,0,0,0,19.351-8.486ZM33.716-5.01V0h-2.93V-14.219h5.547a6.417,6.417,0,0,1,2.817.586,4.318,4.318,0,0,1,1.87,1.665,4.643,4.643,0,0,1,.654,2.456,4.083,4.083,0,0,1-1.431,3.3,5.959,5.959,0,0,1-3.96,1.206Zm0-2.373h2.617a2.573,2.573,0,0,0,1.772-.547,1.989,1.989,0,0,0,.61-1.562,2.345,2.345,0,0,0-.615-1.689,2.3,2.3,0,0,0-1.7-.664H33.716ZM49.517,0a3.134,3.134,0,0,1-.283-.947A3.415,3.415,0,0,1,46.567.2a3.752,3.752,0,0,1-2.573-.9,2.89,2.89,0,0,1-1.021-2.266,2.986,2.986,0,0,1,1.245-2.578,6.144,6.144,0,0,1,3.6-.908h1.3v-.605a1.741,1.741,0,0,0-.376-1.172,1.479,1.479,0,0,0-1.187-.439,1.682,1.682,0,0,0-1.118.342,1.161,1.161,0,0,0-.405.938H43.208a2.835,2.835,0,0,1,.566-1.7,3.744,3.744,0,0,1,1.6-1.226,5.837,5.837,0,0,1,2.324-.444,4.611,4.611,0,0,1,3.1.981,3.433,3.433,0,0,1,1.147,2.759v4.58a5.052,5.052,0,0,0,.42,2.275V0ZM47.183-1.963a2.431,2.431,0,0,0,1.152-.278,1.828,1.828,0,0,0,.781-.747V-4.8H48.062q-2.119,0-2.256,1.465l-.01.166a1.13,1.13,0,0,0,.371.869A1.441,1.441,0,0,0,47.183-1.963ZM60.054-7.92A7.667,7.667,0,0,0,59.038-8a2.067,2.067,0,0,0-2.1,1.084V0H54.116V-10.566h2.666l.078,1.26a2.615,2.615,0,0,1,2.354-1.455,2.957,2.957,0,0,1,.879.127ZM66.089.2A5.187,5.187,0,0,1,62.3-1.23a5.068,5.068,0,0,1-1.46-3.8V-5.3a6.383,6.383,0,0,1,.615-2.847A4.515,4.515,0,0,1,63.2-10.083a4.893,4.893,0,0,1,2.573-.679,4.385,4.385,0,0,1,3.413,1.367,5.555,5.555,0,0,1,1.245,3.877v1.152H63.706a2.622,2.622,0,0,0,.825,1.66,2.5,2.5,0,0,0,1.743.625,3.046,3.046,0,0,0,2.549-1.182L70.21-1.709a4.237,4.237,0,0,1-1.719,1.4A5.639,5.639,0,0,1,66.089.2Zm-.322-8.682a1.764,1.764,0,0,0-1.362.569,2.946,2.946,0,0,0-.669,1.628h3.926v-.226a2.1,2.1,0,0,0-.508-1.457A1.819,1.819,0,0,0,65.767-8.486Zm9.648-4.678v2.6h1.807V-8.5H75.415v5.273a1.259,1.259,0,0,0,.225.84,1.128,1.128,0,0,0,.859.254,4.5,4.5,0,0,0,.83-.068V-.059A5.81,5.81,0,0,1,75.62.2q-2.969,0-3.027-3V-8.5H71.05v-2.07h1.543v-2.6Zm2.646,7.783a6.266,6.266,0,0,1,.605-2.8,4.432,4.432,0,0,1,1.743-1.9,5.086,5.086,0,0,1,2.642-.674,4.812,4.812,0,0,1,3.491,1.309A5.252,5.252,0,0,1,88.052-5.9l.02.723a5.523,5.523,0,0,1-1.357,3.9A4.718,4.718,0,0,1,83.071.2,4.742,4.742,0,0,1,79.424-1.27a5.62,5.62,0,0,1-1.362-3.984Zm2.822.2a3.95,3.95,0,0,0,.566,2.3,1.868,1.868,0,0,0,1.621.8,1.873,1.873,0,0,0,1.6-.787,4.322,4.322,0,0,0,.576-2.518,3.91,3.91,0,0,0-.576-2.289,1.873,1.873,0,0,0-1.621-.812,1.842,1.842,0,0,0-1.6.807A4.395,4.395,0,0,0,80.884-5.181Z" transform="translate(800 2506)" fill="#2e0877"/>
    <path id="Trazado_601272" data-name="Trazado 601272" d="M7495.767-8939h576.4" transform="translate(-6967.164 11700)" fill="none" stroke="#707070" stroke-width="1"/>
    <path id="Trazado_601273" data-name="Trazado 601273" d="M7495.767-8939h576.4" transform="translate(-6967.164 11671)" fill="none" stroke="#707070" stroke-width="1"/>
    <path id="Trazado_601274" data-name="Trazado 601274" d="M7495.767-8939h576.4" transform="translate(-6967.164 11642)" fill="none" stroke="#707070" stroke-width="1"/>
    <path id="Trazado_601275" data-name="Trazado 601275" d="M7495.767-8939h576.4" transform="translate(-6967.164 11613)" fill="none" stroke="#707070" stroke-width="1"/>
    <path id="Trazado_601276" data-name="Trazado 601276" d="M7495.767-8939h576.4" transform="translate(-6967.164 11584)" fill="none" stroke="#707070" stroke-width="1"/>
    <path id="Trazado_601277" data-name="Trazado 601277" d="M7495.767-8939h576.4" transform="translate(-6967.164 11558)" fill="none" stroke="#707070" stroke-width="1"/>
    <path id="Trazado_601278" data-name="Trazado 601278" d="M7495.767-8939h576.4" transform="translate(-6967.164 11529)" fill="none" stroke="#707070" stroke-width="1"/>
    <path id="Trazado_601279" data-name="Trazado 601279" d="M7495.767-8939h576.4" transform="translate(-6967.164 11500)" fill="none" stroke="#707070" stroke-width="1"/>
    <path id="Trazado_601280" data-name="Trazado 601280" d="M7495.767-8939h576.4" transform="translate(-6967.164 11471)" fill="none" stroke="#707070" stroke-width="1"/>
    <path id="Trazado_602380" data-name="Trazado 602380" d="M0,0H20V196H0Z" transform="translate(555 2565)" fill="#ad84ff"/>
    <path id="Trazado_602381" data-name="Trazado 602381" d="M0,0H20V161H0Z" transform="translate(623 2600)" fill="#ad84ff"/>
    <path id="Trazado_602382" data-name="Trazado 602382" d="M0,0H20V97H0Z" transform="translate(700 2664)" fill="#ad84ff"/>
    <path id="Trazado_602383" data-name="Trazado 602383" d="M0,0H20V72H0Z" transform="translate(771 2689)" fill="#ad84ff"/>
    <path id="Trazado_602384" data-name="Trazado 602384" d="M0,0H20V58H0Z" transform="translate(839 2703)" fill="#ad84ff"/>
    <path id="Trazado_602385" data-name="Trazado 602385" d="M0,0H20V56H0Z" transform="translate(915 2705)" fill="#ad84ff"/>
    <path id="Trazado_602386" data-name="Trazado 602386" d="M0,0H20V29H0Z" transform="translate(988 2732)" fill="#ad84ff"/>
    <path id="Trazado_602387" data-name="Trazado 602387" d="M0,0H20V10H0Z" transform="translate(1061 2751)" fill="#ad84ff"/>
    <path id="Trazado_602388" data-name="Trazado 602388" d="M7,0A7,7,0,1,1,0,7,7,7,0,0,1,7,0Z" transform="translate(558 2682)" fill="#25ffff"/>
    <path id="Trazado_602389" data-name="Trazado 602389" d="M7,0A7,7,0,1,1,0,7,7,7,0,0,1,7,0Z" transform="translate(626 2624)" fill="#25ffff"/>
    <path id="Trazado_602390" data-name="Trazado 602390" d="M7,0A7,7,0,1,1,0,7,7,7,0,0,1,7,0Z" transform="translate(703 2597)" fill="#25ffff"/>
    <path id="Trazado_602391" data-name="Trazado 602391" d="M7,0A7,7,0,1,1,0,7,7,7,0,0,1,7,0Z" transform="translate(776 2573)" fill="#25ffff"/>
    <path id="Trazado_602392" data-name="Trazado 602392" d="M7,0A7,7,0,1,1,0,7,7,7,0,0,1,7,0Z" transform="translate(842 2550)" fill="#25ffff"/>
    <path id="Trazado_602393" data-name="Trazado 602393" d="M7,0A7,7,0,1,1,0,7,7,7,0,0,1,7,0Z" transform="translate(1064 2525)" fill="#25ffff"/>
    <path id="Trazado_602394" data-name="Trazado 602394" d="M7,0A7,7,0,1,1,0,7,7,7,0,0,1,7,0Z" transform="translate(991 2525)" fill="#25ffff"/>
    <path id="Trazado_602395" data-name="Trazado 602395" d="M7,0A7,7,0,1,1,0,7,7,7,0,0,1,7,0Z" transform="translate(918 2535)" fill="#25ffff"/>
    <path id="Trazado_601281" data-name="Trazado 601281" d="M8044-9168h-71l-75.292,8.663-76.2,16.276-66.217,21.456-72.272,25.578-77.906,26.931-67.808,59.15" transform="translate(-6973 11700)" fill="none" stroke="#49f7f7" stroke-width="3"/>
    <path id="Trazado_602396" data-name="Trazado 602396" d="M0,0H51V15H0Z" transform="translate(298 2791)" fill="#ad84ff"/>
    <path id="Trazado_602397" data-name="Trazado 602397" d="M0,0H51V4H0Z" transform="translate(298 2824)" fill="#25ffff"/>
    <path id="Trazado_602398" data-name="Trazado 602398" d="M7,0A7,7,0,1,1,0,7,7,7,0,0,1,7,0Z" transform="translate(317 2819)" fill="#25ffff"/>
  </g>
</svg>
