<svg xmlns="http://www.w3.org/2000/svg" xmlns:xlink="http://www.w3.org/1999/xlink" width="85" height="85" viewBox="0 0 85 85">
  <defs>
    <clipPath id="clip-path">
      <rect id="Rectángulo_45655" data-name="Rectángulo 45655" width="54" height="54" transform="translate(511 1692)" fill="#fff"/>
    </clipPath>
  </defs>
  <g id="Grupo_159308" data-name="Grupo 159308" transform="translate(-495 -1676)">
    <circle id="Elipse_4761" data-name="Elipse 4761" cx="42.5" cy="42.5" r="42.5" transform="translate(495 1676)" fill="#cdfcfc"/>
    <g id="Enmascarar_grupo_62" data-name="Enmascarar grupo 62" clip-path="url(#clip-path)">
      <g id="papel" transform="translate(511 1692)">
        <path id="Trazado_601240" data-name="Trazado 601240" d="M53.8,41.659a.79.79,0,0,0,.116-.7l-.939-2.979a.827.827,0,0,0,.939-1.027l-.939-2.979a.827.827,0,0,0,.939-1.027L43.733.553A.79.79,0,0,0,42.98,0H11.019a.79.79,0,0,0-.753.553L9,4.584a.79.79,0,0,0,1.507.474L11.6,1.58H42.4l9.691,30.81H1.908L9.243,9.07A.79.79,0,0,0,7.736,8.6L.078,32.943a.833.833,0,0,0,.939,1.027L.078,36.948a.833.833,0,0,0,.939,1.027L.078,40.955a.833.833,0,0,0,.939,1.027L.078,44.961a.833.833,0,0,0,.939,1.027L.078,48.967a.833.833,0,0,0,.939,1.027L.078,52.973A.8.8,0,0,0,.832,54H53.167a.8.8,0,0,0,.753-1.027l-.939-2.979a.827.827,0,0,0,.939-1.027l-.939-2.979a.827.827,0,0,0,.939-1.027l-.939-2.979a.887.887,0,0,0,.822-.323Zm-2.478-7.69L52.09,36.4H1.909l.764-2.427Zm0,4.006L52.09,40.4H1.909l.764-2.427Zm.764,14.445H1.909l.764-2.427H51.326Zm0-8.012H46.731a.79.79,0,0,0,0,1.58h4.594l.764,2.427H1.909l.764-2.427H42.648a.79.79,0,0,0,0-1.58H1.909l.764-2.427H51.326Z"/>
        <path id="Trazado_601241" data-name="Trazado 601241" d="M37.383,7.726a.79.79,0,0,0,0-1.58H16.616a.79.79,0,0,0,0,1.58Z"/>
        <path id="Trazado_601242" data-name="Trazado 601242" d="M14.773,11.932a.79.79,0,0,0,.79.79H38.436a.79.79,0,0,0,0-1.58H15.563A.79.79,0,0,0,14.773,11.932Z"/>
        <path id="Trazado_601243" data-name="Trazado 601243" d="M13.509,16.927a.79.79,0,0,0,.79.79H39.7a.79.79,0,0,0,0-1.58H14.3A.79.79,0,0,0,13.509,16.927Z"/>
        <path id="Trazado_601244" data-name="Trazado 601244" d="M12.141,21.923a.79.79,0,0,0,.79.79H41.069a.79.79,0,0,0,0-1.58H12.93a.79.79,0,0,0-.79.79Z"/>
        <path id="Trazado_601245" data-name="Trazado 601245" d="M10.561,27.034a.79.79,0,0,0,.79.79h31.3a.79.79,0,0,0,0-1.58h-31.3a.79.79,0,0,0-.79.79Z"/>
      </g>
    </g>
  </g>
</svg>
