<svg xmlns="http://www.w3.org/2000/svg" width="64" height="64" viewBox="0 0 64 64">
  <g id="Grupo_159080" data-name="Grupo 159080" transform="translate(-285 -672)">
    <circle id="Elipse_4750" data-name="Elipse 4750" cx="32" cy="32" r="32" transform="translate(285 672)" fill="#cdfcfc"/>
    <g id="proteccion-de-datos" transform="translate(296.46 683.47)">
      <path id="Trazado_601196" data-name="Trazado 601196" d="M13.521,7.711H31.474a.611.611,0,0,0,0-1.221H13.521a.611.611,0,0,0,0,1.221Z" transform="translate(-4.427 -2.32)"/>
      <path id="Trazado_601197" data-name="Trazado 601197" d="M13.521,12.941h7.5a.611.611,0,1,0,0-1.221h-7.5a.611.611,0,0,0,0,1.221Z" transform="translate(-4.427 -4.357)"/>
      <path id="Trazado_601198" data-name="Trazado 601198" d="M17.934,25.081a.612.612,0,0,0-.611-.611H10.661a.611.611,0,1,0,0,1.221h6.662A.612.612,0,0,0,17.934,25.081Z" transform="translate(-3.313 -9.321)"/>
      <path id="Trazado_601199" data-name="Trazado 601199" d="M10.661,28.06a.611.611,0,0,0,0,1.221h3.658a.611.611,0,0,0,0-1.221Z" transform="translate(-3.313 -10.719)"/>
      <path id="Trazado_601200" data-name="Trazado 601200" d="M39.352,35.185a.612.612,0,0,0,.611-.611V28.993A1.771,1.771,0,0,0,38.2,27.222h-.256V24.688a5.337,5.337,0,0,0-5.331-5.331,5.34,5.34,0,0,0-5.331,5.331v2.534h-.256a1.772,1.772,0,0,0-1.771,1.771V30.91H2.853l2.5-17.99a.808.808,0,0,1,.794-.69H32.891a.8.8,0,0,1,.794.91l-.653,4.733a.611.611,0,1,0,1.209.171l.653-4.733a2.043,2.043,0,0,0-.476-1.606,2,2,0,0,0-1.441-.684V8.554a1.634,1.634,0,0,0-1.63-1.63h-.818V2.979A2.452,2.452,0,0,0,28.079.53h-20A2.452,2.452,0,0,0,5.631,2.979v.8H3.17a1.634,1.634,0,0,0-1.63,1.63V31.515a.55.55,0,0,0,.018.1.524.524,0,0,0,.018.1.943.943,0,0,0,.073.134.324.324,0,0,0,.037.061c.006.006.012.006.012.012a.657.657,0,0,0,.147.11.429.429,0,0,0,.055.037.649.649,0,0,0,.244.055H25.252v6.29a1.772,1.772,0,0,0,1.771,1.771H38.2a1.771,1.771,0,0,0,1.765-1.771V37.3a.611.611,0,1,0-1.221,0v1.118a.542.542,0,0,1-.543.55H27.023a.547.547,0,0,1-.55-.55V28.993a.547.547,0,0,1,.55-.55H38.2a.538.538,0,0,1,.543.55v5.581a.609.609,0,0,0,.611.611ZM31.334,8.139a.409.409,0,0,1,.409.409V11H30.51V8.133h.824ZM6.847,2.979A1.227,1.227,0,0,1,8.074,1.751H28.055a1.227,1.227,0,0,1,1.227,1.227v8.03H6.847ZM3.17,5H5.625v6.082a2.031,2.031,0,0,0-1.49,1.667L2.761,22.679V5.409A.409.409,0,0,1,3.17,5ZM28.5,24.688a4.115,4.115,0,0,1,4.11-4.11,4.118,4.118,0,0,1,4.11,4.11v2.534H35.566V24.688a2.913,2.913,0,0,0-.861-2.082,2.958,2.958,0,0,0-5.05,2.088v2.534H28.5Zm5.844,2.534H30.876V24.688a1.736,1.736,0,0,1,2.968-1.221,1.718,1.718,0,0,1,.507,1.221v2.534Z"/>
      <path id="Trazado_601201" data-name="Trazado 601201" d="M51.092,56.548a.612.612,0,0,0,.611-.611v-1.63a2.085,2.085,0,1,0-1.215,0v1.63A.6.6,0,0,0,51.092,56.548Zm-.861-4.22a.864.864,0,1,1,.861.861A.865.865,0,0,1,50.231,52.328Z" transform="translate(-18.482 -19.354)"/>
    </g>
  </g>
</svg>
