<svg xmlns="http://www.w3.org/2000/svg" xmlns:xlink="http://www.w3.org/1999/xlink" width="85" height="85" viewBox="0 0 85 85">
  <defs>
    <clipPath id="clip-path">
      <rect id="Rectángulo_45653" data-name="Rectángulo 45653" width="54" height="54" transform="translate(1036 1336)" fill="#fff"/>
    </clipPath>
  </defs>
  <g id="Grupo_159310" data-name="Grupo 159310" transform="translate(-1020 -1320)">
    <circle id="Elipse_4760" data-name="Elipse 4760" cx="42.5" cy="42.5" r="42.5" transform="translate(1020 1320)" fill="#cdfcfc"/>
    <g id="Enmascarar_grupo_61" data-name="Enmascarar grupo 61" clip-path="url(#clip-path)">
      <g id="cita_2_" data-name="cita(2)" transform="translate(1036 1336)">
        <g id="Grupo_159124" data-name="Grupo 159124">
          <g id="Grupo_159123" data-name="Grupo 159123">
            <path id="Trazado_601229" data-name="Trazado 601229" d="M48.727,4.641H43.7V3.164a3.164,3.164,0,0,0-6.328,0V4.641H19.652V3.164a3.164,3.164,0,0,0-6.328,0V4.68a1.052,1.052,0,0,0-.281-.039h-4.2A5.279,5.279,0,0,0,3.567,9.914V27.879a1.055,1.055,0,0,0,2.109,0V15.5H43.7a1.055,1.055,0,0,0,0-2.109H5.677V9.914A3.168,3.168,0,0,1,8.841,6.75h4.2a1.057,1.057,0,0,0,.281-.039V8.068a3.164,3.164,0,0,0,6.328,0V6.75H37.371V8.068a3.164,3.164,0,0,0,6.328,0V6.75h5.027a3.168,3.168,0,0,1,3.164,3.164V49.992a1.9,1.9,0,0,1-3.8,0V47.263a1.055,1.055,0,0,0-1.055-1.055H34.77a1.055,1.055,0,0,0,0,2.109H45.983v1.674a3.984,3.984,0,0,0,.479,1.9H4.008a1.9,1.9,0,0,1-1.9-1.9V48.318H25.716a1.055,1.055,0,1,0,0-2.109H15.178a8.648,8.648,0,1,0-11.27,0H1.055A1.055,1.055,0,0,0,0,47.263v2.729A4.012,4.012,0,0,0,4.008,54H49.992A4.013,4.013,0,0,0,54,49.992V9.914A5.279,5.279,0,0,0,48.727,4.641ZM17.543,8.068a1.055,1.055,0,0,1-2.109,0v-4.9a1.055,1.055,0,0,1,2.109,0Zm24.047,0a1.055,1.055,0,0,1-2.109,0v-4.9a1.055,1.055,0,0,1,2.109,0ZM3,39.656A6.539,6.539,0,1,1,9.543,46.2,6.546,6.546,0,0,1,3,39.656Z"/>
          </g>
        </g>
        <g id="Grupo_159126" data-name="Grupo 159126">
          <g id="Grupo_159125" data-name="Grupo 159125">
            <path id="Trazado_601230" data-name="Trazado 601230" d="M49.392,13.7a1.054,1.054,0,1,0,.309.746A1.062,1.062,0,0,0,49.392,13.7Z"/>
          </g>
        </g>
        <g id="Grupo_159128" data-name="Grupo 159128">
          <g id="Grupo_159127" data-name="Grupo 159127">
            <path id="Trazado_601231" data-name="Trazado 601231" d="M31.5,46.517a1.055,1.055,0,1,0,.309.746A1.061,1.061,0,0,0,31.5,46.517Z"/>
          </g>
        </g>
        <g id="Grupo_159130" data-name="Grupo 159130">
          <g id="Grupo_159129" data-name="Grupo 159129">
            <path id="Trazado_601232" data-name="Trazado 601232" d="M23.862,32.063A4.008,4.008,0,1,0,27.87,36.07,4.012,4.012,0,0,0,23.862,32.063Zm0,5.906a1.9,1.9,0,1,1,1.9-1.9A1.9,1.9,0,0,1,23.862,37.969Z"/>
          </g>
        </g>
        <g id="Grupo_159132" data-name="Grupo 159132">
          <g id="Grupo_159131" data-name="Grupo 159131">
            <path id="Trazado_601233" data-name="Trazado 601233" d="M33.705,32.063a4.008,4.008,0,1,0,4.008,4.008A4.012,4.012,0,0,0,33.705,32.063Zm0,5.906a1.9,1.9,0,1,1,1.9-1.9A1.9,1.9,0,0,1,33.705,37.969Z"/>
          </g>
        </g>
        <g id="Grupo_159134" data-name="Grupo 159134">
          <g id="Grupo_159133" data-name="Grupo 159133">
            <path id="Trazado_601234" data-name="Trazado 601234" d="M43.549,32.063a4.008,4.008,0,1,0,4.008,4.008A4.012,4.012,0,0,0,43.549,32.063Zm0,5.906a1.9,1.9,0,1,1,1.9-1.9A1.9,1.9,0,0,1,43.549,37.969Z"/>
          </g>
        </g>
        <g id="Grupo_159136" data-name="Grupo 159136">
          <g id="Grupo_159135" data-name="Grupo 159135">
            <path id="Trazado_601235" data-name="Trazado 601235" d="M14.018,21.094A4.008,4.008,0,1,0,18.026,25.1,4.012,4.012,0,0,0,14.018,21.094Zm0,5.906a1.9,1.9,0,1,1,1.9-1.9A1.9,1.9,0,0,1,14.018,27Z"/>
          </g>
        </g>
        <g id="Grupo_159138" data-name="Grupo 159138">
          <g id="Grupo_159137" data-name="Grupo 159137">
            <path id="Trazado_601236" data-name="Trazado 601236" d="M33.705,21.094A4.008,4.008,0,1,0,37.713,25.1,4.012,4.012,0,0,0,33.705,21.094Zm0,5.906a1.9,1.9,0,1,1,1.9-1.9A1.9,1.9,0,0,1,33.705,27Z"/>
          </g>
        </g>
        <g id="Grupo_159140" data-name="Grupo 159140">
          <g id="Grupo_159139" data-name="Grupo 159139">
            <path id="Trazado_601237" data-name="Trazado 601237" d="M43.549,21.094A4.008,4.008,0,1,0,47.557,25.1,4.012,4.012,0,0,0,43.549,21.094Zm0,5.906a1.9,1.9,0,1,1,1.9-1.9A1.9,1.9,0,0,1,43.549,27Z"/>
          </g>
        </g>
        <g id="Grupo_159142" data-name="Grupo 159142">
          <g id="Grupo_159141" data-name="Grupo 159141">
            <path id="Trazado_601238" data-name="Trazado 601238" d="M23.862,21.094A4.008,4.008,0,1,0,27.87,25.1,4.012,4.012,0,0,0,23.862,21.094Zm0,5.906a1.9,1.9,0,1,1,1.9-1.9A1.9,1.9,0,0,1,23.862,27Z"/>
          </g>
        </g>
        <g id="Grupo_159144" data-name="Grupo 159144">
          <g id="Grupo_159143" data-name="Grupo 159143">
            <path id="Trazado_601239" data-name="Trazado 601239" d="M13.3,37.086a1.055,1.055,0,0,0-1.492,0L8.374,40.521,7.2,39.347a1.055,1.055,0,0,0-1.492,1.492l1.92,1.919a1.055,1.055,0,0,0,1.492,0L13.3,38.577A1.055,1.055,0,0,0,13.3,37.086Z"/>
          </g>
        </g>
      </g>
    </g>
  </g>
</svg>
