<svg xmlns="http://www.w3.org/2000/svg" width="85" height="85" viewBox="0 0 85 85">
  <g id="Grupo_159309" data-name="Grupo 159309" transform="translate(-495 -1320)">
    <circle id="Elipse_4759" data-name="Elipse 4759" cx="42.5" cy="42.5" r="42.5" transform="translate(495 1320)" fill="#cdfcfc"/>
    <g id="auditor" transform="translate(510 1335)">
      <path id="Trazado_601225" data-name="Trazado 601225" d="M41.546,9.032a12.554,12.554,0,0,0-5.419,1.236,15.459,15.459,0,0,0-3.586-5.721A15.193,15.193,0,0,0,21.676,0,15.444,15.444,0,0,0,6.322,15.5v2.555c0,2.209,0,3.669.945,5.577a3.884,3.884,0,0,0,2.48,2.07,11.983,11.983,0,0,0,5.607,9.477V36.2a4.922,4.922,0,0,0-3.2,1.721h-.408A11.761,11.761,0,0,0,0,49.675v2.71A1.806,1.806,0,0,0,1.806,54.19h39.74a3.613,3.613,0,0,0,3.613-3.613V37.933a1.8,1.8,0,0,0-.9-1.555V34.021a12.644,12.644,0,0,0-2.71-24.989ZM21.676,1.806a13.4,13.4,0,0,1,9.582,4.012,13.631,13.631,0,0,1,3.267,5.349,12.707,12.707,0,0,0-1.948,1.608A9.272,9.272,0,0,0,26.9,8.219a2.6,2.6,0,0,0-2.112.32c-3.161,2.121-9.244,3.313-12.365,3.45a2.619,2.619,0,0,0-2.485,2.629v1.039c-.055-.023-.111-.046-.17-.067a2.608,2.608,0,0,0-1.637-.022V15.5a13.638,13.638,0,0,1,13.548-13.7ZM11.549,25.584a1.788,1.788,0,0,0-1.283-1.6A2.123,2.123,0,0,1,8.885,22.83c-.756-1.526-.756-2.611-.756-4.772a.8.8,0,0,1,.322-.679.768.768,0,0,1,.711-.09c.632.226.773,1.361.773,1.74a.9.9,0,0,0,1.806,0h0V14.618A.813.813,0,0,1,12.5,13.8c3.419-.151,9.8-1.415,13.282-3.75a.807.807,0,0,1,.658-.076,7.169,7.169,0,0,1,4.817,4.38,12.586,12.586,0,0,0-.181,14.417,10.148,10.148,0,0,1-9.4,6.444,10.032,10.032,0,0,1-7.169-3,10.332,10.332,0,0,1-2.958-6.628ZM21.676,41.53A4,4,0,0,1,24.5,42.838l-1.4,1.4H20.244L18.85,42.843a4.083,4.083,0,0,1,2.826-1.313Zm5.946-3.563A3.2,3.2,0,0,1,29.79,39.05C29.657,41,27.819,42.338,26.7,42.975c-.055-.123-.126-.226-.187-.34a.805.805,0,0,0-.059-.106A5.357,5.357,0,0,0,24.61,40.6a7.077,7.077,0,0,0,3.016-2.635Zm-2.267,6.575a.894.894,0,0,0,.423.5.915.915,0,0,0,.411.1.9.9,0,0,0,.335-.064,10.855,10.855,0,0,0,2.9-1.846c-.481,3.129-1.52,6.739-3.552,8.53l-1.4-6.329Zm-8.533.534a.9.9,0,0,0,.335.064.915.915,0,0,0,.411-.1.894.894,0,0,0,.423-.5l.886.886-1.445,6.487c-2.077-1.5-3.111-5.378-3.568-8.731a10.833,10.833,0,0,0,2.962,1.891Zm3.77.967H22.76l1.407,6.341H19.185Zm10.993-6.322h.025A9.915,9.915,0,0,1,37.933,42v8.573a3.576,3.576,0,0,0,.5,1.806H27.818c3.1-3.575,3.667-10.233,3.77-12.662Zm7.251-3.343a1.8,1.8,0,0,0-.9,1.555v1.841a11.726,11.726,0,0,0-6.322-1.858H31.2A4.922,4.922,0,0,0,28,36.2V35.181a12.023,12.023,0,0,0,4.361-4.843,12.627,12.627,0,0,0,6.477,3.682Zm-17.16.639a11.818,11.818,0,0,0,4.518-.9l0,.712c-.219.461-1.241,2.158-4.516,2.867-3.29-.713-4.305-2.421-4.516-2.864v-.708A11.841,11.841,0,0,0,21.676,37.017Zm-5.949.949A7.077,7.077,0,0,0,18.736,40.6a5.357,5.357,0,0,0-1.847,1.928.806.806,0,0,0-.059.106c-.061.114-.132.217-.187.34-1.119-.637-2.957-1.972-3.091-3.924a3.2,3.2,0,0,1,2.174-1.08ZM1.806,49.675a9.953,9.953,0,0,1,9.934-9.952h.022c.095,2.461.622,9.256,3.542,12.661H1.806Zm41.546.9a1.806,1.806,0,1,1-3.613,0V37.933h3.613Zm-.9-14.451H40.643V34.275c.3.022.6.046.9.046s.6-.024.9-.046Zm-.9-3.613A10.838,10.838,0,1,1,52.384,21.676,10.838,10.838,0,0,1,41.546,32.514Z" transform="translate(0 0)"/>
      <path id="Trazado_601226" data-name="Trazado 601226" d="M45.032,14a.9.9,0,1,0,0,1.806,7.233,7.233,0,1,1-4.013,1.22.9.9,0,1,0-1.006-1.5A9.032,9.032,0,1,0,45.032,14Z" transform="translate(-3.486 -1.356)"/>
      <path id="Trazado_601227" data-name="Trazado 601227" d="M42.9,21.71a.9.9,0,0,0,.638-.264l.9-.9a.9.9,0,1,0-1.277-1.277l-.9.9A.9.9,0,0,0,42.9,21.71Z" transform="translate(-4.067 -1.84)"/>
      <path id="Trazado_601228" data-name="Trazado 601228" d="M43.265,26.961a.9.9,0,0,0,1.277,0l5.419-5.419a.9.9,0,1,0-1.277-1.277l-5.419,5.419A.9.9,0,0,0,43.265,26.961Z" transform="translate(-4.164 -1.937)"/>
    </g>
  </g>
</svg>
